<?xml version="1.0" standalone="no"?>
<!DOCTYPE svg PUBLIC "-//W3C//DTD SVG 1.1//EN" "http://www.w3.org/Graphics/SVG/1.1/DTD/svg11.dtd" >
<svg xmlns="http://www.w3.org/2000/svg" xmlns:xlink="http://www.w3.org/1999/xlink" version="1.1">
<metadata>
Created by FontForge 20201107 at Mon Aug  5 13:02:27 2024
 By 
copyright missing
</metadata>
<defs>
<font id="MADEOkineSansPERSONALUSE-Thin" horiz-adv-x="1329" >
  <font-face 
    font-family="MADE Okine Sans PERSONAL USE Thin"
    font-weight="100"
    font-stretch="normal"
    units-per-em="2048"
    panose-1="0 0 0 0 0 0 0 0 0 0"
    ascent="1638"
    descent="-410"
    x-height="1036"
    cap-height="1434"
    bbox="-86 -553 2357 1925"
    underline-thickness="102"
    underline-position="-255"
    unicode-range="U+0020-E000"
  />
<missing-glyph horiz-adv-x="1239" 
d="M1016 1925v-2478h-785v2478h785zM414 -383h411v82h-252l172 117h80v82h-411v-82h174l-174 -117v-82zM414 -45h411v281h-411v-281zM414 383h411v281h-247v-140h84v58h81v-117h-247v199h-82v-281zM414 719h411v248h-82v-164h-329v-84zM414 860h248v172h163v82h-411v-82h164
v-90h-164v-82zM414 1182h411v84h-163v174h-248v-258zM414 1503h411v82h-163v92h163v82h-409v-82h162v-92h-164v-82zM496 37v117h247v-117h-247zM496 1266v90h82v-90h-82z" />
    <glyph glyph-name="f_f.liga" unicode="ff" horiz-adv-x="1536" 
d="M311 0v965h-219v73h219v160q0 66 13.5 122t43 103t81.5 74t122 27q113 0 205 -82l-55 -53q-68 61 -150 61q-53 0 -91 -21t-58.5 -58t-29.5 -79.5t-9 -93.5v-160h616v160q0 66 14 122t43 103t81.5 74t122.5 27q112 0 204 -82l-55 -53q-68 61 -149 61q-70 0 -113.5 -38
t-58.5 -91t-15 -123v-160h340v-73h-340v-965h-74v965h-616v-965h-72z" />
    <glyph glyph-name="f_f_i.liga" unicode="ffi" horiz-adv-x="1923" 
d="M311 0v965h-219v73h219v160q0 66 13.5 122t43 103t81.5 74t122 27q113 0 205 -82l-55 -53q-68 61 -150 61q-53 0 -91 -21t-57.5 -58t-28.5 -79.5t-9 -93.5v-160h614v160q0 66 14 122t43 103t81.5 74t122.5 27q112 0 204 -82l-55 -53q-68 61 -149 61q-70 0 -113.5 -38
t-58.5 -91t-15 -123v-160h688v-1038h-73v965h-615v-965h-74v965h-614v-965h-74zM1669 1341q0 23 16 39.5t39 16.5t39.5 -16.5t16.5 -39.5t-16.5 -40t-39.5 -17t-39 17t-16 40z" />
    <glyph glyph-name="f_i.liga" unicode="fi" horiz-adv-x="1234" 
d="M311 0v965h-219v73h219v160q0 66 14 122.5t43 103t81 73.5t122 27q117 0 205 -82l-53 -53q-68 61 -152 61q-53 0 -91 -21t-57.5 -58t-28.5 -79.5t-9 -93.5v-160h688v-1038h-74v965h-614v-965h-74zM981 1341q0 23 16 39.5t39 16.5t39.5 -16.5t16.5 -39.5t-16.5 -40
t-39.5 -17t-39 17t-16 40z" />
    <glyph glyph-name="f_l.liga" unicode="fl" horiz-adv-x="1214" 
d="M311 0v965h-219v73h219v86q0 171 98 285.5t271 114.5q169 0 280 -115t111 -293v-1116h-72v1116q0 82 -28 148t-74 105.5t-101.5 60t-115.5 20.5q-141 0 -219 -93t-78 -233v-86h342v-73h-342v-965h-72z" />
    <glyph glyph-name="f_t.liga" unicode="ft" horiz-adv-x="1566" 
d="M1260 -16q-127 0 -194 79t-67 209v693h-614v-965h-74v965h-219v73h219v160q0 66 14 122.5t43 103t81 73.5t122 27q117 0 205 -82l-53 -53q-68 61 -152 61q-53 0 -91 -21t-57.5 -58t-28.5 -79.5t-9 -93.5v-160h614v232h74v-232h340v-73h-340v-693q0 -99 47.5 -158
t139.5 -59q78 0 151 62l53 -51q-88 -82 -204 -82z" />
    <glyph glyph-name=".notdef" horiz-adv-x="1239" 
d="M1016 1925v-2478h-785v2478h785zM414 -383h411v82h-252l172 117h80v82h-411v-82h174l-174 -117v-82zM414 -45h411v281h-411v-281zM414 383h411v281h-247v-140h84v58h81v-117h-247v199h-82v-281zM414 719h411v248h-82v-164h-329v-84zM414 860h248v172h163v82h-411v-82h164
v-90h-164v-82zM414 1182h411v84h-163v174h-248v-258zM414 1503h411v82h-163v92h163v82h-409v-82h162v-92h-164v-82zM496 37v117h247v-117h-247zM496 1266v90h82v-90h-82z" />
    <glyph glyph-name=".null" horiz-adv-x="0" 
 />
    <glyph glyph-name="nonmarkingreturn" horiz-adv-x="682" 
 />
    <glyph glyph-name="space" unicode=" " horiz-adv-x="573" 
 />
    <glyph glyph-name="space" unicode="&#xa0;" horiz-adv-x="573" 
 />
    <glyph glyph-name="exclam" unicode="!" horiz-adv-x="591" 
d="M260 408v1026h72v-1026h-72zM225 47q0 29 20.5 49.5t49.5 20.5q31 0 51.5 -20.5t20.5 -49.5q0 -30 -21 -51t-51 -21q-29 0 -49.5 21.5t-20.5 50.5z" />
    <glyph glyph-name="quotedbl" unicode="&#x22;" horiz-adv-x="702" 
d="M465 946v488h74v-488h-74zM164 946v488h74v-488h-74z" />
    <glyph glyph-name="numbersign" unicode="#" horiz-adv-x="1423" 
d="M322 96l100 400h-258v73h274l74 295h-274v74h292l101 399h74l-99 -399h322l98 399h76l-101 -399h259v-74h-275l-74 -295h275v-73h-293l-98 -400h-76l98 400h-321l-99 -400h-75zM514 569h322l73 295h-321z" />
    <glyph glyph-name="dollar" unicode="$" horiz-adv-x="1058" 
d="M494 -23q-72 5 -132.5 29t-102 59t-72 79t-45.5 88.5t-19 89.5l72 6q5 -49 27 -96.5t61 -89.5t103 -67.5t144 -25.5q49 0 94 9.5t89.5 32.5t77.5 58.5t53 91.5t20 126q0 56 -18 103t-41 76.5t-71.5 61.5t-80.5 48t-99 46q-7 3 -11 5q-144 65 -197 100q-135 91 -157 236
q-5 32 -5 67q0 137 87 235.5t223 110.5v230h71v-230q68 -7 123.5 -36.5t90.5 -71t56 -86.5t27 -91l-74 -10q-11 86 -78.5 154.5t-185.5 68.5q-87 0 -149.5 -42t-89.5 -102.5t-27 -129.5q0 -56 16.5 -102t40 -76t67.5 -60t79 -47.5t94 -44.5q12 -5 18 -8q139 -64 187 -95
q143 -91 169 -233q7 -36 7 -77q0 -167 -98 -273.5t-273 -116.5v-229h-71v229z" />
    <glyph glyph-name="percent" unicode="%" horiz-adv-x="1763" 
d="M350 0l983 1434h80l-983 -1434h-80zM184 1098q0 126 89.5 215.5t215.5 89.5t216 -89.5t90 -215.5t-90 -214.5t-216 -88.5t-215.5 88.5t-89.5 214.5zM258 1098q0 -95 68 -163.5t163 -68.5q96 0 164 68t68 164q0 97 -67.5 165t-164.5 68q-95 0 -163 -68t-68 -165zM971 334
q0 126 88.5 215.5t214.5 89.5q127 0 216 -89.5t89 -215.5t-89 -214.5t-216 -88.5q-126 0 -214.5 88.5t-88.5 214.5zM1042 334q0 -95 68.5 -163.5t163.5 -68.5q96 0 164.5 68t68.5 164q0 97 -68 165t-165 68q-96 0 -164 -68.5t-68 -164.5z" />
    <glyph glyph-name="ampersand" unicode="&#x26;" horiz-adv-x="1421" 
d="M565 -25q-184 0 -292.5 99.5t-108.5 251.5q0 37 6.5 72t14.5 63t27 58t32 50t41.5 47.5t44 41.5t51.5 40.5t51 37.5t55 38q-81 84 -130.5 174t-49.5 201q0 121 82 214t219 93q125 0 210 -82t85 -200q0 -54 -18.5 -104.5t-43 -87.5t-70.5 -80t-79.5 -69t-91.5 -67
q1 -1 27 -26t70 -68.5t96.5 -95t116 -114t118.5 -116.5q75 109 168 299l66 -33q-104 -208 -181 -317q33 -33 67.5 -66.5t60 -58t46 -44.5t31.5 -31l12 -11l-55 -49l-207 201q-208 -261 -471 -261zM238 326q0 -121 86.5 -199t240.5 -78q233 0 420 238q-442 433 -444 436
q-8 -5 -23 -16q-44 -31 -67.5 -48t-62.5 -48.5t-60.5 -58.5t-45 -63t-34 -77t-10.5 -86zM381 1149q0 -95 46 -174.5t120 -157.5q45 33 65 47.5t57.5 44t55 47.5t42.5 47t36 53t19.5 55t8.5 63q0 89 -63.5 149.5t-159.5 60.5q-108 0 -167.5 -70t-59.5 -165z" />
    <glyph glyph-name="quotesingle" unicode="'" horiz-adv-x="401" 
d="M164 946v488h74v-488h-74z" />
    <glyph glyph-name="parenleft" unicode="(" horiz-adv-x="800" 
d="M600 -356q-73 89 -135.5 194t-118.5 239t-88.5 299.5t-32.5 340.5t32.5 340.5t88.5 299.5t118.5 239t135.5 194l57 -45q-70 -86 -129.5 -186t-114 -228.5t-85.5 -287t-31 -326.5t31 -326.5t85.5 -286.5t114 -228t129.5 -185z" />
    <glyph glyph-name="parenright" unicode=")" horiz-adv-x="800" 
d="M143 -309q70 85 130 185t114 228t85.5 286.5t31.5 326.5q0 136 -21.5 267t-56 237t-82.5 206t-97 175t-104 143l58 45q73 -89 135.5 -194t118.5 -239t88 -299.5t32 -340.5t-32 -340.5t-88 -299.5t-118.5 -239t-135.5 -194z" />
    <glyph glyph-name="asterisk" unicode="*" horiz-adv-x="825" 
d="M266 901l-59 43l164 197l-248 63l22 70l238 -94l-16 254h71l-16 -254l237 94l23 -70l-248 -63l164 -197l-59 -43l-136 217z" />
    <glyph glyph-name="plus" unicode="+" horiz-adv-x="1175" 
d="M551 207v366h-367v72h367v367h74v-367h366v-72h-366v-366h-74z" />
    <glyph glyph-name="comma" unicode="," horiz-adv-x="409" 
d="M0 -287l172 428h94l-227 -428h-39z" />
    <glyph glyph-name="hyphen" unicode="-" horiz-adv-x="1257" 
d="M225 573v72h807v-72h-807z" />
    <glyph glyph-name="period" unicode="." horiz-adv-x="509" 
d="M256 -25q-29 0 -50.5 21.5t-21.5 50.5t21.5 49.5t50.5 20.5t49.5 -20.5t20.5 -49.5t-20.5 -50.5t-49.5 -21.5z" />
    <glyph glyph-name="slash" unicode="/" horiz-adv-x="1024" 
d="M143 -309l684 2052h74l-682 -2052h-76z" />
    <glyph glyph-name="zero" unicode="0" horiz-adv-x="1275" 
d="M639 -25q-126 0 -223.5 61t-155.5 166.5t-87.5 235.5t-29.5 279t29.5 278.5t87.5 234.5t155.5 165.5t223.5 60.5q101 0 184 -40t139.5 -109t95.5 -163.5t57 -201.5t18 -225t-18 -225t-57 -202t-95.5 -164.5t-139.5 -110t-184 -40.5zM217 717q0 -108 15.5 -205.5
t49.5 -182.5t82.5 -147t119 -97.5t155.5 -35.5q106 0 188 54t131.5 148t75 212t25.5 254t-25.5 254t-75 211.5t-131.5 147.5t-188 54t-188.5 -54t-132.5 -147.5t-75.5 -211.5t-25.5 -254z" />
    <glyph glyph-name="one" unicode="1" horiz-adv-x="673" 
d="M438 0v1356l-260 -123l-35 59l295 142h72v-1434h-72z" />
    <glyph glyph-name="two" unicode="2" horiz-adv-x="1142" 
d="M143 72q35 38 98.5 101t82.5 83q243 263 307 339q161 191 206 327q23 73 23 147q0 80 -32.5 150t-104 117.5t-170.5 47.5q-129 0 -210.5 -81.5t-111.5 -200.5l-71 18q16 63 47.5 120.5t78.5 107t116.5 79t150.5 29.5q168 0 274.5 -109.5t106.5 -277.5q0 -96 -25.5 -178.5
t-107 -194t-140.5 -179t-216 -236.5q-46 -50 -70 -76q-20 -22 -64.5 -65.5t-66.5 -67.5h755v-72h-856v72z" />
    <glyph glyph-name="three" unicode="3" horiz-adv-x="1130" 
d="M559 -25q-145 0 -262 88.5t-154 223.5l72 18q31 -113 127 -184.5t217 -71.5q154 0 255 98t101 244q0 143 -106.5 242.5t-251.5 99.5h-72v80h72q122 0 209.5 83.5t87.5 201.5t-80 202t-201 84q-113 0 -195.5 -74.5t-94.5 -181.5l-74 11q17 134 121 225.5t243 91.5
q152 0 253.5 -105t101.5 -253q0 -104 -58 -191.5t-153 -132.5q119 -47 194.5 -151t75.5 -232q0 -175 -122.5 -295.5t-305.5 -120.5z" />
    <glyph glyph-name="four" unicode="4" horiz-adv-x="1273" 
d="M840 0v375h-697v71l697 988h73v-988h217v-71h-217v-375h-73zM225 446h615v875z" />
    <glyph glyph-name="five" unicode="5" horiz-adv-x="1171" 
d="M573 -25q-147 0 -265.5 86.5t-164.5 223.5l72 16q40 -112 137.5 -182t220.5 -70q158 0 270.5 111.5t112.5 269.5t-112.5 270.5t-270.5 112.5q-173 0 -292 -156l-72 19l88 758h635v-74h-570l-67 -586q117 111 278 111q189 0 322 -133t133 -322q0 -92 -36 -176t-97 -145.5
t-145 -97.5t-177 -36z" />
    <glyph glyph-name="six" unicode="6" horiz-adv-x="1234" 
d="M618 -25q-195 0 -335 137.5t-140 336.5q0 64 25 138t61 130l478 717h77l-374 -564q106 52 208 52q195 0 334.5 -137t139.5 -336t-139.5 -336.5t-334.5 -137.5zM217 449q0 -169 117.5 -284.5t283.5 -115.5q165 0 283.5 116t118.5 284t-118.5 283.5t-283.5 115.5
q-164 0 -282.5 -118t-118.5 -281z" />
    <glyph glyph-name="seven" unicode="7" horiz-adv-x="1122" 
d="M285 0l618 1360h-760v74h836v-74l-619 -1360h-75z" />
    <glyph glyph-name="eight" unicode="8" horiz-adv-x="1150" 
d="M575 -25q-113 0 -212.5 56.5t-159.5 153t-60 206.5q0 127 76.5 231.5t196.5 151.5q-95 45 -153 133t-58 191q0 146 109 252t261 106t261.5 -106t109.5 -252q0 -103 -58 -191t-153 -133q120 -47 196.5 -151.5t76.5 -231.5q0 -110 -60 -206.5t-160 -153t-213 -56.5z
M217 391q0 -139 107.5 -240.5t250.5 -101.5t251 101.5t108 240.5t-108 240.5t-251 101.5t-250.5 -101.5t-107.5 -240.5zM276 1098q0 -116 88 -200.5t211 -84.5t211 84.5t88 200.5t-88.5 201t-210.5 85t-210.5 -85t-88.5 -201z" />
    <glyph glyph-name="nine" unicode="9" horiz-adv-x="1236" 
d="M827 563q-102 -51 -209 -51q-195 0 -335 137t-140 336q0 130 64.5 239t173.5 170.5t237 61.5t237 -61.5t174 -170.5t65 -239q0 -66 -25.5 -140t-62.5 -130l-476 -715h-79zM217 985q0 -170 117.5 -285.5t283.5 -115.5q164 0 283 118.5t119 282.5q0 169 -118 284t-284 115
t-283.5 -115t-117.5 -284z" />
    <glyph glyph-name="colon" unicode=":" horiz-adv-x="509" 
d="M256 920q-30 0 -51 20t-21 49q0 30 21 51t51 21q29 0 49.5 -20.5t20.5 -51.5q0 -29 -20.5 -49t-49.5 -20zM184 47q0 29 21.5 49.5t50.5 20.5t49.5 -20.5t20.5 -49.5t-20.5 -50.5t-49.5 -21.5t-50.5 21.5t-21.5 50.5z" />
    <glyph glyph-name="semicolon" unicode=";" horiz-adv-x="452" 
d="M0 -287l174 428h94l-229 -428h-39zM145 989q0 30 21 51t51 21t51 -21t21 -51q0 -29 -21 -49t-51 -20t-51 20t-21 49z" />
    <glyph glyph-name="less" unicode="&#x3c;" horiz-adv-x="1226" 
d="M1022 190l-817 379v82l817 379v-78l-731 -342l731 -342v-78z" />
    <glyph glyph-name="equal" unicode="=" horiz-adv-x="1249" 
d="M184 764v72h881v-72h-881zM184 383v72h881v-72h-881z" />
    <glyph glyph-name="greater" unicode="&#x3e;" horiz-adv-x="1226" 
d="M205 190v78l731 342l-731 342v78l817 -379v-82z" />
    <glyph glyph-name="question" unicode="?" horiz-adv-x="970" 
d="M408 408q0 78 35.5 148.5t86 127.5t101 115.5t86 136t35.5 164.5q0 122 -78.5 203t-196.5 81q-112 0 -186.5 -76t-93.5 -196l-74 6q13 104 67.5 182.5t129 117t157.5 38.5q155 0 252.5 -103.5t97.5 -252.5q0 -95 -36 -179t-87 -144.5t-102 -117t-87 -120.5t-36 -131h-71z
M377 47q0 29 20 49.5t49 20.5t50.5 -20.5t21.5 -49.5t-21.5 -50.5t-50.5 -21.5t-49 21t-20 51z" />
    <glyph glyph-name="at" unicode="@" horiz-adv-x="2285" 
d="M1106 -418q-207 0 -382.5 66.5t-298.5 185t-192 289t-69 373.5q0 202 74.5 377.5t203.5 300t311 195.5t390 71q287 0 510.5 -115t346 -321t122.5 -469q0 -230 -89.5 -362t-242.5 -132q-236 0 -264 272q-55 -123 -166.5 -197.5t-251.5 -74.5q-196 0 -336.5 140.5
t-140.5 336.5q0 97 38 185.5t102 152.5t152 101.5t185 37.5q137 0 247 -71.5t167 -190.5v240h71v-572q0 -143 47 -214.5t150 -71.5q54 0 97 22.5t70 61t46 82.5t28.5 94.5t13 88t3.5 71.5q0 242 -113 431t-319.5 294.5t-472.5 105.5q-192 0 -360.5 -65.5t-288.5 -180
t-189 -276.5t-69 -348q0 -189 63 -346.5t176 -266.5t275 -169t356 -60q254 0 444 127l41 -60q-201 -139 -485 -139zM696 518q0 -170 121 -291t291 -121t292 121t122 291t-122 292t-292 122t-291 -122t-121 -292z" />
    <glyph glyph-name="A" unicode="A" horiz-adv-x="1339" 
d="M61 0l568 1434h80l569 -1434h-80l-199 502h-659l-199 -502h-80zM369 575h600l-299 758z" />
    <glyph glyph-name="B" unicode="B" horiz-adv-x="1112" 
d="M174 0v1434h238q80 0 148.5 -9t134.5 -33.5t112.5 -63t75 -100.5t28.5 -143q0 -128 -72 -207t-192 -114q163 -35 263 -129.5t100 -247.5q0 -105 -43.5 -182t-120 -120.5t-169.5 -64t-204 -20.5h-299zM248 74h225q102 0 183.5 16.5t145.5 52t99 97.5t35 147q0 86 -35 151
t-98.5 104t-146 58t-183.5 19h-225v-645zM248 786h164q86 0 158 14.5t134.5 47t98 93t35.5 144.5q0 277 -426 277h-164v-576z" />
    <glyph glyph-name="C" unicode="C" horiz-adv-x="1482" 
d="M842 -23q-150 0 -287 58.5t-236.5 158t-158 236.5t-58.5 287q0 151 58.5 288.5t158 236.5t236.5 157.5t287 58.5q321 0 540 -256l-57 -43q-202 225 -483 225q-181 0 -334.5 -89t-243.5 -243t-90 -335t90 -335t243.5 -243.5t334.5 -89.5q298 0 501 248l58 -43
q-104 -131 -246.5 -204t-312.5 -73z" />
    <glyph glyph-name="D" unicode="D" horiz-adv-x="1429" 
d="M174 0v1434h379q181 0 328 -55t244 -151.5t149.5 -227t52.5 -283.5q0 -151 -52.5 -282t-149.5 -227.5t-244.5 -152t-327.5 -55.5h-379zM246 74h307q318 0 508 175.5t190 467.5q0 293 -190 469t-508 176h-307v-1288z" />
    <glyph glyph-name="E" unicode="E" horiz-adv-x="995" 
d="M174 0v1434h660v-72h-586v-574h567v-73h-567v-641h604v-74h-678z" />
    <glyph glyph-name="F" unicode="F" horiz-adv-x="1013" 
d="M174 0v1434h696v-72h-624v-590h569v-74h-569v-698h-72z" />
    <glyph glyph-name="G" unicode="G" horiz-adv-x="1632" 
d="M844 -23q-151 0 -288.5 58.5t-237 158t-158 236.5t-58.5 287q0 202 99.5 372.5t270 269.5t372.5 99q319 0 538 -256l-57 -43q-202 225 -481 225q-136 0 -259.5 -52.5t-213 -142t-142.5 -213t-53 -259.5q0 -182 89.5 -335.5t243 -243t335.5 -89.5q253 0 419.5 161.5
t188.5 412.5h-627v73h705q0 -203 -85.5 -366.5t-243 -258t-357.5 -94.5z" />
    <glyph glyph-name="H" unicode="H" horiz-adv-x="1421" 
d="M174 0v1434h74v-662h926v662h73v-1434h-73v698h-926v-698h-74z" />
    <glyph glyph-name="I" unicode="I" horiz-adv-x="421" 
d="M174 0v1434h74v-1434h-74z" />
    <glyph glyph-name="J" unicode="J" horiz-adv-x="851" 
d="M393 -23q-117 0 -198.5 60.5t-102.5 150.5l74 25q20 -71 79 -117.5t148 -46.5q111 0 162 75t51 195v1115h72v-1115q0 -155 -70.5 -248.5t-214.5 -93.5z" />
    <glyph glyph-name="K" unicode="K" horiz-adv-x="1132" 
d="M174 0v1434h72v-703l678 703h110l-682 -709l740 -725h-117l-729 715v-715h-72z" />
    <glyph glyph-name="L" unicode="L" horiz-adv-x="995" 
d="M174 0v1434h74v-1360h635v-74h-709z" />
    <glyph glyph-name="M" unicode="M" horiz-adv-x="1484" 
d="M174 0v1434h84l485 -756l484 756h84v-1434h-72v1319l-467 -735h-57l-467 735v-1319h-74z" />
    <glyph glyph-name="N" unicode="N" horiz-adv-x="1437" 
d="M174 0v1434h94l924 -1330v1330h72v-1434h-95l-923 1329v-1329h-72z" />
    <glyph glyph-name="O" unicode="O" horiz-adv-x="1685" 
d="M844 -23q-151 0 -288.5 58.5t-237 158t-158 236.5t-58.5 287q0 202 99.5 372.5t270 269.5t372.5 99q150 0 287 -58.5t236 -157.5t157.5 -236.5t58.5 -288.5q0 -150 -58.5 -287t-157.5 -236.5t-236 -158t-287 -58.5zM176 717q0 -182 89.5 -335.5t243 -243t335.5 -89.5
q181 0 334.5 89.5t243 243.5t89.5 335q0 136 -53 259.5t-142.5 213t-213 142t-258.5 52.5q-136 0 -259.5 -52.5t-213 -142t-142.5 -213t-53 -259.5z" />
    <glyph glyph-name="P" unicode="P" horiz-adv-x="1064" 
d="M174 0v1434h256q116 0 211 -24t168 -72t113.5 -127.5t40.5 -184.5t-40.5 -184.5t-113.5 -127.5t-168 -72t-211 -24h-184v-618h-72zM246 692h184q215 0 336 82.5t121 251.5t-121 252.5t-336 83.5h-184v-670z" />
    <glyph glyph-name="Q" unicode="Q" horiz-adv-x="1685" 
d="M1309 143q-203 -166 -465 -166q-151 0 -288.5 58.5t-237 158t-158 236.5t-58.5 287q0 202 99.5 372.5t270 269.5t372.5 99q150 0 287 -58.5t236 -157.5t157.5 -236.5t58.5 -288.5t-58 -287.5t-161 -239.5l168 -174l-53 -49zM176 717q0 -182 89.5 -335.5t243 -243
t335.5 -89.5q229 0 416 146l-312 323l53 51l312 -325q94 92 146 214.5t52 258.5t-53 259.5t-142.5 213t-213 142t-258.5 52.5q-136 0 -259.5 -52.5t-213 -142t-142.5 -213t-53 -259.5z" />
    <glyph glyph-name="R" unicode="R" horiz-adv-x="1079" 
d="M174 0v1434h203q114 0 209 -24t168 -71t114 -124.5t41 -178.5q0 -156 -93 -251.5t-253 -129.5l475 -655h-94l-461 643q-52 -6 -106 -6h-129v-637h-74zM248 709h129q212 0 334.5 82.5t122.5 244.5t-122.5 244t-334.5 82h-129v-653z" />
    <glyph glyph-name="S" unicode="S" horiz-adv-x="999" 
d="M502 -23q-97 0 -176 32t-126.5 83.5t-74.5 109.5t-33 117l74 9q4 -50 26 -97.5t61.5 -89t104 -67t144.5 -25.5q49 0 94 9.5t89 32.5t76.5 58.5t52.5 91t20 126.5q0 70 -21 122t-76 93.5t-91.5 61t-125.5 59.5q-5 3 -8 4q-142 65 -194 100q-135 90 -157 235q-5 32 -5 68
q0 146 95.5 247t244.5 101q78 0 142 -27t103 -71t61.5 -92.5t28.5 -98.5l-71 -8q-11 86 -78.5 154.5t-185.5 68.5q-66 0 -119 -24t-84 -64t-47.5 -87.5t-16.5 -98.5q0 -56 16.5 -101.5t40 -76t66.5 -59.5t78 -47t93 -45q13 -6 20 -9q139 -64 187 -94q143 -90 170 -232
q7 -37 7 -79q0 -175 -107.5 -282.5t-297.5 -107.5z" />
    <glyph glyph-name="T" unicode="T" horiz-adv-x="1099" 
d="M514 0v1362h-391v72h854v-72h-391v-1362h-72z" />
    <glyph glyph-name="U" unicode="U" horiz-adv-x="1390" 
d="M696 -23q-230 0 -376 149.5t-146 416.5v891h72v-891q0 -234 122.5 -364t327.5 -130q204 0 326.5 130.5t122.5 363.5v891h72v-891q0 -267 -146 -416.5t-375 -149.5z" />
    <glyph glyph-name="V" unicode="V" horiz-adv-x="1339" 
d="M631 0l-570 1434h80l529 -1334l528 1334h80l-567 -1434h-80z" />
    <glyph glyph-name="W" unicode="W" horiz-adv-x="2035" 
d="M539 0l-478 1434h80l437 -1311l401 1311h78l401 -1311l436 1311h80l-475 -1434h-80l-401 1307l-400 -1307h-79z" />
    <glyph glyph-name="X" unicode="X" horiz-adv-x="1224" 
d="M92 0l477 717l-477 717h88l432 -652l432 652h89l-478 -717l478 -717h-89l-432 651l-432 -651h-88z" />
    <glyph glyph-name="Y" unicode="Y" horiz-adv-x="1267" 
d="M600 0v616l-539 818h89l485 -740l485 740h86l-534 -816v-618h-72z" />
    <glyph glyph-name="Z" unicode="Z" horiz-adv-x="1206" 
d="M113 0v74l835 1286h-801v74h891v-74l-837 -1286h893v-74h-981z" />
    <glyph glyph-name="bracketleft" unicode="[" horiz-adv-x="796" 
d="M246 -309v2052h366v-72h-293v-1907h293v-73h-366z" />
    <glyph glyph-name="backslash" unicode="\" horiz-adv-x="1024" 
d="M807 -309l-684 2052h76l682 -2052h-74z" />
    <glyph glyph-name="bracketright" unicode="]" horiz-adv-x="794" 
d="M184 -309v73h293v1907h-293v72h365v-2052h-365z" />
    <glyph glyph-name="asciicircum" unicode="^" horiz-adv-x="976" 
d="M123 967l323 467h82l326 -467h-82l-285 409l-284 -409h-80z" />
    <glyph glyph-name="underscore" unicode="_" horiz-adv-x="1417" 
d="M205 -248v74h1007v-74h-1007z" />
    <glyph glyph-name="a" unicode="a" 
d="M645 -25q-147 0 -272 73t-198 198t-73 272t73 272t198 198t272 73q155 0 280 -81t189 -216v274h72v-1038h-72v274q-65 -135 -189.5 -217t-279.5 -82zM174 518q0 -127 63 -235t171.5 -171t236.5 -63q127 0 235 63t171 171t63 235q0 128 -63 236.5t-171 171.5t-235 63
q-195 0 -333 -138t-138 -333z" />
    <glyph glyph-name="b" unicode="b" 
d="M684 -25q-155 0 -279.5 82t-189.5 217v-274h-72v1526h72v-762q64 135 189 216t280 81q147 0 272 -73t198 -198t73 -272t-73 -272t-198 -198t-272 -73zM215 518q0 -127 63 -235t171 -171t235 -63q128 0 236.5 63t171.5 171t63 235q0 195 -138 333t-333 138
q-127 0 -235 -63t-171 -171.5t-63 -236.5z" />
    <glyph glyph-name="c" unicode="c" horiz-adv-x="1187" 
d="M639 -25q-147 0 -270.5 73t-195 198t-71.5 272t71.5 272t195 198t270.5 73q143 0 263 -69t194 -187l-66 -31q-65 99 -167 157t-224 58q-193 0 -328 -138t-135 -333q0 -194 135 -331.5t328 -137.5q122 0 224 58t167 157l66 -33q-74 -117 -194 -186.5t-263 -69.5z" />
    <glyph glyph-name="d" unicode="d" 
d="M643 -25q-147 0 -271.5 73t-197 198t-72.5 272t72.5 272t197 198t271.5 73q157 0 282 -81t189 -216v762h72v-1526h-72v274q-65 -135 -190 -217t-281 -82zM174 518q0 -127 63 -235t171 -171t235 -63q128 0 236.5 63t171.5 171t63 235q0 195 -138 333t-333 138
q-127 0 -235 -63t-171 -171.5t-63 -236.5z" />
    <glyph glyph-name="e" unicode="e" horiz-adv-x="1249" 
d="M645 -25q-155 0 -280 73t-194 197t-69 273q0 114 42 215t114 173t171 113.5t210 41.5q146 0 263 -73.5t181 -197t64 -272.5v-35h-969q12 -186 142 -310t325 -124q271 0 412 215l65 -33q-79 -124 -202 -190t-275 -66zM178 555h895q-12 185 -132.5 309.5t-301.5 124.5
q-186 0 -317.5 -123.5t-143.5 -310.5z" />
    <glyph glyph-name="f" unicode="f" horiz-adv-x="847" 
d="M311 0v965h-219v73h219v160q0 66 13.5 122t43 103t81.5 74t122 27q117 0 205 -82l-55 -51q-72 61 -150 61q-43 0 -76 -14.5t-53.5 -38t-33.5 -57.5t-18 -69t-5 -75v-160h340v-73h-340v-965h-74z" />
    <glyph glyph-name="g" unicode="g" 
d="M662 -487q-160 0 -292.5 67.5t-203.5 188.5l63 34q65 -101 180 -159t253 -58q207 0 329.5 134.5t122.5 334.5v219q-66 -135 -191 -217t-280 -82q-147 0 -271.5 73t-197 198t-72.5 272t72.5 272t197 198t271.5 73q155 0 280 -81t191 -216v274h72v-983q0 -113 -35.5 -211.5
t-101 -172t-165.5 -116t-222 -42.5zM174 518q0 -127 63 -235t171 -171t235 -63q128 0 236.5 63t171.5 171t63 235q0 195 -138 333t-333 138q-127 0 -235 -63t-171 -171.5t-63 -236.5z" />
    <glyph glyph-name="h" unicode="h" horiz-adv-x="1189" 
d="M143 0v1526h74v-731q58 123 159.5 194.5t237.5 71.5q198 0 315.5 -136.5t117.5 -351.5v-573h-74v573q0 113 -39.5 206t-122.5 151.5t-197 58.5q-177 0 -287 -139t-110 -352v-498h-74z" />
    <glyph glyph-name="i" unicode="i" horiz-adv-x="397" 
d="M162 0v1038h74v-1038h-74zM143 1341q0 23 16.5 39.5t39.5 16.5t39 -16.5t16 -39.5t-16 -39t-39 -16t-39.5 16t-16.5 39z" />
    <glyph glyph-name="j" unicode="j" horiz-adv-x="436" 
d="M-20 -412q115 0 168 87t53 233v1132h71v-1132q0 -65 -9.5 -122t-31.5 -107.5t-55 -86t-83 -56.5t-113 -21v73zM180 1343q0 23 17.5 39.5t40.5 16.5t39 -16.5t16 -39.5t-16 -39t-39 -16q-24 0 -41 16t-17 39z" />
    <glyph glyph-name="k" unicode="k" horiz-adv-x="905" 
d="M143 0v1526h74v-981l494 493h98l-502 -499l567 -539h-100l-557 528v-528h-74z" />
    <glyph glyph-name="l" unicode="l" horiz-adv-x="358" 
d="M143 0v1526h72v-1526h-72z" />
    <glyph glyph-name="m" unicode="m" horiz-adv-x="1837" 
d="M143 0v1038h72v-223q54 114 144 180t214 66q138 0 229.5 -77.5t127.5 -213.5q52 134 149.5 212.5t231.5 78.5q124 0 211.5 -64t129.5 -172.5t42 -251.5v-573h-74v573q0 85 -18 158t-54.5 131.5t-97 92.5t-139.5 34q-162 0 -259.5 -138.5t-97.5 -352.5v-498h-73v573
q0 114 -31 205.5t-102.5 151t-174.5 59.5q-163 0 -260.5 -138t-97.5 -353v-498h-72z" />
    <glyph glyph-name="n" unicode="n" horiz-adv-x="1189" 
d="M143 0v1038h74v-243q58 123 160 194.5t237 71.5q198 0 315.5 -136.5t117.5 -351.5v-573h-72v573q0 175 -96 295.5t-265 120.5q-177 0 -287 -139t-110 -352v-498h-74z" />
    <glyph glyph-name="o" unicode="o" horiz-adv-x="1288" 
d="M645 -23q-147 0 -272 73t-198 198t-73 272t73 272t198 198t272 73t271.5 -73t197 -198t72.5 -272t-72.5 -272t-197 -198t-271.5 -73zM174 520q0 -127 63 -235t171.5 -171t236.5 -63q127 0 235 63t171 171t63 235q0 128 -63 236.5t-171 171.5t-235 63q-195 0 -333 -138
t-138 -333z" />
    <glyph glyph-name="p" unicode="p" horiz-adv-x="1331" 
d="M143 -485v1525h74v-274q64 135 189 216t280 81q147 0 272 -73t198 -198t73 -272t-73 -272t-198 -198t-272 -73q-155 0 -279.5 82t-189.5 217v-761h-74zM217 520q0 -127 63 -235t171 -171t235 -63t235 63t171 171t63 235q0 128 -63 236.5t-171 171.5t-235 63t-235 -63
t-171 -171.5t-63 -236.5z" />
    <glyph glyph-name="q" unicode="q" horiz-adv-x="1331" 
d="M1114 276q-65 -135 -189.5 -217t-279.5 -82q-147 0 -272 73t-198 198t-73 272t73 272t198 198t272 73q155 0 280 -81t189 -216v274h74v-1525h-74v761zM176 520q0 -127 62.5 -235t170.5 -171t236 -63q127 0 235 63t171 171t63 235q0 128 -63 236.5t-171 171.5t-235 63
q-128 0 -236 -63t-170.5 -171.5t-62.5 -236.5z" />
    <glyph glyph-name="r" unicode="r" horiz-adv-x="618" 
d="M143 0v1038h72v-274q85 297 342 297v-72q-86 0 -153 -42.5t-107.5 -116.5t-61 -167.5t-20.5 -201.5v-461h-72z" />
    <glyph glyph-name="s" unicode="s" horiz-adv-x="864" 
d="M440 -23q-144 0 -235.5 78t-102.5 183l74 8q8 -78 79.5 -136.5t184.5 -58.5q45 0 87 12t79 36t59.5 67t22.5 100q0 36 -13 66t-30 50t-51.5 40.5t-59.5 32t-71 31.5q-13 5 -19 8q-40 16 -61 25.5t-57.5 27.5t-56.5 33.5t-46 39.5t-39.5 49t-23.5 59t-10 73
q0 113 78 187.5t198 74.5q113 0 190.5 -61.5t90.5 -141.5l-72 -12q-7 51 -62 97t-147 46q-83 0 -144 -50.5t-61 -139.5q0 -33 8 -61t27.5 -50.5t38 -39t53 -34t57.5 -27.5t66 -28q126 -53 172 -84q119 -79 119 -211q0 -129 -89.5 -209t-232.5 -80z" />
    <glyph glyph-name="t" unicode="t" horiz-adv-x="858" 
d="M551 -14q-127 0 -193.5 78.5t-66.5 209.5v693h-219v73h219v232h74v-232h340v-73h-340v-693q0 -99 46.5 -157t139.5 -58q78 0 149 60l56 -51q-88 -82 -205 -82z" />
    <glyph glyph-name="u" unicode="u" horiz-adv-x="1187" 
d="M575 -25q-197 0 -314.5 137.5t-117.5 352.5v573h72v-573q0 -175 95.5 -295.5t264.5 -120.5q177 0 287.5 139.5t110.5 352.5v497h71v-1038h-71v244q-58 -123 -160.5 -196t-237.5 -73z" />
    <glyph glyph-name="v" unicode="v" horiz-adv-x="1146" 
d="M535 0l-453 1038h76l415 -950l416 950h76l-453 -1038h-77z" />
    <glyph glyph-name="w" unicode="w" horiz-adv-x="1728" 
d="M481 0l-399 1036h78l356 -930l309 930h78l307 -930l359 930h78l-400 -1036h-78l-305 922l-305 -922h-78z" />
    <glyph glyph-name="x" unicode="x" horiz-adv-x="1056" 
d="M102 0l383 532l-362 504h88l317 -442l318 442h88l-363 -504l383 -532h-88l-338 473l-340 -473h-86z" />
    <glyph glyph-name="y" unicode="y" horiz-adv-x="1148" 
d="M324 -487l221 507l-463 1016h78l424 -930l405 930h78l-668 -1523h-75z" />
    <glyph glyph-name="z" unicode="z" horiz-adv-x="1007" 
d="M102 0v72l680 893h-643v71h731v-71l-680 -893h715v-72h-803z" />
    <glyph glyph-name="braceleft" unicode="{" horiz-adv-x="874" 
d="M711 -309q-173 0 -259.5 84t-86.5 237v377q0 291 -181 291v74q181 0 181 290v377q0 153 86.5 237.5t259.5 84.5v-72q-141 0 -207 -64.5t-66 -203.5v-359q0 -247 -123 -327q123 -80 123 -328v-358q0 -139 66 -203t207 -64v-73z" />
    <glyph glyph-name="bar" unicode="|" horiz-adv-x="524" 
d="M225 -492v2235h74v-2235h-74z" />
    <glyph glyph-name="braceright" unicode="}" horiz-adv-x="874" 
d="M164 -236q141 0 206.5 64t65.5 203v358q0 248 123 328q-123 80 -123 327v359q0 139 -65.5 203.5t-206.5 64.5v72q174 0 260 -84t86 -238v-377q0 -290 180 -290v-74q-180 0 -180 -291v-377q0 -153 -86 -237t-260 -84v73z" />
    <glyph glyph-name="asciitilde" unicode="~" horiz-adv-x="1312" 
d="M893 477q-48 0 -97.5 17.5t-76 33.5t-76.5 50q-46 32 -70 46.5t-67.5 30t-87.5 15.5q-42 0 -77 -18.5t-56.5 -48t-33 -54.5t-18.5 -49l-69 20q31 105 98 164t156 59q54 0 107.5 -18t83 -36t77.5 -52q59 -42 105.5 -64t101.5 -22q43 0 78 16.5t56 43.5t33 51.5t19 50.5
l70 -19q-8 -31 -23 -63t-43.5 -69.5t-78 -61t-111.5 -23.5z" />
    <glyph glyph-name="exclamdown" unicode="&#xa1;" horiz-adv-x="591" 
d="M260 -397v1026h74v-1026h-74zM225 989q0 30 21 51t51 21q29 0 49.5 -20.5t20.5 -51.5q0 -29 -20.5 -49t-49.5 -20q-30 0 -51 20t-21 49z" />
    <glyph glyph-name="cent" unicode="&#xa2;" horiz-adv-x="1236" 
d="M618 176q-210 15 -352.5 171t-142.5 370q0 215 142 370t353 170v177h74v-174q132 -9 242.5 -77.5t179.5 -178.5l-65 -33q-64 100 -166.5 158.5t-223.5 58.5q-194 0 -329 -137.5t-135 -333.5q0 -194 135 -331.5t329 -137.5q121 0 223.5 58t166.5 157l65 -33
q-69 -110 -180 -178.5t-242 -75.5v-176h-74v176z" />
    <glyph glyph-name="sterling" unicode="&#xa3;" horiz-adv-x="1341" 
d="M174 72q102 25 182 128.5t80 241.5q0 103 -30 213h-232v72h209q-5 15 -21.5 63t-23 69.5t-17 60.5t-14.5 72.5t-4 68.5q0 178 109.5 286.5t279.5 108.5q246 0 350 -248l-67 -28q-85 204 -283 204q-139 0 -227 -88t-88 -235q0 -33 3.5 -64.5t15 -73.5t16.5 -58.5t24.5 -73
t22.5 -64.5h491v-72h-471q31 -114 31 -213q0 -118 -48.5 -213.5t-127.5 -156.5h833v-72h-993v72z" />
    <glyph glyph-name="currency" unicode="&#xa4;" horiz-adv-x="1050" 
d="M176 291l-53 49l147 158q-82 95 -82 219t82 219l-147 156l53 51l148 -158q87 68 200 68q116 0 203 -68l147 158l54 -51l-148 -156q82 -95 82 -219t-82 -219l148 -158l-54 -49l-147 155q-90 -67 -203 -67q-110 0 -200 67zM260 717q0 -109 77.5 -186.5t186.5 -77.5
t186.5 77.5t77.5 186.5t-77.5 186.5t-186.5 77.5t-186.5 -77.5t-77.5 -186.5z" />
    <glyph glyph-name="yen" unicode="&#xa5;" horiz-adv-x="1288" 
d="M608 0v344h-422v72h422v194h-422v74h379l-493 750h88l485 -738l485 738h87l-492 -750h377v-74h-420v-194h420v-72h-420v-344h-74z" />
    <glyph glyph-name="brokenbar" unicode="&#xa6;" horiz-adv-x="522" 
d="M225 926v817h72v-817h-72zM225 -492v818h72v-818h-72z" />
    <glyph glyph-name="section" unicode="&#xa7;" horiz-adv-x="1202" 
d="M578 -397q-95 0 -172.5 28.5t-127.5 75.5t-79 104.5t-35 120.5l74 9q10 -108 99.5 -187.5t240.5 -79.5t240 76.5t89 200.5q0 52 -17.5 95t-44 71.5t-72 54.5t-85 42t-100.5 36q-57 17 -89.5 27.5t-80 29t-74.5 34.5t-59.5 41t-49.5 52.5t-28.5 64.5t-11.5 81
q0 95 49.5 159.5t128.5 94.5q-152 98 -152 274q0 153 111.5 250.5t290.5 97.5q94 0 172 -28.5t127.5 -76t79 -105t36.5 -120.5l-73 -8q-10 107 -100 186.5t-242 79.5q-150 0 -239 -76t-89 -200q0 -52 17.5 -95t44 -71.5t72 -54.5t85 -42t100.5 -36q175 -55 240 -90
q131 -70 150 -190q4 -24 4 -50q0 -94 -50 -159t-129 -95q152 -98 152 -274q0 -153 -111.5 -250.5t-291.5 -97.5zM266 580q0 -43 16 -77.5t41 -58.5t73 -47t93 -39t121 -39q57 -17 119 -43q34 3 67.5 15t66.5 34.5t53 62.5t20 91q0 31 -8.5 57t-21 46.5t-37.5 39.5t-49 32.5
t-65 29.5t-74.5 27t-88.5 28q-50 14 -119 43q-27 -3 -53.5 -10t-55 -23t-49.5 -37.5t-35 -55.5t-14 -76z" />
    <glyph glyph-name="copyright" unicode="&#xa9;" horiz-adv-x="1716" 
d="M858 -18q-200 0 -369 98.5t-267.5 267.5t-98.5 369t98.5 369t267.5 267.5t369 98.5t369 -98.5t267.5 -267.5t98.5 -369t-98.5 -369t-267.5 -267.5t-369 -98.5zM178 717q0 -138 54 -264.5t145 -218t217 -145.5t264 -54q111 0 215.5 34.5t188 98t146.5 147.5t97.5 187.5
t34.5 214.5q0 138 -54 264t-145 217t-217.5 145t-265.5 54q-138 0 -264 -54t-217 -145t-145 -217t-54 -264zM444 717q0 172 121 294t293 122q98 0 185 -44.5t145 -119.5l-45 -33q-51 66 -125 103.5t-160 37.5q-149 0 -254.5 -105.5t-105.5 -254.5t105.5 -255t254.5 -106
q86 0 160 38t125 104l45 -35q-58 -75 -145 -118.5t-185 -43.5q-172 0 -293 122t-121 294z" />
    <glyph glyph-name="guillemotleft" unicode="&#xab;" horiz-adv-x="1128" 
d="M881 217l-285 393l285 394h84l-285 -394l285 -393h-84zM164 610l285 394h83l-284 -394l284 -393h-83z" />
    <glyph glyph-name="registered" unicode="&#xae;" horiz-adv-x="1716" 
d="M858 -18q-200 0 -369 98.5t-267.5 267.5t-98.5 369t98.5 369t267.5 267.5t369 98.5t369 -98.5t267.5 -267.5t98.5 -369t-98.5 -369t-267.5 -267.5t-369 -98.5zM178 717q0 -138 54 -264.5t145 -218t217 -145.5t264 -54q111 0 215 34.5t187.5 98t147 147t98 187.5t34.5 215
q0 138 -54 264t-145.5 217t-218 145t-264.5 54t-264 -54t-217 -145t-145 -217t-54 -264zM629 301v875h190q143 0 225 -65.5t82 -180.5q0 -97 -60.5 -160t-168.5 -82l283 -387h-70l-276 383l-15 -2h-137v-381h-53zM682 737h137q124 0 189 52t65 141q0 88 -65 140t-189 52
h-137v-385z" />
    <glyph glyph-name="degree" unicode="&#xb0;" horiz-adv-x="864" 
d="M432 856q-120 0 -204.5 84.5t-84.5 204.5t84.5 204.5t204.5 84.5t204.5 -84.5t84.5 -204.5t-84.5 -204.5t-204.5 -84.5zM215 1145q0 -90 63.5 -153.5t153.5 -63.5q89 0 152 63t63 154q0 89 -63 152t-152 63t-153 -63t-64 -152z" />
    <glyph glyph-name="plusminus" unicode="&#xb1;" horiz-adv-x="1173" 
d="M551 317v367h-367v72h367v366h72v-366h366v-72h-366v-367h-72zM184 0v74h805v-74h-805z" />
    <glyph glyph-name="paragraph" unicode="&#xb6;" horiz-adv-x="1257" 
d="M500 805q-164 4 -260.5 92t-96.5 221q0 138 102 227t273 89h596v-72h-164v-1653h-73v1653h-304v-1653h-73v1096z" />
    <glyph glyph-name="guillemotright" unicode="&#xbb;" horiz-adv-x="1128" 
d="M596 217l285 393l-285 394h84l285 -394l-285 -393h-84zM164 217l285 393l-285 394h84l284 -394l-284 -393h-84z" />
    <glyph glyph-name="questiondown" unicode="&#xbf;" horiz-adv-x="968" 
d="M494 -420q-155 0 -253 104t-98 253q0 81 25.5 154t64 124.5t83.5 105t83.5 97t64 99t25.5 112.5h74q0 -78 -35.5 -148.5t-86 -127.5t-101 -115.5t-86 -136t-35.5 -164.5q0 -121 78.5 -203t196.5 -82q112 0 186.5 76t93.5 196l72 -6q-18 -155 -121 -246.5t-231 -91.5z
M453 989q0 31 20 51.5t51 20.5q29 0 49.5 -20.5t20.5 -51.5q0 -29 -20.5 -49t-49.5 -20q-31 0 -51 20t-20 49z" />
    <glyph glyph-name="Agrave" unicode="&#xc0;" horiz-adv-x="1339" 
d="M61 0l568 1434h80l569 -1434h-80l-199 502h-659l-199 -502h-80zM369 575h600l-299 758zM465 1821h86l133 -285h-43z" />
    <glyph glyph-name="Aacute" unicode="&#xc1;" horiz-adv-x="1339" 
d="M61 0l568 1434h80l569 -1434h-80l-199 502h-659l-199 -502h-80zM369 575h600l-299 758zM657 1536l136 285h86l-179 -285h-43z" />
    <glyph glyph-name="Acircumflex" unicode="&#xc2;" horiz-adv-x="1339" 
d="M61 0l568 1434h80l569 -1434h-80l-199 502h-659l-199 -502h-80zM369 575h600l-299 758zM385 1536l246 285h80l245 -285h-79l-205 238l-207 -238h-80z" />
    <glyph glyph-name="Atilde" unicode="&#xc3;" horiz-adv-x="1339" 
d="M61 0l568 1434h80l569 -1434h-80l-199 502h-659l-199 -502h-80zM369 575h600l-299 758zM399 1595q46 142 152 142q10 0 19.5 -1t19 -4.5t16 -5t17 -8t14.5 -8.5t15 -10t13 -9.5t14 -11t13 -10.5q25 -21 35 -28.5t30.5 -17t39.5 -9.5q35 0 57 24t37 78l51 -14
q-36 -141 -145 -141q-28 0 -56.5 11.5t-43.5 22t-42 31.5q-22 19 -34.5 28.5t-31.5 18t-38 8.5q-68 0 -98 -102z" />
    <glyph glyph-name="Adieresis" unicode="&#xc4;" horiz-adv-x="1339" 
d="M61 0l568 1434h80l569 -1434h-80l-199 502h-659l-199 -502h-80zM369 575h600l-299 758zM389 1671q0 28 19 47t47 19t46.5 -19t18.5 -47t-18.5 -47.5t-46.5 -19.5t-47 19.5t-19 47.5zM817 1671q0 28 20 47t48 19q27 0 46 -19.5t19 -46.5q0 -28 -19.5 -47.5t-45.5 -19.5
q-28 0 -48 19.5t-20 47.5z" />
    <glyph glyph-name="Aring" unicode="&#xc5;" horiz-adv-x="1339" 
d="M61 0l568 1434h80l569 -1434h-80l-199 502h-659l-199 -502h-80zM369 575h600l-299 758zM492 1722q0 74 52.5 126.5t125.5 52.5t125.5 -52.5t52.5 -126.5q0 -75 -52 -127.5t-126 -52.5t-126 52.5t-52 127.5zM545 1722q0 -52 37 -88.5t88 -36.5t87 36.5t36 88.5
q0 51 -36 87t-87 36t-88 -36t-37 -87z" />
    <glyph glyph-name="AE" unicode="&#xc6;" horiz-adv-x="1787" 
d="M61 0l723 1434h842v-74h-586v-572h568v-73h-568v-643h605v-72h-678v502h-574l-252 -502h-80zM430 575h537v785h-140z" />
    <glyph glyph-name="Ccedilla" unicode="&#xc7;" horiz-adv-x="1484" 
d="M813 -543q-104 0 -184 54l35 57q68 -45 149 -45q61 0 105.5 33.5t44.5 101.5q0 34 -13.5 60t-35 38.5t-41 18.5t-37.5 6q-39 0 -95 -25l-34 49l79 172q-141 11 -267.5 73.5t-218 161t-145 230.5t-53.5 275q0 150 58.5 287t158 236t237 157.5t288.5 58.5q318 0 538 -254
l-57 -45q-201 227 -481 227q-136 0 -259.5 -52.5t-213 -142t-142.5 -213t-53 -259.5q0 -182 89.5 -335.5t243 -243t335.5 -89.5q298 0 499 248l60 -45q-107 -131 -248.5 -204t-310.5 -73l-70 -147q33 10 68 10q88 0 139 -49.5t51 -130.5q0 -99 -63 -150t-156 -51z" />
    <glyph glyph-name="Egrave" unicode="&#xc8;" horiz-adv-x="995" 
d="M174 0v1434h660v-72h-586v-574h567v-73h-567v-641h604v-74h-678zM338 1821h86l133 -285h-43z" />
    <glyph glyph-name="Eacute" unicode="&#xc9;" horiz-adv-x="995" 
d="M174 0v1434h660v-72h-586v-574h567v-73h-567v-641h604v-74h-678zM461 1536l135 285h86l-178 -285h-43z" />
    <glyph glyph-name="Ecircumflex" unicode="&#xca;" horiz-adv-x="995" 
d="M174 0v1434h660v-72h-586v-574h567v-73h-567v-641h604v-74h-678zM217 1536l246 285h80l245 -285h-79l-205 238l-207 -238h-80z" />
    <glyph glyph-name="Edieresis" unicode="&#xcb;" horiz-adv-x="995" 
d="M174 0v1434h660v-72h-586v-574h567v-73h-567v-641h604v-74h-678zM227 1671q0 28 19 47t47 19t46.5 -19t18.5 -47t-18.5 -47.5t-46.5 -19.5t-47 19.5t-19 47.5zM655 1671q0 28 20 47t48 19q27 0 46 -19.5t19 -46.5q0 -28 -19.5 -47.5t-45.5 -19.5q-28 0 -48 19.5t-20 47.5
z" />
    <glyph glyph-name="Igrave" unicode="&#xcc;" horiz-adv-x="421" 
d="M174 0v1434h74v-1434h-74zM10 1821h86l133 -285h-43z" />
    <glyph glyph-name="Iacute" unicode="&#xcd;" horiz-adv-x="421" 
d="M174 0v1434h74v-1434h-74zM193 1536l135 285h86l-178 -285h-43z" />
    <glyph glyph-name="Icircumflex" unicode="&#xce;" horiz-adv-x="421" 
d="M174 0v1434h74v-1434h-74zM-74 1536l246 285h80l246 -285h-80l-205 238l-207 -238h-80z" />
    <glyph glyph-name="Idieresis" unicode="&#xcf;" horiz-adv-x="421" 
d="M174 0v1434h74v-1434h-74zM-70 1671q0 28 19 47t47 19t46.5 -19t18.5 -47t-18.5 -47.5t-46.5 -19.5t-47 19.5t-19 47.5zM358 1671q0 28 20 47t48 19q27 0 46.5 -19.5t19.5 -46.5t-20 -47t-46 -20q-28 0 -48 19.5t-20 47.5z" />
    <glyph glyph-name="Eth" unicode="&#xd0;" horiz-adv-x="1552" 
d="M295 0v680h-223v74h223v680h381q180 0 327.5 -55.5t244.5 -152t149.5 -227.5t52.5 -282q0 -153 -52.5 -283.5t-149.5 -227t-244 -151.5t-328 -55h-381zM369 72h307q317 0 507.5 176.5t190.5 468.5t-190 467.5t-508 175.5h-307v-606h473v-74h-473v-608z" />
    <glyph glyph-name="Ntilde" unicode="&#xd1;" horiz-adv-x="1437" 
d="M174 0v1434h94l924 -1330v1330h72v-1434h-95l-923 1329v-1329h-72zM449 1595q46 142 151 142q10 0 19.5 -1t19 -4.5t16 -5t17 -8t14.5 -8.5t15 -10t13 -9.5t14 -11t13 -10.5q25 -21 35 -28.5t30.5 -17t39.5 -9.5q35 0 57 24t37 78l51 -14q-36 -141 -145 -141
q-28 0 -56.5 11.5t-42.5 21.5t-42 32q-32 28 -54.5 41.5t-50.5 13.5q-68 0 -98 -102z" />
    <glyph glyph-name="Ograve" unicode="&#xd2;" horiz-adv-x="1685" 
d="M844 -23q-151 0 -288.5 58.5t-237 158t-158 236.5t-58.5 287q0 202 99.5 372.5t270 269.5t372.5 99q150 0 287 -58.5t236 -157.5t157.5 -236.5t58.5 -288.5q0 -150 -58.5 -287t-157.5 -236.5t-236 -158t-287 -58.5zM176 717q0 -182 89.5 -335.5t243 -243t335.5 -89.5
q181 0 334.5 89.5t243 243.5t89.5 335q0 136 -53 259.5t-142.5 213t-213 142t-258.5 52.5q-136 0 -259.5 -52.5t-213 -142t-142.5 -213t-53 -259.5zM659 1821h86l134 -285h-43z" />
    <glyph glyph-name="Oacute" unicode="&#xd3;" horiz-adv-x="1685" 
d="M844 -23q-151 0 -288.5 58.5t-237 158t-158 236.5t-58.5 287q0 202 99.5 372.5t270 269.5t372.5 99q150 0 287 -58.5t236 -157.5t157.5 -236.5t58.5 -288.5q0 -150 -58.5 -287t-157.5 -236.5t-236 -158t-287 -58.5zM176 717q0 -182 89.5 -335.5t243 -243t335.5 -89.5
q181 0 334.5 89.5t243 243.5t89.5 335q0 136 -53 259.5t-142.5 213t-213 142t-258.5 52.5q-136 0 -259.5 -52.5t-213 -142t-142.5 -213t-53 -259.5zM756 1536l135 285h86l-178 -285h-43z" />
    <glyph glyph-name="Ocircumflex" unicode="&#xd4;" horiz-adv-x="1685" 
d="M844 -23q-151 0 -288.5 58.5t-237 158t-158 236.5t-58.5 287q0 202 99.5 372.5t270 269.5t372.5 99q150 0 287 -58.5t236 -157.5t157.5 -236.5t58.5 -288.5q0 -150 -58.5 -287t-157.5 -236.5t-236 -158t-287 -58.5zM176 717q0 -182 89.5 -335.5t243 -243t335.5 -89.5
q181 0 334.5 89.5t243 243.5t89.5 335q0 136 -53 259.5t-142.5 213t-213 142t-258.5 52.5q-136 0 -259.5 -52.5t-213 -142t-142.5 -213t-53 -259.5zM557 1536l246 285h80l245 -285h-79l-205 238l-207 -238h-80z" />
    <glyph glyph-name="Otilde" unicode="&#xd5;" horiz-adv-x="1685" 
d="M844 -23q-151 0 -288.5 58.5t-237 158t-158 236.5t-58.5 287q0 202 99.5 372.5t270 269.5t372.5 99q150 0 287 -58.5t236 -157.5t157.5 -236.5t58.5 -288.5q0 -150 -58.5 -287t-157.5 -236.5t-236 -158t-287 -58.5zM176 717q0 -182 89.5 -335.5t243 -243t335.5 -89.5
q181 0 334.5 89.5t243 243.5t89.5 335q0 136 -53 259.5t-142.5 213t-213 142t-258.5 52.5q-136 0 -259.5 -52.5t-213 -142t-142.5 -213t-53 -259.5zM571 1595q46 142 152 142q10 0 19.5 -1t19 -4.5t16 -5t17 -8t14.5 -8.5t15 -10t13 -9.5t14 -11t13 -10.5q25 -21 35 -28.5
t30.5 -17t39.5 -9.5q35 0 57 24t37 78l51 -14q-36 -141 -145 -141q-28 0 -56.5 11.5t-43.5 22t-42 31.5q-22 19 -34.5 28.5t-31.5 18t-38 8.5q-68 0 -98 -102z" />
    <glyph glyph-name="Odieresis" unicode="&#xd6;" horiz-adv-x="1685" 
d="M844 -23q-151 0 -288.5 58.5t-237 158t-158 236.5t-58.5 287q0 202 99.5 372.5t270 269.5t372.5 99q150 0 287 -58.5t236 -157.5t157.5 -236.5t58.5 -288.5q0 -150 -58.5 -287t-157.5 -236.5t-236 -158t-287 -58.5zM176 717q0 -182 89.5 -335.5t243 -243t335.5 -89.5
q181 0 334.5 89.5t243 243.5t89.5 335q0 136 -53 259.5t-142.5 213t-213 142t-258.5 52.5q-136 0 -259.5 -52.5t-213 -142t-142.5 -213t-53 -259.5zM563 1671q0 28 19 47t47 19t46.5 -19t18.5 -47t-18.5 -47.5t-46.5 -19.5t-47 19.5t-19 47.5zM991 1671q0 28 20 47t48 19
q27 0 46 -19.5t19 -46.5q0 -28 -19.5 -47.5t-45.5 -19.5q-28 0 -48 19.5t-20 47.5z" />
    <glyph glyph-name="multiply" unicode="&#xd7;" horiz-adv-x="989" 
d="M236 299l-52 51l258 260l-258 258l52 52l260 -258l258 258l51 -52l-258 -258l258 -260l-51 -51l-258 258z" />
    <glyph glyph-name="Oslash" unicode="&#xd8;" horiz-adv-x="1624" 
d="M811 -25q-147 0 -280.5 56t-235.5 155l-150 -137l-49 53l150 138q-174 206 -174 477q0 150 58.5 287t157.5 236t236 157.5t287 58.5q148 0 281.5 -55t236.5 -154l148 137l51 -53l-150 -139q83 -97 128.5 -219.5t45.5 -255.5q0 -202 -99 -372.5t-269.5 -270t-372.5 -99.5z
M143 717q0 -238 156 -428l977 907q-92 89 -212 138.5t-253 49.5q-181 0 -334.5 -89t-243.5 -243t-90 -335zM348 236q93 -88 212.5 -137.5t250.5 -49.5q182 0 335.5 89.5t243 243t89.5 335.5q0 242 -154 426z" />
    <glyph glyph-name="Ugrave" unicode="&#xd9;" horiz-adv-x="1390" 
d="M696 -23q-230 0 -376 149.5t-146 416.5v891h72v-891q0 -234 122.5 -364t327.5 -130q204 0 326.5 130.5t122.5 363.5v891h72v-891q0 -267 -146 -416.5t-375 -149.5zM518 1821h86l133 -285h-43z" />
    <glyph glyph-name="Uacute" unicode="&#xda;" horiz-adv-x="1390" 
d="M696 -23q-230 0 -376 149.5t-146 416.5v891h72v-891q0 -234 122.5 -364t327.5 -130q204 0 326.5 130.5t122.5 363.5v891h72v-891q0 -267 -146 -416.5t-375 -149.5zM643 1536l135 285h86l-178 -285h-43z" />
    <glyph glyph-name="Ucircumflex" unicode="&#xdb;" horiz-adv-x="1390" 
d="M696 -23q-230 0 -376 149.5t-146 416.5v891h72v-891q0 -234 122.5 -364t327.5 -130q204 0 326.5 130.5t122.5 363.5v891h72v-891q0 -267 -146 -416.5t-375 -149.5zM410 1536l245 285h80l246 -285h-80l-205 238l-207 -238h-79z" />
    <glyph glyph-name="Udieresis" unicode="&#xdc;" horiz-adv-x="1390" 
d="M696 -23q-230 0 -376 149.5t-146 416.5v891h72v-891q0 -234 122.5 -364t327.5 -130q204 0 326.5 130.5t122.5 363.5v891h72v-891q0 -267 -146 -416.5t-375 -149.5zM416 1671q0 28 18.5 47t46.5 19t47 -19t19 -47t-19 -47.5t-47 -19.5t-46.5 19.5t-18.5 47.5zM844 1671
q0 28 19.5 47t47.5 19q27 0 46.5 -19.5t19.5 -46.5t-19.5 -47t-46.5 -20q-28 0 -47.5 19.5t-19.5 47.5z" />
    <glyph glyph-name="Yacute" unicode="&#xdd;" horiz-adv-x="1267" 
d="M600 0v616l-539 818h89l485 -740l485 740h86l-534 -816v-618h-72zM600 1536l135 285h86l-178 -285h-43z" />
    <glyph glyph-name="Thorn" unicode="&#xde;" horiz-adv-x="1064" 
d="M174 0v1434h74v-310h182q93 0 172 -14.5t146 -46t114.5 -79t74 -115.5t26.5 -152q0 -105 -40 -184.5t-113 -127.5t-168.5 -72t-211.5 -24h-182v-309h-74zM248 381h182q215 0 337 83.5t122 252.5q0 168 -122 251t-337 83h-182v-670z" />
    <glyph glyph-name="germandbls" unicode="&#xdf;" horiz-adv-x="1134" 
d="M532 49q190 0 308 86.5t118 255.5q0 161 -119.5 251.5t-306.5 90.5v80q88 0 160.5 29t121 95.5t48.5 160.5q0 131 -91 208.5t-220 77.5q-161 0 -248.5 -107.5t-87.5 -270.5v-1006h-72v1006q0 126 46.5 226.5t140.5 162t221 61.5q159 0 272 -98.5t113 -259.5
q0 -116 -57.5 -197t-155.5 -121q141 -43 225 -144t84 -245q0 -133 -67.5 -228.5t-179 -141.5t-253.5 -46v74z" />
    <glyph glyph-name="agrave" unicode="&#xe0;" 
d="M645 -25q-147 0 -272 73t-198 198t-73 272t73 272t198 198t272 73q155 0 280 -81t189 -216v274h72v-1038h-72v274q-65 -135 -189.5 -217t-279.5 -82zM174 518q0 -127 63 -235t171.5 -171t236.5 -63q127 0 235 63t171 171t63 235q0 128 -63 236.5t-171 171.5t-235 63
q-195 0 -333 -138t-138 -333zM442 1432h86l134 -285h-44z" />
    <glyph glyph-name="aacute" unicode="&#xe1;" 
d="M645 -25q-147 0 -272 73t-198 198t-73 272t73 272t198 198t272 73q155 0 280 -81t189 -216v274h72v-1038h-72v274q-65 -135 -189.5 -217t-279.5 -82zM174 518q0 -127 63 -235t171.5 -171t236.5 -63q127 0 235 63t171 171t63 235q0 128 -63 236.5t-171 171.5t-235 63
q-195 0 -333 -138t-138 -333zM592 1147l135 285h86l-178 -285h-43z" />
    <glyph glyph-name="acircumflex" unicode="&#xe2;" 
d="M645 -25q-147 0 -272 73t-198 198t-73 272t73 272t198 198t272 73q155 0 280 -81t189 -216v274h72v-1038h-72v274q-65 -135 -189.5 -217t-279.5 -82zM174 518q0 -127 63 -235t171.5 -171t236.5 -63q127 0 235 63t171 171t63 235q0 128 -63 236.5t-171 171.5t-235 63
q-195 0 -333 -138t-138 -333zM360 1147l246 285h80l246 -285h-80l-205 237l-207 -237h-80z" />
    <glyph glyph-name="atilde" unicode="&#xe3;" 
d="M645 -25q-147 0 -272 73t-198 198t-73 272t73 272t198 198t272 73q155 0 280 -81t189 -216v274h72v-1038h-72v274q-65 -135 -189.5 -217t-279.5 -82zM174 518q0 -127 63 -235t171.5 -171t236.5 -63q127 0 235 63t171 171t63 235q0 128 -63 236.5t-171 171.5t-235 63
q-195 0 -333 -138t-138 -333zM373 1221q45 141 151 141q27 0 54 -11t39.5 -20t40.5 -31q5 -4 8 -6q1 -1 10 -8.5t10.5 -8.5t9.5 -7.5t10 -7.5t9.5 -6t10.5 -6t9.5 -4t11.5 -4t11 -2t12 -1q35 0 57 24t37 78l51 -14q-36 -141 -145 -141q-28 0 -56.5 11.5t-42.5 21.5t-42 32
q-22 20 -34.5 29.5t-32 18t-38.5 8.5q-67 0 -98 -103z" />
    <glyph glyph-name="adieresis" unicode="&#xe4;" 
d="M645 -25q-147 0 -272 73t-198 198t-73 272t73 272t198 198t272 73q155 0 280 -81t189 -216v274h72v-1038h-72v274q-65 -135 -189.5 -217t-279.5 -82zM174 518q0 -127 63 -235t171.5 -171t236.5 -63q127 0 235 63t171 171t63 235q0 128 -63 236.5t-171 171.5t-235 63
q-195 0 -333 -138t-138 -333zM354 1262q0 28 19 46.5t47 18.5t46.5 -18.5t18.5 -46.5t-19 -48t-46 -20q-28 0 -47 20t-19 48zM782 1262q0 27 20 46t48 19q27 0 46 -19t19 -46q0 -28 -19.5 -48t-45.5 -20q-28 0 -48 20t-20 48z" />
    <glyph glyph-name="aring" unicode="&#xe5;" 
d="M645 -25q-147 0 -272 73t-198 198t-73 272t73 272t198 198t272 73q155 0 280 -81t189 -216v274h72v-1038h-72v274q-65 -135 -189.5 -217t-279.5 -82zM174 518q0 -127 63 -235t171.5 -171t236.5 -63q127 0 235 63t171 171t63 235q0 128 -63 236.5t-171 171.5t-235 63
q-195 0 -333 -138t-138 -333zM465 1335q0 73 52.5 125.5t125.5 52.5t125.5 -52.5t52.5 -125.5q0 -75 -52 -127.5t-126 -52.5t-126 52.5t-52 127.5zM518 1335q0 -52 37 -88.5t88 -36.5t87 36.5t36 88.5q0 51 -36 87t-87 36t-88 -36t-37 -87z" />
    <glyph glyph-name="ae" unicode="&#xe6;" horiz-adv-x="2260" 
d="M645 -25q-147 0 -272 73t-198 198t-73 272t73 272t198 198t272 73q155 0 280 -81.5t189 -217.5v274h74v-266q62 134 184 212.5t277 78.5q146 0 263.5 -73.5t182 -197t64.5 -272.5v-37h-971q14 -185 143.5 -308.5t325.5 -123.5q271 0 409 215l66 -33q-78 -125 -200 -190.5
t-275 -65.5q-162 0 -284.5 79t-184.5 212v-266h-74v274q-64 -136 -189 -217.5t-280 -81.5zM176 518q0 -127 62.5 -235t170.5 -171t236 -63q127 0 235 63t171 171t63 235t-63 235t-171 171t-235 63q-128 0 -236 -63t-170.5 -171t-62.5 -235zM1188 555h897
q-12 185 -132.5 308.5t-303.5 123.5q-185 0 -316.5 -122.5t-144.5 -309.5z" />
    <glyph glyph-name="ccedilla" unicode="&#xe7;" horiz-adv-x="1187" 
d="M612 -543q-104 0 -182 54l35 57q65 -45 147 -45q63 0 107.5 33.5t44.5 101.5q0 34 -13.5 60t-35 38.5t-41 18.5t-37.5 6q-38 0 -94 -25l-35 49l80 172q-206 20 -346 175.5t-140 365.5q0 147 71.5 272t195 198t270.5 73q143 0 263 -69t194 -187l-66 -33
q-64 100 -166.5 157.5t-224.5 57.5q-193 0 -328 -137t-135 -332q0 -194 135 -331.5t328 -137.5q122 0 224 58t167 157l66 -33q-72 -116 -191.5 -185.5t-259.5 -70.5l-70 -147q33 10 68 10q88 0 138 -49.5t50 -130.5q0 -100 -62.5 -150.5t-156.5 -50.5z" />
    <glyph glyph-name="egrave" unicode="&#xe8;" horiz-adv-x="1249" 
d="M645 -25q-155 0 -280 73t-194 197t-69 273q0 114 42 215t114 173t171 113.5t210 41.5q146 0 263 -73.5t181 -197t64 -272.5v-35h-969q12 -186 142 -310t325 -124q271 0 412 215l65 -33q-79 -124 -202 -190t-275 -66zM178 555h895q-12 185 -132.5 309.5t-301.5 124.5
q-186 0 -317.5 -123.5t-143.5 -310.5zM438 1432h86l133 -285h-43z" />
    <glyph glyph-name="eacute" unicode="&#xe9;" horiz-adv-x="1249" 
d="M645 -25q-155 0 -280 73t-194 197t-69 273q0 114 42 215t114 173t171 113.5t210 41.5q146 0 263 -73.5t181 -197t64 -272.5v-35h-969q12 -186 142 -310t325 -124q271 0 412 215l65 -33q-79 -124 -202 -190t-275 -66zM178 555h895q-12 185 -132.5 309.5t-301.5 124.5
q-186 0 -317.5 -123.5t-143.5 -310.5zM563 1147l135 285h86l-178 -285h-43z" />
    <glyph glyph-name="ecircumflex" unicode="&#xea;" horiz-adv-x="1249" 
d="M645 -25q-155 0 -280 73t-194 197t-69 273q0 114 42 215t114 173t171 113.5t210 41.5q146 0 263 -73.5t181 -197t64 -272.5v-35h-969q12 -186 142 -310t325 -124q271 0 412 215l65 -33q-79 -124 -202 -190t-275 -66zM178 555h895q-12 185 -132.5 309.5t-301.5 124.5
q-186 0 -317.5 -123.5t-143.5 -310.5zM340 1147l246 285h80l245 -285h-80l-204 237l-207 -237h-80z" />
    <glyph glyph-name="edieresis" unicode="&#xeb;" horiz-adv-x="1249" 
d="M645 -25q-155 0 -280 73t-194 197t-69 273q0 114 42 215t114 173t171 113.5t210 41.5q146 0 263 -73.5t181 -197t64 -272.5v-35h-969q12 -186 142 -310t325 -124q271 0 412 215l65 -33q-79 -124 -202 -190t-275 -66zM178 555h895q-12 185 -132.5 309.5t-301.5 124.5
q-186 0 -317.5 -123.5t-143.5 -310.5zM344 1262q0 28 19 46.5t47 18.5t46.5 -18.5t18.5 -46.5t-19 -48t-46 -20q-28 0 -47 20t-19 48zM772 1262q0 27 20 46t48 19q27 0 46 -19t19 -46q0 -28 -19.5 -48t-45.5 -20q-28 0 -48 20t-20 48z" />
    <glyph glyph-name="igrave" unicode="&#xec;" horiz-adv-x="397" 
d="M162 0v1038h74v-1038h-74zM-2 1432h86l133 -285h-43z" />
    <glyph glyph-name="iacute" unicode="&#xed;" horiz-adv-x="397" 
d="M162 0v1038h74v-1038h-74zM180 1147l135 285h86l-178 -285h-43z" />
    <glyph glyph-name="icircumflex" unicode="&#xee;" horiz-adv-x="397" 
d="M162 0v1038h74v-1038h-74zM-86 1147l246 285h80l245 -285h-79l-205 237l-207 -237h-80z" />
    <glyph glyph-name="idieresis" unicode="&#xef;" horiz-adv-x="397" 
d="M162 0v1038h74v-1038h-74zM-82 1262q0 28 19 46.5t47 18.5t46.5 -18.5t18.5 -46.5t-19 -48t-46 -20q-28 0 -47 20t-19 48zM346 1262q0 27 20 46t48 19q27 0 46 -19t19 -46q0 -28 -19.5 -48t-45.5 -20q-28 0 -48 20t-20 48z" />
    <glyph glyph-name="eth" unicode="&#xf0;" horiz-adv-x="1218" 
d="M608 -25q-138 0 -254 64.5t-184 178t-68 251.5q0 208 148 351t358 143q112 0 209.5 -42.5t169.5 -119.5q-100 282 -344 475l-299 -209l-39 61l275 193q-134 88 -277 135l23 68q175 -55 317 -158l231 162l39 -64l-208 -145q194 -157 302.5 -379.5t108.5 -470.5
q0 -209 -148 -351.5t-360 -142.5zM176 469q0 -179 126 -299.5t306 -120.5q181 0 307.5 120.5t126.5 299.5t-126.5 299.5t-307.5 120.5q-180 0 -306 -120.5t-126 -299.5z" />
    <glyph glyph-name="ntilde" unicode="&#xf1;" horiz-adv-x="1189" 
d="M143 0v1038h74v-243q58 123 160 194.5t237 71.5q198 0 315.5 -136.5t117.5 -351.5v-573h-72v573q0 175 -96 295.5t-265 120.5q-177 0 -287 -139t-110 -352v-498h-74zM324 1221q45 141 151 141q10 0 19.5 -1t19 -4.5t16 -5t17 -8t14.5 -8.5t15 -10t13 -9.5t14 -11
t13 -10.5q25 -21 35 -28.5t30.5 -17t39.5 -9.5q35 0 57 24t37 78l51 -14q-36 -141 -145 -141q-28 0 -56.5 11.5t-42.5 21.5t-42 32q-22 20 -34.5 29.5t-32 18t-38.5 8.5q-67 0 -98 -103z" />
    <glyph glyph-name="ograve" unicode="&#xf2;" horiz-adv-x="1288" 
d="M645 -23q-147 0 -272 73t-198 198t-73 272t73 272t198 198t272 73t271.5 -73t197 -198t72.5 -272t-72.5 -272t-197 -198t-271.5 -73zM174 520q0 -127 63 -235t171.5 -171t236.5 -63q127 0 235 63t171 171t63 235q0 128 -63 236.5t-171 171.5t-235 63q-195 0 -333 -138
t-138 -333zM455 1432h86l133 -285h-43z" />
    <glyph glyph-name="oacute" unicode="&#xf3;" horiz-adv-x="1288" 
d="M645 -23q-147 0 -272 73t-198 198t-73 272t73 272t198 198t272 73t271.5 -73t197 -198t72.5 -272t-72.5 -272t-197 -198t-271.5 -73zM174 520q0 -127 63 -235t171.5 -171t236.5 -63q127 0 235 63t171 171t63 235q0 128 -63 236.5t-171 171.5t-235 63q-195 0 -333 -138
t-138 -333zM586 1147l135 285h86l-178 -285h-43z" />
    <glyph glyph-name="ocircumflex" unicode="&#xf4;" horiz-adv-x="1288" 
d="M645 -23q-147 0 -272 73t-198 198t-73 272t73 272t198 198t272 73t271.5 -73t197 -198t72.5 -272t-72.5 -272t-197 -198t-271.5 -73zM174 520q0 -127 63 -235t171.5 -171t236.5 -63q127 0 235 63t171 171t63 235q0 128 -63 236.5t-171 171.5t-235 63q-195 0 -333 -138
t-138 -333zM358 1147l246 285h80l246 -285h-80l-205 237l-207 -237h-80z" />
    <glyph glyph-name="otilde" unicode="&#xf5;" horiz-adv-x="1288" 
d="M645 -23q-147 0 -272 73t-198 198t-73 272t73 272t198 198t272 73t271.5 -73t197 -198t72.5 -272t-72.5 -272t-197 -198t-271.5 -73zM174 520q0 -127 63 -235t171.5 -171t236.5 -63q127 0 235 63t171 171t63 235q0 128 -63 236.5t-171 171.5t-235 63q-195 0 -333 -138
t-138 -333zM373 1221q45 141 151 141q27 0 54 -11t39.5 -20t40.5 -31q5 -4 8 -6q1 -1 10 -8.5t10.5 -8.5t9.5 -7.5t10 -7.5t9.5 -6t10.5 -6t9.5 -4t11.5 -4t11 -2t12 -1q35 0 57 24t37 78l51 -14q-36 -141 -145 -141q-28 0 -56.5 11.5t-42.5 21.5t-42 32q-22 20 -34.5 29.5
t-32 18t-38.5 8.5q-67 0 -98 -103z" />
    <glyph glyph-name="odieresis" unicode="&#xf6;" horiz-adv-x="1288" 
d="M645 -23q-147 0 -272 73t-198 198t-73 272t73 272t198 198t272 73t271.5 -73t197 -198t72.5 -272t-72.5 -272t-197 -198t-271.5 -73zM174 520q0 -127 63 -235t171.5 -171t236.5 -63q127 0 235 63t171 171t63 235q0 128 -63 236.5t-171 171.5t-235 63q-195 0 -333 -138
t-138 -333zM365 1262q0 28 18.5 46.5t46.5 18.5t47 -18.5t19 -46.5t-19 -48t-47 -20q-27 0 -46 20t-19 48zM793 1262q0 28 19.5 46.5t47.5 18.5q27 0 46.5 -19t19.5 -46q0 -28 -20 -48t-46 -20q-28 0 -47.5 20t-19.5 48z" />
    <glyph glyph-name="divide" unicode="&#xf7;" horiz-adv-x="1247" 
d="M184 573v72h879v-72h-879zM553 197q0 29 20.5 50t49.5 21q30 0 50.5 -20.5t20.5 -50.5q0 -29 -20 -49.5t-51 -20.5q-29 0 -49.5 20.5t-20.5 49.5zM553 1022q0 29 20.5 49.5t49.5 20.5q31 0 51 -20t20 -50t-20.5 -51t-50.5 -21q-29 0 -49.5 21.5t-20.5 50.5z" />
    <glyph glyph-name="oslash" unicode="&#xf8;" horiz-adv-x="1296" 
d="M647 -25q-105 0 -201 39.5t-170 108.5l-155 -143l-49 53l155 143q-121 150 -121 342q0 147 72.5 272t197 198t271.5 73q215 0 373 -148l156 144l49 -53l-156 -144q121 -150 121 -342q0 -147 -73 -272t-198 -198t-272 -73zM178 518q0 -160 103 -291l686 637
q-136 123 -320 123q-127 0 -235 -63t-171 -171t-63 -235zM330 174q135 -125 317 -125q128 0 236 63t170.5 171t62.5 235q0 164 -100 291z" />
    <glyph glyph-name="ugrave" unicode="&#xf9;" horiz-adv-x="1187" 
d="M575 -25q-197 0 -314.5 137.5t-117.5 352.5v573h72v-573q0 -175 95.5 -295.5t264.5 -120.5q177 0 287.5 139.5t110.5 352.5v497h71v-1038h-71v244q-58 -123 -160.5 -196t-237.5 -73zM426 1432h86l133 -285h-43z" />
    <glyph glyph-name="uacute" unicode="&#xfa;" horiz-adv-x="1187" 
d="M575 -25q-197 0 -314.5 137.5t-117.5 352.5v573h72v-573q0 -175 95.5 -295.5t264.5 -120.5q177 0 287.5 139.5t110.5 352.5v497h71v-1038h-71v244q-58 -123 -160.5 -196t-237.5 -73zM543 1147l135 285h86l-178 -285h-43z" />
    <glyph glyph-name="ucircumflex" unicode="&#xfb;" horiz-adv-x="1187" 
d="M575 -25q-197 0 -314.5 137.5t-117.5 352.5v573h72v-573q0 -175 95.5 -295.5t264.5 -120.5q177 0 287.5 139.5t110.5 352.5v497h71v-1038h-71v244q-58 -123 -160.5 -196t-237.5 -73zM309 1147l246 285h80l246 -285h-80l-205 237l-207 -237h-80z" />
    <glyph glyph-name="udieresis" unicode="&#xfc;" horiz-adv-x="1187" 
d="M575 -25q-197 0 -314.5 137.5t-117.5 352.5v573h72v-573q0 -175 95.5 -295.5t264.5 -120.5q177 0 287.5 139.5t110.5 352.5v497h71v-1038h-71v244q-58 -123 -160.5 -196t-237.5 -73zM313 1262q0 28 19 46.5t47 18.5t46.5 -18.5t18.5 -46.5t-19 -48t-46 -20q-28 0 -47 20
t-19 48zM741 1262q0 27 20 46t48 19q27 0 46 -19t19 -46q0 -28 -19.5 -48t-45.5 -20q-28 0 -48 20t-20 48z" />
    <glyph glyph-name="yacute" unicode="&#xfd;" horiz-adv-x="1148" 
d="M324 -487l221 507l-463 1016h78l424 -930l405 930h78l-668 -1523h-75zM539 1147l135 285h86l-178 -285h-43z" />
    <glyph glyph-name="thorn" unicode="&#xfe;" 
d="M143 -487v2011h72v-762q64 136 189 217.5t282 81.5q147 0 271.5 -73t197 -198t72.5 -272t-72.5 -272t-197 -198t-271.5 -73q-157 0 -282 81.5t-189 217.5v-761h-72zM215 518q0 -127 63 -235t171.5 -171t236.5 -63q127 0 235 63t171 171t63 235t-63 235t-171 171t-235 63
q-128 0 -236.5 -63t-171.5 -171t-63 -235z" />
    <glyph glyph-name="ydieresis" unicode="&#xff;" horiz-adv-x="1148" 
d="M324 -487l221 507l-463 1016h78l424 -930l405 930h78l-668 -1523h-75zM295 1262q0 28 18.5 46.5t46.5 18.5t47 -18.5t19 -46.5t-19 -48t-47 -20q-27 0 -46 20t-19 48zM723 1262q0 27 20 46t48 19q27 0 46 -19t19 -46q0 -28 -19.5 -48t-45.5 -20q-28 0 -48 20t-20 48z" />
    <glyph glyph-name="Amacron" unicode="&#x100;" horiz-adv-x="1339" 
d="M61 0l568 1434h80l569 -1434h-80l-199 502h-659l-199 -502h-80zM369 575h600l-299 758zM428 1614v55h483v-55h-483z" />
    <glyph glyph-name="amacron" unicode="&#x101;" 
d="M645 -25q-147 0 -272 73t-198 198t-73 272t73 272t198 198t272 73q155 0 280 -81t189 -216v274h72v-1038h-72v274q-65 -135 -189.5 -217t-279.5 -82zM174 518q0 -127 63 -235t171.5 -171t236.5 -63q127 0 235 63t171 171t63 235q0 128 -63 236.5t-171 171.5t-235 63
q-195 0 -333 -138t-138 -333zM401 1225v55h484v-55h-484z" />
    <glyph glyph-name="Abreve" unicode="&#x102;" horiz-adv-x="1339" 
d="M61 0l568 1434h80l569 -1434h-80l-199 502h-659l-199 -502h-80zM369 575h600l-299 758zM444 1774h54q0 -73 47 -120.5t125 -47.5t124 47t46 121h55q0 -96 -60.5 -160t-164.5 -64t-165 64t-61 160z" />
    <glyph glyph-name="abreve" unicode="&#x103;" 
d="M645 -25q-147 0 -272 73t-198 198t-73 272t73 272t198 198t272 73q155 0 280 -81t189 -216v274h72v-1038h-72v274q-65 -135 -189.5 -217t-279.5 -82zM174 518q0 -127 63 -235t171.5 -171t236.5 -63q127 0 235 63t171 171t63 235q0 128 -63 236.5t-171 171.5t-235 63
q-195 0 -333 -138t-138 -333zM416 1405h53q0 -73 47 -120.5t125 -47.5t124 47t46 121h55q0 -96 -60.5 -159.5t-164.5 -63.5t-164.5 63.5t-60.5 159.5z" />
    <glyph glyph-name="Aogonek" unicode="&#x104;" horiz-adv-x="1339" 
d="M1233 -526q-41 0 -77.5 9.5t-71 30.5t-54.5 62.5t-20 99.5q0 65 40 134.5t84.5 113.5t90.5 76h-29l-199 502h-657l-199 -502h-80l568 1434h80l567 -1434q-82 -63 -141.5 -150t-59.5 -172q0 -71 48 -105t124 -34q37 0 58 6v-67q-18 -4 -72 -4zM369 575h600l-301 758z" />
    <glyph glyph-name="aogonek" unicode="&#x105;" 
d="M1145 -526q-42 0 -78.5 9.5t-70.5 30.5t-54 62.5t-20 99.5q0 50 22 101.5t57.5 94.5t68.5 74t65 54h-21v274q-64 -136 -189 -217.5t-280 -81.5q-147 0 -272 73t-198 198t-73 272t73 272t198 198t272 73q155 0 280 -81t189 -216v274h74v-1038q-83 -64 -143 -150.5
t-60 -171.5q0 -71 48.5 -105t125.5 -34q34 0 55 6v-67q-16 -4 -69 -4zM176 518q0 -127 63 -235t171 -171t235 -63t235 63t171 171t63 235q0 128 -63 236t-171 170.5t-235 62.5t-235 -62.5t-171 -170.5t-63 -236z" />
    <glyph glyph-name="Cacute" unicode="&#x106;" horiz-adv-x="1482" 
d="M842 -23q-150 0 -287 58.5t-236.5 158t-158 236.5t-58.5 287q0 151 58.5 288.5t158 236.5t236.5 157.5t287 58.5q321 0 540 -256l-57 -43q-202 225 -483 225q-181 0 -334.5 -89t-243.5 -243t-90 -335t90 -335t243.5 -243.5t334.5 -89.5q298 0 501 248l58 -43
q-104 -131 -246.5 -204t-312.5 -73zM754 1536l135 285h86l-178 -285h-43z" />
    <glyph glyph-name="cacute" unicode="&#x107;" horiz-adv-x="1187" 
d="M639 -25q-147 0 -270.5 73t-195 198t-71.5 272t71.5 272t195 198t270.5 73q143 0 263 -69t194 -187l-66 -31q-65 99 -167 157t-224 58q-193 0 -328 -138t-135 -333q0 -194 135 -331.5t328 -137.5q122 0 224 58t167 157l66 -33q-74 -117 -194 -186.5t-263 -69.5zM573 1147
l136 285h86l-179 -285h-43z" />
    <glyph glyph-name="ccircumflex" unicode="&#x109;" horiz-adv-x="1187" 
d="M639 -25q-147 0 -270.5 73t-195 198t-71.5 272t71.5 272t195 198t270.5 73q143 0 263 -69t194 -187l-66 -31q-65 99 -167 157t-224 58q-193 0 -328 -138t-135 -333q0 -194 135 -331.5t328 -137.5q122 0 224 58t167 157l66 -33q-74 -117 -194 -186.5t-263 -69.5zM338 1147
l246 285h80l245 -285h-80l-204 237l-207 -237h-80z" />
    <glyph glyph-name="Cdotaccent" unicode="&#x10a;" horiz-adv-x="1482" 
d="M842 -23q-150 0 -287 58.5t-236.5 158t-158 236.5t-58.5 287q0 151 58.5 288.5t158 236.5t236.5 157.5t287 58.5q321 0 540 -256l-57 -43q-202 225 -483 225q-181 0 -334.5 -89t-243.5 -243t-90 -335t90 -335t243.5 -243.5t334.5 -89.5q298 0 501 248l58 -43
q-104 -131 -246.5 -204t-312.5 -73zM752 1671q0 28 19.5 47t47.5 19t47 -19t19 -47t-19 -47.5t-47 -19.5t-47.5 19.5t-19.5 47.5z" />
    <glyph glyph-name="cdotaccent" unicode="&#x10b;" horiz-adv-x="1187" 
d="M639 -25q-147 0 -270.5 73t-195 198t-71.5 272t71.5 272t195 198t270.5 73q143 0 263 -69t194 -187l-66 -31q-65 99 -167 157t-224 58q-193 0 -328 -138t-135 -333q0 -194 135 -331.5t328 -137.5q122 0 224 58t167 157l66 -33q-74 -117 -194 -186.5t-263 -69.5zM551 1262
q0 28 19.5 46.5t47.5 18.5t47 -18.5t19 -46.5t-19 -48t-47 -20t-47.5 20t-19.5 48z" />
    <glyph glyph-name="Ccaron" unicode="&#x10c;" horiz-adv-x="1482" 
d="M842 -23q-150 0 -287 58.5t-236.5 158t-158 236.5t-58.5 287q0 151 58.5 288.5t158 236.5t236.5 157.5t287 58.5q321 0 540 -256l-57 -43q-202 225 -483 225q-181 0 -334.5 -89t-243.5 -243t-90 -335t90 -335t243.5 -243.5t334.5 -89.5q298 0 501 248l58 -43
q-104 -131 -246.5 -204t-312.5 -73zM522 1821h80l205 -238l205 238h80l-246 -285h-78z" />
    <glyph glyph-name="ccaron" unicode="&#x10d;" horiz-adv-x="1187" 
d="M639 -25q-147 0 -270.5 73t-195 198t-71.5 272t71.5 272t195 198t270.5 73q143 0 263 -69t194 -187l-66 -31q-65 99 -167 157t-224 58q-193 0 -328 -138t-135 -333q0 -194 135 -331.5t328 -137.5q122 0 224 58t167 157l66 -33q-74 -117 -194 -186.5t-263 -69.5zM336 1432
h80l205 -238l204 238h80l-246 -285h-77z" />
    <glyph glyph-name="Dcaron" unicode="&#x10e;" horiz-adv-x="1429" 
d="M174 0v1434h379q181 0 328 -55t244 -151.5t149.5 -227t52.5 -283.5q0 -151 -52.5 -282t-149.5 -227.5t-244.5 -152t-327.5 -55.5h-379zM246 74h307q318 0 508 175.5t190 467.5q0 293 -190 469t-508 176h-307v-1288zM311 1821h80l205 -238l205 238h80l-246 -285h-78z" />
    <glyph glyph-name="dcaron" unicode="&#x10f;" 
d="M643 -25q-147 0 -271.5 73t-197 198t-72.5 272t72.5 272t197 198t271.5 73q157 0 282 -81t189 -216v762h72v-1526h-72v274q-65 -135 -190 -217t-281 -82zM174 518q0 -127 63 -235t171 -171t235 -63q128 0 236.5 63t171.5 171t63 235q0 195 -138 333t-333 138
q-127 0 -235 -63t-171 -171.5t-63 -236.5zM1360 1151l141 375h88l-190 -375h-39z" />
    <glyph glyph-name="Dcroat" unicode="&#x110;" horiz-adv-x="1552" 
d="M295 0v680h-223v74h223v680h381q180 0 327.5 -55.5t244.5 -152t149.5 -227.5t52.5 -282q0 -153 -52.5 -283.5t-149.5 -227t-244 -151.5t-328 -55h-381zM369 72h307q317 0 507.5 176.5t190.5 468.5t-190 467.5t-508 175.5h-307v-606h473v-74h-473v-608z" />
    <glyph glyph-name="dcroat" unicode="&#x111;" horiz-adv-x="1458" 
d="M645 -25q-147 0 -272 73t-198 198t-73 272t73 272t198 198t272 73q155 0 280 -81.5t189 -217.5v463h-405v73h405v226h72v-226h211v-73h-211v-1225h-72v274q-64 -136 -189 -217.5t-280 -81.5zM174 518q0 -127 63 -235t171.5 -171t236.5 -63q127 0 235 63t171 171t63 235
t-63 235t-171 171t-235 63q-128 0 -236.5 -63t-171.5 -171t-63 -235z" />
    <glyph glyph-name="Emacron" unicode="&#x112;" horiz-adv-x="995" 
d="M174 0v1434h660v-72h-586v-574h567v-73h-567v-641h604v-74h-678zM260 1614v55h483v-55h-483z" />
    <glyph glyph-name="emacron" unicode="&#x113;" horiz-adv-x="1249" 
d="M645 -25q-155 0 -280 73t-194 197t-69 273q0 114 42 215t114 173t171 113.5t210 41.5q146 0 263 -73.5t181 -197t64 -272.5v-35h-969q12 -186 142 -310t325 -124q271 0 412 215l65 -33q-79 -124 -202 -190t-275 -66zM178 555h895q-12 185 -132.5 309.5t-301.5 124.5
q-186 0 -317.5 -123.5t-143.5 -310.5zM383 1225v55h483v-55h-483z" />
    <glyph glyph-name="Edotaccent" unicode="&#x116;" horiz-adv-x="995" 
d="M174 0v1434h660v-72h-586v-574h567v-73h-567v-641h604v-74h-678zM442 1671q0 28 20 47t48 19t46.5 -19t18.5 -47t-18.5 -47.5t-46.5 -19.5t-48 19.5t-20 47.5z" />
    <glyph glyph-name="edotaccent" unicode="&#x117;" horiz-adv-x="1249" 
d="M645 -25q-155 0 -280 73t-194 197t-69 273q0 114 42 215t114 173t171 113.5t210 41.5q146 0 263 -73.5t181 -197t64 -272.5v-35h-969q12 -186 142 -310t325 -124q271 0 412 215l65 -33q-79 -124 -202 -190t-275 -66zM178 555h895q-12 185 -132.5 309.5t-301.5 124.5
q-186 0 -317.5 -123.5t-143.5 -310.5zM559 1262q0 27 20 46t48 19t46.5 -18.5t18.5 -46.5t-19 -48t-46 -20q-28 0 -48 20t-20 48z" />
    <glyph glyph-name="Eogonek" unicode="&#x118;" horiz-adv-x="995" 
d="M809 -526q-41 0 -77.5 9.5t-71 30.5t-54.5 62.5t-20 99.5q0 50 22 101.5t57.5 94.5t68.5 74t65 54h-625v1434h660v-74h-586v-572h567v-73h-567v-643h604v-72q-83 -64 -143 -150.5t-60 -171.5q0 -71 48.5 -105t125.5 -34q38 0 56 6v-67q-16 -4 -70 -4z" />
    <glyph glyph-name="eogonek" unicode="&#x119;" horiz-adv-x="1249" 
d="M788 -526q-42 0 -78.5 9.5t-70.5 30.5t-54 62.5t-20 99.5q0 86 58 169.5t131 140.5q-64 -11 -109 -11q-156 0 -281 73.5t-193.5 197t-68.5 272.5q0 114 42 215t113.5 173t170.5 113.5t209 41.5q146 0 263.5 -73.5t182 -197t64.5 -272.5v-37h-971q14 -185 143.5 -308.5
t325.5 -123.5q132 0 237 54.5t173 160.5l65 -33q-105 -170 -289 -227q-82 -62 -142 -151t-60 -175q0 -71 48.5 -105t125.5 -34q34 0 55 6v-67q-16 -4 -70 -4zM176 555h897q-12 185 -132.5 308.5t-303.5 123.5q-185 0 -316.5 -122.5t-144.5 -309.5z" />
    <glyph glyph-name="Ecaron" unicode="&#x11a;" horiz-adv-x="995" 
d="M174 0v1434h660v-72h-586v-574h567v-73h-567v-641h604v-74h-678zM223 1821h80l205 -238l205 238h80l-246 -285h-78z" />
    <glyph glyph-name="ecaron" unicode="&#x11b;" horiz-adv-x="1249" 
d="M645 -25q-155 0 -280 73t-194 197t-69 273q0 114 42 215t114 173t171 113.5t210 41.5q146 0 263 -73.5t181 -197t64 -272.5v-35h-969q12 -186 142 -310t325 -124q271 0 412 215l65 -33q-79 -124 -202 -190t-275 -66zM178 555h895q-12 185 -132.5 309.5t-301.5 124.5
q-186 0 -317.5 -123.5t-143.5 -310.5zM340 1432h80l205 -238l204 238h80l-245 -285h-78z" />
    <glyph glyph-name="gcircumflex" unicode="&#x11d;" 
d="M662 -487q-160 0 -292.5 67.5t-203.5 188.5l63 34q65 -101 180 -159t253 -58q207 0 329.5 134.5t122.5 334.5v219q-66 -135 -191 -217t-280 -82q-147 0 -271.5 73t-197 198t-72.5 272t72.5 272t197 198t271.5 73q155 0 280 -81t191 -216v274h72v-983q0 -113 -35.5 -211.5
t-101 -172t-165.5 -116t-222 -42.5zM174 518q0 -127 63 -235t171 -171t235 -63q128 0 236.5 63t171.5 171t63 235q0 195 -138 333t-333 138q-127 0 -235 -63t-171 -171.5t-63 -236.5zM358 1147l246 285h80l246 -285h-80l-205 237l-207 -237h-80z" />
    <glyph glyph-name="Gbreve" unicode="&#x11e;" horiz-adv-x="1632" 
d="M844 -23q-151 0 -288.5 58.5t-237 158t-158 236.5t-58.5 287q0 202 99.5 372.5t270 269.5t372.5 99q319 0 538 -256l-57 -43q-202 225 -481 225q-136 0 -259.5 -52.5t-213 -142t-142.5 -213t-53 -259.5q0 -182 89.5 -335.5t243 -243t335.5 -89.5q253 0 419.5 161.5
t188.5 412.5h-627v73h705q0 -203 -85.5 -366.5t-243 -258t-357.5 -94.5zM592 1774h53q0 -73 47 -120.5t125 -47.5t124 47t46 121h55q0 -96 -60.5 -160t-164.5 -64t-164.5 64t-60.5 160z" />
    <glyph glyph-name="gbreve" unicode="&#x11f;" 
d="M662 -487q-160 0 -292.5 67.5t-203.5 188.5l63 34q65 -101 180 -159t253 -58q207 0 329.5 134.5t122.5 334.5v219q-66 -135 -191 -217t-280 -82q-147 0 -271.5 73t-197 198t-72.5 272t72.5 272t197 198t271.5 73q155 0 280 -81t191 -216v274h72v-983q0 -113 -35.5 -211.5
t-101 -172t-165.5 -116t-222 -42.5zM174 518q0 -127 63 -235t171 -171t235 -63q128 0 236.5 63t171.5 171t63 235q0 195 -138 333t-333 138q-127 0 -235 -63t-171 -171.5t-63 -236.5zM418 1405h53q0 -73 47 -120.5t125 -47.5t124 47t46 121h55q0 -96 -60.5 -159.5
t-164.5 -63.5t-164.5 63.5t-60.5 159.5z" />
    <glyph glyph-name="Gdotaccent" unicode="&#x120;" horiz-adv-x="1632" 
d="M844 -23q-151 0 -288.5 58.5t-237 158t-158 236.5t-58.5 287q0 202 99.5 372.5t270 269.5t372.5 99q319 0 538 -256l-57 -43q-202 225 -481 225q-136 0 -259.5 -52.5t-213 -142t-142.5 -213t-53 -259.5q0 -182 89.5 -335.5t243 -243t335.5 -89.5q253 0 419.5 161.5
t188.5 412.5h-627v73h705q0 -203 -85.5 -366.5t-243 -258t-357.5 -94.5zM750 1671q0 28 19.5 47t47.5 19t47 -19t19 -47t-19 -47.5t-47 -19.5t-47.5 19.5t-19.5 47.5z" />
    <glyph glyph-name="gdotaccent" unicode="&#x121;" 
d="M662 -487q-160 0 -292.5 67.5t-203.5 188.5l63 34q65 -101 180 -159t253 -58q207 0 329.5 134.5t122.5 334.5v219q-66 -135 -191 -217t-280 -82q-147 0 -271.5 73t-197 198t-72.5 272t72.5 272t197 198t271.5 73q155 0 280 -81t191 -216v274h72v-983q0 -113 -35.5 -211.5
t-101 -172t-165.5 -116t-222 -42.5zM174 518q0 -127 63 -235t171 -171t235 -63q128 0 236.5 63t171.5 171t63 235q0 195 -138 333t-333 138q-127 0 -235 -63t-171 -171.5t-63 -236.5zM578 1262q0 28 19.5 46.5t47.5 18.5t47 -18.5t19 -46.5t-19 -48t-47 -20t-47.5 20
t-19.5 48z" />
    <glyph glyph-name="uni0122" unicode="&#x122;" horiz-adv-x="1632" 
d="M844 -23q-151 0 -288.5 58.5t-237 158t-158 236.5t-58.5 287q0 202 99.5 372.5t270 269.5t372.5 99q319 0 538 -256l-57 -43q-202 225 -481 225q-136 0 -259.5 -52.5t-213 -142t-142.5 -213t-53 -259.5q0 -182 89.5 -335.5t243 -243t335.5 -89.5q253 0 419.5 161.5
t188.5 412.5h-627v73h705q0 -203 -85.5 -366.5t-243 -258t-357.5 -94.5zM588 -489l141 374h88l-190 -374h-39z" />
    <glyph glyph-name="uni0123" unicode="&#x123;" 
d="M662 -487q-160 0 -292.5 67.5t-203.5 188.5l63 34q65 -101 180 -159t253 -58q207 0 329.5 134.5t122.5 334.5v219q-66 -135 -191 -217t-280 -82q-147 0 -271.5 73t-197 198t-72.5 272t72.5 272t197 198t271.5 73q155 0 280 -81t191 -216v274h72v-983q0 -113 -35.5 -211.5
t-101 -172t-165.5 -116t-222 -42.5zM174 518q0 -127 63 -235t171 -171t235 -63q128 0 236.5 63t171.5 171t63 235q0 195 -138 333t-333 138q-127 0 -235 -63t-171 -171.5t-63 -236.5zM600 1147l176 285h43l-133 -285h-86z" />
    <glyph glyph-name="hcircumflex" unicode="&#x125;" horiz-adv-x="1189" 
d="M143 0v1526h74v-731q58 123 159.5 194.5t237.5 71.5q198 0 315.5 -136.5t117.5 -351.5v-573h-74v573q0 113 -39.5 206t-122.5 151.5t-197 58.5q-177 0 -287 -139t-110 -352v-498h-74zM281 1618l245 285h80l246 -285h-80l-205 237l-207 -237h-79z" />
    <glyph glyph-name="Hbar" unicode="&#x126;" horiz-adv-x="1632" 
d="M281 0v1065h-220v72h220v297h71v-297h928v297h72v-297h219v-72h-219v-1065h-72v698h-928v-698h-71zM352 770h928v295h-928v-295z" />
    <glyph glyph-name="hbar" unicode="&#x127;" horiz-adv-x="1286" 
d="M242 0v1225h-211v73h211v226h71v-226h406v-73h-406v-430q58 123 160.5 194.5t237.5 71.5q198 0 315 -136.5t117 -351.5v-573h-72v573q0 83 -23.5 157t-67.5 132t-113.5 91.5t-155.5 33.5q-177 0 -287.5 -139t-110.5 -352v-496h-71z" />
    <glyph glyph-name="itilde" unicode="&#x129;" horiz-adv-x="397" 
d="M162 0v1038h74v-1038h-74zM-72 1221q22 68 61 104.5t91 36.5q10 0 19.5 -1t19 -4.5t16 -5t17 -8t14.5 -8.5t15 -10t13 -9.5t14 -11t13 -10.5q25 -21 35 -28.5t30.5 -17t39.5 -9.5q35 0 57 24t37 78l51 -14q-36 -141 -145 -141q-28 0 -56.5 11.5t-43.5 22t-42 31.5
q-23 20 -34.5 29.5t-31 18t-38.5 8.5q-67 0 -98 -103z" />
    <glyph glyph-name="Imacron" unicode="&#x12a;" horiz-adv-x="421" 
d="M174 0v1434h74v-1434h-74zM-31 1614v55h484v-55h-484z" />
    <glyph glyph-name="imacron" unicode="&#x12b;" horiz-adv-x="397" 
d="M162 0v1038h74v-1038h-74zM-43 1225v55h483v-55h-483z" />
    <glyph glyph-name="Iogonek" unicode="&#x12e;" horiz-adv-x="421" 
d="M201 -526q-42 0 -78.5 9.5t-71 30.5t-54.5 62.5t-20 99.5q0 50 22 101.5t57.5 94.5t68.5 74t65 54h-20v1434h74v-1434q-83 -64 -143 -150.5t-60 -171.5q0 -71 48.5 -105t125.5 -34q34 0 55 6v-67q-16 -4 -69 -4z" />
    <glyph glyph-name="iogonek" unicode="&#x12f;" horiz-adv-x="397" 
d="M193 -526q-41 0 -77.5 9.5t-71 30.5t-55 62.5t-20.5 99.5q0 50 22 101.5t57.5 94.5t68.5 74t65 54h-18v1038h72v-1038q-82 -63 -141.5 -150t-59.5 -172q0 -71 48 -105t124 -34q37 0 55 6v-67q-16 -4 -69 -4zM143 1341q0 23 16.5 39.5t39.5 16.5t39 -16.5t16 -39.5
t-16 -40t-39 -17t-39.5 17t-16.5 40z" />
    <glyph glyph-name="Idotaccent" unicode="&#x130;" horiz-adv-x="421" 
d="M174 0v1434h74v-1434h-74zM145 1671q0 28 20 47t48 19t47 -19t19 -47t-19 -47.5t-47 -19.5t-48 19.5t-20 47.5z" />
    <glyph glyph-name="dotlessi" unicode="&#x131;" horiz-adv-x="397" 
d="M162 0v1038h74v-1038h-74z" />
    <glyph glyph-name="IJ" unicode="&#x132;" horiz-adv-x="1273" 
d="M174 0v1434h74v-1434h-74zM514 188l74 25q20 -71 79 -117.5t148 -46.5q111 0 162 75t51 195v1115h72v-1115q0 -155 -70.5 -248.5t-214.5 -93.5q-117 0 -198.5 60.5t-102.5 150.5z" />
    <glyph glyph-name="ij" unicode="&#x133;" horiz-adv-x="833" 
d="M162 0v1038h74v-1038h-74zM143 1341q0 23 16.5 39.5t39.5 16.5t39 -16.5t16 -39.5t-16 -39t-39 -16t-39.5 16t-16.5 39zM377 -485v73q115 0 168 87t53 233v1132h72v-1132q0 -82 -16 -151t-49.5 -124.5t-91.5 -86.5t-136 -31zM578 1343q0 23 17 39.5t40 16.5t39 -16.5
t16 -39.5t-16 -39t-39 -16t-40 16t-17 39z" />
    <glyph glyph-name="jcircumflex" unicode="&#x135;" horiz-adv-x="415" 
d="M-20 -412q115 0 168 87t53 233v1132h71v-1132q0 -65 -9.5 -122t-31.5 -107.5t-55 -86t-83 -56.5t-113 -21v73zM-51 1147l246 285h79l246 -285h-80l-204 237l-207 -237h-80z" />
    <glyph glyph-name="uni0136" unicode="&#x136;" horiz-adv-x="1132" 
d="M174 0v1434h72v-703l678 703h110l-682 -709l740 -725h-117l-729 715v-715h-72zM412 -489l141 374h88l-190 -374h-39z" />
    <glyph glyph-name="uni0137" unicode="&#x137;" horiz-adv-x="905" 
d="M143 0v1526h74v-981l494 493h98l-502 -499l567 -539h-100l-557 528v-528h-74zM303 -489l141 374h88l-190 -374h-39z" />
    <glyph glyph-name="Lacute" unicode="&#x139;" horiz-adv-x="995" 
d="M174 0v1434h74v-1360h635v-74h-709zM195 1536l135 285h86l-178 -285h-43z" />
    <glyph glyph-name="lacute" unicode="&#x13a;" horiz-adv-x="358" 
d="M143 0v1526h72v-1526h-72zM164 1634l135 285h86l-178 -285h-43z" />
    <glyph glyph-name="uni013B" unicode="&#x13b;" horiz-adv-x="995" 
d="M174 0v1434h74v-1360h635v-74h-709zM326 -489l141 374h88l-190 -374h-39z" />
    <glyph glyph-name="uni013C" unicode="&#x13c;" horiz-adv-x="358" 
d="M143 0v1526h72v-1526h-72zM-10 -489l141 374h88l-190 -374h-39z" />
    <glyph glyph-name="Lcaron" unicode="&#x13d;" horiz-adv-x="995" 
d="M174 0v1434h74v-1360h635v-74h-709zM-74 1821h80l205 -238l205 238h80l-246 -285h-78z" />
    <glyph glyph-name="lcaron" unicode="&#x13e;" horiz-adv-x="358" 
d="M143 0v1526h72v-1526h-72zM457 1153l141 375h88l-190 -375h-39z" />
    <glyph glyph-name="Ldot" unicode="&#x13f;" horiz-adv-x="995" 
d="M174 0v1434h74v-1362h635v-72h-709zM537 600q0 28 19.5 47t47.5 19t47 -19t19 -47t-19 -46.5t-47 -18.5t-47.5 18.5t-19.5 46.5z" />
    <glyph glyph-name="ldot" unicode="&#x140;" horiz-adv-x="688" 
d="M143 0v1524h72v-1524h-72zM422 600q0 28 19.5 47t47.5 19q27 0 46.5 -19.5t19.5 -46.5t-19.5 -46t-46.5 -19q-28 0 -47.5 18.5t-19.5 46.5z" />
    <glyph glyph-name="Lslash" unicode="&#x141;" horiz-adv-x="1118" 
d="M299 0v539l-172 -90l-33 65l205 107v813h72v-775l407 213l33 -65l-440 -232v-503h635v-72h-707z" />
    <glyph glyph-name="lslash" unicode="&#x142;" horiz-adv-x="673" 
d="M299 0v702l-215 -114l-33 65l248 131v740h74v-703l217 115l33 -66l-250 -131v-739h-74z" />
    <glyph glyph-name="Nacute" unicode="&#x143;" horiz-adv-x="1437" 
d="M174 0v1434h94l924 -1330v1330h72v-1434h-95l-923 1329v-1329h-72zM676 1536l135 285h86l-178 -285h-43z" />
    <glyph glyph-name="nacute" unicode="&#x144;" horiz-adv-x="1189" 
d="M143 0v1038h74v-243q58 123 160 194.5t237 71.5q198 0 315.5 -136.5t117.5 -351.5v-573h-72v573q0 175 -96 295.5t-265 120.5q-177 0 -287 -139t-110 -352v-498h-74zM532 1147l136 285h86l-179 -285h-43z" />
    <glyph glyph-name="uni0145" unicode="&#x145;" horiz-adv-x="1437" 
d="M174 0v1434h94l924 -1330v1330h72v-1434h-95l-923 1329v-1329h-72zM518 -489l141 374h89l-191 -374h-39z" />
    <glyph glyph-name="uni0146" unicode="&#x146;" horiz-adv-x="1189" 
d="M143 0v1038h74v-243q58 123 160 194.5t237 71.5q198 0 315.5 -136.5t117.5 -351.5v-573h-72v573q0 175 -96 295.5t-265 120.5q-177 0 -287 -139t-110 -352v-498h-74zM422 -489l141 374h88l-190 -374h-39z" />
    <glyph glyph-name="Ncaron" unicode="&#x147;" horiz-adv-x="1437" 
d="M174 0v1434h94l924 -1330v1330h72v-1434h-95l-923 1329v-1329h-72zM434 1821h80l205 -238l205 238h80l-246 -285h-78z" />
    <glyph glyph-name="ncaron" unicode="&#x148;" horiz-adv-x="1189" 
d="M143 0v1038h74v-243q58 123 160 194.5t237 71.5q198 0 315.5 -136.5t117.5 -351.5v-573h-72v573q0 175 -96 295.5t-265 120.5q-177 0 -287 -139t-110 -352v-498h-74zM291 1432h80l204 -238l205 238h80l-246 -285h-77z" />
    <glyph glyph-name="napostrophe" unicode="&#x149;" horiz-adv-x="1282" 
d="M236 0v1036h73v-241q58 123 160 194.5t238 71.5q198 0 315 -136.5t117 -351.5v-573h-74v573q0 83 -23 157t-67 132t-113 91.5t-155 33.5q-177 0 -287.5 -139t-110.5 -352v-496h-73zM20 1100l142 375h88l-191 -375h-39z" />
    <glyph glyph-name="Eng" unicode="&#x14a;" horiz-adv-x="1439" 
d="M952 -397q118 0 179 79t61 205v113l-944 1331v-1331h-74v1434h94l924 -1301v1301h74v-1547q0 -74 -19 -137.5t-56.5 -113t-98.5 -77.5t-140 -28v72z" />
    <glyph glyph-name="eng" unicode="&#x14b;" horiz-adv-x="1189" 
d="M754 -397q78 0 128.5 44t70.5 113t20 164v649q0 112 -39.5 204.5t-122.5 151t-197 58.5q-177 0 -287 -139t-110 -352v-496h-74v1036h74v-241q58 123 159.5 194.5t237.5 71.5q198 0 315.5 -136.5t117.5 -351.5v-649q0 -83 -16 -152t-49.5 -124t-91.5 -86t-136 -31v72z" />
    <glyph glyph-name="Omacron" unicode="&#x14c;" horiz-adv-x="1685" 
d="M844 -23q-151 0 -288.5 58.5t-237 158t-158 236.5t-58.5 287q0 202 99.5 372.5t270 269.5t372.5 99q150 0 287 -58.5t236 -157.5t157.5 -236.5t58.5 -288.5q0 -150 -58.5 -287t-157.5 -236.5t-236 -158t-287 -58.5zM176 717q0 -182 89.5 -335.5t243 -243t335.5 -89.5
q181 0 334.5 89.5t243 243.5t89.5 335q0 136 -53 259.5t-142.5 213t-213 142t-258.5 52.5q-136 0 -259.5 -52.5t-213 -142t-142.5 -213t-53 -259.5zM602 1614v55h483v-55h-483z" />
    <glyph glyph-name="omacron" unicode="&#x14d;" horiz-adv-x="1288" 
d="M645 -23q-147 0 -272 73t-198 198t-73 272t73 272t198 198t272 73t271.5 -73t197 -198t72.5 -272t-72.5 -272t-197 -198t-271.5 -73zM174 520q0 -127 63 -235t171.5 -171t236.5 -63q127 0 235 63t171 171t63 235q0 128 -63 236.5t-171 171.5t-235 63q-195 0 -333 -138
t-138 -333zM403 1225v55h484v-55h-484z" />
    <glyph glyph-name="Ohungarumlaut" unicode="&#x150;" horiz-adv-x="1685" 
d="M844 -23q-151 0 -288.5 58.5t-237 158t-158 236.5t-58.5 287q0 202 99.5 372.5t270 269.5t372.5 99q150 0 287 -58.5t236 -157.5t157.5 -236.5t58.5 -288.5q0 -150 -58.5 -287t-157.5 -236.5t-236 -158t-287 -58.5zM176 717q0 -182 89.5 -335.5t243 -243t335.5 -89.5
q181 0 334.5 89.5t243 243.5t89.5 335q0 136 -53 259.5t-142.5 213t-213 142t-258.5 52.5q-136 0 -259.5 -52.5t-213 -142t-142.5 -213t-53 -259.5zM618 1536l136 285h86l-178 -285h-44zM979 1536l135 285h86l-176 -285h-45z" />
    <glyph glyph-name="ohungarumlaut" unicode="&#x151;" horiz-adv-x="1288" 
d="M645 -23q-147 0 -272 73t-198 198t-73 272t73 272t198 198t272 73t271.5 -73t197 -198t72.5 -272t-72.5 -272t-197 -198t-271.5 -73zM174 520q0 -127 63 -235t171.5 -171t236.5 -63q127 0 235 63t171 171t63 235q0 128 -63 236.5t-171 171.5t-235 63q-195 0 -333 -138
t-138 -333zM424 1147l135 285h86l-178 -285h-43zM784 1147l136 285h86l-177 -285h-45z" />
    <glyph glyph-name="OE" unicode="&#x152;" horiz-adv-x="2332" 
d="M844 -25q-202 0 -372.5 99.5t-270 270t-99.5 372.5q0 150 58.5 287t158 236t237 157.5t288.5 58.5q217 0 396 -115t271 -305v398h660v-74h-588v-572h569v-73h-569v-643h606v-72h-678v395q-92 -189 -271.5 -304.5t-395.5 -115.5zM176 717q0 -182 89.5 -335.5t243 -243
t335.5 -89.5q136 0 259.5 53t213 142.5t142 213t52.5 259.5t-52.5 259.5t-142 213t-213 142t-259.5 52.5t-259.5 -52.5t-213 -142t-142.5 -213t-53 -259.5z" />
    <glyph glyph-name="oe" unicode="&#x153;" horiz-adv-x="2260" 
d="M645 -25q-147 0 -272 73t-198 198t-73 272t73 272t198 198t272 73q170 0 307.5 -95.5t196.5 -248.5q59 155 195 249.5t307 94.5q146 0 263 -73.5t181 -197t64 -272.5v-37h-969q12 -185 142 -308.5t325 -123.5q271 0 409 215l68 -33q-79 -125 -201.5 -190.5t-275.5 -65.5
q-179 0 -314.5 94.5t-193.5 249.5q-59 -153 -196.5 -248.5t-307.5 -95.5zM176 518q0 -127 63 -235t171 -171t235 -63t235 63t171 171t63 235t-63 235t-171 171t-235 63t-235 -63t-171 -171t-63 -235zM1190 555h895q-12 185 -132.5 308.5t-301.5 123.5q-186 0 -317.5 -122.5
t-143.5 -309.5z" />
    <glyph glyph-name="Racute" unicode="&#x154;" horiz-adv-x="1079" 
d="M174 0v1434h203q114 0 209 -24t168 -71t114 -124.5t41 -178.5q0 -156 -93 -251.5t-253 -129.5l475 -655h-94l-461 643q-52 -6 -106 -6h-129v-637h-74zM248 709h129q212 0 334.5 82.5t122.5 244.5t-122.5 244t-334.5 82h-129v-653zM430 1536l135 285h86l-178 -285h-43z
" />
    <glyph glyph-name="racute" unicode="&#x155;" horiz-adv-x="618" 
d="M143 0v1038h72v-274q85 297 342 297v-72q-86 0 -153 -42.5t-107.5 -116.5t-61 -167.5t-20.5 -201.5v-461h-72zM287 1147l135 285h86l-178 -285h-43z" />
    <glyph glyph-name="uni0156" unicode="&#x156;" horiz-adv-x="1079" 
d="M174 0v1434h203q114 0 209 -24t168 -71t114 -124.5t41 -178.5q0 -156 -93 -251.5t-253 -129.5l475 -655h-94l-461 643q-52 -6 -106 -6h-129v-637h-74zM248 709h129q212 0 334.5 82.5t122.5 244.5t-122.5 244t-334.5 82h-129v-653zM391 -489l141 374h89l-191 -374h-39z
" />
    <glyph glyph-name="uni0157" unicode="&#x157;" horiz-adv-x="618" 
d="M143 0v1038h72v-274q85 297 342 297v-72q-86 0 -153 -42.5t-107.5 -116.5t-61 -167.5t-20.5 -201.5v-461h-72zM-12 -489l141 374h88l-190 -374h-39z" />
    <glyph glyph-name="Rcaron" unicode="&#x158;" horiz-adv-x="1079" 
d="M174 0v1434h203q114 0 209 -24t168 -71t114 -124.5t41 -178.5q0 -156 -93 -251.5t-253 -129.5l475 -655h-94l-461 643q-52 -6 -106 -6h-129v-637h-74zM209 1821h80l205 -238l204 238h80l-246 -285h-77zM248 709h129q212 0 334.5 82.5t122.5 244.5t-122.5 244t-334.5 82
h-129v-653z" />
    <glyph glyph-name="rcaron" unicode="&#x159;" horiz-adv-x="618" 
d="M143 0v1038h72v-274q85 297 342 297v-72q-86 0 -153 -42.5t-107.5 -116.5t-61 -167.5t-20.5 -201.5v-461h-72zM47 1432h80l205 -238l205 238h79l-245 -285h-78z" />
    <glyph glyph-name="Sacute" unicode="&#x15a;" horiz-adv-x="999" 
d="M502 -23q-97 0 -176 32t-126.5 83.5t-74.5 109.5t-33 117l74 9q4 -50 26 -97.5t61.5 -89t104 -67t144.5 -25.5q49 0 94 9.5t89 32.5t76.5 58.5t52.5 91t20 126.5q0 70 -21 122t-76 93.5t-91.5 61t-125.5 59.5q-5 3 -8 4q-142 65 -194 100q-135 90 -157 235q-5 32 -5 68
q0 146 95.5 247t244.5 101q78 0 142 -27t103 -71t61.5 -92.5t28.5 -98.5l-71 -8q-11 86 -78.5 154.5t-185.5 68.5q-66 0 -119 -24t-84 -64t-47.5 -87.5t-16.5 -98.5q0 -56 16.5 -101.5t40 -76t66.5 -59.5t78 -47t93 -45q13 -6 20 -9q139 -64 187 -94q143 -90 170 -232
q7 -37 7 -79q0 -175 -107.5 -282.5t-297.5 -107.5zM451 1536l135 285h86l-178 -285h-43z" />
    <glyph glyph-name="sacute" unicode="&#x15b;" horiz-adv-x="864" 
d="M440 -23q-144 0 -235.5 78t-102.5 183l74 8q8 -78 79.5 -136.5t184.5 -58.5q45 0 87 12t79 36t59.5 67t22.5 100q0 36 -13 66t-30 50t-51.5 40.5t-59.5 32t-71 31.5q-13 5 -19 8q-40 16 -61 25.5t-57.5 27.5t-56.5 33.5t-46 39.5t-39.5 49t-23.5 59t-10 73
q0 113 78 187.5t198 74.5q113 0 190.5 -61.5t90.5 -141.5l-72 -12q-7 51 -62 97t-147 46q-83 0 -144 -50.5t-61 -139.5q0 -33 8 -61t27.5 -50.5t38 -39t53 -34t57.5 -27.5t66 -28q126 -53 172 -84q119 -79 119 -211q0 -129 -89.5 -209t-232.5 -80zM375 1147l135 285h86
l-178 -285h-43z" />
    <glyph glyph-name="scircumflex" unicode="&#x15d;" horiz-adv-x="864" 
d="M440 -23q-144 0 -235.5 78t-102.5 183l74 8q8 -78 79.5 -136.5t184.5 -58.5q45 0 87 12t79 36t59.5 67t22.5 100q0 36 -13 66t-30 50t-51.5 40.5t-59.5 32t-71 31.5q-13 5 -19 8q-40 16 -61 25.5t-57.5 27.5t-56.5 33.5t-46 39.5t-39.5 49t-23.5 59t-10 73
q0 113 78 187.5t198 74.5q113 0 190.5 -61.5t90.5 -141.5l-72 -12q-7 51 -62 97t-147 46q-83 0 -144 -50.5t-61 -139.5q0 -33 8 -61t27.5 -50.5t38 -39t53 -34t57.5 -27.5t66 -28q126 -53 172 -84q119 -79 119 -211q0 -129 -89.5 -209t-232.5 -80zM145 1147l246 285h80
l246 -285h-80l-205 237l-207 -237h-80z" />
    <glyph glyph-name="Scedilla" unicode="&#x15e;" horiz-adv-x="999" 
d="M489 -543q-104 0 -182 54l35 57q65 -45 147 -45q63 0 107.5 33.5t44.5 101.5q0 34 -13.5 60t-35 38.5t-41 18.5t-37.5 6q-38 0 -94 -25l-35 49l80 172q-89 6 -160.5 39.5t-115 84t-68 106.5t-29.5 112l74 7q4 -49 26 -96.5t61.5 -88.5t104 -66.5t144.5 -25.5
q61 0 116.5 16t105.5 50.5t80 98.5t30 151q0 56 -18 102.5t-38.5 75t-71 62t-77.5 47t-96 45.5q-14 7 -21 10q-143 64 -198 101q-133 91 -154 239q-4 30 -4 63q0 145 95.5 245.5t244.5 100.5q78 0 141.5 -27t102.5 -70.5t62 -91.5t29 -98l-71 -8q-5 39 -23 76.5t-49 71.5
t-81 54.5t-111 20.5q-67 0 -120 -24.5t-84.5 -64.5t-48 -87.5t-16.5 -97.5q0 -47 10 -85.5t31.5 -69t45 -53.5t61.5 -45.5t68 -37.5t78 -37q15 -7 22 -10q140 -64 190 -97q146 -94 169 -243q5 -32 5 -67q0 -169 -102 -275.5t-283 -112.5l-69 -149q30 10 67 10
q88 0 138.5 -49.5t50.5 -130.5q0 -99 -63.5 -150t-156.5 -51z" />
    <glyph glyph-name="scedilla" unicode="&#x15f;" horiz-adv-x="864" 
d="M428 -543q-104 0 -182 54l33 57q68 -45 149 -45q62 0 106 33.5t44 101.5q0 34 -13.5 60t-34 38.5t-40 18.5t-37.5 6q-39 0 -95 -25l-34 49l79 172q-128 10 -209 86t-92 173l74 8q8 -78 79.5 -136.5t184.5 -58.5q45 0 87 11.5t79 35.5t59.5 67.5t22.5 100.5q0 37 -12.5 67
t-31.5 50.5t-51 40t-61.5 33t-72.5 31.5l-15 6q-40 16 -61 25.5t-57.5 27.5t-56.5 33.5t-46 39.5t-39.5 49t-23.5 59t-10 73q0 112 78.5 187t197.5 75q115 0 191.5 -62t89.5 -143l-72 -10q-7 50 -62 95.5t-147 45.5q-83 0 -143 -49.5t-60 -138.5q0 -40 14.5 -73.5t33 -54.5
t58 -44t65 -34.5t79.5 -33.5q5 -2 14 -6q38 -16 57.5 -25t53.5 -26.5t52.5 -31.5t43 -37t37.5 -46.5t22 -55t9 -67.5q0 -124 -83 -203t-218 -84l-70 -149q30 10 68 10q87 0 137.5 -49.5t50.5 -130.5q0 -99 -63 -150t-156 -51z" />
    <glyph glyph-name="Scaron" unicode="&#x160;" horiz-adv-x="999" 
d="M502 -23q-97 0 -176 32t-126.5 83.5t-74.5 109.5t-33 117l74 9q4 -50 26 -97.5t61.5 -89t104 -67t144.5 -25.5q49 0 94 9.5t89 32.5t76.5 58.5t52.5 91t20 126.5q0 70 -21 122t-76 93.5t-91.5 61t-125.5 59.5q-5 3 -8 4q-142 65 -194 100q-135 90 -157 235q-5 32 -5 68
q0 146 95.5 247t244.5 101q78 0 142 -27t103 -71t61.5 -92.5t28.5 -98.5l-71 -8q-11 86 -78.5 154.5t-185.5 68.5q-66 0 -119 -24t-84 -64t-47.5 -87.5t-16.5 -98.5q0 -56 16.5 -101.5t40 -76t66.5 -59.5t78 -47t93 -45q13 -6 20 -9q139 -64 187 -94q143 -90 170 -232
q7 -37 7 -79q0 -175 -107.5 -282.5t-297.5 -107.5zM205 1821h80l204 -238l205 238h80l-246 -285h-77z" />
    <glyph glyph-name="scaron" unicode="&#x161;" horiz-adv-x="864" 
d="M440 -23q-144 0 -235.5 78t-102.5 183l74 8q8 -78 79.5 -136.5t184.5 -58.5q45 0 87 12t79 36t59.5 67t22.5 100q0 36 -13 66t-30 50t-51.5 40.5t-59.5 32t-71 31.5q-13 5 -19 8q-40 16 -61 25.5t-57.5 27.5t-56.5 33.5t-46 39.5t-39.5 49t-23.5 59t-10 73
q0 113 78 187.5t198 74.5q113 0 190.5 -61.5t90.5 -141.5l-72 -12q-7 51 -62 97t-147 46q-83 0 -144 -50.5t-61 -139.5q0 -33 8 -61t27.5 -50.5t38 -39t53 -34t57.5 -27.5t66 -28q126 -53 172 -84q119 -79 119 -211q0 -129 -89.5 -209t-232.5 -80zM147 1432h80l205 -238
l205 238h80l-246 -285h-78z" />
    <glyph glyph-name="uni0162" unicode="&#x162;" horiz-adv-x="1099" 
d="M537 -543q-105 0 -183 54l33 57q68 -45 150 -45q62 0 105.5 33.5t43.5 101.5q0 34 -13.5 60t-34 38.5t-40 18.5t-37.5 6q-38 0 -94 -25l-35 49l90 195h-8v1360h-391v74h854v-74h-391v-1360h-6l-80 -172q30 10 67 10q87 0 138 -50t51 -130q0 -99 -63 -150t-156 -51z" />
    <glyph glyph-name="uni0163" unicode="&#x163;" horiz-adv-x="858" 
d="M469 -543q-104 0 -184 54l34 57q68 -45 150 -45q61 0 105 33.5t44 101.5q0 35 -13 60.5t-34 38t-40 18.5t-37 6q-37 0 -97 -25l-32 49l88 193q-80 29 -121 100.5t-41 173.5v693h-219v73h219v232h74v-232h340v-73h-340v-693q0 -100 46.5 -158.5t139.5 -58.5q76 0 149 62
l56 -51q-88 -82 -205 -82q-31 0 -45 2l-74 -158q30 10 66 10q88 0 139 -49.5t51 -130.5q0 -99 -63 -150t-156 -51z" />
    <glyph glyph-name="Tcaron" unicode="&#x164;" horiz-adv-x="1099" 
d="M514 0v1362h-391v72h854v-72h-391v-1362h-72zM266 1821h80l205 -238l205 238h80l-246 -285h-78z" />
    <glyph glyph-name="tcaron" unicode="&#x165;" horiz-adv-x="856" 
d="M551 -16q-127 0 -193.5 78.5t-66.5 209.5v693h-219v73h219v232h71v-232h343v-73h-343v-693q0 -99 47.5 -158t141.5 -59q76 0 149 62l54 -51q-88 -82 -203 -82zM729 1149l141 375h88l-190 -375h-39z" />
    <glyph glyph-name="Tbar" unicode="&#x166;" horiz-adv-x="1099" 
d="M514 0v813h-309v74h309v473h-391v74h854v-74h-391v-473h307v-74h-307v-813h-72z" />
    <glyph glyph-name="tbar" unicode="&#x167;" horiz-adv-x="856" 
d="M551 -16q-127 0 -193.5 78.5t-66.5 209.5v342h-201v74h201v277h-219v71h219v234h71v-234h343v-71h-343v-277h287v-74h-287v-342q0 -99 47.5 -158t141.5 -59q76 0 149 62l54 -54q-89 -79 -203 -79z" />
    <glyph glyph-name="utilde" unicode="&#x169;" horiz-adv-x="1187" 
d="M575 -25q-197 0 -314.5 137.5t-117.5 352.5v573h72v-573q0 -175 95.5 -295.5t264.5 -120.5q177 0 287.5 139.5t110.5 352.5v497h71v-1038h-71v244q-58 -123 -160.5 -196t-237.5 -73zM324 1221q45 141 151 141q10 0 19.5 -1t19 -4.5t16 -5t17 -8t14.5 -8.5t15 -10t13 -9.5
t14 -11t13 -10.5q25 -21 35 -28.5t30.5 -17t39.5 -9.5q35 0 57 24t37 78l51 -14q-36 -141 -145 -141q-28 0 -56.5 11.5t-42.5 21.5t-42 32q-22 20 -34.5 29.5t-32 18t-38.5 8.5q-67 0 -98 -103z" />
    <glyph glyph-name="Umacron" unicode="&#x16a;" horiz-adv-x="1390" 
d="M696 -23q-230 0 -376 149.5t-146 416.5v891h72v-891q0 -234 122.5 -364t327.5 -130q204 0 326.5 130.5t122.5 363.5v891h72v-891q0 -267 -146 -416.5t-375 -149.5zM455 1614v55h483v-55h-483z" />
    <glyph glyph-name="umacron" unicode="&#x16b;" horiz-adv-x="1187" 
d="M575 -25q-197 0 -314.5 137.5t-117.5 352.5v573h72v-573q0 -175 95.5 -295.5t264.5 -120.5q177 0 287.5 139.5t110.5 352.5v497h71v-1038h-71v244q-58 -123 -160.5 -196t-237.5 -73zM352 1225v55h484v-55h-484z" />
    <glyph glyph-name="ubreve" unicode="&#x16d;" horiz-adv-x="1187" 
d="M575 -25q-197 0 -314.5 137.5t-117.5 352.5v573h72v-573q0 -175 95.5 -295.5t264.5 -120.5q177 0 287.5 139.5t110.5 352.5v497h71v-1038h-71v244q-58 -123 -160.5 -196t-237.5 -73zM369 1405h53q0 -73 47 -120.5t125 -47.5t124 47t46 121h55q0 -96 -60.5 -159.5
t-164.5 -63.5t-164.5 63.5t-60.5 159.5z" />
    <glyph glyph-name="Uring" unicode="&#x16e;" horiz-adv-x="1390" 
d="M696 -23q-230 0 -376 149.5t-146 416.5v891h72v-891q0 -234 122.5 -364t327.5 -130q204 0 326.5 130.5t122.5 363.5v891h72v-891q0 -267 -146 -416.5t-375 -149.5zM518 1722q0 74 52.5 126.5t125.5 52.5t125.5 -52.5t52.5 -126.5q0 -75 -52 -127.5t-126 -52.5t-126 52.5
t-52 127.5zM571 1722q0 -52 37 -88.5t88 -36.5t87 36.5t36 88.5q0 51 -36 87t-87 36t-88 -36t-37 -87z" />
    <glyph glyph-name="uring" unicode="&#x16f;" horiz-adv-x="1187" 
d="M575 -25q-197 0 -314.5 137.5t-117.5 352.5v573h72v-573q0 -175 95.5 -295.5t264.5 -120.5q177 0 287.5 139.5t110.5 352.5v497h71v-1038h-71v244q-58 -123 -160.5 -196t-237.5 -73zM416 1335q0 73 52 125.5t126 52.5t126 -52.5t52 -125.5q0 -75 -52 -127.5t-126 -52.5
t-126 52.5t-52 127.5zM469 1335q0 -52 37 -88.5t88 -36.5t87 36.5t36 88.5q0 51 -36 87t-87 36t-88 -36t-37 -87z" />
    <glyph glyph-name="Uhungarumlaut" unicode="&#x170;" horiz-adv-x="1390" 
d="M696 -23q-230 0 -376 149.5t-146 416.5v891h72v-891q0 -234 122.5 -364t327.5 -130q204 0 326.5 130.5t122.5 363.5v891h72v-891q0 -267 -146 -416.5t-375 -149.5zM467 1536l135 285h86l-178 -285h-43zM827 1536l136 285h86l-177 -285h-45z" />
    <glyph glyph-name="uhungarumlaut" unicode="&#x171;" horiz-adv-x="1187" 
d="M575 -25q-197 0 -314.5 137.5t-117.5 352.5v573h72v-573q0 -175 95.5 -295.5t264.5 -120.5q177 0 287.5 139.5t110.5 352.5v497h71v-1038h-71v244q-58 -123 -160.5 -196t-237.5 -73zM373 1147l135 285h86l-178 -285h-43zM733 1147l135 285h86l-176 -285h-45z" />
    <glyph glyph-name="Uogonek" unicode="&#x172;" horiz-adv-x="1392" 
d="M844 -526q-42 0 -78.5 9.5t-70.5 30.5t-54 62.5t-20 99.5q0 85 57 168.5t129 141.5q-64 -11 -111 -11q-230 0 -376 150t-146 416v893h74v-893q0 -233 122 -362.5t326 -129.5t326.5 129.5t122.5 362.5v893h74v-893q0 -206 -89.5 -343.5t-242.5 -191.5q-81 -61 -142 -151.5
t-61 -176.5q0 -71 48.5 -105t125.5 -34q34 0 55 6v-67q-16 -4 -69 -4z" />
    <glyph glyph-name="uogonek" unicode="&#x173;" horiz-adv-x="1187" 
d="M1004 -526q-42 0 -79 9.5t-71.5 30.5t-55 62.5t-20.5 99.5q0 65 40 134.5t84.5 113.5t90.5 76h-20v244q-58 -123 -160.5 -196t-237.5 -73q-198 0 -315 136.5t-117 351.5v575h72v-575q0 -83 23.5 -157t67.5 -132t113.5 -91.5t155.5 -33.5q177 0 287.5 139.5t110.5 352.5
v497h71v-1038q-82 -63 -141 -150t-59 -172q0 -71 48 -105t124 -34q36 0 57 6v-67q-18 -4 -69 -4z" />
    <glyph glyph-name="Wcircumflex" unicode="&#x174;" horiz-adv-x="2035" 
d="M539 0l-478 1434h80l437 -1311l401 1311h78l401 -1311l436 1311h80l-475 -1434h-80l-401 1307l-400 -1307h-79zM733 1536l246 285h80l246 -285h-80l-205 238l-207 -238h-80z" />
    <glyph glyph-name="wcircumflex" unicode="&#x175;" horiz-adv-x="1728" 
d="M481 0l-399 1036h78l356 -930l309 930h78l307 -930l359 930h78l-400 -1036h-78l-305 922l-305 -922h-78zM580 1147l245 285h80l246 -285h-80l-205 237l-207 -237h-79z" />
    <glyph glyph-name="Ycircumflex" unicode="&#x176;" horiz-adv-x="1267" 
d="M600 0v616l-539 818h89l485 -740l485 740h86l-534 -816v-618h-72zM348 1536l246 285h80l246 -285h-80l-205 238l-207 -238h-80z" />
    <glyph glyph-name="ycircumflex" unicode="&#x177;" horiz-adv-x="1148" 
d="M324 -487l221 507l-463 1016h78l424 -930l405 930h78l-668 -1523h-75zM289 1147l246 285h79l246 -285h-80l-205 237l-206 -237h-80z" />
    <glyph glyph-name="Ydieresis" unicode="&#x178;" horiz-adv-x="1267" 
d="M600 0v616l-539 818h89l485 -740l485 740h86l-534 -816v-618h-72zM354 1671q0 28 19 47t47 19t46.5 -19t18.5 -47t-18.5 -47.5t-46.5 -19.5t-47 19.5t-19 47.5zM782 1671q0 28 20 47t48 19q26 0 45.5 -19.5t19.5 -46.5q0 -28 -19.5 -47.5t-45.5 -19.5q-28 0 -48 19.5
t-20 47.5z" />
    <glyph glyph-name="Zacute" unicode="&#x179;" horiz-adv-x="1206" 
d="M113 0v74l835 1286h-801v74h891v-74l-837 -1286h893v-74h-981zM526 1536l136 285h86l-179 -285h-43z" />
    <glyph glyph-name="zacute" unicode="&#x17a;" horiz-adv-x="1007" 
d="M102 0v72l680 893h-643v71h731v-71l-680 -893h715v-72h-803zM430 1147l135 285h86l-178 -285h-43z" />
    <glyph glyph-name="Zdotaccent" unicode="&#x17b;" horiz-adv-x="1206" 
d="M113 0v74l835 1286h-801v74h891v-74l-837 -1286h893v-74h-981zM532 1671q0 28 20 47t48 19t47 -19t19 -47t-19 -47.5t-47 -19.5t-48 19.5t-20 47.5z" />
    <glyph glyph-name="zdotaccent" unicode="&#x17c;" horiz-adv-x="1007" 
d="M102 0v72l680 893h-643v71h731v-71l-680 -893h715v-72h-803zM438 1262q0 27 20 46t48 19t46.5 -18.5t18.5 -46.5t-19 -48t-46 -20q-28 0 -48 20t-20 48z" />
    <glyph glyph-name="Zcaron" unicode="&#x17d;" horiz-adv-x="1206" 
d="M113 0v74l835 1286h-801v74h891v-74l-837 -1286h893v-74h-981zM319 1821h80l205 -238l205 238h80l-246 -285h-78z" />
    <glyph glyph-name="zcaron" unicode="&#x17e;" horiz-adv-x="1007" 
d="M102 0v72l680 893h-643v71h731v-71l-680 -893h715v-72h-803zM219 1432h80l205 -238l205 238h79l-245 -285h-78z" />
    <glyph glyph-name="gcaron" unicode="&#x1e7;" 
d="M662 -487q-160 0 -292.5 67.5t-203.5 188.5l63 34q65 -101 180 -159t253 -58q207 0 329.5 134.5t122.5 334.5v219q-66 -135 -191 -217t-280 -82q-147 0 -271.5 73t-197 198t-72.5 272t72.5 272t197 198t271.5 73q155 0 280 -81t191 -216v274h72v-983q0 -113 -35.5 -211.5
t-101 -172t-165.5 -116t-222 -42.5zM174 518q0 -127 63 -235t171 -171t235 -63q128 0 236.5 63t171.5 171t63 235q0 195 -138 333t-333 138q-127 0 -235 -63t-171 -171.5t-63 -236.5zM358 1432h80l205 -238l205 238h80l-246 -285h-78z" />
    <glyph glyph-name="uni0218" unicode="&#x218;" horiz-adv-x="999" 
d="M502 -23q-97 0 -176 32t-126.5 83.5t-74.5 109.5t-33 117l74 9q4 -50 26 -97.5t61.5 -89t104 -67t144.5 -25.5q49 0 94 9.5t89 32.5t76.5 58.5t52.5 91t20 126.5q0 70 -21 122t-76 93.5t-91.5 61t-125.5 59.5q-5 3 -8 4q-142 65 -194 100q-135 90 -157 235q-5 32 -5 68
q0 146 95.5 247t244.5 101q78 0 142 -27t103 -71t61.5 -92.5t28.5 -98.5l-71 -8q-11 86 -78.5 154.5t-185.5 68.5q-66 0 -119 -24t-84 -64t-47.5 -87.5t-16.5 -98.5q0 -56 16.5 -101.5t40 -76t66.5 -59.5t78 -47t93 -45q13 -6 20 -9q139 -64 187 -94q143 -90 170 -232
q7 -37 7 -79q0 -175 -107.5 -282.5t-297.5 -107.5zM305 -489l141 374h89l-191 -374h-39z" />
    <glyph glyph-name="uni0219" unicode="&#x219;" horiz-adv-x="864" 
d="M440 -23q-144 0 -235.5 78t-102.5 183l74 8q8 -78 79.5 -136.5t184.5 -58.5q45 0 87 12t79 36t59.5 67t22.5 100q0 36 -13 66t-30 50t-51.5 40.5t-59.5 32t-71 31.5q-13 5 -19 8q-40 16 -61 25.5t-57.5 27.5t-56.5 33.5t-46 39.5t-39.5 49t-23.5 59t-10 73
q0 113 78 187.5t198 74.5q113 0 190.5 -61.5t90.5 -141.5l-72 -12q-7 51 -62 97t-147 46q-83 0 -144 -50.5t-61 -139.5q0 -33 8 -61t27.5 -50.5t38 -39t53 -34t57.5 -27.5t66 -28q126 -53 172 -84q119 -79 119 -211q0 -129 -89.5 -209t-232.5 -80zM246 -489l141 374h88
l-190 -374h-39z" />
    <glyph glyph-name="uni021A" unicode="&#x21a;" horiz-adv-x="1099" 
d="M514 0v1362h-391v72h854v-72h-391v-1362h-72zM358 -492l142 375h88l-191 -375h-39z" />
    <glyph glyph-name="uni021B" unicode="&#x21b;" horiz-adv-x="858" 
d="M551 -14q-127 0 -193.5 78.5t-66.5 209.5v693h-219v73h219v232h74v-232h340v-73h-340v-693q0 -99 46.5 -157t139.5 -58q78 0 149 60l56 -51q-88 -82 -205 -82zM285 -489l141 374h88l-190 -374h-39z" />
    <glyph glyph-name="uni0237" unicode="&#x237;" horiz-adv-x="415" 
d="M-20 -412q115 0 168 87t53 233v1132h71v-1132q0 -65 -9.5 -122t-31.5 -107.5t-55 -86t-83 -56.5t-113 -21v73z" />
    <glyph glyph-name="gravecomb" unicode="&#x300;" horiz-adv-x="0" 
d="M360 1536l-176 285h86l133 -285h-43z" />
    <glyph glyph-name="acutecomb" unicode="&#x301;" horiz-adv-x="0" 
d="M184 1536l135 285h87l-179 -285h-43z" />
    <glyph glyph-name="uni0302" unicode="&#x302;" horiz-adv-x="0" 
d="M184 1536l246 285h80l246 -285h-80l-205 238l-207 -238h-80z" />
    <glyph glyph-name="tildecomb" unicode="&#x303;" horiz-adv-x="0" 
d="M582 1561q-28 0 -56.5 11.5t-43.5 22t-42 31.5q-22 19 -34.5 28.5t-31.5 18t-38 8.5q-68 0 -98 -102l-54 16q46 142 152 142q10 0 19.5 -1t19 -4.5t16 -5t17 -8t14.5 -8.5t15 -10t13 -9.5t14 -11t13 -10.5q25 -21 35 -28.5t30.5 -17t39.5 -9.5q35 0 57 24t37 78l51 -14
q-36 -141 -145 -141z" />
    <glyph glyph-name="uni0304" unicode="&#x304;" horiz-adv-x="0" 
d="M184 1614v55h484v-55h-484z" />
    <glyph glyph-name="uni0306" unicode="&#x306;" horiz-adv-x="0" 
d="M410 1550q-104 0 -165 64t-61 160h54q0 -73 47 -120.5t125 -47.5t124 47t46 121h55q0 -96 -60.5 -160t-164.5 -64z" />
    <glyph glyph-name="uni0307" unicode="&#x307;" horiz-adv-x="0" 
d="M252 1604q-28 0 -48 19.5t-20 47.5t20 47t48 19t46.5 -19t18.5 -47t-18.5 -47.5t-46.5 -19.5z" />
    <glyph glyph-name="uni0308" unicode="&#x308;" horiz-adv-x="0" 
d="M680 1604q-28 0 -48 19.5t-20 47.5t20 47t48 19q26 0 45.5 -19.5t19.5 -46.5q0 -28 -19.5 -47.5t-45.5 -19.5zM184 1671q0 28 19 47t47 19t46.5 -19t18.5 -47t-18.5 -47.5t-46.5 -19.5t-47 19.5t-19 47.5z" />
    <glyph glyph-name="uni030A" unicode="&#x30a;" horiz-adv-x="0" 
d="M362 1542q-74 0 -126 52.5t-52 127.5q0 74 52.5 126.5t125.5 52.5q74 0 126.5 -52.5t52.5 -126.5q0 -75 -52.5 -127.5t-126.5 -52.5zM238 1722q0 -52 36.5 -88.5t87.5 -36.5t87 36.5t36 88.5q0 51 -36 87t-87 36t-87.5 -36t-36.5 -87z" />
    <glyph glyph-name="uni030B" unicode="&#x30b;" horiz-adv-x="0" 
d="M545 1536l135 285h86l-176 -285h-45zM184 1536l135 285h87l-179 -285h-43z" />
    <glyph glyph-name="uni030C" unicode="&#x30c;" horiz-adv-x="0" 
d="M430 1536l-246 285h80l205 -238l205 238h80l-246 -285h-78z" />
    <glyph glyph-name="uni0326" unicode="&#x326;" horiz-adv-x="0" 
d="M184 -489l142 374h88l-191 -374h-39z" />
    <glyph glyph-name="uni0327" unicode="&#x327;" horiz-adv-x="0" 
d="M369 -543q-105 0 -185 54l35 57q68 -45 150 -45q61 0 105 33.5t44 101.5q0 65 -41.5 94t-85.5 29q-38 0 -94 -25l-35 49l90 195h58l-80 -172q33 10 67 10q88 0 139.5 -49.5t51.5 -130.5q0 -99 -63 -150t-156 -51z" />
    <glyph glyph-name="uni0328" unicode="&#x328;" horiz-adv-x="0" 
d="M408 -528q-42 0 -78.5 9.5t-71 31t-54.5 63.5t-20 100q0 50 22 101.5t57.5 94.5t68.5 74t65 54h54q-83 -64 -143 -150.5t-60 -171.5q0 -71 48.5 -105t125.5 -34q27 0 55 4v-65q-24 -6 -69 -6z" />
    <glyph glyph-name="Wgrave" unicode="&#x1e80;" horiz-adv-x="2035" 
d="M539 0l-478 1434h80l437 -1311l401 1311h78l401 -1311l436 1311h80l-475 -1434h-80l-401 1307l-400 -1307h-79zM811 1821h86l133 -285h-43z" />
    <glyph glyph-name="wgrave" unicode="&#x1e81;" horiz-adv-x="1728" 
d="M481 0l-399 1036h78l356 -930l309 930h78l307 -930l359 930h78l-400 -1036h-78l-305 922l-305 -922h-78zM657 1432h86l134 -285h-43z" />
    <glyph glyph-name="Wacute" unicode="&#x1e82;" horiz-adv-x="2035" 
d="M539 0l-478 1434h80l437 -1311l401 1311h78l401 -1311l436 1311h80l-475 -1434h-80l-401 1307l-400 -1307h-79zM1008 1536l135 285h86l-178 -285h-43z" />
    <glyph glyph-name="wacute" unicode="&#x1e83;" horiz-adv-x="1728" 
d="M481 0l-399 1036h78l356 -930l309 930h78l307 -930l359 930h78l-400 -1036h-78l-305 922l-305 -922h-78zM850 1147l135 285h86l-178 -285h-43z" />
    <glyph glyph-name="Wdieresis" unicode="&#x1e84;" horiz-adv-x="2035" 
d="M539 0l-478 1434h80l437 -1311l401 1311h78l401 -1311l436 1311h80l-475 -1434h-80l-401 1307l-400 -1307h-79zM737 1671q0 28 19 47t47 19t46.5 -19t18.5 -47t-18.5 -47.5t-46.5 -19.5t-47 19.5t-19 47.5zM1165 1671q0 28 20 47t48 19q27 0 46 -19.5t19 -46.5
q0 -28 -19.5 -47.5t-45.5 -19.5q-28 0 -48 19.5t-20 47.5z" />
    <glyph glyph-name="wdieresis" unicode="&#x1e85;" horiz-adv-x="1728" 
d="M481 0l-399 1036h78l356 -930l309 930h78l307 -930l359 930h78l-400 -1036h-78l-305 922l-305 -922h-78zM584 1262q0 28 18.5 46.5t46.5 18.5t47 -18.5t19 -46.5t-19 -48t-47 -20q-27 0 -46 20t-19 48zM1012 1262q0 28 19.5 46.5t47.5 18.5q27 0 46.5 -19t19.5 -46
q0 -28 -20 -48t-46 -20q-28 0 -47.5 20t-19.5 48z" />
    <glyph glyph-name="uni1E9E" unicode="&#x1e9e;" horiz-adv-x="1251" 
d="M174 983q0 125 46 226t140 163t222 62h489v-74l-352 -498q194 -24 312 -139.5t118 -290.5q0 -202 -142 -317t-374 -115v72q203 0 323.5 93.5t120.5 266.5q0 165 -122.5 263t-321.5 98v73l348 494h-399q-161 0 -248.5 -107t-87.5 -270v-983h-72v983z" />
    <glyph glyph-name="uni1EBD" unicode="&#x1ebd;" horiz-adv-x="1249" 
d="M645 -25q-155 0 -280 73t-194 197t-69 273q0 114 42 215t114 173t171 113.5t210 41.5q146 0 263 -73.5t181 -197t64 -272.5v-35h-969q12 -186 142 -310t325 -124q271 0 412 215l65 -33q-79 -124 -202 -190t-275 -66zM178 555h895q-12 185 -132.5 309.5t-301.5 124.5
q-186 0 -317.5 -123.5t-143.5 -310.5zM354 1221q22 68 61 104.5t91 36.5q10 0 19.5 -1t19 -4.5t16 -5t17 -8t14.5 -8.5t15 -10t13 -9.5t14 -11t13 -10.5q25 -21 35 -28.5t30.5 -17t39.5 -9.5q35 0 57 24t37 78l51 -14q-36 -141 -145 -141q-28 0 -56.5 11.5t-43.5 22
t-42 31.5q-23 20 -34.5 29.5t-31 18t-38.5 8.5q-67 0 -98 -103z" />
    <glyph glyph-name="Ygrave" unicode="&#x1ef2;" horiz-adv-x="1267" 
d="M600 0v616l-539 818h89l485 -740l485 740h86l-534 -816v-618h-72zM461 1821h86l133 -285h-43z" />
    <glyph glyph-name="ygrave" unicode="&#x1ef3;" horiz-adv-x="1148" 
d="M324 -487l221 507l-463 1016h78l424 -930l405 930h78l-668 -1523h-75zM403 1432h86l134 -285h-43z" />
    <glyph glyph-name="uni1EF9" unicode="&#x1ef9;" horiz-adv-x="1148" 
d="M324 -487l221 507l-463 1016h78l424 -930l405 930h78l-668 -1523h-75zM303 1221q22 68 61 104.5t91 36.5q10 0 19.5 -1t19 -4.5t16 -5t17 -8t14.5 -8.5t15 -10t13 -9.5t14 -11t13 -10.5t10 -8.5t10.5 -8.5t9.5 -7.5t10 -7.5t9.5 -6t10.5 -6t9.5 -4t11.5 -4t11 -2t12 -1
q35 0 57.5 24t37.5 78l51 -14q-36 -141 -146 -141q-28 0 -56.5 11.5t-42.5 21.5t-42 32q-23 20 -34.5 29.5t-31 18t-38.5 8.5q-68 0 -99 -103z" />
    <glyph glyph-name="endash" unicode="&#x2013;" horiz-adv-x="1439" 
d="M225 573v72h989v-72h-989z" />
    <glyph glyph-name="emdash" unicode="&#x2014;" horiz-adv-x="1622" 
d="M225 573v72h1172v-72h-1172z" />
    <glyph glyph-name="quoteleft" unicode="&#x2018;" horiz-adv-x="536" 
d="M164 1059l190 375h39l-141 -375h-88z" />
    <glyph glyph-name="quoteright" unicode="&#x2019;" horiz-adv-x="536" 
d="M143 1059l140 375h90l-191 -375h-39z" />
    <glyph glyph-name="quotesinglbase" unicode="&#x201a;" horiz-adv-x="372" 
d="M0 -260l139 375h90l-190 -375h-39z" />
    <glyph glyph-name="quotedblleft" unicode="&#x201c;" horiz-adv-x="827" 
d="M455 1059l190 375h39l-141 -375h-88zM164 1059l190 375h39l-141 -375h-88z" />
    <glyph glyph-name="quotedblright" unicode="&#x201d;" horiz-adv-x="827" 
d="M434 1059l139 375h91l-191 -375h-39zM143 1059l140 375h90l-191 -375h-39z" />
    <glyph glyph-name="quotedblbase" unicode="&#x201e;" horiz-adv-x="663" 
d="M289 -260l141 375h90l-190 -375h-41zM0 -260l139 375h90l-190 -375h-39z" />
    <glyph glyph-name="dagger" unicode="&#x2020;" horiz-adv-x="1132" 
d="M530 0v940h-366v72h366v422h72v-422h367v-72h-367v-940h-72z" />
    <glyph glyph-name="daggerdbl" unicode="&#x2021;" horiz-adv-x="1132" 
d="M530 0v422h-366v72h366v446h-366v72h366v422h72v-422h367v-72h-367v-446h367v-72h-367v-422h-72z" />
    <glyph glyph-name="bullet" unicode="&#x2022;" horiz-adv-x="638" 
d="M319 383q-57 0 -96 39.5t-39 95.5q0 57 39 96t96 39t96.5 -39t39.5 -96q0 -56 -39.5 -95.5t-96.5 -39.5z" />
    <glyph glyph-name="perthousand" unicode="&#x2030;" horiz-adv-x="2541" 
d="M350 0l983 1434h80l-983 -1434h-80zM184 1098q0 126 89.5 215.5t215.5 89.5t215 -89.5t89 -215.5t-89 -214.5t-215 -88.5t-215.5 88.5t-89.5 214.5zM256 1098q0 -96 68 -164t165 -68q95 0 163.5 68.5t68.5 163.5q0 96 -68.5 164.5t-163.5 68.5q-97 0 -165 -68t-68 -165z
M969 334q0 126 89.5 215.5t215.5 89.5t215.5 -89.5t89.5 -215.5t-89.5 -214.5t-215.5 -88.5t-215.5 88.5t-89.5 214.5zM1042 334q0 -95 68.5 -163.5t163.5 -68.5t163 68.5t68 163.5q0 97 -68 165t-163 68q-96 0 -164 -68.5t-68 -164.5zM1749 334q0 126 88.5 215.5
t214.5 89.5t215.5 -89.5t89.5 -215.5t-89.5 -214.5t-215.5 -88.5t-214.5 88.5t-88.5 214.5zM1821 334q0 -95 68 -163.5t163 -68.5q97 0 165.5 68.5t68.5 163.5q0 97 -68.5 165t-165.5 68q-95 0 -163 -68t-68 -165z" />
    <glyph glyph-name="guilsinglleft" unicode="&#x2039;" horiz-adv-x="696" 
d="M449 217l-285 393l285 394h83l-284 -394l284 -393h-83z" />
    <glyph glyph-name="guilsinglright" unicode="&#x203a;" horiz-adv-x="696" 
d="M164 217l285 393l-285 394h84l284 -394l-284 -393h-84z" />
    <glyph glyph-name="Euro" unicode="&#x20ac;" horiz-adv-x="1683" 
d="M1004 -23q-263 0 -465 164.5t-258 415.5h-209v72h196q-6 43 -6 88t6 88h-196v74h209q56 250 258 414.5t465 164.5q316 0 538 -256l-57 -43q-202 225 -481 225q-233 0 -413.5 -142.5t-236.5 -362.5h854v-74h-866q-6 -43 -6 -88t6 -88h866v-72h-854q56 -221 237 -364.5
t413 -143.5q296 0 499 248l58 -43q-104 -131 -246 -204t-311 -73z" />
    <glyph glyph-name="uni20BD" unicode="&#x20bd;" horiz-adv-x="1253" 
d="M319 0v360h-217v72h217v186h-217v74h217v742h256q116 0 211.5 -24t169 -72t114 -127.5t40.5 -184.5t-40.5 -184.5t-114 -127.5t-169 -72t-211.5 -24h-182v-186h533v-72h-533v-360h-74zM393 692h182q217 0 338 82.5t121 251.5q0 170 -121 253t-338 83h-182v-670z" />
    <glyph glyph-name="uni20BF" unicode="&#x20bf;" horiz-adv-x="1163" 
d="M338 -252v252h-154v1434h154v252h72v-252h12q74 0 145 -9v261h74v-275q281 -69 281 -326q0 -128 -72 -207t-193 -116q163 -33 263 -127.5t100 -247.5q0 -165 -103 -256.5t-276 -118.5v-264h-74v256q-54 -4 -86 -4h-71v-252h-72zM256 74h225q103 0 184.5 16.5t146 52
t99.5 97.5t35 147q0 86 -35 151t-99 104t-146.5 58t-184.5 19h-225v-645zM256 786h166q86 0 158 14.5t134.5 47t98 93t35.5 144.5q0 277 -426 277h-166v-576z" />
    <glyph glyph-name="uni2116" unicode="&#x2116;" horiz-adv-x="2361" 
d="M184 0v1434h95l923 -1330v1330h72v-1434h-94l-924 1329v-1329h-72zM1548 354v74h670v-74h-670zM1579 981q0 126 89.5 215.5t215.5 89.5t214.5 -89.5t88.5 -215.5t-88.5 -215.5t-214.5 -89.5t-215.5 89.5t-89.5 215.5zM1653 981q0 -97 67 -164t164 -67q96 0 164 67.5
t68 163.5q0 95 -68.5 163t-163.5 68q-96 0 -163.5 -67.5t-67.5 -163.5z" />
    <glyph glyph-name="minus" unicode="&#x2212;" horiz-adv-x="1257" 
d="M225 573v72h807v-72h-807z" />
    <glyph glyph-name="approxequal" unicode="&#x2248;" horiz-adv-x="1314" 
d="M895 670q-38 0 -72.5 8t-68 25t-54 30t-55.5 37q-45 31 -70 46.5t-68.5 30.5t-86.5 15t-78 -18.5t-55.5 -48.5t-32 -55t-18.5 -50l-72 21q31 106 98.5 165.5t157.5 59.5q42 0 79 -8.5t74 -28t55.5 -31.5t57.5 -39q47 -32 68 -45t61.5 -28t79.5 -15q43 0 77.5 16.5
t55 43.5t32.5 52t19 52l72 -18q-7 -25 -16.5 -48.5t-30.5 -56t-47 -56t-68.5 -40t-93.5 -16.5zM164 328q31 105 98.5 164t157.5 59q42 0 79 -8.5t73.5 -27t57 -31.5t56.5 -38q47 -32 68 -45t61.5 -28t79.5 -15q43 0 77.5 16.5t55 43.5t32.5 52t19 52l72 -20
q-7 -24 -16.5 -47t-30.5 -56t-47 -56.5t-68.5 -40.5t-93.5 -17q-50 0 -98.5 16.5t-77.5 34.5t-74 51q-45 31 -70 46.5t-68.5 30.5t-86.5 15q-35 0 -65 -13.5t-49 -32t-34.5 -44t-23 -44.5t-12.5 -38z" />
    <glyph glyph-name="notequal" unicode="&#x2260;" horiz-adv-x="1247" 
d="M309 86l156 297h-281v72h320l164 309h-484v72h521l157 297h76l-156 -297h281v-72h-320l-163 -309h483v-72h-520l-158 -297h-76z" />
    <glyph glyph-name="lessequal" unicode="&#x2264;" horiz-adv-x="1179" 
d="M975 322l-770 358v80l770 356v-78l-684 -319l684 -318v-79zM205 0v74h770v-74h-770z" />
    <glyph glyph-name="greaterequal" unicode="&#x2265;" horiz-adv-x="1179" 
d="M205 322v79l682 318l-682 319v78l770 -356v-80zM205 0v74h770v-74h-770z" />
    <glyph glyph-name="uniE000" unicode="&#xe000;" horiz-adv-x="1134" 
d="M532 49q190 0 308 86.5t118 255.5q0 161 -119.5 251.5t-306.5 90.5v80q88 0 160.5 29t121 95.5t48.5 160.5q0 131 -91 208.5t-220 77.5q-161 0 -248.5 -107.5t-87.5 -270.5v-1006h-72v1006q0 126 46.5 226.5t140.5 162t221 61.5q159 0 272 -98.5t113 -259.5
q0 -116 -57.5 -197t-155.5 -121q141 -43 225 -144t84 -245q0 -133 -67.5 -228.5t-179 -141.5t-253.5 -46v74z" />
    <glyph glyph-name="uni004A0301" horiz-adv-x="851" 
d="M393 -23q-117 0 -198.5 60.5t-102.5 150.5l74 25q20 -71 79 -117.5t148 -46.5q111 0 162 75t51 195v1115h72v-1115q0 -155 -70.5 -248.5t-214.5 -93.5zM625 1536l135 285h86l-178 -285h-43z" />
    <glyph glyph-name="i.loclTRK" horiz-adv-x="397" 
d="M162 0v1038h74v-1038h-74zM133 1262q0 27 20 46t48 19t46.5 -18.5t18.5 -46.5t-19 -48t-46 -20q-28 0 -48 20t-20 48z" />
    <glyph glyph-name="uni006A0301" horiz-adv-x="415" 
d="M-20 -412q115 0 168 87t53 233v1132h71v-1132q0 -65 -9.5 -122t-31.5 -107.5t-55 -86t-83 -56.5t-113 -21v73zM215 1147l135 285h86l-178 -285h-43z" />
    </font>
</defs>
</svg>
