<?xml version="1.0" standalone="no"?>
<!DOCTYPE svg PUBLIC "-//W3C//DTD SVG 1.1//EN" "http://www.w3.org/Graphics/SVG/1.1/DTD/svg11.dtd" >
<svg xmlns="http://www.w3.org/2000/svg" xmlns:xlink="http://www.w3.org/1999/xlink" version="1.1">
<metadata>
Created by FontForge 20201107 at Mon Aug  5 13:02:26 2024
 By 
copyright missing
</metadata>
<defs>
<font id="MADEOkineSansPERSONALUSE-Regular" horiz-adv-x="1218" >
  <font-face 
    font-family="MADE Okine Sans PERSONAL USE"
    font-weight="400"
    font-stretch="normal"
    units-per-em="2048"
    panose-1="0 0 0 0 0 0 0 0 0 0"
    ascent="1638"
    descent="-410"
    x-height="1038"
    cap-height="1434"
    bbox="-133 -594 2333 2007"
    underline-thickness="102"
    underline-position="-255"
    unicode-range="U+0020-E000"
  />
<missing-glyph horiz-adv-x="1300" 
d="M1067 2007v-2601h-825v2601h825zM434 -414h432v86h-266l182 121h84v86h-432v-86h182l-182 -121v-86zM434 -61h432v294h-432v-294zM434 389h432v295h-260v-147h88v61h86v-123h-260v209h-86v-295zM434 741h432v260h-86v-172h-346v-88zM434 889h260v182h172v86h-432v-86h172
v-96h-172v-86zM434 1227h432v88h-172v182h-260v-270zM434 1565h432v86h-172v96h172v86h-430v-86h170v-96h-172v-86zM520 25v122h260v-122h-260zM520 1315v94h86v-94h-86z" />
    <glyph glyph-name="f_f.liga" unicode="ff" horiz-adv-x="1587" 
d="M272 0v856h-190v182h190v123q0 180 85 280.5t237 100.5q119 0 237 -86l-88 -172q-57 57 -131 57q-41 0 -70 -17.5t-43 -46t-20 -57t-6 -59.5v-123h488v123q0 180 84.5 280.5t236.5 100.5q73 0 145.5 -32.5t128.5 -86.5l-124 -139q-57 57 -132 57q-41 0 -70 -17.5t-43 -46
t-20 -57t-6 -59.5v-123h314v-182h-314v-856h-200v856h-488v-856h-201z" />
    <glyph glyph-name="f_f_i.liga" unicode="ffi" horiz-adv-x="1968" 
d="M274 0v856h-192v182h192v123q0 180 84.5 280.5t237.5 100.5q120 0 235 -86l-86 -172q-68 57 -131 57q-41 0 -70.5 -17.5t-43.5 -46.5t-19.5 -57t-5.5 -59v-123h488v123q0 181 84 281t237 100q121 0 236 -86l-86 -172q-68 57 -131 57q-41 0 -70.5 -17.5t-43.5 -46.5
t-20 -57t-6 -59v-123h688v-1038h-200v856h-488v-856h-200v856h-488v-856h-201zM1636 1341q0 47 34 81t81 34t81 -34t34 -81t-34 -80.5t-81 -33.5t-81 33.5t-34 80.5z" />
    <glyph glyph-name="f_i.liga" unicode="fi" horiz-adv-x="1280" 
d="M274 0v856h-192v182h192v123q0 180 84.5 280.5t237.5 100.5q120 0 235 -86l-86 -172q-68 57 -131 57q-41 0 -70.5 -17.5t-43.5 -46.5t-19.5 -57t-5.5 -59v-123h688v-1038h-200v856h-488v-856h-201zM948 1341q0 47 34 81t81 34t81 -34t34 -81t-34 -80.5t-81 -33.5
t-81 33.5t-34 80.5z" />
    <glyph glyph-name="f_l.liga" unicode="fl" horiz-adv-x="1275" 
d="M274 0v856h-192v182h192v52q0 207 121.5 329.5t309.5 122.5q53 0 110 -12t121 -44.5t113 -81t81.5 -129.5t32.5 -183v-1092h-200v1092q0 105 -70.5 177t-187.5 72q-111 0 -170.5 -73t-59.5 -178v-52h313v-182h-313v-856h-201z" />
    <glyph glyph-name="f_t.liga" unicode="ft" horiz-adv-x="1576" 
d="M1296 -16q-338 0 -338 387v485h-483v-856h-201v856h-192v182h192v123q0 180 84.5 280.5t237.5 100.5q72 0 144.5 -32.5t129.5 -86.5l-127 -139q-57 57 -129 57q-41 0 -70.5 -17.5t-43.5 -46.5t-19.5 -57t-5.5 -59v-123h483v232h201v-232h281v-182h-281v-485
q0 -29 1 -47.5t8.5 -48t21 -47t40.5 -31t66 -13.5q64 0 111 43l109 -159q-97 -84 -220 -84z" />
    <glyph glyph-name=".notdef" horiz-adv-x="1300" 
d="M1067 2007v-2601h-825v2601h825zM434 -414h432v86h-266l182 121h84v86h-432v-86h182l-182 -121v-86zM434 -61h432v294h-432v-294zM434 389h432v295h-260v-147h88v61h86v-123h-260v209h-86v-295zM434 741h432v260h-86v-172h-346v-88zM434 889h260v182h172v86h-432v-86h172
v-96h-172v-86zM434 1227h432v88h-172v182h-260v-270zM434 1565h432v86h-172v96h172v86h-430v-86h170v-96h-172v-86zM520 25v122h260v-122h-260zM520 1315v94h86v-94h-86z" />
    <glyph glyph-name=".null" horiz-adv-x="0" 
 />
    <glyph glyph-name="nonmarkingreturn" horiz-adv-x="682" 
 />
    <glyph glyph-name="space" unicode=" " horiz-adv-x="491" 
 />
    <glyph glyph-name="space" unicode="&#xa0;" horiz-adv-x="491" 
 />
    <glyph glyph-name="exclam" unicode="!" horiz-adv-x="632" 
d="M225 426l-18 1008h219l-18 -1008h-183zM184 109q0 54 39 92.5t94 38.5q54 0 93 -38.5t39 -92.5q0 -55 -39 -94.5t-93 -39.5q-55 0 -94 39t-39 95z" />
    <glyph glyph-name="quotedbl" unicode="&#x22;" horiz-adv-x="765" 
d="M461 946v488h182v-488h-182zM123 946v488h182v-488h-182z" />
    <glyph glyph-name="numbersign" unicode="#" horiz-adv-x="1413" 
d="M244 96l82 328h-203v164h242l65 260h-233v164h274l80 325h166l-80 -325h285l82 325h165l-82 -325h203v-164h-243l-64 -260h234v-164h-275l-80 -328h-168l82 328h-284l-82 -328h-166zM532 588h285l64 260h-285z" />
    <glyph glyph-name="dollar" unicode="$" horiz-adv-x="1095" 
d="M475 -18q-171 21 -272 129t-111 247l219 21q1 -18 10.5 -43t32.5 -59.5t73 -58t118 -23.5q111 0 174 54t63 146q0 20 -3.5 37t-6.5 30.5t-14 27.5t-16.5 22.5t-24.5 21t-27 18.5t-35 18.5t-37.5 17.5t-45 20t-48.5 21t-49 21.5t-53 23.5t-51.5 25t-52.5 30t-47 35
t-44.5 42.5t-35.5 50t-29.5 61t-17.5 72t-7 85.5q0 148 96 253.5t242 125.5v232h146v-238q128 -26 212.5 -116.5t98.5 -205.5l-217 -26q-3 19 -14.5 41t-32.5 45t-57 38t-79 15q-82 0 -131 -46.5t-49 -117.5q0 -45 14 -78t51.5 -62t77.5 -50t119 -56q16 -7 54 -23.5
t59.5 -26.5t57.5 -28t57.5 -35t50 -41t46 -51.5t34 -61.5t24 -76.5t7.5 -90.5q0 -170 -106 -280.5t-277 -132.5v-234h-146v234z" />
    <glyph glyph-name="percent" unicode="%" horiz-adv-x="1695" 
d="M283 0l983 1434h147l-983 -1434h-147zM143 1100q0 129 91.5 220t220.5 91q130 0 221.5 -91t91.5 -220t-91.5 -221.5t-221.5 -92.5q-129 0 -220.5 92.5t-91.5 221.5zM270 1100q0 -76 55 -131.5t130 -55.5q76 0 131 55t55 132q0 75 -55 129.5t-131 54.5q-75 0 -130 -54.5
t-55 -129.5zM928 336q0 129 92 220t221 91t220 -91t91 -220t-91 -221t-220 -92t-221 92t-92 221zM1055 336q0 -76 54.5 -130t131.5 -54t130.5 54t53.5 130t-53.5 130t-130.5 54t-131.5 -54t-54.5 -130z" />
    <glyph glyph-name="ampersand" unicode="&#x26;" horiz-adv-x="1406" 
d="M588 -23q-110 0 -200 33t-147 89t-87.5 128t-30.5 152q0 130 69.5 242.5t178.5 193.5q-57 74 -88 141t-31 152q0 150 97 250t243 100q143 0 239.5 -88.5t96.5 -226.5q0 -206 -228 -369q36 -34 135.5 -131.5t155.5 -150.5q55 93 111 221l192 -84q-70 -165 -147 -289
q40 -38 84.5 -81.5t67 -65.5t26.5 -25l-162 -148l-149 146q-177 -189 -426 -189zM354 393q0 -83 63.5 -139.5t170.5 -56.5q151 0 272 118l-348 336q-75 -52 -116.5 -119t-41.5 -139zM471 1108q0 -91 82 -188q82 54 119 102t37 102q0 46 -31.5 80.5t-85.5 34.5
q-60 0 -90.5 -39.5t-30.5 -91.5z" />
    <glyph glyph-name="quotesingle" unicode="'" horiz-adv-x="428" 
d="M123 946v488h182v-488h-182z" />
    <glyph glyph-name="parenleft" unicode="(" horiz-adv-x="831" 
d="M573 -397q-58 71 -108.5 148.5t-104 186t-91 223t-61.5 259.5t-24 297t24 297.5t61.5 260t91 222.5t104 185.5t108.5 148.5l156 -127q-66 -81 -121.5 -172.5t-108.5 -214.5t-83.5 -278t-30.5 -322t30.5 -321.5t83.5 -277.5t108.5 -215.5t121.5 -172.5z" />
    <glyph glyph-name="parenright" unicode=")" horiz-adv-x="831" 
d="M102 -268q66 79 121.5 171t108.5 215t83.5 277.5t30.5 321.5t-30.5 322t-83.5 278t-108.5 214.5t-121.5 172.5l154 127q58 -71 109.5 -148.5t104.5 -185.5t91 -222.5t62 -260t24 -297.5q0 -188 -35 -362.5t-95 -313.5t-123.5 -243t-137.5 -195z" />
    <glyph glyph-name="asterisk" unicode="*" horiz-adv-x="811" 
d="M293 838l-148 106l144 156l-207 41l55 172l193 -88l-25 209h182l-26 -209l192 88l56 -172l-207 -41l143 -156l-147 -106l-103 184z" />
    <glyph glyph-name="plus" unicode="+" horiz-adv-x="1093" 
d="M446 207v303h-303v201h303v303h201v-303h303v-201h-303v-303h-201z" />
    <glyph glyph-name="comma" unicode="," horiz-adv-x="448" 
d="M-31 -287l156 428h221l-227 -428h-150z" />
    <glyph glyph-name="hyphen" unicode="-" horiz-adv-x="1173" 
d="M184 510v201h805v-201h-805z" />
    <glyph glyph-name="period" unicode="." horiz-adv-x="550" 
d="M276 -25q-55 0 -94 39t-39 95q0 54 39 92.5t94 38.5q54 0 93 -38.5t39 -92.5q0 -55 -39 -94.5t-93 -39.5z" />
    <glyph glyph-name="slash" unicode="/" horiz-adv-x="1058" 
d="M102 -309l684 2052h191l-682 -2052h-193z" />
    <glyph glyph-name="zero" unicode="0" horiz-adv-x="1265" 
d="M633 -25q-105 0 -193 40.5t-149.5 110t-104.5 164t-63.5 202.5t-20.5 225t20.5 224.5t63.5 201.5t104.5 163.5t149.5 109.5t193 40q131 0 234 -61t166.5 -165t96.5 -234.5t33 -278.5t-33 -279t-96.5 -235.5t-166.5 -166t-234 -61.5zM319 717q0 -105 16 -194t50.5 -165
t98 -119.5t149.5 -43.5t149 43.5t97 119.5t49.5 165t15.5 194t-15.5 194t-49.5 165t-97 119.5t-149 43.5t-149.5 -43.5t-98 -119.5t-50.5 -165t-16 -194z" />
    <glyph glyph-name="one" unicode="1" horiz-adv-x="763" 
d="M401 0v1219l-217 -107l-82 166l318 156h201v-1434h-220z" />
    <glyph glyph-name="two" unicode="2" horiz-adv-x="1103" 
d="M102 219q80 73 154 148q27 27 90.5 91.5t87 89t73.5 77.5t69.5 77t54.5 67.5t49 70t31.5 62.5t23.5 66.5t6 61.5q0 96 -53.5 152.5t-146.5 56.5q-143 0 -215 -184l-211 53q113 348 426 348q184 0 302 -120t118 -306q0 -78 -24.5 -154t-63 -141t-107.5 -146t-134.5 -148.5
t-166.5 -167.5q-36 -36 -55 -54h591v-219h-899v219z" />
    <glyph glyph-name="three" unicode="3" horiz-adv-x="1122" 
d="M557 -25q-163 0 -288 92.5t-167 237.5l211 64q21 -77 87 -125.5t157 -48.5q104 0 174 68t70 165q0 101 -67 166t-195 65h-97v207h97q98 0 155.5 54.5t57.5 134.5q0 76 -57 130t-134 54q-70 0 -123.5 -45t-62.5 -113l-211 27q19 150 131.5 249t265.5 99q168 0 286 -117
t118 -284q0 -89 -38.5 -160.5t-107.5 -118.5q97 -50 149 -138.5t52 -209.5q0 -188 -135 -320.5t-328 -132.5z" />
    <glyph glyph-name="four" unicode="4" horiz-adv-x="1251" 
d="M748 0v293h-646v219l605 922h260v-922h182v-219h-182v-293h-219zM344 512h404v616z" />
    <glyph glyph-name="five" unicode="5" horiz-adv-x="1124" 
d="M553 -25q-155 0 -280 91.5t-171 234.5l211 64q25 -74 92 -122t148 -48q104 0 178 73.5t74 177.5q0 103 -74 176.5t-178 73.5q-106 0 -172 -69l-207 49l88 758h676v-220h-502l-41 -346q76 39 176 39q127 0 230.5 -61t162 -167t58.5 -233q0 -128 -62.5 -236.5
t-170.5 -171.5t-236 -63z" />
    <glyph glyph-name="six" unicode="6" horiz-adv-x="1183" 
d="M592 -25q-99 0 -190 39t-156.5 105t-104.5 157.5t-39 190.5q0 140 86 278l463 689h240l-326 -488h27q133 0 245.5 -63t178 -173t65.5 -243t-65.5 -246.5t-178 -179.5t-245.5 -66zM319 467q0 -114 80 -193t193 -79t191.5 79t78.5 193q0 113 -79 191.5t-191 78.5
q-113 0 -193 -79t-80 -191z" />
    <glyph glyph-name="seven" unicode="7" horiz-adv-x="1079" 
d="M168 0l569 1214h-635v220h875v-220l-569 -1214h-240z" />
    <glyph glyph-name="eight" unicode="8" horiz-adv-x="1118" 
d="M559 -25q-122 0 -227.5 60.5t-167.5 165t-62 227.5q0 107 49.5 196t135.5 148q-129 106 -129 281q0 167 117 285t284 118t284.5 -118t117.5 -285q0 -174 -130 -281q87 -58 136 -147t49 -197q0 -187 -134.5 -320t-322.5 -133zM322 428q0 -96 70.5 -164.5t166.5 -68.5
q97 0 167.5 68.5t70.5 164.5q0 95 -70.5 163t-167.5 68q-96 0 -166.5 -68t-70.5 -163zM371 1053q0 -76 55.5 -131.5t132.5 -55.5t133 55.5t56 131.5t-56 131t-133 55t-132.5 -55t-55.5 -131z" />
    <glyph glyph-name="nine" unicode="9" horiz-adv-x="1183" 
d="M293 0l325 485h-26q-133 0 -245.5 63.5t-178.5 174.5t-66 244t65.5 245.5t178.5 178t246 65.5t245.5 -65.5t178 -178t65.5 -245.5q0 -143 -86 -281l-463 -686h-239zM322 967q0 -113 79 -193t191 -80t192 80t80 193t-80 192.5t-192 79.5t-191 -79.5t-79 -192.5z" />
    <glyph glyph-name="colon" unicode=":" horiz-adv-x="548" 
d="M274 797q-55 0 -93 38.5t-38 94.5q0 54 38 92.5t93 38.5t93.5 -38.5t38.5 -92.5q0 -56 -38.5 -94.5t-93.5 -38.5zM143 109q0 54 38 92.5t93 38.5t93.5 -38.5t38.5 -92.5q0 -56 -38.5 -95t-93.5 -39t-93 39t-38 95z" />
    <glyph glyph-name="semicolon" unicode=";" horiz-adv-x="495" 
d="M-31 -287l154 428h223l-229 -428h-148zM109 930q0 54 38.5 92.5t92.5 38.5q55 0 94 -38.5t39 -92.5q0 -56 -38.5 -94.5t-94.5 -38.5q-54 0 -92.5 39t-38.5 94z" />
    <glyph glyph-name="less" unicode="&#x3c;" horiz-adv-x="1144" 
d="M981 137l-817 381v184l817 381v-204l-580 -269l580 -270v-203z" />
    <glyph glyph-name="equal" unicode="=" horiz-adv-x="1206" 
d="M164 709v200h878v-200h-878zM164 311v201h878v-201h-878z" />
    <glyph glyph-name="greater" unicode="&#x3e;" horiz-adv-x="1142" 
d="M164 137v203l577 270l-577 269v204l815 -381v-184z" />
    <glyph glyph-name="question" unicode="?" horiz-adv-x="999" 
d="M354 426q0 60 15 114t44.5 99.5t57 77.5t66.5 71q38 38 57 59.5t42 55t32.5 68.5t9.5 78q0 69 -49 129.5t-137 60.5q-76 0 -130 -57.5t-63 -118.5l-217 14q8 71 41.5 139t86 121.5t126.5 86t156 32.5q174 0 289.5 -120.5t115.5 -286.5q0 -31 -4 -60t-8.5 -52t-15.5 -49
t-17.5 -42t-23.5 -40t-24 -34.5t-28.5 -33.5t-27 -29t-29 -29t-27.5 -27q-137 -137 -137 -227h-201zM330 109q0 54 38.5 92.5t92.5 38.5q55 0 94 -38.5t39 -92.5q0 -56 -39 -95t-94 -39q-54 0 -92.5 39.5t-38.5 94.5z" />
    <glyph glyph-name="at" unicode="@" horiz-adv-x="2246" 
d="M1087 -418q-209 0 -389 71t-306 194t-197.5 295.5t-71.5 369.5q0 205 77 379.5t211 294t318.5 187t396.5 67.5q217 0 402.5 -65t316.5 -181t205 -282.5t74 -362.5q0 -119 -28.5 -213t-70 -148t-94.5 -88.5t-96.5 -46.5t-81.5 -12q-112 0 -187.5 51t-115.5 135
q-64 -86 -158.5 -136t-208.5 -50q-197 0 -333 139t-136 338q0 131 61.5 240.5t169.5 173t238 63.5q199 0 332 -143v121h176v-553q0 -201 162 -201q78 0 132 80t54 250q0 147 -47 268t-125.5 201.5t-184 135t-220 79t-236.5 24.5q-173 0 -323.5 -53.5t-259.5 -149.5
t-171.5 -236t-62.5 -306q0 -160 56.5 -298t157 -237.5t246.5 -156t318 -56.5q243 0 410 113l100 -151q-215 -144 -510 -144zM791 518q0 -124 91 -211.5t218 -87.5t218 87.5t91 211.5q0 125 -91 213t-218 88t-218 -88t-91 -213z" />
    <glyph glyph-name="A" unicode="A" horiz-adv-x="1421" 
d="M31 0l563 1434h233l564 -1434h-230l-153 393h-594l-154 -393h-229zM494 594h434l-217 553z" />
    <glyph glyph-name="B" unicode="B" horiz-adv-x="1128" 
d="M133 0v1434h399q189 0 311 -102t122 -279q0 -184 -152 -281q108 -48 171 -139.5t63 -220.5q0 -131 -65.5 -226t-171 -140.5t-237.5 -45.5h-440zM352 219h221q107 0 179.5 57t72.5 154q0 102 -67.5 156.5t-184.5 54.5h-221v-422zM352 854h180q96 0 156 47t60 133t-60 133
t-156 47h-180v-360z" />
    <glyph glyph-name="C" unicode="C" horiz-adv-x="1456" 
d="M817 -25q-121 0 -234.5 37.5t-205 106t-161 159.5t-107 204.5t-37.5 234.5q0 101 27 197t75 177.5t117 149.5t150.5 116t178 74.5t197.5 26.5q172 0 323.5 -74t256.5 -204l-172 -131q-75 88 -182 139t-226 51q-107 0 -204.5 -41.5t-168.5 -111t-113 -166.5t-42 -203
t42 -203t113 -166.5t168.5 -111t204.5 -41.5q128 0 239.5 57.5t184.5 157.5l174 -134q-103 -139 -260.5 -220t-337.5 -81z" />
    <glyph glyph-name="D" unicode="D" horiz-adv-x="1394" 
d="M133 0v1434h393q235 0 415.5 -87t281 -250.5t100.5 -379.5t-100.5 -379.5t-281 -250.5t-415.5 -87h-393zM352 219h174q267 0 423.5 131.5t156.5 366.5t-156.5 366t-423.5 131h-174v-995z" />
    <glyph glyph-name="E" unicode="E" horiz-adv-x="1050" 
d="M133 0v1434h787v-201h-568v-399h549v-201h-549v-432h586v-201h-805z" />
    <glyph glyph-name="F" unicode="F" horiz-adv-x="1069" 
d="M133 0v1434h823v-201h-604v-434h551v-201h-551v-598h-219z" />
    <glyph glyph-name="G" unicode="G" horiz-adv-x="1595" 
d="M817 -25q-121 0 -234.5 37.5t-205 106t-161 159.5t-107 204.5t-37.5 234.5q0 101 27 197t75 177.5t117 149.5t150.5 116t178 74.5t197.5 26.5q172 0 324 -74t258 -204l-174 -131q-75 88 -182 139t-226 51q-107 0 -204 -41.5t-167.5 -111t-112.5 -166.5t-42 -203t42 -203
t112.5 -166.5t167.5 -111t204 -41.5q183 0 301 96.5t162 265.5h-500v201h744q0 -223 -83.5 -399.5t-245.5 -280t-378 -103.5z" />
    <glyph glyph-name="H" unicode="H" horiz-adv-x="1466" 
d="M133 0v1434h219v-617h762v617h219v-1434h-219v616h-762v-616h-219z" />
    <glyph glyph-name="I" unicode="I" horiz-adv-x="485" 
d="M133 0v1434h219v-1434h-219z" />
    <glyph glyph-name="J" unicode="J" horiz-adv-x="937" 
d="M430 -25q-155 0 -252.5 82.5t-116.5 198.5l211 57q3 -17 11.5 -34.5t26 -37.5t49 -33t71.5 -13q156 0 156 211v1028h219v-1028q0 -218 -101 -324.5t-274 -106.5z" />
    <glyph glyph-name="K" unicode="K" horiz-adv-x="1265" 
d="M133 0v1434h219v-678l531 678h274l-577 -715l655 -719h-299l-584 659v-659h-219z" />
    <glyph glyph-name="L" unicode="L" horiz-adv-x="1042" 
d="M133 0v1434h219v-1215h598v-219h-817z" />
    <glyph glyph-name="M" unicode="M" horiz-adv-x="1548" 
d="M133 0v1434h229l412 -654l412 654h229v-1434h-219v1069l-358 -557h-129l-357 557v-1069h-219z" />
    <glyph glyph-name="N" unicode="N" horiz-adv-x="1466" 
d="M133 0v1434h244l737 -1106v1106h219v-1434h-241l-740 1106v-1106h-219z" />
    <glyph glyph-name="O" unicode="O" horiz-adv-x="1636" 
d="M819 -25q-151 0 -289 59t-238.5 158t-160 236.5t-59.5 288.5t59.5 288.5t160 236.5t238.5 157.5t289 58.5q150 0 288 -58.5t238.5 -157.5t160 -236.5t59.5 -288.5t-59.5 -288.5t-160 -236.5t-238.5 -158t-288 -59zM291 717q0 -106 42 -203t113 -166.5t168.5 -111
t204.5 -41.5q142 0 263.5 69.5t192.5 190t71 262.5t-71 262.5t-192.5 190t-263.5 69.5q-107 0 -204.5 -41.5t-168.5 -111t-113 -166.5t-42 -203z" />
    <glyph glyph-name="P" unicode="P" horiz-adv-x="1118" 
d="M133 0v1434h406q222 0 359.5 -118t137.5 -327t-137.5 -326.5t-359.5 -117.5h-187v-545h-219zM352 764h187q128 0 202 58.5t74 166.5t-74 166.5t-202 58.5h-187v-450z" />
    <glyph glyph-name="Q" unicode="Q" horiz-adv-x="1636" 
d="M1235 102q-189 -127 -416 -127q-151 0 -289 59t-238.5 158t-160 236.5t-59.5 288.5t59.5 288.5t160 236.5t238.5 157.5t289 58.5q202 0 373.5 -99t272 -270t100.5 -372q0 -274 -181 -481l168 -175l-145 -139zM291 717q0 -106 42 -203t113 -166.5t168.5 -111t204.5 -41.5
q135 0 260 69l-245 256l143 139l256 -266q113 145 113 324q0 142 -71 262.5t-192.5 190t-263.5 69.5q-107 0 -204.5 -41.5t-168.5 -111t-113 -166.5t-42 -203z" />
    <glyph glyph-name="R" unicode="R" horiz-adv-x="1191" 
d="M133 0v1434h383q223 0 363.5 -114t140.5 -321q0 -144 -68.5 -243t-189.5 -148l409 -608h-270l-362 563h-189v-563h-217zM350 782h166q131 0 206 54t75 163q0 107 -75 161t-206 54h-166v-432z" />
    <glyph glyph-name="S" unicode="S" horiz-adv-x="1054" 
d="M524 -25q-103 0 -188 33t-140 87.5t-87 122t-37 140.5l217 21q2 -14 7 -31.5t21 -46.5t40 -51t67.5 -38.5t99.5 -16.5q111 0 174.5 54t63.5 144q0 45 -12 76.5t-43.5 56t-65 41.5t-95.5 44l-42 18q-13 6 -49.5 21.5t-53.5 23t-51.5 25t-52.5 30.5t-46.5 35t-44.5 42.5
t-35.5 50t-29.5 61t-17 72t-7 85.5q0 162 114.5 272.5t280.5 110.5q160 0 271.5 -99t125.5 -233l-217 -26q-6 46 -53 92.5t-127 46.5q-82 0 -131 -46.5t-49 -117.5q0 -37 11 -66t28 -50.5t53.5 -44.5t71.5 -41t98 -46q15 -7 48.5 -21t53 -22.5t52 -24.5t52.5 -29t47.5 -34
t44.5 -41.5t36.5 -49t30 -59.5t17.5 -70t7 -83q0 -187 -130.5 -302.5t-328.5 -115.5z" />
    <glyph glyph-name="T" unicode="T" horiz-adv-x="1112" 
d="M446 0v1214h-354v220h928v-220h-354v-1214h-220z" />
    <glyph glyph-name="U" unicode="U" horiz-adv-x="1400" 
d="M700 -23q-175 0 -305.5 79t-196 212.5t-65.5 302.5v863h219v-863q0 -169 87.5 -271.5t260.5 -102.5t261 102.5t88 271.5v863h219v-863q0 -169 -66 -302.5t-196 -212.5t-306 -79z" />
    <glyph glyph-name="V" unicode="V" horiz-adv-x="1423" 
d="M594 0l-563 1434h229l451 -1147l450 1147h232l-566 -1434h-233z" />
    <glyph glyph-name="W" unicode="W" horiz-adv-x="2129" 
d="M506 0l-475 1434h229l358 -1076l332 1076h230l329 -1076l359 1076h231l-477 -1434h-231l-326 1063l-328 -1063h-231z" />
    <glyph glyph-name="X" unicode="X" horiz-adv-x="1349" 
d="M41 0l494 760l-439 674h260l318 -506l319 506h260l-438 -674l494 -760h-262l-373 573l-373 -573h-260z" />
    <glyph glyph-name="Y" unicode="Y" horiz-adv-x="1386" 
d="M584 0v629l-543 805h262l391 -592l391 592h261l-543 -805v-629h-219z" />
    <glyph glyph-name="Z" unicode="Z" horiz-adv-x="1220" 
d="M92 0v219l717 998h-680v217h944v-217l-715 -998h770v-219h-1036z" />
    <glyph glyph-name="bracketleft" unicode="[" horiz-adv-x="794" 
d="M205 -309v2052h446v-182h-248v-1688h248v-182h-446z" />
    <glyph glyph-name="backslash" unicode="\" horiz-adv-x="1058" 
d="M764 -309l-682 2052h192l682 -2052h-192z" />
    <glyph glyph-name="bracketright" unicode="]" horiz-adv-x="796" 
d="M143 -309v182h248v1688h-248v182h449v-2052h-449z" />
    <glyph glyph-name="asciicircum" unicode="^" horiz-adv-x="964" 
d="M82 967l307 467h186l308 -467h-205l-195 299l-196 -299h-205z" />
    <glyph glyph-name="underscore" unicode="_" horiz-adv-x="1333" 
d="M164 -264v201h1005v-201h-1005z" />
    <glyph glyph-name="a" unicode="a" horiz-adv-x="1298" 
d="M606 -23q-148 0 -271 72.5t-193 197t-70 273.5t70 273.5t193 197t271 72.5q222 0 379 -164v139h201v-1038h-201v141q-154 -164 -379 -164zM274 520q0 -142 104 -242t247 -100t247.5 100t104.5 242t-104.5 242t-247.5 100t-247 -100t-104 -242z" />
    <glyph glyph-name="b" unicode="b" horiz-adv-x="1296" 
d="M690 -23q-223 0 -377 164v-141h-200v1526h200v-627q157 164 377 164q148 0 271 -72.5t193.5 -197.5t70.5 -273t-70.5 -273t-193.5 -197.5t-271 -72.5zM322 520q0 -142 103.5 -242t246.5 -100t247.5 100t104.5 242t-104.5 242t-247.5 100t-246.5 -100t-103.5 -242z" />
    <glyph glyph-name="c" unicode="c" horiz-adv-x="1153" 
d="M618 -23q-148 0 -274 72.5t-199 197.5t-73 273t73 273t199 197.5t274 72.5q150 0 276 -73.5t198 -198.5l-181 -89q-47 73 -124.5 116.5t-168.5 43.5q-143 0 -244.5 -100t-101.5 -242t101.5 -242t244.5 -100q91 0 169 42.5t124 115.5l181 -88q-72 -124 -198 -197.5
t-276 -73.5z" />
    <glyph glyph-name="d" unicode="d" horiz-adv-x="1298" 
d="M606 -23q-148 0 -271 72.5t-193 197t-70 273.5t70 273.5t193 197t271 72.5q112 0 209 -44t170 -120v627h201v-1526h-201v141q-154 -164 -379 -164zM274 520q0 -142 104 -242t247 -100t246.5 100t103.5 242t-103.5 242t-246.5 100t-247 -100t-104 -242z" />
    <glyph glyph-name="e" unicode="e" horiz-adv-x="1204" 
d="M625 -23q-151 0 -278.5 72.5t-201 197.5t-73.5 273q0 149 69 273.5t191 197t270 72.5q112 0 212 -42.5t175 -120.5t114 -199.5t27 -266.5h-845q30 -112 123.5 -184t216.5 -72q90 0 167.5 35t129.5 102l176 -86q-72 -118 -198.5 -185t-274.5 -67zM287 616h633
q-26 117 -111 181.5t-207 64.5q-116 0 -201.5 -68.5t-113.5 -177.5z" />
    <glyph glyph-name="f" unicode="f" horiz-adv-x="901" 
d="M274 0v856h-192v182h192v125q0 179 84.5 279t237.5 100q72 0 144.5 -32.5t129.5 -86.5l-127 -139q-59 59 -129 59q-41 0 -70.5 -17.5t-43.5 -47t-19.5 -57.5t-5.5 -58v-125h313v-182h-313v-856h-201z" />
    <glyph glyph-name="g" unicode="g" horiz-adv-x="1296" 
d="M659 -485q-160 0 -296 73t-207 195l182 88q46 -72 132 -114t189 -42q149 0 237.5 82t88.5 242v102q-157 -164 -379 -164q-148 0 -271 72.5t-193 197t-70 273.5t70 273.5t193 197t271 72.5q218 0 379 -164v139h199v-999q0 -243 -146.5 -383.5t-378.5 -140.5zM272 520
q0 -141 104.5 -241.5t248.5 -100.5q143 0 246.5 100t103.5 242t-103.5 242t-246.5 100q-144 0 -248.5 -100.5t-104.5 -241.5z" />
    <glyph glyph-name="h" unicode="h" 
d="M113 0v1526h200v-629q126 166 334 166q137 0 242.5 -68t161 -182.5t55.5 -255.5v-557h-201v557q0 136 -78.5 220.5t-197.5 84.5q-145 0 -230.5 -104.5t-85.5 -259.5v-498h-200z" />
    <glyph glyph-name="i" unicode="i" horiz-adv-x="436" 
d="M119 0v1038h198v-1038h-198zM102 1341q0 47 34.5 81t80.5 34q47 0 82 -34t35 -81t-34.5 -80.5t-82.5 -33.5q-46 0 -80.5 33.5t-34.5 80.5z" />
    <glyph glyph-name="j" unicode="j" horiz-adv-x="477" 
d="M-31 -285q96 0 143.5 69.5t47.5 174.5v1079h200v-1079q0 -215 -107.5 -329.5t-283.5 -114.5v200zM145 1341q0 47 34 81t81 34t81 -34t34 -81t-34 -80.5t-81 -33.5t-81 33.5t-34 80.5z" />
    <glyph glyph-name="k" unicode="k" horiz-adv-x="991" 
d="M113 0v1526h200v-965l369 477h236l-371 -477l434 -561h-252l-416 541v-541h-200z" />
    <glyph glyph-name="l" unicode="l" horiz-adv-x="425" 
d="M113 0v1526h200v-1526h-200z" />
    <glyph glyph-name="m" unicode="m" horiz-adv-x="1884" 
d="M113 0v1038h200v-120q112 145 297 145q121 0 212.5 -56t146.5 -151q64 96 158.5 151.5t211.5 55.5q103 0 186.5 -41.5t136.5 -111t81.5 -156.5t28.5 -181v-573h-201v573q0 119 -68.5 204t-181.5 85q-93 0 -157.5 -49.5t-93 -125.5t-28.5 -171v-516h-200v573
q0 119 -68.5 204t-181.5 85q-93 0 -157.5 -49.5t-93 -125.5t-28.5 -171v-516h-200z" />
    <glyph glyph-name="n" unicode="n" 
d="M113 0v1038h200v-141q126 166 334 166q137 0 242.5 -68t161 -182.5t55.5 -255.5v-557h-201v557q0 136 -78.5 220.5t-197.5 84.5q-145 0 -230.5 -104.5t-85.5 -259.5v-498h-200z" />
    <glyph glyph-name="o" unicode="o" horiz-adv-x="1249" 
d="M625 -23q-148 0 -275.5 72.5t-202.5 197.5t-75 273t75 273t202.5 197.5t275.5 72.5t275.5 -72.5t202.5 -197.5t75 -273t-75 -273t-202.5 -197.5t-275.5 -72.5zM274 520q0 -142 104 -242t247 -100t247.5 100t104.5 242t-104.5 242t-247.5 100t-247 -100t-104 -242z" />
    <glyph glyph-name="p" unicode="p" horiz-adv-x="1298" 
d="M113 -485v1523h200v-139q73 76 170 120t209 44q148 0 271 -72.5t193.5 -197.5t70.5 -273t-70.5 -273t-193.5 -197.5t-271 -72.5q-225 0 -379 164v-626h-200zM324 520q0 -142 103.5 -242t246.5 -100t246.5 100t103.5 242t-103.5 242t-246.5 100t-246.5 -100t-103.5 -242z
" />
    <glyph glyph-name="q" unicode="q" horiz-adv-x="1298" 
d="M985 141q-154 -164 -379 -164q-148 0 -271 72.5t-193 197t-70 273.5t70 273.5t193 197t271 72.5q222 0 379 -164v139h201v-1523h-201v626zM274 520q0 -142 104 -242t247 -100t247.5 100t104.5 242t-104.5 242t-247.5 100t-247 -100t-104 -242z" />
    <glyph glyph-name="r" unicode="r" horiz-adv-x="727" 
d="M113 0v1038h200v-168q116 191 353 191v-201q-176 0 -264.5 -100t-88.5 -336v-424h-200z" />
    <glyph glyph-name="s" unicode="s" horiz-adv-x="905" 
d="M461 -25q-177 0 -282 84.5t-118 202.5l199 25q6 -44 54 -80.5t147 -36.5q80 0 130 34.5t50 98.5q0 49 -46.5 74t-178.5 61q-70 19 -121 42t-98 61t-72 95.5t-25 133.5q0 124 100 207.5t240 83.5q125 0 223.5 -69t118.5 -177l-202 -33q-11 35 -44.5 60.5t-95.5 25.5
q-59 0 -97 -29t-38 -79q0 -45 41.5 -76.5t151.5 -62.5q132 -37 188 -65q158 -82 158 -247q0 -104 -56 -182t-141.5 -115t-185.5 -37z" />
    <glyph glyph-name="t" unicode="t" horiz-adv-x="860" 
d="M580 -16q-338 0 -338 385v487h-191v182h191v232h200v-232h283v-182h-283v-487q0 -28 1 -47t8.5 -47.5t21.5 -46t41 -31t66 -13.5q63 0 110 43l109 -159q-94 -84 -219 -84z" />
    <glyph glyph-name="u" unicode="u" 
d="M571 -25q-137 0 -242.5 68t-160.5 182.5t-55 255.5v557h200v-557q0 -136 79 -220.5t198 -84.5q145 0 230 105t85 260v497h201v-1038h-201v141q-124 -166 -334 -166z" />
    <glyph glyph-name="v" unicode="v" horiz-adv-x="1189" 
d="M485 0l-444 1038h219l334 -782l336 782h219l-444 -1038h-220z" />
    <glyph glyph-name="w" unicode="w" horiz-adv-x="1765" 
d="M440 0l-399 1038h215l293 -759l237 759h195l236 -759l292 759h215l-399 -1038h-215l-227 725l-228 -725h-215z" />
    <glyph glyph-name="x" unicode="x" horiz-adv-x="1110" 
d="M41 0l383 530l-365 508h248l248 -348l250 348h246l-363 -508l381 -530h-248l-266 373l-266 -373h-248z" />
    <glyph glyph-name="y" unicode="y" horiz-adv-x="1189" 
d="M279 -487l208 487l-446 1038h219l336 -782l336 782h217l-651 -1525h-219z" />
    <glyph glyph-name="z" unicode="z" horiz-adv-x="1019" 
d="M72 0v182l579 674h-542v182h802v-182l-579 -674h616v-182h-876z" />
    <glyph glyph-name="braceleft" unicode="{" horiz-adv-x="864" 
d="M741 -309q-436 0 -436 340v358q0 135 -39 186.5t-123 51.5v182q84 0 123 50.5t39 184.5v359q0 340 436 340v-182q-123 0 -179 -51.5t-56 -180.5v-321q0 -209 -131 -291q131 -82 131 -291v-322q0 -129 56 -180t179 -51v-182z" />
    <glyph glyph-name="bar" unicode="|" horiz-adv-x="569" 
d="M184 -492v2235h201v-2235h-201z" />
    <glyph glyph-name="braceright" unicode="}" horiz-adv-x="864" 
d="M123 -127q123 0 179 51t56 180v322q0 208 129 291q-129 83 -129 291v323q0 128 -56 179t-179 51v182q436 0 436 -340v-359q0 -134 39 -184.5t123 -50.5v-182q-84 0 -123 -51.5t-39 -186.5v-358q0 -340 -436 -340v182z" />
    <glyph glyph-name="asciitilde" unicode="~" horiz-adv-x="1304" 
d="M870 424q-60 0 -114.5 19t-85 39t-71.5 52q-7 6 -11 9q-33 28 -49.5 40t-45 23.5t-59.5 11.5q-104 0 -137 -139l-174 51q35 132 115 201.5t194 69.5q46 0 86.5 -9.5t77.5 -31t56 -35t53 -41.5q33 -28 51.5 -41.5t49 -25t64.5 -11.5q32 0 57 12.5t40.5 33t24.5 39.5t14 40
l176 -47q-29 -111 -108 -185.5t-204 -74.5z" />
    <glyph glyph-name="exclamdown" unicode="&#xa1;" horiz-adv-x="630" 
d="M207 -395l16 1005h185l16 -1005h-217zM184 930q0 54 38 92.5t93 38.5t93 -38.5t38 -92.5q0 -56 -38 -94.5t-93 -38.5t-93 38.5t-38 94.5z" />
    <glyph glyph-name="cent" unicode="&#xa2;" horiz-adv-x="1204" 
d="M565 180q-201 26 -337 179t-136 358t136 357.5t337 180.5v179h146v-179q128 -17 233.5 -87.5t167.5 -178.5l-180 -88q-46 73 -124 115.5t-169 42.5q-143 0 -243.5 -100t-100.5 -242t100.5 -242t243.5 -100q91 0 168.5 43.5t124.5 116.5l180 -89q-62 -108 -167.5 -178.5
t-233.5 -87.5v-180h-146v180z" />
    <glyph glyph-name="sterling" unicode="&#xa3;" horiz-adv-x="1300" 
d="M133 219q42 8 79 27t71 52.5t53.5 88.5t19.5 125q0 54 -18 117h-205v145h141q-53 128 -53 248q0 189 121.5 312.5t310.5 123.5q78 0 147.5 -25t120 -67t86 -89.5t56.5 -98.5l-203 -84q-5 11 -12 25t-25 36.5t-40 40t-56.5 30.5t-73.5 13q-97 0 -155 -59.5t-58 -157.5
q0 -36 8.5 -73.5t18 -62.5t29.5 -71q6 -16 16 -41h436v-145h-385q12 -47 12 -99q0 -192 -122 -311h714v-219h-1034v219z" />
    <glyph glyph-name="currency" unicode="&#xa4;" horiz-adv-x="1034" 
d="M172 270l-80 74l141 152q-77 100 -77 221q0 123 77 223l-141 152l80 73l141 -149q95 63 205 63q111 0 203 -63l141 149l80 -73l-141 -152q78 -97 78 -223t-78 -223l141 -150l-80 -74l-141 150q-89 -64 -203 -64q-116 0 -205 64zM303 717q0 -89 63 -152t152 -63t152 63
t63 152t-63 152t-152 63t-152 -63t-63 -152z" />
    <glyph glyph-name="yen" unicode="&#xa5;" horiz-adv-x="1366" 
d="M573 0v287h-348v147h348v139h-348v148h287l-481 713h262l391 -592l391 592h260l-481 -713h287v-148h-348v-139h348v-147h-348v-287h-220z" />
    <glyph glyph-name="brokenbar" unicode="&#xa6;" horiz-adv-x="569" 
d="M184 926v817h201v-817h-201zM184 -492v818h201v-818h-201z" />
    <glyph glyph-name="section" unicode="&#xa7;" horiz-adv-x="1241" 
d="M592 -397q-104 0 -192 32t-145 85t-91 117t-41 132l217 23q6 -69 74 -119.5t178 -50.5q91 0 156 48.5t65 135.5q0 74 -60 118t-210 79q-208 48 -296.5 122t-88.5 205q0 89 39.5 157.5t109.5 107.5q-102 95 -102 260q0 173 123.5 288t320.5 115q104 0 192 -32t145 -85.5
t91 -118t41 -132.5l-217 -23q-6 69 -74.5 120.5t-177.5 51.5q-91 0 -156 -48.5t-65 -135.5q0 -74 60.5 -119t209.5 -78q207 -48 296 -123t89 -205q0 -180 -149 -266q102 -99 102 -258q0 -173 -123.5 -288t-320.5 -115zM358 571q0 -39 20 -65t74 -50t154 -48q81 -18 148 -39
q59 4 94 37t35 81q0 58 -51.5 94t-198.5 70q-87 20 -148 41q-58 -4 -92.5 -37.5t-34.5 -83.5z" />
    <glyph glyph-name="copyright" unicode="&#xa9;" horiz-adv-x="1656" 
d="M829 -29q-152 0 -290 59t-238.5 159t-159.5 238t-59 290t59 290t159.5 238.5t238.5 159.5t290 59q151 0 289 -59t238 -159.5t159.5 -238.5t59.5 -290q0 -202 -100.5 -374t-272 -272t-373.5 -100zM174 717q0 -177 87.5 -328t238.5 -239.5t329 -88.5q133 0 254 52.5
t208.5 140.5t139.5 209t52 254q0 178 -88 329t-238.5 238.5t-327.5 87.5q-133 0 -254.5 -52t-209 -139.5t-139.5 -209t-52 -254.5zM406 717q0 178 127 304t307 126q100 0 187.5 -42.5t148.5 -117.5l-101 -78q-42 52 -103.5 81.5t-131.5 29.5q-126 0 -217 -88.5t-91 -214.5
t91 -214.5t217 -88.5q70 0 131.5 29t103.5 81l101 -75q-61 -75 -149 -118.5t-187 -43.5q-180 0 -307 126t-127 304z" />
    <glyph glyph-name="guillemotleft" unicode="&#xab;" horiz-adv-x="1212" 
d="M864 217l-284 393l284 394h226l-285 -394l285 -393h-226zM123 610l285 394h225l-285 -394l285 -393h-225z" />
    <glyph glyph-name="registered" unicode="&#xae;" horiz-adv-x="1656" 
d="M827 -31q-151 0 -289 59.5t-238 159.5t-159 238.5t-59 290.5t59 290t159 237.5t238 158.5t289 59q152 0 290.5 -59t238.5 -158.5t159.5 -237.5t59.5 -290q0 -203 -100.5 -375t-272.5 -272.5t-375 -100.5zM174 717q0 -178 87.5 -329t238 -239t327.5 -88q178 0 329 88
t239 239t88 329q0 177 -88 328t-239 239t-329 88q-133 0 -253.5 -52t-208 -140t-139.5 -209t-52 -254zM565 301v875h260q51 0 99.5 -14t91.5 -42t69.5 -77t26.5 -113q0 -100 -56 -164t-141 -88l271 -377h-137l-261 363h-104v-363h-119zM684 782h141q78 0 123 41t45 107
q0 59 -44.5 93t-123.5 34h-141v-275z" />
    <glyph glyph-name="degree" unicode="&#xb0;" horiz-adv-x="831" 
d="M416 807q-129 0 -221.5 92t-92.5 221q0 130 92.5 222t221.5 92t221 -92t92 -222q0 -129 -92 -221t-221 -92zM231 1120q0 -76 54 -130t131 -54t131.5 54t54.5 130q0 77 -55 132t-131 55t-130.5 -55t-54.5 -132z" />
    <glyph glyph-name="plusminus" unicode="&#xb1;" horiz-adv-x="1093" 
d="M446 352v266h-303v201h303v266h201v-266h303v-201h-303v-266h-201zM143 0v182h807v-182h-807z" />
    <glyph glyph-name="paragraph" unicode="&#xb6;" horiz-adv-x="1251" 
d="M463 731q-162 11 -261.5 106.5t-99.5 243.5q0 159 110 256t288 97h649v-183h-127v-1542h-182v1542h-195v-1542h-182v1022z" />
    <glyph glyph-name="guillemotright" unicode="&#xbb;" horiz-adv-x="1212" 
d="M123 217l285 393l-285 394h225l285 -394l-285 -393h-225zM582 217l284 393l-284 394h225l283 -394l-283 -393h-225z" />
    <glyph glyph-name="questiondown" unicode="&#xbf;" horiz-adv-x="999" 
d="M508 -420q-174 0 -290 122t-116 286q0 34 3.5 65t12.5 59.5t16.5 50t24 47t25.5 40t30.5 39t29.5 33t33 33t30 30.5q137 137 137 225h201q0 -60 -15 -113.5t-44.5 -99.5t-56 -77.5t-66.5 -71.5q-39 -39 -57.5 -59.5t-41.5 -54t-32.5 -68.5t-9.5 -78q0 -31 11.5 -63
t33 -60.5t58.5 -47t83 -18.5q76 0 129.5 57t60.5 117l220 -14q-8 -71 -41.5 -139t-86 -121.5t-126.5 -86t-156 -32.5zM406 930q0 54 39 92.5t94 38.5q54 0 92.5 -38.5t38.5 -92.5q0 -55 -38.5 -94t-92.5 -39q-55 0 -94 38.5t-39 94.5z" />
    <glyph glyph-name="Agrave" unicode="&#xc0;" horiz-adv-x="1421" 
d="M31 0l563 1434h233l564 -1434h-230l-153 393h-594l-154 -393h-229zM455 1821h194l135 -285h-153zM494 594h434l-217 553z" />
    <glyph glyph-name="Aacute" unicode="&#xc1;" horiz-adv-x="1421" 
d="M31 0l563 1434h233l564 -1434h-230l-153 393h-594l-154 -393h-229zM494 594h434l-217 553zM645 1536l133 285h197l-178 -285h-152z" />
    <glyph glyph-name="Acircumflex" unicode="&#xc2;" horiz-adv-x="1421" 
d="M31 0l563 1434h233l564 -1434h-230l-153 393h-594l-154 -393h-229zM399 1536l209 285h207l209 -285h-188l-125 168l-123 -168h-189zM494 594h434l-217 553z" />
    <glyph glyph-name="Atilde" unicode="&#xc3;" horiz-adv-x="1421" 
d="M31 0l563 1434h233l564 -1434h-230l-153 393h-594l-154 -393h-229zM360 1599q50 181 195 181q35 0 68.5 -10t52.5 -20.5t56 -33.5q9 -5 13 -8q67 -43 99 -43q56 0 76 78l141 -39q-26 -92 -72 -138t-125 -46q-39 0 -74.5 10.5t-57.5 22.5t-64 38q-3 2 -11 7t-11 7t-10 6
t-9.5 6t-8.5 5t-9.5 4t-8.5 3t-9 3t-8.5 1.5t-9.5 0.5q-21 0 -36.5 -13t-21.5 -26.5t-12 -29.5q-1 -3 -1 -4zM494 594h434l-217 553z" />
    <glyph glyph-name="Adieresis" unicode="&#xc4;" horiz-adv-x="1421" 
d="M31 0l563 1434h233l564 -1434h-230l-153 393h-594l-154 -393h-229zM408 1683q0 44 32 75.5t76 31.5t75.5 -31.5t31.5 -75.5q0 -45 -31.5 -76.5t-75.5 -31.5q-45 0 -76.5 31.5t-31.5 76.5zM494 594h434l-217 553zM801 1683q0 44 31 75.5t75 31.5t76.5 -31.5t32.5 -75.5
q0 -45 -32 -76.5t-77 -31.5q-44 0 -75 31t-31 77z" />
    <glyph glyph-name="Aring" unicode="&#xc5;" horiz-adv-x="1421" 
d="M31 0l563 1434h233l564 -1434h-230l-153 393h-594l-154 -393h-229zM487 1751q0 94 66 159.5t160 65.5q92 0 157.5 -65.5t65.5 -159.5q0 -92 -65.5 -157.5t-157.5 -65.5q-94 0 -160 65.5t-66 157.5zM494 594h434l-217 553zM616 1751q0 -40 28.5 -68t68.5 -28t68 28t28 68
t-28 68t-68 28t-68.5 -28t-28.5 -68z" />
    <glyph glyph-name="AE" unicode="&#xc6;" horiz-adv-x="1853" 
d="M31 0l727 1434h964v-201h-567v-399h549v-201h-549v-432h586v-201h-805v393h-477l-199 -393h-229zM561 594h375v639h-49z" />
    <glyph glyph-name="Ccedilla" unicode="&#xc7;" horiz-adv-x="1456" 
d="M801 -578q-111 0 -199 58l62 137q70 -39 133 -39q54 0 82 25.5t28 62.5q0 36 -22.5 58t-65.5 22q-13 0 -28 -4.5t-24.5 -9.5t-19 -11t-10.5 -6l-80 97l88 170q-139 13 -263.5 76t-214.5 160.5t-142.5 227.5t-52.5 271q0 101 27 197t75 177.5t117 149.5t150.5 116
t178 74.5t197.5 26.5q172 0 324.5 -74t257.5 -202l-174 -133q-75 89 -181 139.5t-227 50.5q-107 0 -204 -41.5t-167.5 -111t-112.5 -166.5t-42 -203t42 -202t112.5 -166t168 -111t203.5 -41q128 0 239.5 57t186.5 156l172 -134q-95 -127 -235.5 -205.5t-302.5 -90.5
l-58 -109q5 0 15.5 1t15.5 1q42 0 79.5 -10.5t71.5 -33t54 -64.5t20 -99q0 -117 -78 -180.5t-196 -63.5z" />
    <glyph glyph-name="Egrave" unicode="&#xc8;" horiz-adv-x="1050" 
d="M133 0v1434h787v-201h-568v-399h549v-201h-549v-432h586v-201h-805zM305 1821h195l135 -285h-154z" />
    <glyph glyph-name="Eacute" unicode="&#xc9;" horiz-adv-x="1050" 
d="M133 0v1434h787v-201h-568v-399h549v-201h-549v-432h586v-201h-805zM432 1536l133 285h197l-178 -285h-152z" />
    <glyph glyph-name="Ecircumflex" unicode="&#xca;" horiz-adv-x="1050" 
d="M133 0v1434h787v-201h-568v-399h549v-201h-549v-432h586v-201h-805zM211 1536l209 285h207l209 -285h-189l-125 168l-123 -168h-188z" />
    <glyph glyph-name="Edieresis" unicode="&#xcb;" horiz-adv-x="1050" 
d="M133 0v1434h787v-201h-568v-399h549v-201h-549v-432h586v-201h-805zM223 1683q0 44 32.5 75.5t76.5 31.5t75 -31.5t31 -75.5q0 -46 -31 -77t-75 -31q-45 0 -77 31.5t-32 76.5zM616 1683q0 44 31.5 75.5t75.5 31.5t76 -31.5t32 -75.5q0 -45 -31.5 -76.5t-76.5 -31.5
t-76 31.5t-31 76.5z" />
    <glyph glyph-name="Igrave" unicode="&#xcc;" horiz-adv-x="485" 
d="M133 0v1434h219v-1434h-219zM-10 1821h194l135 -285h-153z" />
    <glyph glyph-name="Iacute" unicode="&#xcd;" horiz-adv-x="485" 
d="M133 0v1434h219v-1434h-219zM170 1536l133 285h197l-178 -285h-152z" />
    <glyph glyph-name="Icircumflex" unicode="&#xce;" horiz-adv-x="485" 
d="M133 0v1434h219v-1434h-219zM-70 1536l209 285h207l209 -285h-188l-125 168l-123 -168h-189z" />
    <glyph glyph-name="Idieresis" unicode="&#xcf;" horiz-adv-x="485" 
d="M133 0v1434h219v-1434h-219zM-61 1683q0 44 32 75.5t76 31.5t75.5 -31.5t31.5 -75.5q0 -45 -31 -76.5t-76 -31.5t-76.5 31.5t-31.5 76.5zM332 1683q0 44 31 75.5t75 31.5t76.5 -31.5t32.5 -75.5q0 -45 -32 -76.5t-77 -31.5q-44 0 -75 31t-31 77z" />
    <glyph glyph-name="Eth" unicode="&#xd0;" horiz-adv-x="1538" 
d="M276 0v616h-215v201h215v617h394q234 0 414.5 -87t281 -250.5t100.5 -379.5t-100.5 -379.5t-281 -250.5t-414.5 -87h-394zM496 219h174q267 0 422 131.5t155 366.5t-155 366t-422 131h-174v-397h389v-201h-389v-397z" />
    <glyph glyph-name="Ntilde" unicode="&#xd1;" horiz-adv-x="1466" 
d="M133 0v1434h244l737 -1106v1106h219v-1434h-241l-740 1106v-1106h-219zM383 1599q50 181 195 181q35 0 68.5 -10t52.5 -20.5t56 -33.5q9 -5 13 -8q67 -43 98 -43q56 0 76 78l141 -39q-26 -92 -71.5 -138t-124.5 -46q-39 0 -75 10.5t-58 22.5t-64 38q-4 3 -12 8l-12 7.5
t-10.5 6.5t-10.5 6l-10 5t-10 4.5t-9 3t-10 2t-10 0.5q-17 0 -30 -7t-22 -22t-12 -22t-8 -22z" />
    <glyph glyph-name="Ograve" unicode="&#xd2;" horiz-adv-x="1636" 
d="M819 -25q-151 0 -289 59t-238.5 158t-160 236.5t-59.5 288.5t59.5 288.5t160 236.5t238.5 157.5t289 58.5q150 0 288 -58.5t238.5 -157.5t160 -236.5t59.5 -288.5t-59.5 -288.5t-160 -236.5t-238.5 -158t-288 -59zM291 717q0 -106 42 -203t113 -166.5t168.5 -111
t204.5 -41.5q142 0 263.5 69.5t192.5 190t71 262.5t-71 262.5t-192.5 190t-263.5 69.5q-107 0 -204.5 -41.5t-168.5 -111t-113 -166.5t-42 -203zM569 1821h195l135 -285h-154z" />
    <glyph glyph-name="Oacute" unicode="&#xd3;" horiz-adv-x="1636" 
d="M819 -25q-151 0 -289 59t-238.5 158t-160 236.5t-59.5 288.5t59.5 288.5t160 236.5t238.5 157.5t289 58.5q150 0 288 -58.5t238.5 -157.5t160 -236.5t59.5 -288.5t-59.5 -288.5t-160 -236.5t-238.5 -158t-288 -59zM291 717q0 -106 42 -203t113 -166.5t168.5 -111
t204.5 -41.5q142 0 263.5 69.5t192.5 190t71 262.5t-71 262.5t-192.5 190t-263.5 69.5q-107 0 -204.5 -41.5t-168.5 -111t-113 -166.5t-42 -203zM715 1536l133 285h196l-178 -285h-151z" />
    <glyph glyph-name="Ocircumflex" unicode="&#xd4;" horiz-adv-x="1636" 
d="M819 -25q-151 0 -289 59t-238.5 158t-160 236.5t-59.5 288.5t59.5 288.5t160 236.5t238.5 157.5t289 58.5q150 0 288 -58.5t238.5 -157.5t160 -236.5t59.5 -288.5t-59.5 -288.5t-160 -236.5t-238.5 -158t-288 -59zM291 717q0 -106 42 -203t113 -166.5t168.5 -111
t204.5 -41.5q142 0 263.5 69.5t192.5 190t71 262.5t-71 262.5t-192.5 190t-263.5 69.5q-107 0 -204.5 -41.5t-168.5 -111t-113 -166.5t-42 -203zM506 1536l209 285h207l208 -285h-188l-125 168l-123 -168h-188z" />
    <glyph glyph-name="Otilde" unicode="&#xd5;" horiz-adv-x="1636" 
d="M819 -25q-151 0 -289 59t-238.5 158t-160 236.5t-59.5 288.5t59.5 288.5t160 236.5t238.5 157.5t289 58.5q150 0 288 -58.5t238.5 -157.5t160 -236.5t59.5 -288.5t-59.5 -288.5t-160 -236.5t-238.5 -158t-288 -59zM291 717q0 -106 42 -203t113 -166.5t168.5 -111
t204.5 -41.5q142 0 263.5 69.5t192.5 190t71 262.5t-71 262.5t-192.5 190t-263.5 69.5q-107 0 -204.5 -41.5t-168.5 -111t-113 -166.5t-42 -203zM469 1599q50 181 195 181q35 0 68.5 -10t52.5 -20.5t56 -33.5q9 -5 13 -8q67 -43 98 -43q56 0 76 78l141 -39
q-26 -92 -71.5 -138t-124.5 -46q-39 0 -75 10.5t-58 22.5t-64 38q-4 3 -12 8l-12 7.5t-10.5 6.5t-10.5 6l-10 5t-10 4.5t-9 3t-10 2t-10 0.5q-17 0 -30 -7t-22 -22t-12 -22t-8 -22z" />
    <glyph glyph-name="Odieresis" unicode="&#xd6;" horiz-adv-x="1636" 
d="M819 -25q-151 0 -289 59t-238.5 158t-160 236.5t-59.5 288.5t59.5 288.5t160 236.5t238.5 157.5t289 58.5q150 0 288 -58.5t238.5 -157.5t160 -236.5t59.5 -288.5t-59.5 -288.5t-160 -236.5t-238.5 -158t-288 -59zM291 717q0 -106 42 -203t113 -166.5t168.5 -111
t204.5 -41.5q142 0 263.5 69.5t192.5 190t71 262.5t-71 262.5t-192.5 190t-263.5 69.5q-107 0 -204.5 -41.5t-168.5 -111t-113 -166.5t-42 -203zM514 1683q0 44 32.5 75.5t76.5 31.5t75 -31.5t31 -75.5q0 -46 -31 -77t-75 -31q-45 0 -77 31.5t-32 76.5zM907 1683
q0 44 31.5 75.5t75.5 31.5t76 -31.5t32 -75.5q0 -45 -31.5 -76.5t-76.5 -31.5q-44 0 -75.5 31.5t-31.5 76.5z" />
    <glyph glyph-name="multiply" unicode="&#xd7;" horiz-adv-x="999" 
d="M285 254l-142 141l215 215l-215 215l142 142l215 -215l213 215l143 -142l-215 -215l215 -215l-143 -141l-213 215z" />
    <glyph glyph-name="Oslash" unicode="&#xd8;" horiz-adv-x="1619" 
d="M811 -25q-263 0 -471 168l-152 -141l-137 148l152 139q-140 193 -140 428q0 201 101 372t273 270t374 99q261 0 469 -168l154 142l135 -148l-152 -139q139 -191 139 -428q0 -151 -59.5 -288.5t-159.5 -236.5t-238 -158t-288 -59zM283 717q0 -148 82 -277l753 699
q-140 100 -307 100q-107 0 -204.5 -41.5t-168.5 -111t-113 -166.5t-42 -203zM502 295q140 -100 309 -100q107 0 204 41.5t167.5 111t112.5 166.5t42 203q0 147 -82 276z" />
    <glyph glyph-name="Ugrave" unicode="&#xd9;" horiz-adv-x="1400" 
d="M700 -23q-175 0 -305.5 79t-196 212.5t-65.5 302.5v863h219v-863q0 -169 87.5 -271.5t260.5 -102.5t261 102.5t88 271.5v863h219v-863q0 -169 -66 -302.5t-196 -212.5t-306 -79zM477 1821h195l135 -285h-154z" />
    <glyph glyph-name="Uacute" unicode="&#xda;" horiz-adv-x="1400" 
d="M700 -23q-175 0 -305.5 79t-196 212.5t-65.5 302.5v863h219v-863q0 -169 87.5 -271.5t260.5 -102.5t261 102.5t88 271.5v863h219v-863q0 -169 -66 -302.5t-196 -212.5t-306 -79zM610 1536l133 285h197l-178 -285h-152z" />
    <glyph glyph-name="Ucircumflex" unicode="&#xdb;" horiz-adv-x="1400" 
d="M700 -23q-175 0 -305.5 79t-196 212.5t-65.5 302.5v863h219v-863q0 -169 87.5 -271.5t260.5 -102.5t261 102.5t88 271.5v863h219v-863q0 -169 -66 -302.5t-196 -212.5t-306 -79zM389 1536l209 285h207l209 -285h-189l-125 168l-122 -168h-189z" />
    <glyph glyph-name="Udieresis" unicode="&#xdc;" horiz-adv-x="1400" 
d="M700 -23q-175 0 -305.5 79t-196 212.5t-65.5 302.5v863h219v-863q0 -169 87.5 -271.5t260.5 -102.5t261 102.5t88 271.5v863h219v-863q0 -169 -66 -302.5t-196 -212.5t-306 -79zM397 1683q0 44 32.5 75.5t76.5 31.5t75 -31.5t31 -75.5q0 -46 -31 -77t-75 -31
q-45 0 -77 31.5t-32 76.5zM791 1683q0 44 31 75.5t75 31.5t76.5 -31.5t32.5 -75.5q0 -45 -32 -76.5t-77 -31.5q-44 0 -75 31t-31 77z" />
    <glyph glyph-name="Yacute" unicode="&#xdd;" horiz-adv-x="1386" 
d="M584 0v629l-543 805h262l391 -592l391 592h261l-543 -805v-629h-219zM618 1536l134 285h196l-178 -285h-152z" />
    <glyph glyph-name="Thorn" unicode="&#xde;" horiz-adv-x="1118" 
d="M133 0v1434h219v-273h187q222 0 359.5 -117.5t137.5 -326.5t-137.5 -327t-359.5 -118h-187v-272h-219zM352 492h187q128 0 202 58.5t74 166.5t-74 166.5t-202 58.5h-187v-450z" />
    <glyph glyph-name="germandbls" unicode="&#xdf;" horiz-adv-x="1150" 
d="M547 178q43 0 84.5 6t87.5 23t80.5 43.5t57 72t22.5 103.5q0 221 -351 221v195q115 0 180.5 55.5t65.5 157.5q0 94 -68 148t-153 54q-55 0 -98 -18.5t-69 -47.5t-43 -68t-23.5 -76t-6.5 -76v-971h-200v971q0 92 26.5 177t78.5 155.5t138.5 112.5t196.5 42
q113 0 208 -46.5t154.5 -139.5t59.5 -217q0 -96 -43.5 -168t-118.5 -115q266 -98 266 -364q0 -94 -31.5 -169t-83.5 -123t-122 -80t-143 -45.5t-152 -13.5v201z" />
    <glyph glyph-name="agrave" unicode="&#xe0;" horiz-adv-x="1298" 
d="M606 -23q-148 0 -271 72.5t-193 197t-70 273.5t70 273.5t193 197t271 72.5q222 0 379 -164v139h201v-1038h-201v141q-154 -164 -379 -164zM274 520q0 -142 104 -242t247 -100t247.5 100t104.5 242t-104.5 242t-247.5 100t-247 -100t-104 -242zM360 1432h195l135 -285
h-153z" />
    <glyph glyph-name="aacute" unicode="&#xe1;" horiz-adv-x="1298" 
d="M606 -23q-148 0 -271 72.5t-193 197t-70 273.5t70 273.5t193 197t271 72.5q222 0 379 -164v139h201v-1038h-201v141q-154 -164 -379 -164zM274 520q0 -142 104 -242t247 -100t247.5 100t104.5 242t-104.5 242t-247.5 100t-247 -100t-104 -242zM518 1147l133 285h197
l-178 -285h-152z" />
    <glyph glyph-name="acircumflex" unicode="&#xe2;" horiz-adv-x="1298" 
d="M606 -23q-148 0 -271 72.5t-193 197t-70 273.5t70 273.5t193 197t271 72.5q222 0 379 -164v139h201v-1038h-201v141q-154 -164 -379 -164zM274 520q0 -142 104 -242t247 -100t247.5 100t104.5 242t-104.5 242t-247.5 100t-247 -100t-104 -242zM289 1147l209 285h207
l208 -285h-188l-125 168l-123 -168h-188z" />
    <glyph glyph-name="atilde" unicode="&#xe3;" horiz-adv-x="1298" 
d="M606 -23q-148 0 -271 72.5t-193 197t-70 273.5t70 273.5t193 197t271 72.5q222 0 379 -164v139h201v-1038h-201v141q-154 -164 -379 -164zM274 520q0 -142 104 -242t247 -100t247.5 100t104.5 242t-104.5 242t-247.5 100t-247 -100t-104 -242zM276 1225q49 180 195 180
q37 0 74 -12t54 -22t63 -38q67 -43 98 -43q56 0 76 78l141 -39q-26 -92 -72 -138t-125 -46q-39 0 -75 11t-56.5 22.5t-64.5 38.5q-3 2 -11 7t-11 7t-10 6t-9.5 6t-8.5 5t-9.5 4t-8.5 3t-9 3t-8.5 1.5t-9.5 0.5q-16 0 -28.5 -6t-21 -20.5t-11 -20.5t-8.5 -22q-2 -4 -2 -5z
" />
    <glyph glyph-name="adieresis" unicode="&#xe4;" horiz-adv-x="1298" 
d="M606 -23q-148 0 -271 72.5t-193 197t-70 273.5t70 273.5t193 197t271 72.5q222 0 379 -164v139h201v-1038h-201v141q-154 -164 -379 -164zM274 520q0 -142 104 -242t247 -100t247.5 100t104.5 242t-104.5 242t-247.5 100t-247 -100t-104 -242zM301 1274q0 44 32 75t77 31
q44 0 75 -31t31 -75q0 -46 -31 -77.5t-75 -31.5q-45 0 -77 32t-32 77zM694 1274q0 44 31.5 75t75.5 31t76 -31t32 -75q0 -46 -31.5 -77.5t-76.5 -31.5q-44 0 -75.5 31.5t-31.5 77.5z" />
    <glyph glyph-name="aring" unicode="&#xe5;" horiz-adv-x="1298" 
d="M606 -23q-148 0 -271 72.5t-193 197t-70 273.5t70 273.5t193 197t271 72.5q222 0 379 -164v139h201v-1038h-201v141q-154 -164 -379 -164zM274 520q0 -142 104 -242t247 -100t247.5 100t104.5 242t-104.5 242t-247.5 100t-247 -100t-104 -242zM397 1364q0 94 66 159.5
t160 65.5q92 0 157.5 -65.5t65.5 -159.5q0 -92 -65.5 -157.5t-157.5 -65.5q-94 0 -160 65.5t-66 157.5zM526 1364q0 -40 28.5 -68t68.5 -28t68 28t28 68t-28 68t-68 28t-68.5 -28t-28.5 -68z" />
    <glyph glyph-name="ae" unicode="&#xe6;" horiz-adv-x="2156" 
d="M606 -25q-148 0 -271 72.5t-193 197t-70 273.5t70 273.5t193 197t271 72.5q117 0 213.5 -46t165.5 -126v149h201v-147q141 170 368 170q112 0 212 -42.5t176 -120t115 -198.5t26 -266h-844q28 -114 121.5 -186t216.5 -72q91 0 168 35.5t129 103.5l176 -86
q-72 -119 -198 -186.5t-275 -67.5q-120 0 -221 48t-170 133v-156h-201v150q-151 -175 -379 -175zM274 518q0 -142 104 -242t247 -100t247.5 100t104.5 242t-104.5 242t-247.5 100t-247 -100t-104 -242zM1239 616h633q-26 116 -111 180t-207 64q-115 0 -200 -68t-115 -176z
" />
    <glyph glyph-name="ccedilla" unicode="&#xe7;" horiz-adv-x="1155" 
d="M582 -580q-108 0 -199 60l61 137q64 -39 134 -39q53 0 81.5 26t28.5 62q0 35 -22.5 56.5t-65.5 21.5q-41 0 -82 -31l-80 99l90 172q-196 34 -326 185t-130 351q0 148 73.5 273t200 197.5t275.5 72.5t274.5 -73.5t198.5 -198.5l-183 -89q-47 73 -124 116.5t-166 43.5
q-145 0 -246 -99.5t-101 -242.5t101 -242.5t246 -99.5q90 0 167 42.5t123 115.5l183 -88q-68 -117 -184.5 -189.5t-254.5 -81.5l-57 -108q20 4 33 4q41 0 78.5 -10.5t71.5 -33t54.5 -65t20.5 -98.5q0 -117 -78 -181.5t-196 -64.5z" />
    <glyph glyph-name="egrave" unicode="&#xe8;" horiz-adv-x="1204" 
d="M625 -23q-151 0 -278.5 72.5t-201 197.5t-73.5 273q0 149 69 273.5t191 197t270 72.5q112 0 212 -42.5t175 -120.5t114 -199.5t27 -266.5h-845q30 -112 123.5 -184t216.5 -72q90 0 167.5 35t129.5 102l176 -86q-72 -118 -198.5 -185t-274.5 -67zM287 616h633
q-26 117 -111 181.5t-207 64.5q-116 0 -201.5 -68.5t-113.5 -177.5zM356 1432h195l135 -285h-154z" />
    <glyph glyph-name="eacute" unicode="&#xe9;" horiz-adv-x="1204" 
d="M625 -23q-151 0 -278.5 72.5t-201 197.5t-73.5 273q0 149 69 273.5t191 197t270 72.5q112 0 212 -42.5t175 -120.5t114 -199.5t27 -266.5h-845q30 -112 123.5 -184t216.5 -72q90 0 167.5 35t129.5 102l176 -86q-72 -118 -198.5 -185t-274.5 -67zM287 616h633
q-26 117 -111 181.5t-207 64.5q-116 0 -201.5 -68.5t-113.5 -177.5zM489 1147l134 285h196l-178 -285h-152z" />
    <glyph glyph-name="ecircumflex" unicode="&#xea;" horiz-adv-x="1204" 
d="M625 -23q-151 0 -278.5 72.5t-201 197.5t-73.5 273q0 149 69 273.5t191 197t270 72.5q112 0 212 -42.5t175 -120.5t114 -199.5t27 -266.5h-845q30 -112 123.5 -184t216.5 -72q90 0 167.5 35t129.5 102l176 -86q-72 -118 -198.5 -185t-274.5 -67zM287 616h633
q-26 117 -111 181.5t-207 64.5q-116 0 -201.5 -68.5t-113.5 -177.5zM291 1147l209 285h207l208 -285h-188l-125 168l-123 -168h-188z" />
    <glyph glyph-name="edieresis" unicode="&#xeb;" horiz-adv-x="1204" 
d="M625 -23q-151 0 -278.5 72.5t-201 197.5t-73.5 273q0 149 69 273.5t191 197t270 72.5q112 0 212 -42.5t175 -120.5t114 -199.5t27 -266.5h-845q30 -112 123.5 -184t216.5 -72q90 0 167.5 35t129.5 102l176 -86q-72 -118 -198.5 -185t-274.5 -67zM287 616h633
q-26 117 -111 181.5t-207 64.5q-116 0 -201.5 -68.5t-113.5 -177.5zM299 1274q0 44 32 75t77 31q44 0 75 -31t31 -75q0 -46 -31 -77.5t-75 -31.5q-45 0 -77 32t-32 77zM692 1274q0 44 31.5 75t75.5 31t76 -31t32 -75q0 -46 -31.5 -77.5t-76.5 -31.5q-44 0 -75.5 31.5
t-31.5 77.5z" />
    <glyph glyph-name="igrave" unicode="&#xec;" horiz-adv-x="436" 
d="M119 0v1038h198v-1038h-198zM-37 1432h195l135 -285h-154z" />
    <glyph glyph-name="iacute" unicode="&#xed;" horiz-adv-x="436" 
d="M119 0v1038h198v-1038h-198zM147 1147l134 285h196l-178 -285h-152z" />
    <glyph glyph-name="icircumflex" unicode="&#xee;" horiz-adv-x="436" 
d="M119 0v1038h198v-1038h-198zM-94 1147l209 285h207l208 -285h-188l-125 168l-123 -168h-188z" />
    <glyph glyph-name="idieresis" unicode="&#xef;" horiz-adv-x="436" 
d="M119 0v1038h198v-1038h-198zM-86 1274q0 44 32 75t77 31q44 0 75 -31t31 -75q0 -46 -31 -77.5t-75 -31.5q-45 0 -77 32t-32 77zM307 1274q0 44 31.5 75t75.5 31t76 -31t32 -75q0 -46 -32 -77.5t-76 -31.5t-75.5 31.5t-31.5 77.5z" />
    <glyph glyph-name="eth" unicode="&#xf0;" horiz-adv-x="1153" 
d="M578 -23q-137 0 -253.5 67.5t-184.5 183.5t-68 253q0 206 148 350t358 144q114 0 210 -47q-84 153 -217 268l-237 -168l-94 135l192 135q-112 69 -229 113l69 170q176 -67 322 -170l225 158l94 -135l-186 -131q170 -162 262 -372.5t92 -449.5q0 -137 -67.5 -253
t-183.5 -183.5t-252 -67.5zM274 481q0 -126 89 -214.5t215 -88.5q125 0 213 88.5t88 214.5q0 125 -88.5 213t-212.5 88q-126 0 -215 -88t-89 -213z" />
    <glyph glyph-name="ntilde" unicode="&#xf1;" 
d="M113 0v1038h200v-141q126 166 334 166q137 0 242.5 -68t161 -182.5t55.5 -255.5v-557h-201v557q0 136 -78.5 220.5t-197.5 84.5q-145 0 -230.5 -104.5t-85.5 -259.5v-498h-200zM248 1225q49 180 194 180q37 0 74 -12t54 -22t63 -38q67 -43 98 -43q56 0 76 78l141 -39
q-26 -92 -71.5 -138t-124.5 -46q-39 0 -75 11t-57.5 22.5t-64.5 38.5q-4 3 -12 8l-12 7.5t-10.5 6.5t-10.5 6l-10 5t-10 4.5t-9 3t-10 2t-10 0.5q-17 0 -30 -7t-22 -22.5t-11.5 -22t-8.5 -22.5z" />
    <glyph glyph-name="ograve" unicode="&#xf2;" horiz-adv-x="1249" 
d="M625 -23q-148 0 -275.5 72.5t-202.5 197.5t-75 273t75 273t202.5 197.5t275.5 72.5t275.5 -72.5t202.5 -197.5t75 -273t-75 -273t-202.5 -197.5t-275.5 -72.5zM274 520q0 -142 104 -242t247 -100t247.5 100t104.5 242t-104.5 242t-247.5 100t-247 -100t-104 -242z
M373 1432h194l135 -285h-153z" />
    <glyph glyph-name="oacute" unicode="&#xf3;" horiz-adv-x="1249" 
d="M625 -23q-148 0 -275.5 72.5t-202.5 197.5t-75 273t75 273t202.5 197.5t275.5 72.5t275.5 -72.5t202.5 -197.5t75 -273t-75 -273t-202.5 -197.5t-275.5 -72.5zM274 520q0 -142 104 -242t247 -100t247.5 100t104.5 242t-104.5 242t-247.5 100t-247 -100t-104 -242z
M524 1147l133 285h197l-178 -285h-152z" />
    <glyph glyph-name="ocircumflex" unicode="&#xf4;" horiz-adv-x="1249" 
d="M625 -23q-148 0 -275.5 72.5t-202.5 197.5t-75 273t75 273t202.5 197.5t275.5 72.5t275.5 -72.5t202.5 -197.5t75 -273t-75 -273t-202.5 -197.5t-275.5 -72.5zM274 520q0 -142 104 -242t247 -100t247.5 100t104.5 242t-104.5 242t-247.5 100t-247 -100t-104 -242z
M313 1147l209 285h207l209 -285h-188l-125 168l-123 -168h-189z" />
    <glyph glyph-name="otilde" unicode="&#xf5;" horiz-adv-x="1249" 
d="M625 -23q-148 0 -275.5 72.5t-202.5 197.5t-75 273t75 273t202.5 197.5t275.5 72.5t275.5 -72.5t202.5 -197.5t75 -273t-75 -273t-202.5 -197.5t-275.5 -72.5zM274 520q0 -142 104 -242t247 -100t247.5 100t104.5 242t-104.5 242t-247.5 100t-247 -100t-104 -242z
M274 1225q49 180 195 180q35 0 68.5 -10t52.5 -20.5t56 -33.5q9 -5 13 -8q67 -43 99 -43q56 0 76 78l141 -39q-26 -92 -72 -138t-125 -46q-39 0 -75 11t-56.5 22.5t-64.5 38.5q-3 2 -11 7t-11 7t-10 6t-9.5 6t-8.5 5t-9.5 4t-8.5 3t-9 3t-8.5 1.5t-9.5 0.5q-16 0 -28.5 -6
t-21 -20.5t-11 -20.5t-8.5 -22q-2 -4 -2 -5z" />
    <glyph glyph-name="odieresis" unicode="&#xf6;" horiz-adv-x="1249" 
d="M625 -23q-148 0 -275.5 72.5t-202.5 197.5t-75 273t75 273t202.5 197.5t275.5 72.5t275.5 -72.5t202.5 -197.5t75 -273t-75 -273t-202.5 -197.5t-275.5 -72.5zM274 520q0 -142 104 -242t247 -100t247.5 100t104.5 242t-104.5 242t-247.5 100t-247 -100t-104 -242z
M322 1274q0 44 32 75t76 31t75.5 -31t31.5 -75q0 -46 -31.5 -77.5t-75.5 -31.5t-76 31.5t-32 77.5zM715 1274q0 44 31 75t75 31q45 0 77 -31t32 -75q0 -45 -32 -77t-77 -32q-44 0 -75 31.5t-31 77.5z" />
    <glyph glyph-name="divide" unicode="&#xf7;" horiz-adv-x="1165" 
d="M143 510v201h879v-201h-879zM451 199q0 54 39 92.5t94 38.5q54 0 92.5 -38.5t38.5 -92.5q0 -55 -38.5 -94t-92.5 -39q-56 0 -94.5 39t-38.5 94zM451 1022q0 55 38.5 93t94.5 38q54 0 92.5 -38t38.5 -93q0 -54 -38.5 -92.5t-92.5 -38.5q-55 0 -94 38.5t-39 92.5z" />
    <glyph glyph-name="oslash" unicode="&#xf8;" horiz-adv-x="1288" 
d="M154 -59l-123 133l153 143q-94 137 -94 303q0 148 75 273t202.5 197.5t275.5 72.5q185 0 334 -111l158 148l122 -133l-153 -146q94 -142 94 -301q0 -148 -75.5 -273t-203.5 -197.5t-276 -72.5q-181 0 -332 109zM293 520q0 -87 43 -162l489 455q-84 49 -182 49
q-143 0 -246.5 -100t-103.5 -242zM463 227q84 -49 180 -49q143 0 247.5 100t104.5 242q0 87 -43 162z" />
    <glyph glyph-name="ugrave" unicode="&#xf9;" 
d="M571 -25q-137 0 -242.5 68t-160.5 182.5t-55 255.5v557h200v-557q0 -136 79 -220.5t198 -84.5q145 0 230 105t85 260v497h201v-1038h-201v141q-124 -166 -334 -166zM377 1432h194l136 -285h-154z" />
    <glyph glyph-name="uacute" unicode="&#xfa;" 
d="M571 -25q-137 0 -242.5 68t-160.5 182.5t-55 255.5v557h200v-557q0 -136 79 -220.5t198 -84.5q145 0 230 105t85 260v497h201v-1038h-201v141q-124 -166 -334 -166zM512 1147l133 285h197l-178 -285h-152z" />
    <glyph glyph-name="ucircumflex" unicode="&#xfb;" 
d="M571 -25q-137 0 -242.5 68t-160.5 182.5t-55 255.5v557h200v-557q0 -136 79 -220.5t198 -84.5q145 0 230 105t85 260v497h201v-1038h-201v141q-124 -166 -334 -166zM297 1147l209 285h207l209 -285h-189l-125 168l-123 -168h-188z" />
    <glyph glyph-name="udieresis" unicode="&#xfc;" 
d="M571 -25q-137 0 -242.5 68t-160.5 182.5t-55 255.5v557h200v-557q0 -136 79 -220.5t198 -84.5q145 0 230 105t85 260v497h201v-1038h-201v141q-124 -166 -334 -166zM305 1274q0 44 32 75t77 31q44 0 75 -31t31 -75q0 -46 -31 -77.5t-75 -31.5q-45 0 -77 32t-32 77z
M698 1274q0 44 31.5 75t75.5 31t76 -31t32 -75q0 -46 -31.5 -77.5t-76.5 -31.5q-44 0 -75.5 31.5t-31.5 77.5z" />
    <glyph glyph-name="yacute" unicode="&#xfd;" horiz-adv-x="1189" 
d="M279 -487l208 487l-446 1038h219l336 -782l336 782h217l-651 -1525h-219zM512 1147l133 285h197l-178 -285h-152z" />
    <glyph glyph-name="thorn" unicode="&#xfe;" horiz-adv-x="1296" 
d="M113 -485v2011h200v-627q157 164 377 164q148 0 271 -72.5t193.5 -197.5t70.5 -273t-70.5 -273t-193.5 -197.5t-271 -72.5q-223 0 -377 164v-626h-200zM322 520q0 -142 103.5 -242t246.5 -100t247.5 100t104.5 242t-104.5 242t-247.5 100t-246.5 -100t-103.5 -242z" />
    <glyph glyph-name="ydieresis" unicode="&#xff;" horiz-adv-x="1189" 
d="M279 -487l208 487l-446 1038h219l336 -782l336 782h217l-651 -1525h-219zM291 1274q0 44 32 75t76 31t75.5 -31t31.5 -75q0 -46 -31.5 -77.5t-75.5 -31.5q-45 0 -76.5 31.5t-31.5 77.5zM684 1274q0 44 31.5 75t75.5 31t76 -31t32 -75q0 -46 -31.5 -77.5t-76.5 -31.5
q-44 0 -75.5 31.5t-31.5 77.5z" />
    <glyph glyph-name="Amacron" unicode="&#x100;" horiz-adv-x="1421" 
d="M31 0l563 1434h233l564 -1434h-230l-153 393h-594l-154 -393h-229zM471 1573v166h481v-166h-481zM494 594h434l-217 553z" />
    <glyph glyph-name="amacron" unicode="&#x101;" horiz-adv-x="1298" 
d="M606 -23q-148 0 -271 72.5t-193 197t-70 273.5t70 273.5t193 197t271 72.5q222 0 379 -164v139h201v-1038h-201v141q-154 -164 -379 -164zM274 520q0 -142 104 -242t247 -100t247.5 100t104.5 242t-104.5 242t-247.5 100t-247 -100t-104 -242zM375 1184v166h481v-166
h-481z" />
    <glyph glyph-name="Abreve" unicode="&#x102;" horiz-adv-x="1421" 
d="M31 0l563 1434h233l564 -1434h-230l-153 393h-594l-154 -393h-229zM406 1804h182q0 -50 31 -85.5t94 -35.5q61 0 92 35.5t31 85.5h182q0 -120 -84 -202t-221 -82q-139 0 -223 81.5t-84 202.5zM494 594h434l-217 553z" />
    <glyph glyph-name="abreve" unicode="&#x103;" horiz-adv-x="1298" 
d="M606 -23q-148 0 -271 72.5t-193 197t-70 273.5t70 273.5t193 197t271 72.5q222 0 379 -164v139h201v-1038h-201v141q-154 -164 -379 -164zM274 520q0 -142 104 -242t247 -100t247.5 100t104.5 242t-104.5 242t-247.5 100t-247 -100t-104 -242zM305 1436h182
q0 -50 31 -85.5t94 -35.5q61 0 92 35.5t31 85.5h183q0 -120 -84.5 -202.5t-221.5 -82.5q-139 0 -223 82t-84 203z" />
    <glyph glyph-name="Aogonek" unicode="&#x104;" horiz-adv-x="1421" 
d="M1409 -551q-37 -8 -76 -9t-79 5t-75.5 24t-63.5 45t-44 70t-16 97q0 156 192 319h-84l-155 393h-592l-156 -393h-229l563 1434h235l564 -1434q-67 -49 -115.5 -115.5t-48.5 -132.5q0 -42 20 -69t48.5 -35t59.5 -10.5t52 4.5v-193zM494 594h436l-219 553z" />
    <glyph glyph-name="aogonek" unicode="&#x105;" horiz-adv-x="1298" 
d="M1202 -551q-37 -8 -76 -9t-79 5t-75.5 24t-63.5 45t-44 70t-16 97q0 156 192 319h-55v141q-154 -164 -377 -164q-112 0 -211.5 43t-170.5 115.5t-112.5 173t-41.5 211.5t41.5 211.5t112.5 173t170.5 115.5t211.5 43q220 0 377 -164v139h201v-1038q-67 -49 -115.5 -115.5
t-48.5 -132.5q0 -34 13.5 -58.5t33 -36t45.5 -17t47 -4.5t41 4v-191zM274 520q0 -142 104 -242t247 -100q145 0 248.5 100t103.5 242t-103.5 242t-248.5 100q-143 0 -247 -100t-104 -242z" />
    <glyph glyph-name="Cacute" unicode="&#x106;" horiz-adv-x="1456" 
d="M817 -25q-121 0 -234.5 37.5t-205 106t-161 159.5t-107 204.5t-37.5 234.5q0 101 27 197t75 177.5t117 149.5t150.5 116t178 74.5t197.5 26.5q172 0 323.5 -74t256.5 -204l-172 -131q-75 88 -182 139t-226 51q-107 0 -204.5 -41.5t-168.5 -111t-113 -166.5t-42 -203
t42 -203t113 -166.5t168.5 -111t204.5 -41.5q128 0 239.5 57.5t184.5 157.5l174 -134q-103 -139 -260.5 -220t-337.5 -81zM676 1536l133 285h197l-179 -285h-151z" />
    <glyph glyph-name="cacute" unicode="&#x107;" horiz-adv-x="1153" 
d="M618 -23q-148 0 -274 72.5t-199 197.5t-73 273t73 273t199 197.5t274 72.5q150 0 276 -73.5t198 -198.5l-181 -89q-47 73 -124.5 116.5t-168.5 43.5q-143 0 -244.5 -100t-101.5 -242t101.5 -242t244.5 -100q91 0 169 42.5t124 115.5l181 -88q-72 -124 -198 -197.5
t-276 -73.5zM492 1147l133 285h196l-178 -285h-151z" />
    <glyph glyph-name="ccircumflex" unicode="&#x109;" horiz-adv-x="1153" 
d="M618 -23q-148 0 -274 72.5t-199 197.5t-73 273t73 273t199 197.5t274 72.5q150 0 276 -73.5t198 -198.5l-181 -89q-47 73 -124.5 116.5t-168.5 43.5q-143 0 -244.5 -100t-101.5 -242t101.5 -242t244.5 -100q91 0 169 42.5t124 115.5l181 -88q-72 -124 -198 -197.5
t-276 -73.5zM276 1147l209 285h207l209 -285h-188l-125 168l-123 -168h-189z" />
    <glyph glyph-name="Cdotaccent" unicode="&#x10a;" horiz-adv-x="1456" 
d="M817 -25q-121 0 -234.5 37.5t-205 106t-161 159.5t-107 204.5t-37.5 234.5q0 101 27 197t75 177.5t117 149.5t150.5 116t178 74.5t197.5 26.5q172 0 323.5 -74t256.5 -204l-172 -131q-75 88 -182 139t-226 51q-107 0 -204.5 -41.5t-168.5 -111t-113 -166.5t-42 -203
t42 -203t113 -166.5t168.5 -111t204.5 -41.5q128 0 239.5 57.5t184.5 157.5l174 -134q-103 -139 -260.5 -220t-337.5 -81zM670 1683q0 44 32 75.5t76 31.5t75.5 -31.5t31.5 -75.5q0 -45 -31.5 -76.5t-75.5 -31.5q-45 0 -76.5 31.5t-31.5 76.5z" />
    <glyph glyph-name="cdotaccent" unicode="&#x10b;" horiz-adv-x="1153" 
d="M618 -23q-148 0 -274 72.5t-199 197.5t-73 273t73 273t199 197.5t274 72.5q150 0 276 -73.5t198 -198.5l-181 -89q-47 73 -124.5 116.5t-168.5 43.5q-143 0 -244.5 -100t-101.5 -242t101.5 -242t244.5 -100q91 0 169 42.5t124 115.5l181 -88q-72 -124 -198 -197.5
t-276 -73.5zM492 1274q0 44 32 75t76 31t75.5 -31t31.5 -75q0 -46 -31.5 -77.5t-75.5 -31.5t-76 31.5t-32 77.5z" />
    <glyph glyph-name="Ccaron" unicode="&#x10c;" horiz-adv-x="1456" 
d="M817 -25q-121 0 -234.5 37.5t-205 106t-161 159.5t-107 204.5t-37.5 234.5q0 101 27 197t75 177.5t117 149.5t150.5 116t178 74.5t197.5 26.5q172 0 323.5 -74t256.5 -204l-172 -131q-75 88 -182 139t-226 51q-107 0 -204.5 -41.5t-168.5 -111t-113 -166.5t-42 -203
t42 -203t113 -166.5t168.5 -111t204.5 -41.5q128 0 239.5 57.5t184.5 157.5l174 -134q-103 -139 -260.5 -220t-337.5 -81zM467 1821h188l125 -168l123 168h189l-209 -285h-207z" />
    <glyph glyph-name="ccaron" unicode="&#x10d;" horiz-adv-x="1153" 
d="M618 -23q-148 0 -274 72.5t-199 197.5t-73 273t73 273t199 197.5t274 72.5q150 0 276 -73.5t198 -198.5l-181 -89q-47 73 -124.5 116.5t-168.5 43.5q-143 0 -244.5 -100t-101.5 -242t101.5 -242t244.5 -100q91 0 169 42.5t124 115.5l181 -88q-72 -124 -198 -197.5
t-276 -73.5zM272 1432h189l125 -168l123 168h188l-209 -285h-207z" />
    <glyph glyph-name="Dcaron" unicode="&#x10e;" horiz-adv-x="1394" 
d="M133 0v1434h393q235 0 415.5 -87t281 -250.5t100.5 -379.5t-100.5 -379.5t-281 -250.5t-415.5 -87h-393zM250 1821h188l125 -168l123 168h188l-208 -285h-207zM352 219h174q267 0 423.5 131.5t156.5 366.5t-156.5 366t-423.5 131h-174v-995z" />
    <glyph glyph-name="dcaron" unicode="&#x10f;" horiz-adv-x="1298" 
d="M606 -23q-148 0 -271 72.5t-193 197t-70 273.5t70 273.5t193 197t271 72.5q112 0 209 -44t170 -120v627h201v-1526h-201v141q-154 -164 -379 -164zM274 520q0 -142 104 -242t247 -100t246.5 100t103.5 242t-103.5 242t-246.5 100t-247 -100t-104 -242zM1298 1151l142 375
h198l-190 -375h-150z" />
    <glyph glyph-name="Dcroat" unicode="&#x110;" horiz-adv-x="1538" 
d="M276 0v616h-215v201h215v617h394q234 0 414.5 -87t281 -250.5t100.5 -379.5t-100.5 -379.5t-281 -250.5t-414.5 -87h-394zM496 219h174q267 0 422 131.5t155 366.5t-155 366t-422 131h-174v-397h389v-201h-389v-397z" />
    <glyph glyph-name="dcroat" unicode="&#x111;" horiz-adv-x="1396" 
d="M608 -25q-148 0 -271.5 72.5t-194 197.5t-70.5 273t70.5 273t194 197.5t271.5 72.5q223 0 377 -164v301h-307v164h307v164h201v-164h198v-164h-198v-1198h-201v139q-157 -164 -377 -164zM274 518q0 -142 104 -242t249 -100q143 0 246.5 100t103.5 242t-103.5 242
t-246.5 100q-145 0 -249 -100t-104 -242z" />
    <glyph glyph-name="Emacron" unicode="&#x112;" horiz-adv-x="1050" 
d="M133 0v1434h787v-201h-568v-399h549v-201h-549v-432h586v-201h-805zM297 1573v166h481v-166h-481z" />
    <glyph glyph-name="emacron" unicode="&#x113;" horiz-adv-x="1204" 
d="M625 -23q-151 0 -278.5 72.5t-201 197.5t-73.5 273q0 149 69 273.5t191 197t270 72.5q112 0 212 -42.5t175 -120.5t114 -199.5t27 -266.5h-845q30 -112 123.5 -184t216.5 -72q90 0 167.5 35t129.5 102l176 -86q-72 -118 -198.5 -185t-274.5 -67zM287 616h633
q-26 117 -111 181.5t-207 64.5q-116 0 -201.5 -68.5t-113.5 -177.5zM362 1184v166h482v-166h-482z" />
    <glyph glyph-name="Edotaccent" unicode="&#x116;" horiz-adv-x="1050" 
d="M133 0v1434h787v-201h-568v-399h549v-201h-549v-432h586v-201h-805zM434 1683q0 44 32.5 75.5t76.5 31.5t75 -31.5t31 -75.5q0 -46 -31 -77t-75 -31q-45 0 -77 31.5t-32 76.5z" />
    <glyph glyph-name="edotaccent" unicode="&#x117;" horiz-adv-x="1204" 
d="M625 -23q-151 0 -278.5 72.5t-201 197.5t-73.5 273q0 149 69 273.5t191 197t270 72.5q112 0 212 -42.5t175 -120.5t114 -199.5t27 -266.5h-845q30 -112 123.5 -184t216.5 -72q90 0 167.5 35t129.5 102l176 -86q-72 -118 -198.5 -185t-274.5 -67zM287 616h633
q-26 117 -111 181.5t-207 64.5q-116 0 -201.5 -68.5t-113.5 -177.5zM496 1274q0 44 32 75t76 31t75.5 -31t31.5 -75q0 -46 -31.5 -77.5t-75.5 -31.5t-76 31.5t-32 77.5z" />
    <glyph glyph-name="Eogonek" unicode="&#x118;" horiz-adv-x="1050" 
d="M954 -551q-37 -8 -76 -9t-79 5t-75.5 24t-63.5 45t-44 70t-16 97q0 155 193 319h-660v1434h787v-199h-568v-399h549v-201h-549v-434h586v-201q-67 -49 -115.5 -115.5t-48.5 -132.5q0 -42 20 -69t48.5 -35t59.5 -10.5t52 4.5v-193z" />
    <glyph glyph-name="eogonek" unicode="&#x119;" horiz-adv-x="1202" 
d="M858 -551q-37 -8 -76 -9t-79 5t-75.5 24t-63.5 45t-44 70t-16 97q0 146 162 299q-21 -3 -43 -3q-151 0 -278 72.5t-200 197.5t-73 273q0 149 68.5 273.5t190 197t269.5 72.5q112 0 212 -42.5t175.5 -120.5t114.5 -199.5t26 -266.5h-843q28 -113 121 -184.5t217 -71.5
q90 0 167.5 35t129.5 102l176 -86q-77 -128 -228 -200q-72 -47 -131 -124t-59 -153q0 -34 13.5 -58.5t33 -36t45.5 -17t47 -4.5t41 4v-191zM285 616h633q-26 117 -111 181.5t-207 64.5q-115 0 -200 -68.5t-115 -177.5z" />
    <glyph glyph-name="Ecaron" unicode="&#x11a;" horiz-adv-x="1050" 
d="M133 0v1434h787v-201h-568v-399h549v-201h-549v-432h586v-201h-805zM219 1821h189l124 -168l123 168h189l-209 -285h-207z" />
    <glyph glyph-name="ecaron" unicode="&#x11b;" horiz-adv-x="1204" 
d="M625 -23q-151 0 -278.5 72.5t-201 197.5t-73.5 273q0 149 69 273.5t191 197t270 72.5q112 0 212 -42.5t175 -120.5t114 -199.5t27 -266.5h-845q30 -112 123.5 -184t216.5 -72q90 0 167.5 35t129.5 102l176 -86q-72 -118 -198.5 -185t-274.5 -67zM287 616h633
q-26 117 -111 181.5t-207 64.5q-116 0 -201.5 -68.5t-113.5 -177.5zM291 1432h188l125 -168l123 168h188l-208 -285h-207z" />
    <glyph glyph-name="gcircumflex" unicode="&#x11d;" horiz-adv-x="1296" 
d="M659 -485q-160 0 -296 73t-207 195l182 88q46 -72 132 -114t189 -42q149 0 237.5 82t88.5 242v102q-157 -164 -379 -164q-148 0 -271 72.5t-193 197t-70 273.5t70 273.5t193 197t271 72.5q218 0 379 -164v139h199v-999q0 -243 -146.5 -383.5t-378.5 -140.5zM272 520
q0 -141 104.5 -241.5t248.5 -100.5q143 0 246.5 100t103.5 242t-103.5 242t-246.5 100q-144 0 -248.5 -100.5t-104.5 -241.5zM293 1147l209 285h207l209 -285h-189l-125 168l-123 -168h-188z" />
    <glyph glyph-name="Gbreve" unicode="&#x11e;" horiz-adv-x="1595" 
d="M817 -25q-121 0 -234.5 37.5t-205 106t-161 159.5t-107 204.5t-37.5 234.5q0 101 27 197t75 177.5t117 149.5t150.5 116t178 74.5t197.5 26.5q172 0 324 -74t258 -204l-174 -131q-75 88 -182 139t-226 51q-107 0 -204 -41.5t-167.5 -111t-112.5 -166.5t-42 -203t42 -203
t112.5 -166.5t167.5 -111t204 -41.5q183 0 301 96.5t162 265.5h-500v201h744q0 -223 -83.5 -399.5t-245.5 -280t-378 -103.5zM467 1804h182q0 -50 31 -85.5t94 -35.5q61 0 92 35.5t31 85.5h182q0 -120 -84 -202t-221 -82q-139 0 -223 81.5t-84 202.5z" />
    <glyph glyph-name="gbreve" unicode="&#x11f;" horiz-adv-x="1296" 
d="M659 -485q-160 0 -296 73t-207 195l182 88q46 -72 132 -114t189 -42q149 0 237.5 82t88.5 242v102q-157 -164 -379 -164q-148 0 -271 72.5t-193 197t-70 273.5t70 273.5t193 197t271 72.5q218 0 379 -164v139h199v-999q0 -243 -146.5 -383.5t-378.5 -140.5zM272 520
q0 -141 104.5 -241.5t248.5 -100.5q143 0 246.5 100t103.5 242t-103.5 242t-246.5 100q-144 0 -248.5 -100.5t-104.5 -241.5zM307 1436h182q0 -50 31 -85.5t94 -35.5q61 0 92 35.5t31 85.5h183q0 -120 -84.5 -202.5t-221.5 -82.5q-139 0 -223 82t-84 203z" />
    <glyph glyph-name="Gdotaccent" unicode="&#x120;" horiz-adv-x="1595" 
d="M817 -25q-121 0 -234.5 37.5t-205 106t-161 159.5t-107 204.5t-37.5 234.5q0 101 27 197t75 177.5t117 149.5t150.5 116t178 74.5t197.5 26.5q172 0 324 -74t258 -204l-174 -131q-75 88 -182 139t-226 51q-107 0 -204 -41.5t-167.5 -111t-112.5 -166.5t-42 -203t42 -203
t112.5 -166.5t167.5 -111t204 -41.5q183 0 301 96.5t162 265.5h-500v201h744q0 -223 -83.5 -399.5t-245.5 -280t-378 -103.5zM672 1683q0 44 32 75.5t76 31.5t75.5 -31.5t31.5 -75.5q0 -45 -31.5 -76.5t-75.5 -31.5q-45 0 -76.5 31.5t-31.5 76.5z" />
    <glyph glyph-name="gdotaccent" unicode="&#x121;" horiz-adv-x="1296" 
d="M659 -485q-160 0 -296 73t-207 195l182 88q46 -72 132 -114t189 -42q149 0 237.5 82t88.5 242v102q-157 -164 -379 -164q-148 0 -271 72.5t-193 197t-70 273.5t70 273.5t193 197t271 72.5q218 0 379 -164v139h199v-999q0 -243 -146.5 -383.5t-378.5 -140.5zM272 520
q0 -141 104.5 -241.5t248.5 -100.5q143 0 246.5 100t103.5 242t-103.5 242t-246.5 100q-144 0 -248.5 -100.5t-104.5 -241.5zM494 1274q0 44 32 75t76 31t75.5 -31t31.5 -75q0 -46 -31.5 -77.5t-75.5 -31.5t-76 31.5t-32 77.5z" />
    <glyph glyph-name="uni0122" unicode="&#x122;" horiz-adv-x="1595" 
d="M817 -25q-121 0 -234.5 37.5t-205 106t-161 159.5t-107 204.5t-37.5 234.5q0 101 27 197t75 177.5t117 149.5t150.5 116t178 74.5t197.5 26.5q172 0 324 -74t258 -204l-174 -131q-75 88 -182 139t-226 51q-107 0 -204 -41.5t-167.5 -111t-112.5 -166.5t-42 -203t42 -203
t112.5 -166.5t167.5 -111t204 -41.5q183 0 301 96.5t162 265.5h-500v201h744q0 -223 -83.5 -399.5t-245.5 -280t-378 -103.5zM547 -489l141 374h199l-191 -374h-149z" />
    <glyph glyph-name="uni0123" unicode="&#x123;" horiz-adv-x="1296" 
d="M659 -485q-160 0 -296 73t-207 195l182 88q46 -72 132 -114t189 -42q149 0 237.5 82t88.5 242v102q-157 -164 -379 -164q-148 0 -271 72.5t-193 197t-70 273.5t70 273.5t193 197t271 72.5q218 0 379 -164v139h199v-999q0 -243 -146.5 -383.5t-378.5 -140.5zM272 520
q0 -141 104.5 -241.5t248.5 -100.5q143 0 246.5 100t103.5 242t-103.5 242t-246.5 100q-144 0 -248.5 -100.5t-104.5 -241.5zM520 1147l176 285h154l-135 -285h-195z" />
    <glyph glyph-name="hcircumflex" unicode="&#x125;" 
d="M113 0v1526h200v-629q126 166 334 166q137 0 242.5 -68t161 -182.5t55.5 -255.5v-557h-201v557q0 136 -78.5 220.5t-197.5 84.5q-145 0 -230.5 -104.5t-85.5 -259.5v-498h-200zM260 1618l209 285h207l209 -285h-189l-125 168l-122 -168h-189z" />
    <glyph glyph-name="Hbar" unicode="&#x126;" horiz-adv-x="1662" 
d="M231 0v1020h-190v201h190v213h220v-213h761v213h220v-213h190v-201h-190v-1020h-220v616h-761v-616h-220zM451 817h761v203h-761v-203z" />
    <glyph glyph-name="hbar" unicode="&#x127;" horiz-adv-x="1288" 
d="M180 0v1200h-170v164h170v162h201v-162h338v-164h-338v-303q124 166 336 166q137 0 242.5 -68t161 -182.5t55.5 -255.5v-557h-201v557q0 136 -79 220.5t-198 84.5q-145 0 -231 -104.5t-86 -259.5v-498h-201z" />
    <glyph glyph-name="itilde" unicode="&#x129;" horiz-adv-x="436" 
d="M119 0v1038h198v-1038h-198zM-133 1225q49 180 194 180q37 0 74 -12t54 -22t63 -38q67 -43 98 -43q56 0 76 78l141 -39q-26 -92 -71.5 -138t-124.5 -46q-39 0 -75 11t-57.5 22.5t-64.5 38.5q-4 3 -12 8l-12 7.5t-10.5 6.5t-10.5 6l-10 5t-10 4.5t-9 3t-10 2t-10 0.5
q-17 0 -30 -7t-22 -22.5t-11.5 -22t-8.5 -22.5z" />
    <glyph glyph-name="Imacron" unicode="&#x12a;" horiz-adv-x="485" 
d="M133 0v1434h219v-1434h-219zM2 1573v166h481v-166h-481z" />
    <glyph glyph-name="imacron" unicode="&#x12b;" horiz-adv-x="436" 
d="M119 0v1038h198v-1038h-198zM-23 1184v166h482v-166h-482z" />
    <glyph glyph-name="Iogonek" unicode="&#x12e;" horiz-adv-x="485" 
d="M365 -551q-44 -7 -91.5 -9.5t-94.5 13t-84 41t-60 74t-23 113.5q0 157 191 319h-74v1434h219v-1434q-67 -49 -115.5 -115.5t-48.5 -132.5q0 -42 20.5 -69t49 -35t59.5 -10.5t52 4.5v-193z" />
    <glyph glyph-name="iogonek" unicode="&#x12f;" horiz-adv-x="436" 
d="M336 -551q-37 -8 -76 -9t-79 5t-75.5 24t-63.5 45t-44 70t-16 97q0 156 192 319h-55v1038h200v-1038q-67 -49 -115 -115.5t-48 -132.5q0 -34 13.5 -58.5t33 -36t45.5 -17t47 -4.5t41 4v-191zM104 1341q0 47 34 81t81 34t81 -34t34 -81t-34 -80.5t-81 -33.5t-81 33.5
t-34 80.5z" />
    <glyph glyph-name="Idotaccent" unicode="&#x130;" horiz-adv-x="485" 
d="M133 0v1434h219v-1434h-219zM135 1683q0 44 32.5 75.5t76.5 31.5t75 -31.5t31 -75.5q0 -46 -31 -77t-75 -31q-45 0 -77 31.5t-32 76.5z" />
    <glyph glyph-name="dotlessi" unicode="&#x131;" horiz-adv-x="436" 
d="M119 0v1038h198v-1038h-198z" />
    <glyph glyph-name="IJ" unicode="&#x132;" horiz-adv-x="1423" 
d="M133 0v1434h219v-1434h-219zM547 256l211 57q3 -17 11.5 -34.5t25.5 -37.5t48.5 -33t71.5 -13q156 0 156 211v1028h219v-1028q0 -218 -101 -324.5t-274 -106.5q-155 0 -252 82.5t-116 198.5z" />
    <glyph glyph-name="ij" unicode="&#x133;" horiz-adv-x="913" 
d="M119 0v1038h198v-1038h-198zM102 1341q0 47 34.5 81t80.5 34q47 0 82 -34t35 -81t-34.5 -80.5t-82.5 -33.5q-46 0 -80.5 33.5t-34.5 80.5zM406 -485v200q96 0 143 69.5t47 174.5v1079h201v-1079q0 -215 -107.5 -329.5t-283.5 -114.5zM582 1341q0 47 33.5 81t80.5 34
t81 -34t34 -81t-34 -80.5t-81 -33.5t-80.5 33.5t-33.5 80.5z" />
    <glyph glyph-name="jcircumflex" unicode="&#x135;" horiz-adv-x="462" 
d="M-31 -285q96 0 143.5 69.5t47.5 174.5v1079h200v-1079q0 -215 -107.5 -329.5t-283.5 -114.5v200zM-53 1147l209 285h206l209 -285h-188l-125 168l-123 -168h-188z" />
    <glyph glyph-name="uni0136" unicode="&#x136;" horiz-adv-x="1265" 
d="M133 0v1434h219v-678l531 678h274l-577 -715l655 -719h-299l-584 659v-659h-219zM412 -489l141 374h199l-191 -374h-149z" />
    <glyph glyph-name="uni0137" unicode="&#x137;" horiz-adv-x="991" 
d="M113 0v1526h200v-965l369 477h236l-371 -477l434 -561h-252l-416 541v-541h-200zM283 -489l141 374h199l-191 -374h-149z" />
    <glyph glyph-name="Lacute" unicode="&#x139;" horiz-adv-x="1042" 
d="M133 0v1434h219v-1215h598v-219h-817zM172 1536l133 285h197l-178 -285h-152z" />
    <glyph glyph-name="lacute" unicode="&#x13a;" horiz-adv-x="425" 
d="M113 0v1526h200v-1526h-200zM141 1634l133 285h197l-178 -285h-152z" />
    <glyph glyph-name="uni013B" unicode="&#x13b;" horiz-adv-x="1042" 
d="M133 0v1434h219v-1215h598v-219h-817zM305 -489l141 374h199l-190 -374h-150z" />
    <glyph glyph-name="uni013C" unicode="&#x13c;" horiz-adv-x="425" 
d="M113 0v1526h200v-1526h-200zM-35 -489l141 374h199l-190 -374h-150z" />
    <glyph glyph-name="Lcaron" unicode="&#x13d;" horiz-adv-x="1042" 
d="M133 0v1434h219v-1215h598v-219h-817zM-70 1821h189l125 -168l123 168h188l-209 -285h-207z" />
    <glyph glyph-name="lcaron" unicode="&#x13e;" horiz-adv-x="425" 
d="M113 0v1526h200v-1526h-200zM457 1151l141 375h199l-191 -375h-149z" />
    <glyph glyph-name="Ldot" unicode="&#x13f;" horiz-adv-x="1042" 
d="M133 0v1434h219v-1215h598v-219h-817zM545 618q0 44 32 76.5t76 32.5t75.5 -32.5t31.5 -76.5t-31.5 -75t-75.5 -31t-76 31t-32 75z" />
    <glyph glyph-name="ldot" unicode="&#x140;" horiz-adv-x="743" 
d="M113 0v1526h200v-1526h-200zM446 618q0 44 32.5 76.5t76.5 32.5t75.5 -32.5t31.5 -76.5t-31.5 -75t-75.5 -31q-45 0 -77 31t-32 75z" />
    <glyph glyph-name="Lslash" unicode="&#x141;" horiz-adv-x="1161" 
d="M254 0v449l-123 -64l-80 164l203 106v779h217v-666l322 168l79 -164l-401 -209v-344h598v-219h-815z" />
    <glyph glyph-name="lslash" unicode="&#x142;" horiz-adv-x="684" 
d="M242 0v618l-146 -75l-76 145l222 115v723h200v-617l146 76l76 -145l-222 -117v-723h-200z" />
    <glyph glyph-name="Nacute" unicode="&#x143;" horiz-adv-x="1466" 
d="M133 0v1434h244l737 -1106v1106h219v-1434h-241l-740 1106v-1106h-219zM655 1536l133 285h197l-178 -285h-152z" />
    <glyph glyph-name="nacute" unicode="&#x144;" 
d="M113 0v1038h200v-141q126 166 334 166q137 0 242.5 -68t161 -182.5t55.5 -255.5v-557h-201v557q0 136 -78.5 220.5t-197.5 84.5q-145 0 -230.5 -104.5t-85.5 -259.5v-498h-200zM492 1147l133 285h196l-178 -285h-151z" />
    <glyph glyph-name="uni0145" unicode="&#x145;" horiz-adv-x="1466" 
d="M133 0v1434h244l737 -1106v1106h219v-1434h-241l-740 1106v-1106h-219zM487 -489l142 374h198l-190 -374h-150z" />
    <glyph glyph-name="uni0146" unicode="&#x146;" 
d="M113 0v1038h200v-141q126 166 334 166q137 0 242.5 -68t161 -182.5t55.5 -255.5v-557h-201v557q0 136 -78.5 220.5t-197.5 84.5q-145 0 -230.5 -104.5t-85.5 -259.5v-498h-200zM381 -489l141 374h199l-191 -374h-149z" />
    <glyph glyph-name="Ncaron" unicode="&#x147;" horiz-adv-x="1466" 
d="M133 0v1434h244l737 -1106v1106h219v-1434h-241l-740 1106v-1106h-219zM422 1821h188l125 -168l123 168h189l-209 -285h-207z" />
    <glyph glyph-name="ncaron" unicode="&#x148;" 
d="M113 0v1038h200v-141q126 166 334 166q137 0 242.5 -68t161 -182.5t55.5 -255.5v-557h-201v557q0 136 -78.5 220.5t-197.5 84.5q-145 0 -230.5 -104.5t-85.5 -259.5v-498h-200zM281 1432h188l125 -168l123 168h188l-209 -285h-207z" />
    <glyph glyph-name="napostrophe" unicode="&#x149;" horiz-adv-x="1298" 
d="M193 0v1038h200v-141q124 166 334 166q207 0 333 -145t126 -361v-557h-201v557q0 136 -77.5 220.5t-196.5 84.5q-145 0 -231.5 -105t-86.5 -259v-498h-200zM-20 1100l141 375h198l-190 -375h-149z" />
    <glyph glyph-name="Eng" unicode="&#x14a;" horiz-adv-x="1466" 
d="M926 -250q99 0 143.5 56.5t44.5 152.5v41l-762 1114v-1114h-219v1434h244l737 -1080v1080h219v-1475q0 -211 -108.5 -319.5t-298.5 -108.5v219z" />
    <glyph glyph-name="eng" unicode="&#x14b;" 
d="M717 -266q96 0 142 69t46 174v580q0 136 -77.5 220.5t-196.5 84.5q-145 0 -231.5 -105t-86.5 -259v-498h-200v1038h200v-141q124 166 334 166q207 0 333 -145t126 -361v-580q0 -215 -107.5 -329.5t-281.5 -114.5v201z" />
    <glyph glyph-name="Omacron" unicode="&#x14c;" horiz-adv-x="1636" 
d="M819 -25q-151 0 -289 59t-238.5 158t-160 236.5t-59.5 288.5t59.5 288.5t160 236.5t238.5 157.5t289 58.5q150 0 288 -58.5t238.5 -157.5t160 -236.5t59.5 -288.5t-59.5 -288.5t-160 -236.5t-238.5 -158t-288 -59zM291 717q0 -106 42 -203t113 -166.5t168.5 -111
t204.5 -41.5q142 0 263.5 69.5t192.5 190t71 262.5t-71 262.5t-192.5 190t-263.5 69.5q-107 0 -204.5 -41.5t-168.5 -111t-113 -166.5t-42 -203zM578 1573v166h481v-166h-481z" />
    <glyph glyph-name="omacron" unicode="&#x14d;" horiz-adv-x="1249" 
d="M625 -23q-148 0 -275.5 72.5t-202.5 197.5t-75 273t75 273t202.5 197.5t275.5 72.5t275.5 -72.5t202.5 -197.5t75 -273t-75 -273t-202.5 -197.5t-275.5 -72.5zM274 520q0 -142 104 -242t247 -100t247.5 100t104.5 242t-104.5 242t-247.5 100t-247 -100t-104 -242z
M385 1184v166h481v-166h-481z" />
    <glyph glyph-name="Ohungarumlaut" unicode="&#x150;" horiz-adv-x="1636" 
d="M819 -25q-151 0 -289 59t-238.5 158t-160 236.5t-59.5 288.5t59.5 288.5t160 236.5t238.5 157.5t289 58.5q150 0 288 -58.5t238.5 -157.5t160 -236.5t59.5 -288.5t-59.5 -288.5t-160 -236.5t-238.5 -158t-288 -59zM291 717q0 -106 42 -203t113 -166.5t168.5 -111
t204.5 -41.5q142 0 263.5 69.5t192.5 190t71 262.5t-71 262.5t-192.5 190t-263.5 69.5q-107 0 -204.5 -41.5t-168.5 -111t-113 -166.5t-42 -203zM537 1536l133 285h196l-178 -285h-151zM879 1536l135 285h194l-176 -285h-153z" />
    <glyph glyph-name="ohungarumlaut" unicode="&#x151;" horiz-adv-x="1249" 
d="M625 -23q-148 0 -275.5 72.5t-202.5 197.5t-75 273t75 273t202.5 197.5t275.5 72.5t275.5 -72.5t202.5 -197.5t75 -273t-75 -273t-202.5 -197.5t-275.5 -72.5zM274 520q0 -142 104 -242t247 -100t247.5 100t104.5 242t-104.5 242t-247.5 100t-247 -100t-104 -242z
M352 1147l133 285h197l-178 -285h-152zM694 1147l135 285h195l-176 -285h-154z" />
    <glyph glyph-name="OE" unicode="&#x152;" horiz-adv-x="2263" 
d="M817 -25q-121 0 -234.5 37.5t-205 106t-161 159.5t-107 204.5t-37.5 234.5q0 101 27 197t75 177.5t117 149.5t150.5 116t178 74.5t197.5 26.5q151 0 287 -58t239 -161v195h789v-201h-569v-399h551v-201h-551v-432h587v-201h-807v195q-104 -104 -239.5 -162t-286.5 -58z
M291 717q0 -106 42 -203t112.5 -166.5t167.5 -111t204 -41.5t204 41.5t167.5 111t112.5 166.5t42 203t-42 203t-112.5 166.5t-167.5 111t-204 41.5t-204 -41.5t-167.5 -111t-112.5 -166.5t-42 -203z" />
    <glyph glyph-name="oe" unicode="&#x153;" horiz-adv-x="2144" 
d="M625 -25q-148 0 -275.5 72.5t-202.5 197.5t-75 273t75 273t202.5 197.5t275.5 72.5q144 0 268 -68t199 -184q70 116 188.5 184t261.5 68q112 0 212 -42.5t176 -120t115 -198.5t26 -266h-844q28 -114 121.5 -186t216.5 -72q91 0 168 35.5t129 103.5l176 -86
q-72 -119 -198 -186.5t-275 -67.5q-147 0 -271.5 69.5t-199.5 188.5q-75 -119 -199 -188.5t-270 -69.5zM274 518q0 -142 104 -242t247 -100t247.5 100t104.5 242t-104.5 242t-247.5 100t-247 -100t-104 -242zM1227 616h633q-26 116 -111 180t-207 64q-116 0 -200.5 -68
t-114.5 -176z" />
    <glyph glyph-name="Racute" unicode="&#x154;" horiz-adv-x="1191" 
d="M133 0v1434h383q223 0 363.5 -114t140.5 -321q0 -144 -68.5 -243t-189.5 -148l409 -608h-270l-362 563h-189v-563h-217zM350 782h166q131 0 206 54t75 163q0 107 -75 161t-206 54h-166v-432zM410 1536l133 285h196l-178 -285h-151z" />
    <glyph glyph-name="racute" unicode="&#x155;" horiz-adv-x="727" 
d="M113 0v1038h200v-168q116 191 353 191v-201q-176 0 -264.5 -100t-88.5 -336v-424h-200zM266 1147l133 285h197l-178 -285h-152z" />
    <glyph glyph-name="uni0156" unicode="&#x156;" horiz-adv-x="1191" 
d="M133 0v1434h383q223 0 363.5 -114t140.5 -321q0 -144 -68.5 -243t-189.5 -148l409 -608h-270l-362 563h-189v-563h-217zM350 782h166q131 0 206 54t75 163q0 107 -75 161t-206 54h-166v-432zM371 -489l141 374h199l-191 -374h-149z" />
    <glyph glyph-name="uni0157" unicode="&#x157;" horiz-adv-x="727" 
d="M113 0v1038h200v-168q116 191 353 191v-201q-176 0 -264.5 -100t-88.5 -336v-424h-200zM-31 -489l142 374h198l-190 -374h-150z" />
    <glyph glyph-name="Rcaron" unicode="&#x158;" horiz-adv-x="1191" 
d="M133 0v1434h383q223 0 363.5 -114t140.5 -321q0 -144 -68.5 -243t-189.5 -148l409 -608h-270l-362 563h-189v-563h-217zM184 1821h189l125 -168l123 168h188l-209 -285h-207zM350 782h166q131 0 206 54t75 163q0 107 -75 161t-206 54h-166v-432z" />
    <glyph glyph-name="rcaron" unicode="&#x159;" horiz-adv-x="727" 
d="M113 0v1038h200v-168q116 191 353 191v-201q-176 0 -264.5 -100t-88.5 -336v-424h-200zM59 1432h189l125 -168l123 168h188l-209 -285h-207z" />
    <glyph glyph-name="Sacute" unicode="&#x15a;" horiz-adv-x="1054" 
d="M524 -25q-103 0 -188 33t-140 87.5t-87 122t-37 140.5l217 21q2 -14 7 -31.5t21 -46.5t40 -51t67.5 -38.5t99.5 -16.5q111 0 174.5 54t63.5 144q0 45 -12 76.5t-43.5 56t-65 41.5t-95.5 44l-42 18q-13 6 -49.5 21.5t-53.5 23t-51.5 25t-52.5 30.5t-46.5 35t-44.5 42.5
t-35.5 50t-29.5 61t-17 72t-7 85.5q0 162 114.5 272.5t280.5 110.5q160 0 271.5 -99t125.5 -233l-217 -26q-6 46 -53 92.5t-127 46.5q-82 0 -131 -46.5t-49 -117.5q0 -37 11 -66t28 -50.5t53.5 -44.5t71.5 -41t98 -46q15 -7 48.5 -21t53 -22.5t52 -24.5t52.5 -29t47.5 -34
t44.5 -41.5t36.5 -49t30 -59.5t17.5 -70t7 -83q0 -187 -130.5 -302.5t-328.5 -115.5zM436 1536l133 285h197l-178 -285h-152z" />
    <glyph glyph-name="sacute" unicode="&#x15b;" horiz-adv-x="905" 
d="M461 -25q-177 0 -282 84.5t-118 202.5l199 25q6 -44 54 -80.5t147 -36.5q80 0 130 34.5t50 98.5q0 49 -46.5 74t-178.5 61q-70 19 -121 42t-98 61t-72 95.5t-25 133.5q0 124 100 207.5t240 83.5q125 0 223.5 -69t118.5 -177l-202 -33q-11 35 -44.5 60.5t-95.5 25.5
q-59 0 -97 -29t-38 -79q0 -45 41.5 -76.5t151.5 -62.5q132 -37 188 -65q158 -82 158 -247q0 -104 -56 -182t-141.5 -115t-185.5 -37zM352 1147l133 285h197l-178 -285h-152z" />
    <glyph glyph-name="scircumflex" unicode="&#x15d;" horiz-adv-x="905" 
d="M461 -25q-177 0 -282 84.5t-118 202.5l199 25q6 -44 54 -80.5t147 -36.5q80 0 130 34.5t50 98.5q0 49 -46.5 74t-178.5 61q-70 19 -121 42t-98 61t-72 95.5t-25 133.5q0 124 100 207.5t240 83.5q125 0 223.5 -69t118.5 -177l-202 -33q-11 35 -44.5 60.5t-95.5 25.5
q-59 0 -97 -29t-38 -79q0 -45 41.5 -76.5t151.5 -62.5q132 -37 188 -65q158 -82 158 -247q0 -104 -56 -182t-141.5 -115t-185.5 -37zM127 1147l209 285h207l209 -285h-189l-125 168l-123 -168h-188z" />
    <glyph glyph-name="Scedilla" unicode="&#x15e;" horiz-adv-x="1054" 
d="M504 -578q-110 0 -201 58l62 137q73 -39 135 -39q53 0 81.5 26t28.5 62t-22.5 58t-65.5 22q-18 0 -36 -6.5t-32.5 -15.5t-15.5 -9l-78 97l89 170q-169 24 -268 131.5t-109 246.5l219 19q1 -13 6 -31t21 -46t40 -50t68 -38.5t100 -16.5q111 0 173.5 53t62.5 145
q0 36 -11 64.5t-20.5 45t-48 39.5t-56 31.5t-80.5 36.5q-27 12 -42 19q-14 6 -49 21.5t-53 23.5t-51.5 25t-52.5 30t-47 34.5t-44.5 42.5t-35.5 50t-29.5 60.5t-17.5 71.5t-7 85q0 163 114 273t281 110q161 0 272 -98t127 -232l-217 -28q-6 47 -53 93t-129 46
q-81 0 -130.5 -46.5t-49.5 -117.5q0 -45 14 -78t51.5 -62t77.5 -50t119 -56q15 -7 48.5 -21t53 -22.5t52 -24.5t52.5 -29t47.5 -34t44.5 -41.5t36.5 -49t30 -59.5t17.5 -70t7 -83q0 -176 -112.5 -288t-292.5 -127l-58 -109q5 0 16 1t17 1q41 0 78.5 -10.5t71.5 -33t54.5 -65
t20.5 -98.5q0 -117 -78 -180.5t-196 -63.5z" />
    <glyph glyph-name="scedilla" unicode="&#x15f;" horiz-adv-x="907" 
d="M436 -580q-109 0 -200 60l61 137q67 -39 135 -39q52 0 80.5 25.5t28.5 62.5q0 35 -22.5 56.5t-63.5 21.5q-43 0 -84 -31l-80 99l90 170q-141 19 -224 98t-96 182l201 25q4 -43 52.5 -79t146.5 -36q80 0 130 34.5t50 98.5q0 48 -47 74t-176 61q-69 19 -120.5 42
t-98.5 60.5t-72 95t-25 132.5q0 125 99.5 209t238.5 84q126 0 225 -69.5t119 -178.5l-202 -33q-28 86 -142 86q-57 0 -95 -29t-38 -77q0 -47 41 -78t150 -61q137 -38 197 -70q151 -82 151 -242q0 -143 -97.5 -230.5t-238.5 -100.5l-57 -111q20 4 30 4q33 0 63.5 -6
t60.5 -21.5t52.5 -38.5t36 -59t13.5 -82q0 -117 -77.5 -181.5t-195.5 -64.5z" />
    <glyph glyph-name="Scaron" unicode="&#x160;" horiz-adv-x="1054" 
d="M524 -25q-103 0 -188 33t-140 87.5t-87 122t-37 140.5l217 21q2 -14 7 -31.5t21 -46.5t40 -51t67.5 -38.5t99.5 -16.5q111 0 174.5 54t63.5 144q0 45 -12 76.5t-43.5 56t-65 41.5t-95.5 44l-42 18q-13 6 -49.5 21.5t-53.5 23t-51.5 25t-52.5 30.5t-46.5 35t-44.5 42.5
t-35.5 50t-29.5 61t-17 72t-7 85.5q0 162 114.5 272.5t280.5 110.5q160 0 271.5 -99t125.5 -233l-217 -26q-6 46 -53 92.5t-127 46.5q-82 0 -131 -46.5t-49 -117.5q0 -37 11 -66t28 -50.5t53.5 -44.5t71.5 -41t98 -46q15 -7 48.5 -21t53 -22.5t52 -24.5t52.5 -29t47.5 -34
t44.5 -41.5t36.5 -49t30 -59.5t17.5 -70t7 -83q0 -187 -130.5 -302.5t-328.5 -115.5zM195 1821h188l125 -168l123 168h188l-209 -285h-207z" />
    <glyph glyph-name="scaron" unicode="&#x161;" horiz-adv-x="905" 
d="M461 -25q-177 0 -282 84.5t-118 202.5l199 25q6 -44 54 -80.5t147 -36.5q80 0 130 34.5t50 98.5q0 49 -46.5 74t-178.5 61q-70 19 -121 42t-98 61t-72 95.5t-25 133.5q0 124 100 207.5t240 83.5q125 0 223.5 -69t118.5 -177l-202 -33q-11 35 -44.5 60.5t-95.5 25.5
q-59 0 -97 -29t-38 -79q0 -45 41.5 -76.5t151.5 -62.5q132 -37 188 -65q158 -82 158 -247q0 -104 -56 -182t-141.5 -115t-185.5 -37zM127 1432h188l125 -168l123 168h189l-209 -285h-207z" />
    <glyph glyph-name="uni0162" unicode="&#x162;" horiz-adv-x="1112" 
d="M541 -580q-108 0 -199 60l61 137q64 -39 134 -39q54 0 82 25.5t28 62.5q0 35 -22.5 56.5t-65.5 21.5q-41 0 -82 -31l-80 99l99 188h-50v1214h-354v220h928v-220h-354v-1214h-39l-68 -131q20 4 31 4q42 0 79.5 -10.5t71.5 -33t54 -64.5t20 -99q0 -117 -78 -181.5
t-196 -64.5z" />
    <glyph glyph-name="uni0163" unicode="&#x163;" horiz-adv-x="860" 
d="M469 -580q-108 0 -199 60l62 137q64 -39 133 -39q54 0 82 25.5t28 62.5q0 35 -22.5 56.5t-65.5 21.5q-40 0 -81 -31l-80 99l104 198q-188 73 -188 361v485h-191v182h191v232h200v-232h283v-182h-283v-485q0 -28 1 -47t8.5 -48t21.5 -47t41 -31.5t66 -13.5q63 0 110 43
l109 -159q-94 -84 -219 -84q-5 0 -16.5 1t-16.5 1l-60 -117q20 4 31 4q42 0 79.5 -10.5t71.5 -33t54 -64.5t20 -99q0 -117 -78 -181.5t-196 -64.5z" />
    <glyph glyph-name="Tcaron" unicode="&#x164;" horiz-adv-x="1112" 
d="M446 0v1214h-354v220h928v-220h-354v-1214h-220zM254 1821h188l125 -168l123 168h189l-209 -285h-207z" />
    <glyph glyph-name="tcaron" unicode="&#x165;" horiz-adv-x="860" 
d="M580 -16q-338 0 -338 387v485h-191v182h191v232h200v-232h281v-182h-281v-485q0 -28 1 -47t8.5 -48t21.5 -47t41 -31.5t66 -13.5q63 0 110 43l109 -159q-94 -84 -219 -84zM674 1151l141 375h199l-191 -375h-149z" />
    <glyph glyph-name="Tbar" unicode="&#x166;" horiz-adv-x="1110" 
d="M446 0v731h-253v201h253v282h-354v220h926v-220h-354v-282h254v-201h-254v-731h-218z" />
    <glyph glyph-name="tbar" unicode="&#x167;" horiz-adv-x="862" 
d="M582 -16q-338 0 -338 385v157h-152v164h152v164h-193v182h193v234h200v-234h281v-182h-281v-164h226v-164h-226v-157q0 -28 1 -47t8.5 -47.5t21.5 -46t41 -31t66 -13.5q63 0 110 43l109 -159q-97 -84 -219 -84z" />
    <glyph glyph-name="utilde" unicode="&#x169;" 
d="M571 -25q-137 0 -242.5 68t-160.5 182.5t-55 255.5v557h200v-557q0 -136 79 -220.5t198 -84.5q145 0 230 105t85 260v497h201v-1038h-201v141q-124 -166 -334 -166zM260 1225q49 180 195 180q35 0 68.5 -10t52.5 -20.5t56 -33.5q9 -5 13 -8q67 -43 98 -43q56 0 76 78
l142 -39q-26 -92 -72 -138t-125 -46q-39 0 -75 11t-57.5 22.5t-64.5 38.5q-4 3 -12 8l-12 7.5t-10.5 6.5t-10.5 6l-10 5t-10 4.5t-9 3t-10 2t-10 0.5q-17 0 -30 -7t-22 -22.5t-11.5 -22t-8.5 -22.5z" />
    <glyph glyph-name="Umacron" unicode="&#x16a;" horiz-adv-x="1400" 
d="M700 -23q-175 0 -305.5 79t-196 212.5t-65.5 302.5v863h219v-863q0 -169 87.5 -271.5t260.5 -102.5t261 102.5t88 271.5v863h219v-863q0 -169 -66 -302.5t-196 -212.5t-306 -79zM461 1573v166h481v-166h-481z" />
    <glyph glyph-name="umacron" unicode="&#x16b;" 
d="M571 -25q-137 0 -242.5 68t-160.5 182.5t-55 255.5v557h200v-557q0 -136 79 -220.5t198 -84.5q145 0 230 105t85 260v497h201v-1038h-201v141q-124 -166 -334 -166zM369 1184v166h481v-166h-481z" />
    <glyph glyph-name="ubreve" unicode="&#x16d;" 
d="M571 -25q-137 0 -242.5 68t-160.5 182.5t-55 255.5v557h200v-557q0 -136 79 -220.5t198 -84.5q145 0 230 105t85 260v497h201v-1038h-201v141q-124 -166 -334 -166zM303 1436h182q0 -50 31 -85.5t94 -35.5q61 0 92 35.5t31 85.5h182q0 -121 -84 -203t-221 -82
q-139 0 -223 82t-84 203z" />
    <glyph glyph-name="Uring" unicode="&#x16e;" horiz-adv-x="1400" 
d="M700 -23q-175 0 -305.5 79t-196 212.5t-65.5 302.5v863h219v-863q0 -169 87.5 -271.5t260.5 -102.5t261 102.5t88 271.5v863h219v-863q0 -169 -66 -302.5t-196 -212.5t-306 -79zM477 1751q0 94 65.5 159.5t159.5 65.5q92 0 158 -66t66 -159q0 -92 -66 -157.5t-158 -65.5
q-94 0 -159.5 65.5t-65.5 157.5zM606 1751q0 -40 28 -68t68 -28t68.5 28t28.5 68t-28.5 68t-68.5 28t-68 -28t-28 -68z" />
    <glyph glyph-name="uring" unicode="&#x16f;" 
d="M571 -25q-137 0 -242.5 68t-160.5 182.5t-55 255.5v557h200v-557q0 -136 79 -220.5t198 -84.5q145 0 230 105t85 260v497h201v-1038h-201v141q-124 -166 -334 -166zM385 1364q0 94 65.5 159.5t159.5 65.5q92 0 158 -65.5t66 -159.5q0 -92 -66 -157.5t-158 -65.5
q-94 0 -159.5 65.5t-65.5 157.5zM514 1364q0 -40 28 -68t68 -28t68.5 28t28.5 68t-28.5 68t-68.5 28t-68 -28t-28 -68z" />
    <glyph glyph-name="Uhungarumlaut" unicode="&#x170;" horiz-adv-x="1400" 
d="M700 -23q-175 0 -305.5 79t-196 212.5t-65.5 302.5v863h219v-863q0 -169 87.5 -271.5t260.5 -102.5t261 102.5t88 271.5v863h219v-863q0 -169 -66 -302.5t-196 -212.5t-306 -79zM434 1536l133 285h197l-178 -285h-152zM776 1536l135 285h195l-176 -285h-154z" />
    <glyph glyph-name="uhungarumlaut" unicode="&#x171;" 
d="M571 -25q-137 0 -242.5 68t-160.5 182.5t-55 255.5v557h200v-557q0 -136 79 -220.5t198 -84.5q145 0 230 105t85 260v497h201v-1038h-201v141q-124 -166 -334 -166zM330 1147l133 285h196l-178 -285h-151zM672 1147l135 285h194l-176 -285h-153z" />
    <glyph glyph-name="Uogonek" unicode="&#x172;" horiz-adv-x="1400" 
d="M948 -551q-37 -8 -76 -9t-79 5t-75.5 24t-63.5 45t-44 70t-16 97q0 148 164 299q-27 -3 -58 -3q-175 0 -305.5 79t-196 212.5t-65.5 302.5v863h217v-863q0 -170 88 -272t262 -102q173 0 261 102.5t88 271.5v863h219v-863q0 -184 -79.5 -326t-225.5 -212
q-72 -45 -133.5 -124.5t-61.5 -156.5q0 -42 20 -69t48.5 -35t59.5 -10.5t52 4.5v-193z" />
    <glyph glyph-name="uogonek" unicode="&#x173;" 
d="M1122 -551q-37 -8 -76 -9t-79 5t-75.5 24t-63.5 45t-44 70t-16 97q0 155 193 319h-56v141q-125 -164 -334 -164q-207 0 -332.5 145t-125.5 361v555h200v-555q0 -136 79 -220.5t198 -84.5q144 0 229.5 104.5t85.5 258.5v497h201v-1038q-67 -49 -115.5 -115.5t-48.5 -132.5
q0 -34 13.5 -58.5t33 -36t45.5 -17t47 -4.5t41 4v-191z" />
    <glyph glyph-name="Wcircumflex" unicode="&#x174;" horiz-adv-x="2129" 
d="M506 0l-475 1434h229l358 -1076l332 1076h230l329 -1076l359 1076h231l-477 -1434h-231l-326 1063l-328 -1063h-231zM754 1536l209 285h206l209 -285h-188l-125 168l-123 -168h-188z" />
    <glyph glyph-name="wcircumflex" unicode="&#x175;" horiz-adv-x="1765" 
d="M440 0l-399 1038h215l293 -759l237 759h195l236 -759l292 759h215l-399 -1038h-215l-227 725l-228 -725h-215zM571 1147l209 285h207l209 -285h-188l-125 168l-123 -168h-189z" />
    <glyph glyph-name="Ycircumflex" unicode="&#x176;" horiz-adv-x="1386" 
d="M584 0v629l-543 805h262l391 -592l391 592h261l-543 -805v-629h-219zM381 1536l209 285h207l209 -285h-189l-125 168l-123 -168h-188z" />
    <glyph glyph-name="ycircumflex" unicode="&#x177;" horiz-adv-x="1189" 
d="M279 -487l208 487l-446 1038h219l336 -782l336 782h217l-651 -1525h-219zM283 1147l209 285h206l209 -285h-188l-125 168l-123 -168h-188z" />
    <glyph glyph-name="Ydieresis" unicode="&#x178;" horiz-adv-x="1386" 
d="M584 0v629l-543 805h262l391 -592l391 592h261l-543 -805v-629h-219zM389 1683q0 44 32.5 75.5t76.5 31.5t75 -31.5t31 -75.5q0 -46 -31 -77t-75 -31q-45 0 -77 31.5t-32 76.5zM782 1683q0 44 31.5 75.5t75.5 31.5t76 -31.5t32 -75.5q0 -45 -31.5 -76.5t-76.5 -31.5
t-76 31.5t-31 76.5z" />
    <glyph glyph-name="Zacute" unicode="&#x179;" horiz-adv-x="1220" 
d="M92 0v219l717 998h-680v217h944v-217l-715 -998h770v-219h-1036zM479 1536l133 285h197l-178 -285h-152z" />
    <glyph glyph-name="zacute" unicode="&#x17a;" horiz-adv-x="1019" 
d="M72 0v182l579 674h-542v182h802v-182l-579 -674h616v-182h-876zM403 1147l134 285h196l-178 -285h-152z" />
    <glyph glyph-name="Zdotaccent" unicode="&#x17b;" horiz-adv-x="1220" 
d="M92 0v219l717 998h-680v217h944v-217l-715 -998h770v-219h-1036zM492 1683q0 44 32 75.5t76 31.5t75.5 -31.5t31.5 -75.5q0 -45 -31.5 -76.5t-75.5 -31.5q-45 0 -76.5 31.5t-31.5 76.5z" />
    <glyph glyph-name="zdotaccent" unicode="&#x17c;" horiz-adv-x="1019" 
d="M72 0v182l579 674h-542v182h802v-182l-579 -674h616v-182h-876zM416 1274q0 44 32 75t76 31t75.5 -31t31.5 -75q0 -46 -31.5 -77.5t-75.5 -31.5t-76 31.5t-32 77.5z" />
    <glyph glyph-name="Zcaron" unicode="&#x17d;" horiz-adv-x="1220" 
d="M92 0v219l717 998h-680v217h944v-217l-715 -998h770v-219h-1036zM287 1821h188l125 -168l123 168h188l-209 -285h-206z" />
    <glyph glyph-name="zcaron" unicode="&#x17e;" horiz-adv-x="1019" 
d="M72 0v182l579 674h-542v182h802v-182l-579 -674h616v-182h-876zM201 1432h188l125 -168l123 168h188l-209 -285h-206z" />
    <glyph glyph-name="gcaron" unicode="&#x1e7;" horiz-adv-x="1296" 
d="M659 -485q-160 0 -296 73t-207 195l182 88q46 -72 132 -114t189 -42q149 0 237.5 82t88.5 242v102q-157 -164 -379 -164q-148 0 -271 72.5t-193 197t-70 273.5t70 273.5t193 197t271 72.5q218 0 379 -164v139h199v-999q0 -243 -146.5 -383.5t-378.5 -140.5zM272 520
q0 -141 104.5 -241.5t248.5 -100.5q143 0 246.5 100t103.5 242t-103.5 242t-246.5 100q-144 0 -248.5 -100.5t-104.5 -241.5zM301 1432h188l125 -168l123 168h189l-209 -285h-207z" />
    <glyph glyph-name="uni0218" unicode="&#x218;" horiz-adv-x="1054" 
d="M524 -25q-103 0 -188 33t-140 87.5t-87 122t-37 140.5l217 21q2 -14 7 -31.5t21 -46.5t40 -51t67.5 -38.5t99.5 -16.5q111 0 174.5 54t63.5 144q0 45 -12 76.5t-43.5 56t-65 41.5t-95.5 44l-42 18q-13 6 -49.5 21.5t-53.5 23t-51.5 25t-52.5 30.5t-46.5 35t-44.5 42.5
t-35.5 50t-29.5 61t-17 72t-7 85.5q0 162 114.5 272.5t280.5 110.5q160 0 271.5 -99t125.5 -233l-217 -26q-6 46 -53 92.5t-127 46.5q-82 0 -131 -46.5t-49 -117.5q0 -37 11 -66t28 -50.5t53.5 -44.5t71.5 -41t98 -46q15 -7 48.5 -21t53 -22.5t52 -24.5t52.5 -29t47.5 -34
t44.5 -41.5t36.5 -49t30 -59.5t17.5 -70t7 -83q0 -187 -130.5 -302.5t-328.5 -115.5zM285 -489l141 374h199l-191 -374h-149z" />
    <glyph glyph-name="uni0219" unicode="&#x219;" horiz-adv-x="905" 
d="M461 -25q-177 0 -282 84.5t-118 202.5l199 25q6 -44 54 -80.5t147 -36.5q80 0 130 34.5t50 98.5q0 49 -46.5 74t-178.5 61q-70 19 -121 42t-98 61t-72 95.5t-25 133.5q0 124 100 207.5t240 83.5q125 0 223.5 -69t118.5 -177l-202 -33q-11 35 -44.5 60.5t-95.5 25.5
q-59 0 -97 -29t-38 -79q0 -45 41.5 -76.5t151.5 -62.5q132 -37 188 -65q158 -82 158 -247q0 -104 -56 -182t-141.5 -115t-185.5 -37zM225 -489l142 374h198l-190 -374h-150z" />
    <glyph glyph-name="uni021A" unicode="&#x21a;" horiz-adv-x="1112" 
d="M446 0v1214h-354v220h928v-220h-354v-1214h-220zM319 -492l142 375h198l-190 -375h-150z" />
    <glyph glyph-name="uni021B" unicode="&#x21b;" horiz-adv-x="860" 
d="M580 -16q-338 0 -338 385v487h-191v182h191v232h200v-232h283v-182h-283v-487q0 -28 1 -47t8.5 -47.5t21.5 -46t41 -31t66 -13.5q63 0 110 43l109 -159q-94 -84 -219 -84zM264 -489l142 374h198l-190 -374h-150z" />
    <glyph glyph-name="uni0237" unicode="&#x237;" horiz-adv-x="462" 
d="M-31 -285q96 0 143.5 69.5t47.5 174.5v1079h200v-1079q0 -215 -107.5 -329.5t-283.5 -114.5v200z" />
    <glyph glyph-name="gravecomb" unicode="&#x300;" horiz-adv-x="0" 
d="M340 1536l-176 285h194l136 -285h-154z" />
    <glyph glyph-name="acutecomb" unicode="&#x301;" horiz-adv-x="0" 
d="M164 1536l133 285h197l-179 -285h-151z" />
    <glyph glyph-name="uni0302" unicode="&#x302;" horiz-adv-x="0" 
d="M164 1536l209 285h207l208 -285h-188l-125 168l-123 -168h-188z" />
    <glyph glyph-name="tildecomb" unicode="&#x303;" horiz-adv-x="0" 
d="M668 1520q-39 0 -75 10.5t-58 22.5t-64 38q-4 3 -12 8l-12 7.5t-10.5 6.5t-10.5 6l-10 5t-10 4.5t-9 3t-10 2t-10 0.5q-17 0 -30 -7t-22 -22t-12 -22t-8 -22l-141 38q50 181 194 181q37 0 74 -12t54 -22t63 -38q67 -43 98 -43q56 0 76 78l141 -39q-26 -92 -71.5 -138
t-124.5 -46z" />
    <glyph glyph-name="uni0304" unicode="&#x304;" horiz-adv-x="0" 
d="M164 1573v166h481v-166h-481z" />
    <glyph glyph-name="uni0306" unicode="&#x306;" horiz-adv-x="0" 
d="M471 1520q-139 0 -223 81.5t-84 202.5h182q0 -50 31 -85.5t94 -35.5q61 0 92 35.5t31 85.5h182q0 -120 -84 -202t-221 -82z" />
    <glyph glyph-name="uni0307" unicode="&#x307;" horiz-adv-x="0" 
d="M272 1575q-45 0 -76.5 31.5t-31.5 76.5q0 44 32 75.5t76 31.5t75.5 -31.5t31.5 -75.5q0 -45 -31.5 -76.5t-75.5 -31.5z" />
    <glyph glyph-name="uni0308" unicode="&#x308;" horiz-adv-x="0" 
d="M664 1575q-44 0 -75.5 31.5t-31.5 76.5q0 44 31.5 75.5t75.5 31.5t76 -31.5t32 -75.5q0 -45 -31.5 -76.5t-76.5 -31.5zM164 1683q0 44 32 75.5t76 31.5t75.5 -31.5t31.5 -75.5q0 -45 -31.5 -76.5t-75.5 -31.5q-45 0 -76.5 31.5t-31.5 76.5z" />
    <glyph glyph-name="uni030A" unicode="&#x30a;" horiz-adv-x="0" 
d="M389 1528q-94 0 -159.5 65.5t-65.5 157.5q0 94 65.5 159.5t159.5 65.5q92 0 157.5 -65.5t65.5 -159.5q0 -92 -65.5 -157.5t-157.5 -65.5zM293 1751q0 -40 28 -68t68 -28t68 28t28 68t-28 68t-68 28t-68 -28t-28 -68z" />
    <glyph glyph-name="uni030B" unicode="&#x30b;" horiz-adv-x="0" 
d="M506 1536l135 285h195l-177 -285h-153zM164 1536l133 285h197l-179 -285h-151z" />
    <glyph glyph-name="uni030C" unicode="&#x30c;" horiz-adv-x="0" 
d="M373 1536l-209 285h188l125 -168l123 168h188l-208 -285h-207z" />
    <glyph glyph-name="uni0326" unicode="&#x326;" horiz-adv-x="0" 
d="M164 -489l141 374h199l-191 -374h-149z" />
    <glyph glyph-name="uni0327" unicode="&#x327;" horiz-adv-x="0" 
d="M362 -578q-110 0 -198 58l61 137q70 -39 133 -39q53 0 82 26t29 62t-22.5 58t-65.5 22q-14 0 -29 -4.5t-24 -9.5t-18.5 -11t-10.5 -6l-80 97l98 188h132l-70 -129q5 0 16 1t17 1q41 0 78.5 -10.5t71.5 -33t54.5 -65t20.5 -98.5q0 -117 -78 -180.5t-197 -63.5z" />
    <glyph glyph-name="uni0328" unicode="&#x328;" horiz-adv-x="0" 
d="M518 -551q-37 -8 -76 -9t-79 5t-75.5 24t-63.5 45t-44 70t-16 97q0 156 192 319h146q-67 -49 -115.5 -115.5t-48.5 -132.5q0 -42 20 -69t48.5 -35t59.5 -10.5t52 4.5v-193z" />
    <glyph glyph-name="Wgrave" unicode="&#x1e80;" horiz-adv-x="2129" 
d="M506 0l-475 1434h229l358 -1076l332 1076h230l329 -1076l359 1076h231l-477 -1434h-231l-326 1063l-328 -1063h-231zM811 1821h195l135 -285h-154z" />
    <glyph glyph-name="wgrave" unicode="&#x1e81;" horiz-adv-x="1765" 
d="M440 0l-399 1038h215l293 -759l237 759h195l236 -759l292 759h215l-399 -1038h-215l-227 725l-228 -725h-215zM623 1432h194l135 -285h-153z" />
    <glyph glyph-name="Wacute" unicode="&#x1e82;" horiz-adv-x="2129" 
d="M506 0l-475 1434h229l358 -1076l332 1076h230l329 -1076l359 1076h231l-477 -1434h-231l-326 1063l-328 -1063h-231zM995 1536l133 285h197l-178 -285h-152z" />
    <glyph glyph-name="wacute" unicode="&#x1e83;" horiz-adv-x="1765" 
d="M440 0l-399 1038h215l293 -759l237 759h195l236 -759l292 759h215l-399 -1038h-215l-227 725l-228 -725h-215zM817 1147l133 285h197l-178 -285h-152z" />
    <glyph glyph-name="Wdieresis" unicode="&#x1e84;" horiz-adv-x="2129" 
d="M506 0l-475 1434h229l358 -1076l332 1076h230l329 -1076l359 1076h231l-477 -1434h-231l-326 1063l-328 -1063h-231zM762 1683q0 44 32 75.5t76 31.5t75.5 -31.5t31.5 -75.5q0 -45 -31.5 -76.5t-75.5 -31.5q-45 0 -76.5 31.5t-31.5 76.5zM1155 1683q0 44 31.5 75.5
t75.5 31.5t76 -31.5t32 -75.5q0 -45 -31.5 -76.5t-76.5 -31.5q-44 0 -75.5 31.5t-31.5 76.5z" />
    <glyph glyph-name="wdieresis" unicode="&#x1e85;" horiz-adv-x="1765" 
d="M440 0l-399 1038h215l293 -759l237 759h195l236 -759l292 759h215l-399 -1038h-215l-227 725l-228 -725h-215zM580 1274q0 44 32 75t76 31t75.5 -31t31.5 -75q0 -46 -31.5 -77.5t-75.5 -31.5t-76 31.5t-32 77.5zM973 1274q0 44 31 75t75 31q45 0 77 -31t32 -75
q0 -45 -32 -77t-77 -32q-44 0 -75 31.5t-31 77.5z" />
    <glyph glyph-name="uni1E9E" unicode="&#x1e9e;" horiz-adv-x="1261" 
d="M133 934q0 227 124 363.5t343 136.5h492v-220l-258 -380q72 -15 132 -44.5t109.5 -75.5t77 -115.5t27.5 -156.5q0 -107 -40.5 -193t-108 -139t-150.5 -81.5t-172 -28.5h-99v201h70q121 0 201 63.5t80 177.5q0 113 -80 176.5t-201 63.5h-70v170l248 362h-258
q-69 0 -119 -22t-77.5 -62t-40.5 -88.5t-13 -107.5v-934h-217v934z" />
    <glyph glyph-name="uni1EBD" unicode="&#x1ebd;" horiz-adv-x="1204" 
d="M625 -23q-151 0 -278.5 72.5t-201 197.5t-73.5 273q0 149 69 273.5t191 197t270 72.5q112 0 212 -42.5t175 -120.5t114 -199.5t27 -266.5h-845q30 -112 123.5 -184t216.5 -72q90 0 167.5 35t129.5 102l176 -86q-72 -118 -198.5 -185t-274.5 -67zM252 1225q49 180 194 180
q37 0 74 -12t54 -22t63 -38q67 -43 98 -43q56 0 76 78l141 -39q-26 -92 -71.5 -138t-124.5 -46q-39 0 -75 11t-57.5 22.5t-64.5 38.5q-4 3 -12 8l-12 7.5t-10.5 6.5t-10.5 6l-10 5t-10 4.5t-9 3t-10 2t-10 0.5q-17 0 -30 -7t-22 -22.5t-11.5 -22t-8.5 -22.5zM287 616h633
q-26 117 -111 181.5t-207 64.5q-116 0 -201.5 -68.5t-113.5 -177.5z" />
    <glyph glyph-name="Ygrave" unicode="&#x1ef2;" horiz-adv-x="1386" 
d="M584 0v629l-543 805h262l391 -592l391 592h261l-543 -805v-629h-219zM473 1821h195l135 -285h-154z" />
    <glyph glyph-name="ygrave" unicode="&#x1ef3;" horiz-adv-x="1189" 
d="M279 -487l208 487l-446 1038h219l336 -782l336 782h217l-651 -1525h-219zM356 1432h195l135 -285h-154z" />
    <glyph glyph-name="uni1EF9" unicode="&#x1ef9;" horiz-adv-x="1189" 
d="M279 -487l208 487l-446 1038h219l336 -782l336 782h217l-651 -1525h-219zM246 1225q49 180 194 180q37 0 74 -12t54 -22t63 -38q67 -43 98 -43q56 0 76 78l141 -39q-26 -92 -71.5 -138t-124.5 -46q-39 0 -75 11t-57.5 22.5t-64.5 38.5q-4 3 -12 8l-12 7.5t-10.5 6.5
t-10.5 6l-10 5t-10 4.5t-9 3t-10 2t-10 0.5q-17 0 -30 -7t-22 -22.5t-11.5 -22t-8.5 -22.5z" />
    <glyph glyph-name="endash" unicode="&#x2013;" horiz-adv-x="1355" 
d="M184 510v201h987v-201h-987z" />
    <glyph glyph-name="emdash" unicode="&#x2014;" horiz-adv-x="1538" 
d="M184 510v201h1170v-201h-1170z" />
    <glyph glyph-name="quoteleft" unicode="&#x2018;" horiz-adv-x="565" 
d="M123 1059l192 375h148l-141 -375h-199z" />
    <glyph glyph-name="quoteright" unicode="&#x2019;" horiz-adv-x="565" 
d="M102 1059l142 375h198l-192 -375h-148z" />
    <glyph glyph-name="quotesinglbase" unicode="&#x201a;" horiz-adv-x="401" 
d="M-41 -260l141 375h199l-190 -375h-150z" />
    <glyph glyph-name="quotedblleft" unicode="&#x201c;" horiz-adv-x="872" 
d="M430 1059l193 375h147l-141 -375h-199zM123 1059l190 375h148l-139 -375h-199z" />
    <glyph glyph-name="quotedblright" unicode="&#x201d;" horiz-adv-x="874" 
d="M412 1059l141 375h199l-193 -375h-147zM102 1059l142 375h198l-190 -375h-150z" />
    <glyph glyph-name="quotedblbase" unicode="&#x201e;" horiz-adv-x="710" 
d="M268 -260l142 375h198l-190 -375h-150zM-41 -260l141 375h199l-190 -375h-150z" />
    <glyph glyph-name="dagger" unicode="&#x2020;" horiz-adv-x="1052" 
d="M426 0v877h-303v200h303v357h201v-357h303v-200h-303v-877h-201z" />
    <glyph glyph-name="daggerdbl" unicode="&#x2021;" horiz-adv-x="1052" 
d="M426 0v358h-303v201h303v318h-303v200h303v357h201v-357h303v-200h-303v-318h303v-201h-303v-358h-201z" />
    <glyph glyph-name="bullet" unicode="&#x2022;" horiz-adv-x="704" 
d="M352 309q-87 0 -148 61t-61 148q0 88 60.5 149.5t148.5 61.5t148.5 -61.5t60.5 -149.5q0 -87 -61 -148t-148 -61z" />
    <glyph glyph-name="perthousand" unicode="&#x2030;" horiz-adv-x="2476" 
d="M285 0l983 1434h145l-981 -1434h-147zM143 1100q0 129 92.5 220t221.5 91t220 -91t91 -220t-91 -221.5t-220 -92.5t-221.5 92.5t-92.5 221.5zM272 1100q0 -77 54.5 -132t130.5 -55t130 55t54 132q0 75 -54 129.5t-130 54.5t-130.5 -54.5t-54.5 -129.5zM930 336
q0 129 91 220t220 91t221 -91t92 -220t-92 -221t-221 -92t-220 92t-91 221zM1057 336q0 -76 53.5 -130t130.5 -54t131.5 54t54.5 130t-54.5 130t-131.5 54t-130.5 -54t-53.5 -130zM1708 336q0 129 91.5 220t221.5 91q129 0 220.5 -91t91.5 -220t-91.5 -221t-220.5 -92
q-130 0 -221.5 92t-91.5 221zM1835 336q0 -76 54.5 -130t131.5 -54q75 0 130 54t55 130t-55 130t-130 54q-77 0 -131.5 -54t-54.5 -130z" />
    <glyph glyph-name="guilsinglleft" unicode="&#x2039;" horiz-adv-x="755" 
d="M408 217l-285 393l285 394h225l-285 -394l285 -393h-225z" />
    <glyph glyph-name="guilsinglright" unicode="&#x203a;" horiz-adv-x="753" 
d="M123 217l285 393l-285 394h225l283 -394l-283 -393h-225z" />
    <glyph glyph-name="Euro" unicode="&#x20ac;" horiz-adv-x="1644" 
d="M954 -23q-254 0 -452.5 152.5t-265.5 390.5h-205v127h180q-4 46 -4 70q0 23 4 69h-180v129h205q67 238 265.5 390.5t452.5 152.5q172 0 323.5 -74t256.5 -202l-174 -133q-73 89 -179.5 139.5t-226.5 50.5q-162 0 -295 -90t-192 -234h700v-129h-735q-6 -35 -6 -69
q0 -35 6 -70h735v-127h-700q59 -145 192 -235t295 -90q127 0 238.5 58t185.5 157l174 -134q-105 -139 -261.5 -219t-336.5 -80z" />
    <glyph glyph-name="uni20BD" unicode="&#x20bd;" horiz-adv-x="1245" 
d="M240 0v272h-179v146h179v127h-179v219h179v670h405q222 0 360 -118t138 -327t-138 -326.5t-360 -117.5h-186v-127h481v-146h-481v-272h-219zM459 764h186q128 0 202.5 58.5t74.5 166.5t-74.5 166.5t-202.5 58.5h-186v-450z" />
    <glyph glyph-name="uni20BF" unicode="&#x20bf;" horiz-adv-x="1157" 
d="M289 -252v252h-146v1434h146v252h145v-252h139v252h148v-281q116 -39 184 -130.5t68 -221.5q0 -187 -152 -279q109 -49 171.5 -141t62.5 -221q0 -159 -91.5 -261.5t-242.5 -136.5v-266h-148v252h-139v-252h-145zM362 219h220q107 0 179.5 57t72.5 154q0 102 -67.5 156.5
t-184.5 54.5h-220v-422zM362 856h179q96 0 155.5 46.5t59.5 131.5q0 86 -59.5 133t-155.5 47h-179v-358z" />
    <glyph glyph-name="uni2116" unicode="&#x2116;" horiz-adv-x="2334" 
d="M143 0v1434h244l737 -1106v1106h219v-1434h-241l-740 1106v-1106h-219zM1565 319v146h667v-146h-667zM1567 981q0 136 97 233t234 97q136 0 233 -96.5t97 -233.5t-97 -233.5t-233 -96.5q-137 0 -234 97t-97 233zM1714 981q0 -77 54 -130.5t130 -53.5q77 0 131 54t54 130
t-54 130t-131 54q-76 0 -130 -53.5t-54 -130.5z" />
    <glyph glyph-name="minus" unicode="&#x2212;" horiz-adv-x="1173" 
d="M184 510v201h805v-201h-805z" />
    <glyph glyph-name="approxequal" unicode="&#x2248;" horiz-adv-x="1304" 
d="M870 625q-49 0 -92 10t-79.5 31.5t-57.5 36.5t-53 42q-46 39 -78.5 56.5t-77.5 17.5q-102 0 -135 -139l-174 51q35 132 115 201t194 69q61 0 117.5 -21t83.5 -40t72 -55q34 -29 51.5 -41.5t48 -24.5t65.5 -12q59 0 91 38.5t45 86.5l176 -47q-29 -111 -108 -185.5
t-204 -74.5zM123 328q35 133 115 202.5t194 69.5q46 0 86.5 -9.5t77.5 -31t56 -35t53 -41.5q33 -28 51 -41t48.5 -24.5t65.5 -11.5q42 0 72.5 22.5t43.5 47.5t20 54l176 -47q-29 -111 -108 -185.5t-204 -74.5q-64 0 -122.5 21t-87.5 41.5t-72 56.5q-33 28 -50 40.5t-46 24
t-60 11.5q-102 0 -135 -139z" />
    <glyph glyph-name="notequal" unicode="&#x2260;" horiz-adv-x="1206" 
d="M236 88l116 223h-188v201h295l104 197h-399v200h506l116 224h187l-117 -224h186v-200h-292l-105 -197h397v-201h-503l-119 -223h-184z" />
    <glyph glyph-name="lessequal" unicode="&#x2264;" horiz-adv-x="1097" 
d="M934 309l-770 322v176l770 321v-198l-506 -211l506 -211v-199zM164 0v182h770v-182h-770z" />
    <glyph glyph-name="greaterequal" unicode="&#x2265;" horiz-adv-x="1097" 
d="M164 309v199l506 211l-506 211v198l770 -321v-176zM164 0v182h770v-182h-770z" />
    <glyph glyph-name="uniE000" unicode="&#xe000;" horiz-adv-x="1150" 
d="M547 178q43 0 84.5 6t87.5 23t80.5 43.5t57 72t22.5 103.5q0 221 -351 221v195q115 0 180.5 55.5t65.5 157.5q0 94 -68 148t-153 54q-55 0 -98 -18.5t-69 -47.5t-43 -68t-23.5 -76t-6.5 -76v-971h-200v971q0 92 26.5 177t78.5 155.5t138.5 112.5t196.5 42
q113 0 208 -46.5t154.5 -139.5t59.5 -217q0 -96 -43.5 -168t-118.5 -115q266 -98 266 -364q0 -94 -31.5 -169t-83.5 -123t-122 -80t-143 -45.5t-152 -13.5v201z" />
    <glyph glyph-name="uni004A0301" horiz-adv-x="937" 
d="M430 -25q-155 0 -252.5 82.5t-116.5 198.5l211 57q3 -17 11.5 -34.5t26 -37.5t49 -33t71.5 -13q156 0 156 211v1028h219v-1028q0 -218 -101 -324.5t-274 -106.5zM625 1536l133 285h196l-178 -285h-151z" />
    <glyph glyph-name="i.loclTRK" horiz-adv-x="436" 
d="M119 0v1038h198v-1038h-198zM111 1274q0 44 32 75t76 31t75.5 -31t31.5 -75q0 -46 -31.5 -77.5t-75.5 -31.5q-45 0 -76.5 31.5t-31.5 77.5z" />
    <glyph glyph-name="uni006A0301" horiz-adv-x="462" 
d="M-31 -285q96 0 143.5 69.5t47.5 174.5v1079h200v-1079q0 -215 -107.5 -329.5t-283.5 -114.5v200zM188 1147l134 285h196l-178 -285h-152z" />
    </font>
</defs>
</svg>
