<?xml version="1.0" standalone="no"?>
<!DOCTYPE svg PUBLIC "-//W3C//DTD SVG 1.1//EN" "http://www.w3.org/Graphics/SVG/1.1/DTD/svg11.dtd" >
<svg xmlns="http://www.w3.org/2000/svg" xmlns:xlink="http://www.w3.org/1999/xlink" version="1.1">
<metadata>
Created by FontForge 20201107 at Mon Aug  5 13:02:25 2024
 By 
copyright missing
</metadata>
<defs>
<font id="MADEOkineSansPERSONALUSE-Black" horiz-adv-x="0" >
  <font-face 
    font-family="MADE Okine Sans PERSONAL USE Black"
    font-weight="900"
    font-stretch="normal"
    units-per-em="2048"
    panose-1="0 0 0 0 0 0 0 0 0 0"
    ascent="1638"
    descent="-410"
    x-height="1038"
    cap-height="1434"
    bbox="-162 -676 2519 2028"
    underline-thickness="102"
    underline-position="-255"
    unicode-range="U+0020-E000"
  />
<missing-glyph horiz-adv-x="1351" 
d="M1108 2028v-2704h-856v2704h856zM451 -489h450v90h-276l188 127h88v88h-450v-88h190l-190 -127v-90zM451 -121h450v305h-450v-305zM451 346h450v305h-270v-151h90v63h90v-127h-270v215h-90v-305zM451 711h450v270h-90v-178h-360v-92zM451 864h270v191h180v88h-450v-88
h180v-101h-180v-90zM451 1217h450v92h-180v188h-270v-280zM451 1569h450v88h-180v100h180v90h-446v-90h176v-100h-180v-88zM541 -33v127h270v-127h-270zM541 1309v96h90v-96h-90z" />
    <glyph glyph-name="f_f.liga" unicode="ff" horiz-adv-x="1632" 
d="M188 0v690h-168v346h168v66q0 73 11 136t39.5 123.5t72.5 103t113.5 68.5t159.5 26q166 0 290 -99l-149 -291q-31 31 -72 31q-82 0 -82 -98v-66h330v66q0 73 11 136t39.5 123.5t72 103t113 68.5t159.5 26q105 0 192.5 -39t143.5 -105l-194 -246q-31 31 -72 31
q-82 0 -82 -98v-66h246v-346h-246v-690h-383v690h-330v-690h-383z" />
    <glyph glyph-name="f_f_i.liga" unicode="ffi" horiz-adv-x="2084" 
d="M188 0v690h-168v346h168v66q0 73 11 136t39.5 123.5t72.5 103t113.5 68.5t159.5 26q169 0 290 -99l-149 -291q-31 31 -70 31q-84 0 -84 -98v-66h330v66q0 73 11 136t39.5 123.5t72 103t113 68.5t159.5 26q152 0 263 -78l-121 -312q-41 31 -74 31q-80 0 -80 -98v-66h713
v-1036h-383v690h-330v-690h-383v690h-330v-690h-383zM1597 1341q0 85 61.5 146t147.5 61q85 0 146 -61t61 -146q0 -86 -61 -147t-146 -61q-86 0 -147.5 61t-61.5 147z" />
    <glyph glyph-name="f_i.liga" unicode="fi" horiz-adv-x="1372" 
d="M188 0v690h-168v346h168v66q0 73 11 136t39.5 123.5t72.5 103t113.5 68.5t159.5 26q151 0 262 -78l-121 -312q-41 31 -74 31q-80 0 -80 -98v-66h713v-1036h-383v690h-330v-690h-383zM885 1341q0 85 61 146t146 61q86 0 147 -61t61 -146q0 -86 -61 -147t-147 -61
q-85 0 -146 61t-61 147z" />
    <glyph glyph-name="f_l.liga" unicode="fl" horiz-adv-x="1384" 
d="M188 0v690h-168v346h168v11q0 107 34 201t100 168.5t173 117.5t242 43q256 0 411 -143t155 -361v-1073h-383l-2 1016q0 91 -46.5 147t-134.5 56q-79 0 -122.5 -51.5t-43.5 -120.5v-11h246v-346h-246v-690h-383z" />
    <glyph glyph-name="f_t.liga" unicode="ft" horiz-adv-x="1652" 
d="M1296 -16q-395 0 -395 422v284h-330v-690h-383v690h-168v346h168v66q0 73 11 136t39.5 123.5t72.5 103t113.5 68.5t159.5 26q106 0 194 -39t142 -105l-195 -246q-7 9 -27 20t-43 11q-84 0 -84 -98v-66h330v234h383v-234h252v-346h-252v-254q0 -96 84 -96q23 0 43 11
t27 20l194 -244q-54 -66 -142 -104.5t-194 -38.5z" />
    <glyph glyph-name=".notdef" horiz-adv-x="1351" 
d="M1108 2028v-2704h-856v2704h856zM451 -489h450v90h-276l188 127h88v88h-450v-88h190l-190 -127v-90zM451 -121h450v305h-450v-305zM451 346h450v305h-270v-151h90v63h90v-127h-270v215h-90v-305zM451 711h450v270h-90v-178h-360v-92zM451 864h270v191h180v88h-450v-88
h180v-101h-180v-90zM451 1217h450v92h-180v188h-270v-280zM451 1569h450v88h-180v100h180v90h-446v-90h176v-100h-180v-88zM541 -33v127h270v-127h-270zM541 1309v96h90v-96h-90z" />
    <glyph glyph-name=".null" 
 />
    <glyph glyph-name="nonmarkingreturn" horiz-adv-x="682" 
 />
    <glyph glyph-name="space" unicode=" " horiz-adv-x="471" 
 />
    <glyph glyph-name="space" unicode="&#xa0;" horiz-adv-x="471" 
 />
    <glyph glyph-name="exclam" unicode="!" horiz-adv-x="673" 
d="M164 518l-37 916h420l-37 -916h-346zM123 190q0 88 62.5 150.5t150.5 62.5q89 0 152 -62.5t63 -150.5q0 -89 -63 -151t-152 -62q-88 0 -150.5 62t-62.5 151z" />
    <glyph glyph-name="quotedbl" unicode="&#x22;" horiz-adv-x="937" 
d="M510 948v486h346v-486h-346zM82 948v486h346v-486h-346z" />
    <glyph glyph-name="numbersign" unicode="#" horiz-adv-x="1361" 
d="M127 96l63 254h-129v293h201l39 150h-166v290h238l63 254h312l-64 -254h176l64 254h311l-64 -254h129v-290h-200l-37 -150h166v-293h-238l-63 -254h-312l62 254h-176l-62 -254h-313zM575 643h177l36 150h-176z" />
    <glyph glyph-name="dollar" unicode="$" horiz-adv-x="1175" 
d="M483 -16q-199 29 -310.5 153.5t-111.5 298.5l400 31q2 -58 36 -90.5t101 -32.5q52 0 82.5 20.5t30.5 55.5q0 40 -39.5 60.5t-196.5 72.5q-126 42 -203.5 96t-120 142t-42.5 215q0 179 105.5 295t268.5 147v238h238v-242q151 -33 243.5 -133.5t104.5 -239.5l-391 -45
q-2 36 -24.5 61t-59.5 25q-34 0 -57 -20t-23 -52q0 -41 30 -65.5t113 -50.5q84 -28 140 -49.5t116 -51.5t96.5 -62.5t67.5 -76t44.5 -99t13.5 -124.5q0 -204 -109.5 -324.5t-304.5 -150.5v-238h-238v236z" />
    <glyph glyph-name="percent" unicode="%" horiz-adv-x="1746" 
d="M227 0l981 1434h312l-983 -1434h-310zM61 1098q0 155 110 265t265 110t265 -110t110 -265t-110 -265t-265 -110t-265 110t-110 265zM334 1098q0 -42 30 -71.5t72 -29.5q41 0 72 30t31 71q0 42 -30.5 72t-72.5 30q-43 0 -72.5 -29.5t-29.5 -72.5zM936 334q0 155 110 266
t265 111t265 -111t110 -266t-110 -265t-265 -110t-265 110t-110 265zM1208 334q0 -41 31 -71t72 -30t71.5 30t30.5 71q0 42 -30 72t-72 30t-72.5 -30t-30.5 -72z" />
    <glyph glyph-name="ampersand" unicode="&#x26;" horiz-adv-x="1398" 
d="M590 -23q-242 0 -385.5 125t-143.5 316q0 129 65.5 225t170.5 154q-43 40 -78 113.5t-35 156.5q0 89 37 164t98 123.5t137.5 75t157.5 26.5q170 0 289 -97.5t119 -250.5q0 -109 -53 -192t-131 -134l123 -123q11 23 32.5 70.5t30.5 65.5l311 -136q-66 -178 -112 -266
q72 -74 155 -157l-258 -234l-119 113q-172 -138 -411 -138zM467 440q0 -49 38.5 -79.5t98.5 -30.5q72 0 133 41q-42 41 -111.5 107.5t-82.5 78.5q-28 -13 -52 -45t-24 -72zM532 1104q0 -30 18.5 -57.5t47.5 -45.5q96 41 96 109q0 34 -23.5 55t-58.5 21q-36 0 -58 -23.5
t-22 -58.5z" />
    <glyph glyph-name="quotesingle" unicode="'" horiz-adv-x="528" 
d="M82 948v486h364v-486h-364z" />
    <glyph glyph-name="parenleft" unicode="(" horiz-adv-x="880" 
d="M543 -461q-80 98 -147.5 208.5t-132.5 258t-102.5 331t-37.5 380.5q0 159 26 312t66.5 273.5t98 235.5t112 197t117.5 159l297 -241q-64 -77 -118 -165.5t-105.5 -205.5t-81 -263t-29.5 -302q0 -126 20.5 -247t52.5 -217.5t77.5 -187.5t89.5 -157t94 -127z" />
    <glyph glyph-name="parenright" unicode=")" horiz-adv-x="878" 
d="M41 -219q64 78 117.5 166t105.5 205.5t81.5 263t29.5 301.5q0 527 -334 936l295 241q63 -76 118.5 -159t112.5 -197.5t97.5 -235.5t66 -273.5t25.5 -311.5t-25.5 -311.5t-66 -274t-97.5 -236t-112.5 -197.5t-118.5 -159z" />
    <glyph glyph-name="asterisk" unicode="*" horiz-adv-x="843" 
d="M342 690l-279 203l121 113l-164 18l107 330l145 -82l-34 162h346l-33 -162l143 82l109 -330l-166 -18l123 -113l-281 -203l-67 152z" />
    <glyph glyph-name="plus" unicode="+" horiz-adv-x="929" 
d="M264 207v203h-203v401h203v203h402v-203h202v-401h-202v-203h-402z" />
    <glyph glyph-name="comma" unicode="," horiz-adv-x="520" 
d="M-61 -287l155 430h385l-227 -430h-313z" />
    <glyph glyph-name="hyphen" unicode="-" horiz-adv-x="1093" 
d="M143 410v401h807v-401h-807z" />
    <glyph glyph-name="period" unicode="." horiz-adv-x="589" 
d="M295 -23q-89 0 -151 62t-62 151q0 88 62 150.5t151 62.5t151 -62.5t62 -150.5q0 -89 -62 -151t-151 -62z" />
    <glyph glyph-name="slash" unicode="/" horiz-adv-x="1138" 
d="M41 -309l684 2052h393l-684 -2052h-393z" />
    <glyph glyph-name="zero" unicode="0" horiz-adv-x="1376" 
d="M688 -25q-149 0 -270 61t-198 164.5t-118 236t-41 280.5t41 280.5t118 235.5t198 164t270 61q120 0 223 -39.5t176.5 -109t125.5 -163.5t77 -202.5t25 -226.5q0 -148 -41 -280.5t-117.5 -236t-197.5 -164.5t-271 -61zM500 717q0 -55 9.5 -106.5t30.5 -98t59 -74.5t89 -28
t89.5 28t60 74.5t31.5 98t10 106.5t-10 106.5t-31.5 98t-60 74.5t-89.5 28t-89 -28t-59 -74.5t-30.5 -98t-9.5 -106.5z" />
    <glyph glyph-name="one" unicode="1" horiz-adv-x="849" 
d="M330 0v993l-137 -69l-132 329l342 181h365v-1434h-438z" />
    <glyph glyph-name="two" unicode="2" horiz-adv-x="1136" 
d="M100 346q36 34 98.5 90.5t95 86.5t83 77.5t78 75.5t63.5 66.5t55 64.5t38 55.5t26.5 54t7.5 46.5q0 50 -29 81t-73 31t-74.5 -29t-44.5 -77l-363 102q46 187 178 287t312 100q216 0 356 -128.5t140 -340.5q0 -77 -17.5 -145.5t-43 -119.5t-75.5 -111.5t-92.5 -103.5
t-116.5 -113q-9 -9 -14 -13h387v-383h-975v346z" />
    <glyph glyph-name="three" unicode="3" horiz-adv-x="1148" 
d="M575 -25q-195 0 -338.5 105.5t-175.5 277.5l357 109q0 -53 40 -90t99 -37q56 0 92.5 37t36.5 90q0 54 -33 89.5t-92 35.5h-133v323h133q50 0 78.5 31t28.5 76q0 44 -31.5 75t-75.5 31q-41 0 -72 -27t-34 -67l-328 45q15 164 144.5 271.5t308.5 107.5q120 0 223.5 -54.5
t166 -151.5t62.5 -212q0 -153 -117 -270q80 -60 126 -141.5t46 -179.5q0 -210 -146.5 -342t-365.5 -132z" />
    <glyph glyph-name="four" unicode="4" horiz-adv-x="1226" 
d="M582 0v274h-521v328l514 832h443v-832h147v-328h-147v-274h-436zM395 602h187v301z" />
    <glyph glyph-name="five" unicode="5" horiz-adv-x="1126" 
d="M580 -25q-194 0 -335.5 105.5t-183.5 271.5l369 113q8 -45 44 -76t87 -31t84 33t33 84q0 52 -33.5 85.5t-83.5 33.5q-28 0 -52.5 -14t-31.5 -25l-352 80l90 799h768v-402h-451l-12 -96q38 6 78 6q209 0 338 -125.5t129 -341.5q0 -207 -140 -353.5t-345 -146.5z" />
    <glyph glyph-name="six" unicode="6" horiz-adv-x="1132" 
d="M565 -25q-137 0 -253 68t-183.5 184.5t-67.5 253.5q0 141 74 258l443 695h440l-309 -484q159 -43 260.5 -171.5t101.5 -297.5q0 -137 -67.5 -253.5t-184 -184.5t-254.5 -68zM444 481q0 -51 35 -87t86 -36t87 36t36 87t-36 87t-87 36t-86 -36t-35 -87z" />
    <glyph glyph-name="seven" unicode="7" horiz-adv-x="1058" 
d="M61 0l517 1032h-517v402h936v-402l-495 -1032h-441z" />
    <glyph glyph-name="eight" unicode="8" horiz-adv-x="1138" 
d="M569 -25q-134 0 -250.5 61.5t-187 171t-70.5 241.5q0 100 42.5 182.5t117.5 140.5q-104 113 -104 268q0 117 63 214t166.5 150.5t222.5 53.5t223 -53.5t167 -150.5t63 -214q0 -151 -107 -268q76 -57 119 -140t43 -183q0 -132 -70.5 -241.5t-187 -171t-250.5 -61.5z
M444 467q0 -53 36.5 -90t88.5 -37q51 0 88 37.5t37 89.5q0 51 -37 88t-88 37q-52 0 -88.5 -37t-36.5 -88zM463 1022q0 -43 31 -75t75 -32q43 0 75 32t32 75q0 44 -32 75t-75 31q-44 0 -75 -31t-31 -75z" />
    <glyph glyph-name="nine" unicode="9" horiz-adv-x="1132" 
d="M424 483q-160 44 -261.5 172t-101.5 297q0 209 148.5 357.5t357.5 148.5q137 0 253 -68t183.5 -184.5t67.5 -253.5q0 -140 -74 -260l-442 -692h-440zM444 952q0 -51 36 -87t87 -36t86 36t35 87t-35 87t-86 36t-87 -36t-36 -87z" />
    <glyph glyph-name="colon" unicode=":" horiz-adv-x="591" 
d="M295 635q-88 0 -150.5 62.5t-62.5 150.5q0 89 62.5 151t150.5 62q89 0 152 -62t63 -151q0 -88 -63 -150.5t-152 -62.5zM82 190q0 88 62.5 150.5t150.5 62.5q89 0 152 -62.5t63 -150.5q0 -89 -63 -151t-152 -62q-88 0 -150.5 62t-62.5 151z" />
    <glyph glyph-name="semicolon" unicode=";" horiz-adv-x="563" 
d="M-61 -287l155 430h385l-227 -430h-313zM74 848q0 89 62.5 151t150.5 62q89 0 152 -62t63 -151q0 -88 -63 -150.5t-152 -62.5q-88 0 -150.5 62.5t-62.5 150.5z" />
    <glyph glyph-name="less" unicode="&#x3c;" horiz-adv-x="1019" 
d="M918 55l-816 381v348l816 381v-387l-406 -168l406 -170v-385z" />
    <glyph glyph-name="equal" unicode="=" horiz-adv-x="1085" 
d="M102 664v346h881v-346h-881zM102 211v346h881v-346h-881z" />
    <glyph glyph-name="greater" unicode="&#x3e;" horiz-adv-x="1021" 
d="M102 55v385l406 170l-406 168v387l818 -381v-348z" />
    <glyph glyph-name="question" unicode="?" horiz-adv-x="1017" 
d="M303 518q0 58 15.5 112t44 98.5t53.5 75t59 64.5q6 6 19 18.5t17.5 17.5t14.5 15t13.5 14t10 12t9 12.5t6 11.5t5 12t2.5 11.5t1 13.5q0 27 -19 49t-52 22q-37 0 -57.5 -26t-22.5 -56l-381 47q10 77 46 151t93 134t141 96.5t179 36.5q189 0 322.5 -128.5t133.5 -311.5
q0 -87 -28 -158.5t-67.5 -117t-79 -82.5t-67.5 -73t-28 -71h-383zM285 190q0 88 63 150.5t152 62.5q88 0 150.5 -62.5t62.5 -150.5q0 -89 -62.5 -151t-150.5 -62q-89 0 -152 62t-63 151z" />
    <glyph glyph-name="at" unicode="@" horiz-adv-x="2158" 
d="M1057 -426q-219 0 -405 71t-315.5 196.5t-202.5 302t-73 382.5q0 203 75.5 379t207.5 299.5t317 193.5t398 70q166 0 319.5 -37.5t284 -113t227.5 -181.5t152 -250.5t55 -312.5q0 -244 -116 -386t-310 -142q-223 0 -338 156q-119 -156 -311 -156q-201 0 -333 136.5
t-132 340.5t132 340.5t333 136.5q121 0 213 -61v41h336v-508q0 -133 100 -133q38 0 65.5 22t42 58t21 74.5t6.5 80.5q0 131 -45 237t-118.5 173t-172.5 112.5t-201 64t-210 18.5q-206 0 -367 -81.5t-250.5 -230t-89.5 -340.5q0 -298 191.5 -479.5t513.5 -181.5
q117 0 205 29.5t176 80.5l149 -251q-249 -150 -530 -150zM893 522q0 -63 44.5 -107t106.5 -44q63 0 108.5 44t45.5 107t-45.5 107.5t-108.5 44.5q-62 0 -106.5 -44.5t-44.5 -107.5z" />
    <glyph glyph-name="A" unicode="A" horiz-adv-x="1544" 
d="M0 0l528 1434h488l528 -1434h-467l-76 229h-458l-76 -229h-467zM657 575h230l-115 351z" />
    <glyph glyph-name="B" unicode="B" horiz-adv-x="1253" 
d="M82 0v1434h514q92 0 172.5 -13.5t151.5 -44t122 -76.5t80 -114t29 -152q0 -170 -107 -272q168 -114 168 -318q0 -99 -32.5 -176.5t-87.5 -127t-131.5 -82t-159 -45.5t-176.5 -13h-543zM518 346h107q74 0 109.5 32t35.5 85t-37 85t-108 32h-107v-234zM518 891h78
q74 0 104.5 24.5t30.5 73.5q0 98 -135 98h-78v-196z" />
    <glyph glyph-name="C" unicode="C" horiz-adv-x="1429" 
d="M784 -23q-151 0 -288.5 58.5t-237 157.5t-158.5 236t-59 288q0 152 59 289.5t158.5 236t237 157t288.5 58.5q189 0 351.5 -87.5t265.5 -237.5l-363 -244q-42 62 -109.5 98.5t-144.5 36.5q-128 0 -217.5 -90t-89.5 -217q0 -126 90 -216.5t217 -90.5q82 0 151.5 40
t111.5 109l362 -246q-101 -155 -266.5 -245.5t-358.5 -90.5z" />
    <glyph glyph-name="D" unicode="D" horiz-adv-x="1429" 
d="M82 0v1434h502q368 0 586.5 -198t218.5 -519q0 -157 -56.5 -290t-159.5 -227t-254.5 -147t-334.5 -53h-502zM520 401h64q168 0 263 84.5t95 231.5q0 148 -94.5 231.5t-263.5 83.5h-64v-631z" />
    <glyph glyph-name="E" unicode="E" horiz-adv-x="1130" 
d="M82 0v1434h969v-402h-531v-141h512v-328h-512v-162h549v-401h-987z" />
    <glyph glyph-name="F" unicode="F" horiz-adv-x="1112" 
d="M82 0v1434h969v-402h-533v-178h477v-346h-477v-508h-436z" />
    <glyph glyph-name="G" unicode="G" horiz-adv-x="1558" 
d="M784 -23q-151 0 -288.5 58.5t-237 157.5t-158.5 236t-59 288q0 152 59 289.5t158.5 236t237 157t288.5 58.5q189 0 351.5 -87.5t265.5 -237.5l-363 -244q-42 62 -109.5 98.5t-144.5 36.5q-127 0 -217 -91t-90 -216q0 -137 83.5 -230.5t223.5 -93.5q189 0 260 152h-331
v309h800q15 -213 -32.5 -381t-146 -275.5t-238.5 -164t-312 -56.5z" />
    <glyph glyph-name="H" unicode="H" horiz-adv-x="1509" 
d="M82 0v1434h438v-516h471v516h436v-1434h-436v516h-471v-516h-438z" />
    <glyph glyph-name="I" unicode="I" horiz-adv-x="602" 
d="M82 0v1434h438v-1434h-438z" />
    <glyph glyph-name="J" unicode="J" horiz-adv-x="1122" 
d="M532 -23q-219 0 -366 108.5t-166 285.5l397 114q5 -38 33 -64t72 -26q100 0 100 129v910h438v-910q0 -547 -508 -547z" />
    <glyph glyph-name="K" unicode="K" horiz-adv-x="1353" 
d="M82 0v1434h438v-592l338 592h494l-414 -693l436 -741h-518l-336 584v-584h-438z" />
    <glyph glyph-name="L" unicode="L" horiz-adv-x="1093" 
d="M82 0v1434h438v-1033h512v-401h-950z" />
    <glyph glyph-name="M" unicode="M" horiz-adv-x="1665" 
d="M82 0v1434h448l304 -430l301 430h448v-1434h-436v811l-232 -315h-165l-230 315v-811h-438z" />
    <glyph glyph-name="N" unicode="N" horiz-adv-x="1527" 
d="M82 0v1434h481l447 -756v756h436v-1434h-479l-447 756v-756h-438z" />
    <glyph glyph-name="O" unicode="O" horiz-adv-x="1570" 
d="M784 -23q-151 0 -288.5 58.5t-237 157.5t-158.5 236t-59 288q0 152 59 289.5t158.5 236t237 157t288.5 58.5q152 0 290 -58.5t238 -157t159 -236t59 -289.5q0 -151 -59 -288t-159 -236t-238 -157.5t-290 -58.5zM479 717q0 -126 89.5 -216.5t215.5 -90.5q127 0 217.5 90.5
t90.5 216.5q0 127 -90 217t-218 90q-126 0 -215.5 -90t-89.5 -217z" />
    <glyph glyph-name="P" unicode="P" horiz-adv-x="1247" 
d="M82 0v1434h541q166 0 296.5 -58t208.5 -174.5t78 -275.5t-78 -275.5t-208.5 -174.5t-296.5 -58h-103v-418h-438zM520 801h103q64 0 102.5 34t38.5 91t-38.5 91t-102.5 34h-103v-250z" />
    <glyph glyph-name="Q" unicode="Q" horiz-adv-x="1599" 
d="M1153 74q-173 -97 -369 -97q-151 0 -288.5 58.5t-237 157.5t-158.5 236t-59 288q0 152 59 289.5t158.5 236t237 157t288.5 58.5q152 0 290 -58.5t238 -157t159 -236t59 -289.5q0 -234 -133 -422l182 -191l-236 -227zM479 717q0 -126 89.5 -216.5t215.5 -90.5q15 0 43 4
l-170 176l238 227l182 -190q15 43 15 90q0 127 -90 217t-218 90q-126 0 -215.5 -90t-89.5 -217z" />
    <glyph glyph-name="R" unicode="R" horiz-adv-x="1286" 
d="M82 0v1434h522q251 0 408 -132t157 -358q0 -131 -55.5 -232.5t-155.5 -164.5l328 -547h-489l-267 455h-10v-455h-438zM520 838h84q56 0 89.5 29t33.5 77t-33.5 77.5t-89.5 29.5h-84v-213z" />
    <glyph glyph-name="S" unicode="S" horiz-adv-x="1155" 
d="M571 -23q-124 0 -225.5 36t-167.5 98.5t-101.5 145.5t-35.5 179l399 31q2 -57 35.5 -90t99.5 -33q54 0 84.5 20.5t30.5 55.5q0 40 -39 60.5t-196 72.5q-190 63 -278.5 165.5t-88.5 287.5q0 139 67.5 244t174.5 156.5t235 51.5q206 0 337.5 -108.5t146.5 -278.5l-392 -45
q-2 37 -24.5 61.5t-59.5 24.5q-34 0 -56.5 -20t-22.5 -52q0 -41 30 -65.5t113 -50.5q83 -27 140 -48.5t116 -51.5t95.5 -62.5t67.5 -76.5t44.5 -99.5t13.5 -124.5q0 -237 -146.5 -360.5t-396.5 -123.5z" />
    <glyph glyph-name="T" unicode="T" horiz-adv-x="1196" 
d="M379 0v1032h-318v402h1074v-402h-318v-1032h-438z" />
    <glyph glyph-name="U" unicode="U" horiz-adv-x="1445" 
d="M723 -23q-147 0 -262.5 36.5t-201 112.5t-131.5 200t-46 290v818h438v-799q0 -112 54 -168.5t149 -56.5q94 0 148.5 56.5t54.5 168.5v799h438v-818q0 -166 -46 -290t-131.5 -200t-201 -112.5t-262.5 -36.5z" />
    <glyph glyph-name="V" unicode="V" horiz-adv-x="1544" 
d="M528 0l-528 1434h467l305 -891l305 891h467l-526 -1434h-490z" />
    <glyph glyph-name="W" unicode="W" horiz-adv-x="2279" 
d="M473 0l-473 1434h467l244 -842l256 842h346l256 -842l243 842h467l-473 -1434h-434l-231 770l-234 -770h-434z" />
    <glyph glyph-name="X" unicode="X" horiz-adv-x="1431" 
d="M0 0l438 745l-403 689h481l199 -379l200 379h480l-406 -686l443 -748h-482l-235 424l-236 -424h-479z" />
    <glyph glyph-name="Y" unicode="Y" horiz-adv-x="1521" 
d="M543 0v608l-543 826h498l262 -447l264 447h498l-543 -826v-608h-436z" />
    <glyph glyph-name="Z" unicode="Z" horiz-adv-x="1255" 
d="M82 0v346l504 686h-486v402h1018v-347l-502 -686h558v-401h-1092z" />
    <glyph glyph-name="bracketleft" unicode="[" horiz-adv-x="802" 
d="M143 -309v2052h578v-328h-195v-1397h195v-327h-578z" />
    <glyph glyph-name="backslash" unicode="\" horiz-adv-x="1136" 
d="M702 -309l-682 2052h392l684 -2052h-394z" />
    <glyph glyph-name="bracketright" unicode="]" horiz-adv-x="800" 
d="M82 -309v327h192v1397h-192v328h575v-2052h-575z" />
    <glyph glyph-name="asciicircum" unicode="^" horiz-adv-x="1040" 
d="M20 967l308 467h385l307 -467h-404l-96 168l-96 -168h-404z" />
    <glyph glyph-name="underscore" unicode="_" horiz-adv-x="1253" 
d="M123 -264v383h1007v-383h-1007z" />
    <glyph glyph-name="a" unicode="a" horiz-adv-x="1273" 
d="M569 -25q-228 0 -378 156t-150 387q0 152 67.5 276t188.5 195.5t272 71.5q133 0 242 -72v47h381v-1036h-381v47q-109 -72 -242 -72zM424 518q0 -70 51 -121t121 -51t121 51t51 121q0 72 -50.5 122t-121.5 50t-121.5 -50t-50.5 -122z" />
    <glyph glyph-name="b" unicode="b" horiz-adv-x="1275" 
d="M707 -25q-133 0 -242 72v-47h-383v1524h383v-535q109 72 242 72q151 0 272 -71.5t188.5 -195.5t67.5 -276q0 -231 -150 -387t-378 -156zM508 518q0 -70 51 -121t121 -51t121 51t51 121q0 72 -50.5 122t-121.5 50t-121.5 -50t-50.5 -122z" />
    <glyph glyph-name="c" unicode="c" horiz-adv-x="1126" 
d="M596 -25q-113 0 -215.5 42.5t-177 114.5t-118.5 173t-44 213q0 151 75 276t202 196t278 71q169 0 307 -89t203 -235l-346 -166q-15 53 -60.5 86t-103.5 33q-71 0 -121.5 -50t-50.5 -122q0 -70 51 -121t121 -51q58 0 103.5 33.5t60.5 85.5l346 -166q-65 -146 -203 -235
t-307 -89z" />
    <glyph glyph-name="d" unicode="d" horiz-adv-x="1273" 
d="M567 -25q-227 0 -376.5 156.5t-149.5 386.5q0 232 149.5 387.5t376.5 155.5q136 0 242 -72v535h383v-1524h-383v47q-106 -72 -242 -72zM424 518q0 -71 50 -121.5t122 -50.5q70 0 121 51t51 121q0 72 -50.5 122t-121.5 50q-72 0 -122 -50t-50 -122z" />
    <glyph glyph-name="e" unicode="e" horiz-adv-x="1198" 
d="M625 -25q-264 0 -424 154.5t-160 388.5q0 151 75 276t202 196t278 71q114 0 222 -47t189 -129t122 -207t22 -268h-737q62 -119 211 -119q70 0 122 25.5t80 62.5l285 -131q-64 -122 -192.5 -197.5t-294.5 -75.5zM416 627h372q-26 54 -75.5 86t-116.5 32
q-61 0 -107.5 -32.5t-72.5 -85.5z" />
    <glyph glyph-name="f" unicode="f" horiz-adv-x="919" 
d="M188 0v690h-168v346h168v66q0 73 11 136t39.5 123.5t72.5 103t113.5 68.5t159.5 26q106 0 194 -39t142 -105l-195 -246q-31 31 -70 31q-84 0 -84 -98v-66h246v-346h-246v-690h-383z" />
    <glyph glyph-name="g" unicode="g" horiz-adv-x="1275" 
d="M612 -487q-183 0 -330 78t-204 196l289 166q22 -35 80.5 -71t146.5 -36q62 0 106.5 18.5t67.5 50.5t33 66.5t10 73.5v8q-106 -69 -242 -69q-229 0 -378.5 148t-149.5 376q0 152 68 276t189 195.5t271 71.5q133 0 242 -74v49h383v-981q0 -260 -158 -401t-424 -141z
M424 518q0 -71 51 -121.5t123 -50.5q70 0 121 51t51 121q0 72 -50.5 122t-121.5 50q-72 0 -123 -50t-51 -122z" />
    <glyph glyph-name="h" unicode="h" horiz-adv-x="1267" 
d="M82 0v1524h383v-559q110 96 280 96q109 0 195 -41.5t139 -113t80 -161t27 -190.5v-555h-383v518q0 71 -45 124.5t-121 53.5q-77 0 -124.5 -51.5t-47.5 -130.5v-514h-383z" />
    <glyph glyph-name="i" unicode="i" horiz-adv-x="557" 
d="M86 0v1036h383v-1036h-383zM72 1341q0 85 60.5 146t146.5 61t146 -61t60 -146q0 -86 -60 -147t-146 -61t-146.5 61t-60.5 147z" />
    <glyph glyph-name="j" unicode="j" horiz-adv-x="548" 
d="M-41 -98q71 0 100 36t29 115v983h383v-999q0 -268 -120 -396t-392 -128v389zM72 1341q0 85 61.5 146t147.5 61t146 -61t60 -146q0 -86 -60 -147t-146 -61t-147.5 61t-61.5 147z" />
    <glyph glyph-name="k" unicode="k" horiz-adv-x="1122" 
d="M82 0v1524h383v-842l213 354h418l-299 -471l325 -565h-450l-207 393v-393h-383z" />
    <glyph glyph-name="l" unicode="l" horiz-adv-x="546" 
d="M82 0v1524h383v-1524h-383z" />
    <glyph glyph-name="m" unicode="m" horiz-adv-x="1912" 
d="M82 0v1036h383v-61q99 86 260 86q213 0 324 -154q125 154 342 154q109 0 195 -41.5t138.5 -113t79.5 -161t27 -190.5v-555h-383v518q0 72 -38.5 125t-109.5 53q-72 0 -112.5 -51t-40.5 -131v-514h-383v518q0 72 -38.5 125t-109.5 53t-111 -50.5t-40 -131.5v-514h-383z
" />
    <glyph glyph-name="n" unicode="n" horiz-adv-x="1267" 
d="M82 0v1036h383v-71q110 96 280 96q109 0 195 -41.5t139 -113t80 -161t27 -190.5v-555h-383v518q0 70 -46 124t-122 54t-123 -51.5t-47 -130.5v-514h-383z" />
    <glyph glyph-name="o" unicode="o" horiz-adv-x="1191" 
d="M596 -25q-113 0 -215.5 42.5t-177 114.5t-118.5 173t-44 213q0 151 75 276t202 196t278 71q152 0 279 -71t201.5 -196t74.5 -276q0 -150 -74.5 -275t-202 -196.5t-278.5 -71.5zM424 518q0 -70 51 -121t121 -51q72 0 122 50.5t50 121.5q0 72 -50 122t-122 50
q-71 0 -121.5 -50t-50.5 -122z" />
    <glyph glyph-name="p" unicode="p" horiz-adv-x="1275" 
d="M82 -487v1523h383v-47q109 72 242 72q150 0 271 -71.5t189 -195.5t68 -276q0 -230 -150.5 -386.5t-377.5 -156.5q-133 0 -242 72v-534h-383zM506 518q0 -70 51 -121t121 -51q72 0 123 50.5t51 121.5q0 72 -51 122t-123 50q-71 0 -121.5 -50t-50.5 -122z" />
    <glyph glyph-name="q" unicode="q" horiz-adv-x="1275" 
d="M811 47q-109 -72 -242 -72q-228 0 -378 156t-150 387q0 152 67.5 276t188.5 195.5t272 71.5q133 0 242 -72v47h383v-1523h-383v534zM424 518q0 -70 51 -121t121 -51q72 0 122 50.5t50 121.5q0 72 -50 122t-122 50q-71 0 -121.5 -50t-50.5 -122z" />
    <glyph glyph-name="r" unicode="r" horiz-adv-x="786" 
d="M82 0v1038h383v-108q93 131 280 131v-365q-53 0 -89 -4t-75.5 -20t-62.5 -44.5t-38 -79.5t-15 -124v-424h-383z" />
    <glyph glyph-name="s" unicode="s" horiz-adv-x="997" 
d="M516 -25q-128 0 -229.5 30.5t-172 101t-83.5 174.5l354 59q0 -39 29 -64.5t82 -25.5q43 0 66.5 14.5t23.5 40.5q0 25 -30 37.5t-131 35.5q-36 8 -56 13q-142 33 -219.5 110.5t-77.5 217.5q0 88 37 156.5t98.5 107.5t133.5 58.5t151 19.5q159 0 279 -74.5t149 -200.5
l-316 -65q-3 28 -27 47.5t-67 19.5q-34 0 -53 -16t-19 -39q0 -32 32.5 -46t139.5 -36q63 -13 105 -24.5t95.5 -36.5t84.5 -56.5t52.5 -84.5t19.5 -121q0 -75 -25 -135t-67 -100t-100.5 -67t-123 -39t-135.5 -12z" />
    <glyph glyph-name="t" unicode="t" horiz-adv-x="933" 
d="M578 -16q-396 0 -396 422v286h-162v346h162v232h383v-232h252v-346h-252v-254q0 -98 84 -98q23 0 43.5 11.5t26.5 21.5l194 -246q-54 -66 -141.5 -104.5t-193.5 -38.5z" />
    <glyph glyph-name="u" unicode="u" horiz-adv-x="1265" 
d="M522 -25q-110 0 -196 41.5t-138 113t-79 161.5t-27 192v555h381v-520q0 -70 46 -124t122 -54q75 0 122.5 52t47.5 130v516h383v-1038h-383v72q-115 -97 -279 -97z" />
    <glyph glyph-name="v" unicode="v" horiz-adv-x="1255" 
d="M436 0l-436 1038h420l209 -534l207 534h419l-436 -1038h-383z" />
    <glyph glyph-name="w" unicode="w" horiz-adv-x="1865" 
d="M399 0l-399 1038h414l194 -524l172 524h303l174 -524l193 524h416l-400 -1038h-379l-155 467l-154 -467h-379z" />
    <glyph glyph-name="x" unicode="x" horiz-adv-x="1247" 
d="M0 0l377 541l-340 497h446l140 -211l139 211h448l-340 -497l377 -541h-448l-174 256l-176 -256h-449z" />
    <glyph glyph-name="y" unicode="y" horiz-adv-x="1234" 
d="M190 -487l222 542l-412 983h420l192 -497l203 497h420l-639 -1525h-406z" />
    <glyph glyph-name="z" unicode="z" horiz-adv-x="1073" 
d="M61 0v328l398 364h-361v346h877v-329l-397 -363h434v-346h-951z" />
    <glyph glyph-name="braceleft" unicode="{" horiz-adv-x="888" 
d="M827 -309q-64 0 -113 2t-112.5 11t-110.5 24t-95.5 43t-79.5 67t-50.5 97.5t-19.5 132.5v303q0 122 -40 170.5t-124 48.5v254q84 0 124 48.5t40 170.5v303q0 74 19.5 132.5t50.5 97.5t79.5 67t95.5 43t110.5 24t112.5 11t113 2v-328q-119 0 -168 -52t-49 -179v-195
q0 -188 -133 -272q133 -84 133 -273v-194q0 -127 49 -179.5t168 -52.5v-327z" />
    <glyph glyph-name="bar" unicode="|" horiz-adv-x="647" 
d="M123 -492v2235h401v-2235h-401z" />
    <glyph glyph-name="braceright" unicode="}" horiz-adv-x="886" 
d="M61 18q119 0 168.5 52.5t49.5 179.5v194q0 189 133 273q-133 84 -133 272v195q0 127 -49.5 179t-168.5 52v328q49 0 87 -1t87.5 -5.5t88.5 -12.5t83 -22t76.5 -33t64 -48t51.5 -64.5t32 -84t12 -106.5v-303q0 -123 39 -171t123 -48v-254q-84 0 -123 -48t-39 -171v-303
q0 -58 -12 -106.5t-32 -84t-51.5 -64.5t-64 -48t-76.5 -33t-83 -22t-88.5 -12.5t-87.5 -5.5t-87 -1v327z" />
    <glyph glyph-name="asciitilde" unicode="~" horiz-adv-x="1308" 
d="M891 340q-65 0 -125.5 18.5t-90 36t-79.5 51.5q-7 5 -23 17t-23 17t-20.5 13t-23 11.5t-23 6.5t-26.5 3q-39 0 -68.5 -33.5t-44.5 -97.5l-283 104q16 80 49 152.5t80 130.5t110 92.5t134 34.5q23 0 45.5 -3t38.5 -6t37.5 -12t30.5 -12.5t31 -17.5t26 -16.5t27 -19
t24 -17.5q45 -34 80.5 -52t75.5 -18q48 0 75 35t40 80l282 -103q-12 -51 -31 -101.5t-50.5 -104.5t-69.5 -95t-91.5 -67.5t-113.5 -26.5z" />
    <glyph glyph-name="exclamdown" unicode="&#xa1;" horiz-adv-x="673" 
d="M127 -395l37 915h346l37 -915h-420zM123 848q0 89 63 151t152 62q88 0 150.5 -62t62.5 -151q0 -88 -62.5 -150.5t-150.5 -62.5q-89 0 -152 62.5t-63 150.5z" />
    <glyph glyph-name="cent" unicode="&#xa2;" horiz-adv-x="1187" 
d="M512 184q-195 36 -323 184.5t-128 348.5t128 348t323 184v185h236v-189q128 -31 227 -111.5t151 -197.5l-346 -166q-18 53 -62 86t-102 33q-71 0 -121.5 -50t-50.5 -122q0 -71 51 -121.5t121 -50.5q57 0 101.5 33.5t62.5 85.5l346 -166q-53 -116 -152 -197.5t-226 -110.5
v-190h-236v184z" />
    <glyph glyph-name="sterling" unicode="&#xa3;" horiz-adv-x="1257" 
d="M82 346q85 8 122.5 49t37.5 101q0 37 -9 67h-151v201h72q-48 108 -48 213q0 111 40.5 202.5t111.5 153t168.5 95.5t210.5 34q94 0 178.5 -28.5t145 -76t103.5 -104.5t66 -120l-387 -160q-24 71 -94 71q-48 0 -76 -31.5t-28 -78.5q0 -31 9 -62.5t18.5 -50.5t29.5 -57h393
v-201h-333v-31q0 -84 -35 -149h549v-383h-1094v346z" />
    <glyph glyph-name="currency" unicode="&#xa4;" horiz-adv-x="1087" 
d="M221 193l-180 172l152 161q-50 89 -50 191q0 100 50 192l-152 160l180 172l152 -162q83 39 172 39q87 0 170 -39l151 162l181 -172l-152 -160q49 -90 49 -192q0 -108 -49 -193l152 -159l-181 -172l-151 161q-83 -39 -170 -39q-89 0 -172 39zM399 717q0 -60 42.5 -103
t103.5 -43q60 0 102.5 43t42.5 103t-42.5 102.5t-102.5 42.5q-61 0 -103.5 -42.5t-42.5 -102.5z" />
    <glyph glyph-name="yen" unicode="&#xa5;" horiz-adv-x="1562" 
d="M563 0v268h-239v201h239v51h-239v199h165l-469 715h498l262 -445l264 445h498l-469 -715h166v-199h-240v-51h240v-201h-240v-268h-436z" />
    <glyph glyph-name="brokenbar" unicode="&#xa6;" horiz-adv-x="647" 
d="M123 926v817h401v-817h-401zM123 -492v818h401v-818h-401z" />
    <glyph glyph-name="section" unicode="&#xa7;" horiz-adv-x="1251" 
d="M606 -397q-217 0 -372.5 111.5t-172.5 277.5l400 53q7 -36 41 -66t94 -30q58 0 88.5 22.5t30.5 59.5q0 10 -2.5 18.5t-9.5 15.5t-13.5 12.5t-20.5 11.5t-24.5 9.5t-30.5 9t-34 9l-40 10t-44 10.5q-75 18 -133.5 39t-115.5 52t-94.5 68.5t-60 90t-22.5 115.5
q0 174 143 280q-80 97 -80 236q0 193 143.5 316.5t366.5 123.5q218 0 373 -110.5t174 -276.5l-399 -55q-9 37 -44 66.5t-94 29.5q-58 0 -88 -22.5t-30 -57.5q0 -10 2.5 -19t9.5 -16.5t13.5 -13t20.5 -11t24.5 -9.5t30.5 -9.5t34 -9t40.5 -10t43.5 -10.5q95 -23 165.5 -51
t133.5 -70.5t96 -104t33 -139.5q0 -175 -146 -278q80 -97 80 -236q0 -195 -143.5 -318.5t-366.5 -123.5zM434 580q0 -14 4.5 -25.5t16.5 -20.5t23.5 -15.5t35 -13.5t41 -12t51 -13.5t56.5 -14.5q68 -15 137 -39q18 25 18 55q0 14 -4.5 25.5t-16.5 20.5t-24 15.5t-35 13.5
t-41 12t-51.5 13.5t-56.5 14.5q-129 37 -135 39q-19 -22 -19 -55z" />
    <glyph glyph-name="copyright" unicode="&#xa9;" horiz-adv-x="1615" 
d="M817 270q-186 0 -317 130.5t-131 316.5t131 316t317 130q114 0 212 -52.5t159 -141.5l-217 -148q-57 80 -154 80q-77 0 -130.5 -53.5t-53.5 -130.5t54 -131t130 -54q50 0 91.5 24t66.5 65l219 -148q-61 -93 -161 -148t-216 -55zM41 717q0 156 61 298.5t163.5 245
t244.5 163.5t297 61q209 0 385.5 -103t279.5 -279.5t103 -385.5q0 -155 -61 -297t-163.5 -244.5t-245 -163.5t-298.5 -61q-155 0 -297 61t-244.5 163.5t-163.5 244.5t-61 297zM223 717q0 -158 78.5 -292.5t213 -213t292.5 -78.5t293 78t214 213t79 293q0 159 -79 294
t-214 213.5t-293 78.5t-292.5 -78.5t-213 -213.5t-78.5 -294z" />
    <glyph glyph-name="guillemotleft" unicode="&#xab;" horiz-adv-x="1308" 
d="M858 217l-285 393l285 394h389l-284 -394l284 -393h-389zM61 610l285 394h389l-284 -394l284 -393h-389z" />
    <glyph glyph-name="registered" unicode="&#xae;" horiz-adv-x="1615" 
d="M807 -49q-155 0 -297 61t-244.5 163.5t-163.5 244.5t-61 297q0 156 61 298.5t163.5 245t244.5 163.5t297 61q209 0 385.5 -103t279.5 -279.5t103 -385.5q0 -155 -61 -297t-163.5 -244.5t-245 -163.5t-298.5 -61zM223 717q0 -158 78.5 -292.5t213 -213t292.5 -78.5
q159 0 294 78.5t213.5 213t78.5 292.5q0 159 -78.5 294t-213.5 213.5t-294 78.5q-158 0 -292.5 -78.5t-213 -213.5t-78.5 -294zM469 301v875h319q152 0 248.5 -81t96.5 -218q0 -162 -129 -244l200 -332h-299l-162 277h-6v-277h-268zM737 811h51q34 0 54 18.5t20 47.5t-20 47
t-54 18h-51v-131z" />
    <glyph glyph-name="degree" unicode="&#xb0;" horiz-adv-x="843" 
d="M422 725q-158 0 -269.5 112.5t-111.5 270.5q0 157 111.5 269t269.5 112t269.5 -112t111.5 -269q0 -158 -111.5 -270.5t-269.5 -112.5zM313 1108q0 -44 32.5 -76.5t76.5 -32.5t76 32.5t32 76.5t-32 75t-76 31q-45 0 -77 -31t-32 -75z" />
    <glyph glyph-name="plusminus" unicode="&#xb1;" horiz-adv-x="1009" 
d="M332 389v176h-230v346h230v174h346v-174h229v-346h-229v-176h-346zM102 0v328h805v-328h-805z" />
    <glyph glyph-name="paragraph" unicode="&#xb6;" horiz-adv-x="1310" 
d="M420 629q-172 28 -275.5 134t-103.5 265q0 184 136 295t351 111h742v-347h-111v-1378h-328v1378h-83v-1378h-328v920z" />
    <glyph glyph-name="guillemotright" unicode="&#xbb;" horiz-adv-x="1308" 
d="M573 217l285 393l-285 394h390l284 -394l-284 -393h-390zM61 217l285 393l-285 394h390l284 -394l-284 -393h-390z" />
    <glyph glyph-name="questiondown" unicode="&#xbf;" horiz-adv-x="1017" 
d="M520 -420q-189 0 -324 130t-135 313q0 73 20 135.5t50.5 103t66 78t66 64t50.5 57.5t20 61h383q0 -75 -30 -147t-62.5 -113t-79.5 -88q-9 -9 -24 -23.5t-21 -21t-16.5 -17.5t-15 -16.5t-10.5 -14.5t-8 -15.5t-4 -14.5t-2 -16q0 -26 20.5 -49t53.5 -23q36 0 57 26.5
t23 55.5l379 -45q-10 -78 -45.5 -151.5t-92.5 -134t-140.5 -97.5t-178.5 -37zM307 852q0 88 62 150.5t151 62.5q88 0 150.5 -62.5t62.5 -150.5q0 -89 -62.5 -152t-150.5 -63q-89 0 -151 63t-62 152z" />
    <glyph glyph-name="Agrave" unicode="&#xc0;" horiz-adv-x="1544" 
d="M0 0l528 1434h488l528 -1434h-467l-76 229h-458l-76 -229h-467zM410 1819h376l136 -283h-299zM657 575h230l-115 351z" />
    <glyph glyph-name="Aacute" unicode="&#xc1;" horiz-adv-x="1544" 
d="M0 0l528 1434h488l528 -1434h-467l-76 229h-458l-76 -229h-467zM639 1536l133 283h379l-213 -283h-299zM657 575h230l-115 351z" />
    <glyph glyph-name="Acircumflex" unicode="&#xc2;" horiz-adv-x="1544" 
d="M0 0l528 1434h488l528 -1434h-467l-76 229h-458l-76 -229h-467zM350 1536l244 285h354l246 -285h-336l-86 94l-88 -94h-334zM657 575h230l-115 351z" />
    <glyph glyph-name="Atilde" unicode="&#xc3;" horiz-adv-x="1544" 
d="M0 0l528 1434h488l528 -1434h-467l-76 229h-458l-76 -229h-467zM334 1595q10 67 38.5 127t84.5 105t127 45q45 0 94.5 -16.5t85 -36t75.5 -36t68 -16.5q60 0 76 78l229 -88q-13 -73 -43 -131.5t-86 -99.5t-129 -41q-50 0 -100.5 16.5t-84 35.5t-69.5 35.5t-59 16.5
q-61 0 -78 -82zM657 575h230l-115 351z" />
    <glyph glyph-name="Adieresis" unicode="&#xc4;" horiz-adv-x="1544" 
d="M0 0l528 1434h488l528 -1434h-467l-76 229h-458l-76 -229h-467zM367 1724q0 74 51.5 125.5t124.5 51.5t124.5 -51.5t51.5 -125.5t-51.5 -125t-124.5 -51t-124.5 51t-51.5 125zM657 575h230l-115 351zM823 1724q0 73 52 125t126 52q72 0 124.5 -52t52.5 -125t-52.5 -124.5
t-124.5 -51.5q-74 0 -126 51.5t-52 124.5z" />
    <glyph glyph-name="Aring" unicode="&#xc5;" horiz-adv-x="1544" 
d="M0 0l528 1434h488l528 -1434h-467l-76 229h-458l-76 -229h-467zM504 1751q0 110 79 188t189 78t189 -78t79 -188q0 -112 -78.5 -190t-189.5 -78t-189.5 78t-78.5 190zM657 575h230l-115 351zM705 1751q0 -29 19.5 -48.5t47.5 -19.5t48 19.5t20 48.5q0 28 -20 48t-48 20
t-47.5 -20t-19.5 -48z" />
    <glyph glyph-name="AE" unicode="&#xc6;" horiz-adv-x="1935" 
d="M0 0l709 1434h1146v-402h-530v-141h512v-328h-512v-162h549v-401h-987v229h-318l-104 -229h-465zM729 575h158v347z" />
    <glyph glyph-name="Ccedilla" unicode="&#xc7;" horiz-adv-x="1429" 
d="M795 -653q-83 0 -165 28.5t-130 67.5l118 213q80 -51 142 -51q41 0 60.5 20t19.5 49q0 26 -16 43t-42 17q-28 0 -53 -25l-170 103l92 176q-262 48 -436 253t-174 476q0 151 59 288t158.5 235.5t237.5 157t290 58.5q189 0 351.5 -86.5t263.5 -236.5l-361 -244
q-42 61 -110 98t-144 37q-127 0 -217 -90.5t-90 -216.5q0 -127 89.5 -217t217.5 -90q82 0 151.5 40t109.5 107l362 -244q-88 -138 -230 -225t-311 -106l-24 -52h16q121 0 201 -69.5t80 -186.5q0 -154 -94.5 -240.5t-251.5 -86.5z" />
    <glyph glyph-name="Egrave" unicode="&#xc8;" horiz-adv-x="1130" 
d="M82 0v1434h969v-402h-531v-141h512v-328h-512v-162h549v-401h-987zM225 1819h377l135 -283h-299z" />
    <glyph glyph-name="Eacute" unicode="&#xc9;" horiz-adv-x="1130" 
d="M82 0v1434h969v-402h-531v-141h512v-328h-512v-162h549v-401h-987zM369 1536l133 283h379l-213 -283h-299z" />
    <glyph glyph-name="Ecircumflex" unicode="&#xca;" horiz-adv-x="1130" 
d="M82 0v1434h969v-402h-531v-141h512v-328h-512v-162h549v-401h-987zM152 1536l243 285h355l245 -285h-336l-86 94l-88 -94h-333z" />
    <glyph glyph-name="Edieresis" unicode="&#xcb;" horiz-adv-x="1130" 
d="M82 0v1434h969v-402h-531v-141h512v-328h-512v-162h549v-401h-987zM170 1724q0 74 51.5 125.5t124.5 51.5t124.5 -51.5t51.5 -125.5t-51 -125t-125 -51t-125 51t-51 125zM627 1724q0 73 52 125t126 52q72 0 124 -52t52 -125t-52 -124.5t-124 -51.5q-74 0 -126 51.5
t-52 124.5z" />
    <glyph glyph-name="Igrave" unicode="&#xcc;" horiz-adv-x="602" 
d="M82 0v1434h438v-1434h-438zM-61 1819h376l136 -283h-299z" />
    <glyph glyph-name="Iacute" unicode="&#xcd;" horiz-adv-x="602" 
d="M82 0v1434h438v-1434h-438zM143 1536l133 283h379l-213 -283h-299z" />
    <glyph glyph-name="Icircumflex" unicode="&#xce;" horiz-adv-x="602" 
d="M82 0v1434h438v-1434h-438zM-121 1536l244 285h354l246 -285h-336l-86 94l-88 -94h-334z" />
    <glyph glyph-name="Idieresis" unicode="&#xcf;" horiz-adv-x="602" 
d="M82 0v1434h438v-1434h-438zM-104 1724q0 74 51.5 125.5t124.5 51.5t124.5 -51.5t51.5 -125.5t-51 -125t-125 -51t-125 51t-51 125zM352 1724q0 73 52 125t126 52q72 0 124.5 -52t52.5 -125t-52.5 -124.5t-124.5 -51.5q-74 0 -126 51.5t-52 124.5z" />
    <glyph glyph-name="Eth" unicode="&#xd0;" horiz-adv-x="1554" 
d="M207 0v553h-166v328h166v553h502q368 0 586 -198t218 -519q0 -157 -56.5 -289.5t-159 -227t-254 -147.5t-334.5 -53h-502zM645 401h64q168 0 263 84.5t95 231.5q0 148 -94.5 231.5t-263.5 83.5h-64v-151h256v-328h-256v-152z" />
    <glyph glyph-name="Ntilde" unicode="&#xd1;" horiz-adv-x="1527" 
d="M82 0v1434h481l447 -756v756h436v-1434h-479l-447 756v-756h-438zM326 1595q10 67 38.5 127t84 105t126.5 45q57 0 119.5 -26t116 -52.5t88.5 -26.5q60 0 76 78l229 -88q-13 -73 -43 -131.5t-86 -99.5t-129 -41q-50 0 -100.5 16.5t-84 35.5t-69.5 35.5t-59 16.5
q-61 0 -78 -82z" />
    <glyph glyph-name="Ograve" unicode="&#xd2;" horiz-adv-x="1570" 
d="M784 -23q-151 0 -288.5 58.5t-237 157.5t-158.5 236t-59 288q0 152 59 289.5t158.5 236t237 157t288.5 58.5q152 0 290 -58.5t238 -157t159 -236t59 -289.5q0 -151 -59 -288t-159 -236t-238 -157.5t-290 -58.5zM408 1819h376l136 -283h-299zM479 717q0 -126 89.5 -216.5
t215.5 -90.5q127 0 217.5 90.5t90.5 216.5q0 127 -90 217t-218 90q-126 0 -215.5 -90t-89.5 -217z" />
    <glyph glyph-name="Oacute" unicode="&#xd3;" horiz-adv-x="1570" 
d="M784 -23q-151 0 -288.5 58.5t-237 157.5t-158.5 236t-59 288q0 152 59 289.5t158.5 236t237 157t288.5 58.5q152 0 290 -58.5t238 -157t159 -236t59 -289.5q0 -151 -59 -288t-159 -236t-238 -157.5t-290 -58.5zM479 717q0 -126 89.5 -216.5t215.5 -90.5q127 0 217.5 90.5
t90.5 216.5q0 127 -90 217t-218 90q-126 0 -215.5 -90t-89.5 -217zM633 1536l133 283h379l-213 -283h-299z" />
    <glyph glyph-name="Ocircumflex" unicode="&#xd4;" horiz-adv-x="1570" 
d="M784 -23q-151 0 -288.5 58.5t-237 157.5t-158.5 236t-59 288q0 152 59 289.5t158.5 236t237 157t288.5 58.5q152 0 290 -58.5t238 -157t159 -236t59 -289.5q0 -151 -59 -288t-159 -236t-238 -157.5t-290 -58.5zM362 1536l244 285h355l245 -285h-336l-86 94l-88 -94h-334z
M479 717q0 -126 89.5 -216.5t215.5 -90.5q127 0 217.5 90.5t90.5 216.5q0 127 -90 217t-218 90q-126 0 -215.5 -90t-89.5 -217z" />
    <glyph glyph-name="Otilde" unicode="&#xd5;" horiz-adv-x="1570" 
d="M784 -23q-151 0 -288.5 58.5t-237 157.5t-158.5 236t-59 288q0 152 59 289.5t158.5 236t237 157t288.5 58.5q152 0 290 -58.5t238 -157t159 -236t59 -289.5q0 -151 -59 -288t-159 -236t-238 -157.5t-290 -58.5zM346 1595q10 67 38.5 127t84.5 105t127 45q57 0 119.5 -26
t116 -52.5t88.5 -26.5q59 0 75 78l230 -88q-13 -73 -43 -131.5t-86 -99.5t-129 -41q-63 0 -126 26t-111.5 52t-76.5 26q-61 0 -78 -82zM479 717q0 -126 89.5 -216.5t215.5 -90.5q127 0 217.5 90.5t90.5 216.5q0 127 -90 217t-218 90q-126 0 -215.5 -90t-89.5 -217z" />
    <glyph glyph-name="Odieresis" unicode="&#xd6;" horiz-adv-x="1570" 
d="M784 -23q-151 0 -288.5 58.5t-237 157.5t-158.5 236t-59 288q0 152 59 289.5t158.5 236t237 157t288.5 58.5q152 0 290 -58.5t238 -157t159 -236t59 -289.5q0 -151 -59 -288t-159 -236t-238 -157.5t-290 -58.5zM379 1724q0 74 51.5 125.5t124.5 51.5t124.5 -51.5
t51.5 -125.5t-51.5 -125t-124.5 -51t-124.5 51t-51.5 125zM479 717q0 -126 89.5 -216.5t215.5 -90.5q127 0 217.5 90.5t90.5 216.5q0 127 -90 217t-218 90q-126 0 -215.5 -90t-89.5 -217zM836 1724q0 73 52 125t126 52q72 0 124 -52t52 -125t-52 -124.5t-124 -51.5
q-74 0 -126 51.5t-52 124.5z" />
    <glyph glyph-name="multiply" unicode="&#xd7;" horiz-adv-x="976" 
d="M346 184l-285 283l144 143l-144 144l285 282l141 -143l144 143l284 -282l-143 -144l143 -143l-284 -283l-144 142z" />
    <glyph glyph-name="Oslash" unicode="&#xd8;" horiz-adv-x="1628" 
d="M225 -35l-205 223l156 146q-106 176 -106 383q0 152 59 289.5t158.5 236t237 157t288.5 58.5q238 0 428 -135l160 147l207 -223l-158 -145q109 -181 109 -385q0 -151 -59 -288t-159 -236t-238 -157.5t-290 -58.5q-237 0 -428 136zM508 717q0 -39 8 -70l389 363
q-41 14 -92 14q-126 0 -215.5 -90t-89.5 -217zM721 426q41 -14 92 -14q127 0 217 89.5t90 215.5q0 40 -8 71z" />
    <glyph glyph-name="Ugrave" unicode="&#xd9;" horiz-adv-x="1445" 
d="M723 -23q-147 0 -262.5 36.5t-201 112.5t-131.5 200t-46 290v818h438v-799q0 -112 54 -168.5t149 -56.5q94 0 148.5 56.5t54.5 168.5v799h438v-818q0 -166 -46 -290t-131.5 -200t-201 -112.5t-262.5 -36.5zM389 1819h377l135 -283h-299z" />
    <glyph glyph-name="Uacute" unicode="&#xda;" horiz-adv-x="1445" 
d="M723 -23q-147 0 -262.5 36.5t-201 112.5t-131.5 200t-46 290v818h438v-799q0 -112 54 -168.5t149 -56.5q94 0 148.5 56.5t54.5 168.5v799h438v-818q0 -166 -46 -290t-131.5 -200t-201 -112.5t-262.5 -36.5zM561 1536l133 283h379l-213 -283h-299z" />
    <glyph glyph-name="Ucircumflex" unicode="&#xdb;" horiz-adv-x="1445" 
d="M723 -23q-147 0 -262.5 36.5t-201 112.5t-131.5 200t-46 290v818h438v-799q0 -112 54 -168.5t149 -56.5q94 0 148.5 56.5t54.5 168.5v799h438v-818q0 -166 -46 -290t-131.5 -200t-201 -112.5t-262.5 -36.5zM301 1536l244 285h354l246 -285h-336l-86 94l-88 -94h-334z" />
    <glyph glyph-name="Udieresis" unicode="&#xdc;" horiz-adv-x="1445" 
d="M723 -23q-147 0 -262.5 36.5t-201 112.5t-131.5 200t-46 290v818h438v-799q0 -112 54 -168.5t149 -56.5q94 0 148.5 56.5t54.5 168.5v799h438v-818q0 -166 -46 -290t-131.5 -200t-201 -112.5t-262.5 -36.5zM317 1724q0 74 51.5 125.5t125.5 51.5q73 0 124.5 -51.5
t51.5 -125.5t-51 -125t-125 -51t-125.5 51.5t-51.5 124.5zM774 1724q0 73 52 125t126 52q72 0 124 -52t52 -125t-52 -124.5t-124 -51.5q-74 0 -126 51.5t-52 124.5z" />
    <glyph glyph-name="Yacute" unicode="&#xdd;" horiz-adv-x="1521" 
d="M543 0v608l-543 826h498l262 -447l264 447h498l-543 -826v-608h-436zM596 1536l133 283h379l-213 -283h-299z" />
    <glyph glyph-name="Thorn" unicode="&#xde;" horiz-adv-x="1247" 
d="M82 0v1434h438v-209h103q166 0 296.5 -58t208.5 -174.5t78 -275.5t-78 -275.5t-208.5 -174.5t-296.5 -58h-103v-209h-438zM520 592h103q64 0 101.5 34t37.5 91t-37.5 91t-101.5 34h-103v-250z" />
    <glyph glyph-name="germandbls" unicode="&#xdf;" horiz-adv-x="1214" 
d="M567 346q80 -8 133.5 22t53.5 97q0 117 -172 117h-15v333q54 0 90.5 27t36.5 82q0 48 -31.5 76t-80.5 28q-52 0 -84.5 -37.5t-32.5 -107.5v-983h-383v983q0 117 42.5 210.5t113.5 149t156 84.5t177 29q209 0 340 -115.5t131 -281.5q0 -184 -120 -273q107 -52 169 -142
t62 -216q0 -87 -22.5 -159.5t-62.5 -123t-95 -88t-120 -55.5t-138 -24.5t-148 4.5v364z" />
    <glyph glyph-name="agrave" unicode="&#xe0;" horiz-adv-x="1273" 
d="M569 -25q-228 0 -378 156t-150 387q0 152 67.5 276t188.5 195.5t272 71.5q133 0 242 -72v47h381v-1036h-381v47q-109 -72 -242 -72zM342 1430h377l135 -283h-299zM424 518q0 -70 51 -121t121 -51t121 51t51 121q0 72 -50.5 122t-121.5 50t-121.5 -50t-50.5 -122z" />
    <glyph glyph-name="aacute" unicode="&#xe1;" horiz-adv-x="1273" 
d="M569 -25q-228 0 -378 156t-150 387q0 152 67.5 276t188.5 195.5t272 71.5q133 0 242 -72v47h381v-1036h-381v47q-109 -72 -242 -72zM416 1147l133 283h379l-213 -283h-299zM424 518q0 -70 51 -121t121 -51t121 51t51 121q0 72 -50.5 122t-121.5 50t-121.5 -50t-50.5 -122
z" />
    <glyph glyph-name="acircumflex" unicode="&#xe2;" horiz-adv-x="1273" 
d="M569 -25q-228 0 -378 156t-150 387q0 152 67.5 276t188.5 195.5t272 71.5q133 0 242 -72v47h381v-1036h-381v47q-109 -72 -242 -72zM225 1147l244 285h354l246 -285h-336l-86 94l-88 -94h-334zM424 518q0 -70 51 -121t121 -51t121 51t51 121q0 72 -50.5 122t-121.5 50
t-121.5 -50t-50.5 -122z" />
    <glyph glyph-name="atilde" unicode="&#xe3;" horiz-adv-x="1273" 
d="M569 -25q-228 0 -378 156t-150 387q0 152 67.5 276t188.5 195.5t272 71.5q133 0 242 -72v47h381v-1036h-381v47q-109 -72 -242 -72zM197 1221q10 67 38.5 127t84 104.5t126.5 44.5q57 0 119.5 -26t116 -52t88.5 -26q61 0 76 77l229 -88q-13 -73 -43 -131.5t-86 -99.5
t-129 -41q-50 0 -100.5 16t-84 36t-69.5 36t-59 16q-61 0 -78 -81zM424 518q0 -70 51 -121t121 -51t121 51t51 121q0 72 -50.5 122t-121.5 50t-121.5 -50t-50.5 -122z" />
    <glyph glyph-name="adieresis" unicode="&#xe4;" horiz-adv-x="1273" 
d="M569 -25q-228 0 -378 156t-150 387q0 152 67.5 276t188.5 195.5t272 71.5q133 0 242 -72v47h381v-1036h-381v47q-109 -72 -242 -72zM246 1315q0 73 51 124.5t125 51.5t125 -51.5t51 -124.5t-51 -124.5t-125 -51.5t-125 51.5t-51 124.5zM424 518q0 -70 51 -121t121 -51
t121 51t51 121q0 72 -50.5 122t-121.5 50t-121.5 -50t-50.5 -122zM702 1315q0 73 52.5 124.5t126.5 51.5q72 0 124 -51.5t52 -124.5t-52 -124.5t-124 -51.5q-74 0 -126.5 51.5t-52.5 124.5z" />
    <glyph glyph-name="aring" unicode="&#xe5;" horiz-adv-x="1273" 
d="M569 -25q-228 0 -378 156t-150 387q0 152 67.5 276t188.5 195.5t272 71.5q133 0 242 -72v47h381v-1036h-381v47q-109 -72 -242 -72zM336 1384q0 110 79 188.5t189 78.5t189 -78.5t79 -188.5q0 -112 -78.5 -190t-189.5 -78t-189.5 78t-78.5 190zM424 518q0 -70 51 -121
t121 -51t121 51t51 121q0 72 -50.5 122t-121.5 50t-121.5 -50t-50.5 -122zM537 1384q0 -29 19.5 -48t47.5 -19t48 19t20 48q0 28 -20 48t-48 20t-47.5 -20t-19.5 -48z" />
    <glyph glyph-name="ae" unicode="&#xe6;" horiz-adv-x="2123" 
d="M569 -23q-151 0 -272 71.5t-188.5 195.5t-67.5 276q0 231 150 387t378 156q172 0 279 -117v92h381v-84q129 109 293 109q114 0 222 -47t189 -129t122 -207.5t22 -269.5h-738q61 -117 213 -117q69 0 120.5 25t80.5 61l287 -129q-65 -123 -194 -198t-294 -75
q-196 0 -323 105v-82h-381v92q-108 -115 -279 -115zM424 520q0 -72 50.5 -123t121.5 -51q72 0 122 51t50 123q0 71 -50 121.5t-122 50.5q-70 0 -121 -51t-51 -121zM1341 629h373q-26 54 -76 86.5t-116 32.5q-61 0 -107.5 -33.5t-73.5 -85.5z" />
    <glyph glyph-name="ccedilla" unicode="&#xe7;" horiz-adv-x="1124" 
d="M584 -653q-84 0 -166 29t-129 67l119 213q80 -51 141 -51q40 0 60 20t20 49q0 26 -16 43t-42 17q-28 0 -53 -25l-170 103l96 184q-177 48 -290 191t-113 331q0 151 74.5 276t201.5 196t279 71q169 0 306 -88t202 -234l-344 -168q-17 53 -62.5 87t-101.5 34
q-72 0 -122 -51t-50 -123q0 -71 50 -121.5t122 -50.5q56 0 101.5 34t62.5 87l344 -168q-59 -132 -178.5 -218t-268.5 -101l-24 -50h16q121 0 201 -69.5t80 -186.5q0 -154 -94.5 -240.5t-251.5 -86.5z" />
    <glyph glyph-name="egrave" unicode="&#xe8;" horiz-adv-x="1198" 
d="M625 -25q-264 0 -424 154.5t-160 388.5q0 151 75 276t202 196t278 71q114 0 222 -47t189 -129t122 -207t22 -268h-737q62 -119 211 -119q70 0 122 25.5t80 62.5l285 -131q-64 -122 -192.5 -197.5t-294.5 -75.5zM240 1430h376l136 -283h-299zM416 627h372q-26 54 -75.5 86
t-116.5 32q-61 0 -107.5 -32.5t-72.5 -85.5z" />
    <glyph glyph-name="eacute" unicode="&#xe9;" horiz-adv-x="1198" 
d="M625 -25q-264 0 -424 154.5t-160 388.5q0 151 75 276t202 196t278 71q114 0 222 -47t189 -129t122 -207t22 -268h-737q62 -119 211 -119q70 0 122 25.5t80 62.5l285 -131q-64 -122 -192.5 -197.5t-294.5 -75.5zM401 1147l134 283h378l-213 -283h-299zM416 627h372
q-26 54 -75.5 86t-116.5 32q-61 0 -107.5 -32.5t-72.5 -85.5z" />
    <glyph glyph-name="ecircumflex" unicode="&#xea;" horiz-adv-x="1198" 
d="M625 -25q-264 0 -424 154.5t-160 388.5q0 151 75 276t202 196t278 71q114 0 222 -47t189 -129t122 -207t22 -268h-737q62 -119 211 -119q70 0 122 25.5t80 62.5l285 -131q-64 -122 -192.5 -197.5t-294.5 -75.5zM176 1147l244 285h354l246 -285h-336l-86 94l-88 -94h-334z
M416 627h372q-26 54 -75.5 86t-116.5 32q-61 0 -107.5 -32.5t-72.5 -85.5z" />
    <glyph glyph-name="edieresis" unicode="&#xeb;" horiz-adv-x="1198" 
d="M625 -25q-264 0 -424 154.5t-160 388.5q0 151 75 276t202 196t278 71q114 0 222 -47t189 -129t122 -207t22 -268h-737q62 -119 211 -119q70 0 122 25.5t80 62.5l285 -131q-64 -122 -192.5 -197.5t-294.5 -75.5zM193 1315q0 73 51.5 124.5t124.5 51.5t124.5 -51.5
t51.5 -124.5t-51.5 -124.5t-124.5 -51.5t-124.5 51.5t-51.5 124.5zM416 627h372q-26 54 -75.5 86t-116.5 32q-61 0 -107.5 -32.5t-72.5 -85.5zM649 1315q0 73 52 124.5t126 51.5q72 0 124.5 -51.5t52.5 -124.5t-52.5 -124.5t-124.5 -51.5q-74 0 -126 51.5t-52 124.5z" />
    <glyph glyph-name="igrave" unicode="&#xec;" horiz-adv-x="555" 
d="M86 0v1036h383v-1036h-383zM-88 1430h377l135 -283h-299z" />
    <glyph glyph-name="iacute" unicode="&#xed;" horiz-adv-x="555" 
d="M86 0v1036h383v-1036h-383zM117 1147l133 283h379l-213 -283h-299z" />
    <glyph glyph-name="icircumflex" unicode="&#xee;" horiz-adv-x="555" 
d="M86 0v1036h383v-1036h-383zM-145 1147l243 285h355l245 -285h-336l-86 94l-88 -94h-333z" />
    <glyph glyph-name="idieresis" unicode="&#xef;" horiz-adv-x="555" 
d="M86 0v1036h383v-1036h-383zM-129 1315q0 73 51.5 124.5t124.5 51.5t124.5 -51.5t51.5 -124.5t-51.5 -124.5t-124.5 -51.5t-124.5 51.5t-51.5 124.5zM328 1315q0 73 52 124.5t126 51.5q72 0 124 -51.5t52 -124.5t-52 -124.5t-124 -51.5q-74 0 -126 51.5t-52 124.5z" />
    <glyph glyph-name="eth" unicode="&#xf0;" horiz-adv-x="1150" 
d="M575 -23q-145 0 -268 71.5t-194.5 194.5t-71.5 267q0 145 71.5 263.5t194 185.5t268.5 67q42 0 62 -2q-54 79 -119 141l-207 -143l-139 201l135 94q-95 53 -196 82l102 260q192 -62 348 -164l217 152l140 -201l-158 -111q168 -167 259 -379.5t91 -445.5
q0 -108 -42.5 -206.5t-114 -170t-170.5 -114t-208 -42.5zM424 510q0 -62 44 -106t107 -44t107.5 44t44.5 106q0 63 -44.5 107.5t-107.5 44.5t-107 -44.5t-44 -107.5z" />
    <glyph glyph-name="ntilde" unicode="&#xf1;" horiz-adv-x="1267" 
d="M82 0v1036h383v-71q110 96 280 96q109 0 195 -41.5t139 -113t80 -161t27 -190.5v-555h-383v518q0 70 -46 124t-122 54t-123 -51.5t-47 -130.5v-514h-383zM164 1221q7 49 26 95.5t49 88t75.5 67t99.5 25.5q57 0 119.5 -26t115.5 -52t88 -26q61 0 76 77l229 -88
q-13 -73 -43 -131.5t-86 -99.5t-129 -41q-50 0 -100.5 16t-84 36t-69.5 36t-59 16q-61 0 -78 -81z" />
    <glyph glyph-name="ograve" unicode="&#xf2;" horiz-adv-x="1191" 
d="M596 -25q-113 0 -215.5 42.5t-177 114.5t-118.5 173t-44 213q0 151 75 276t202 196t278 71q152 0 279 -71t201.5 -196t74.5 -276q0 -150 -74.5 -275t-202 -196.5t-278.5 -71.5zM225 1430h377l135 -283h-299zM424 518q0 -70 51 -121t121 -51q72 0 122 50.5t50 121.5
q0 72 -50 122t-122 50q-71 0 -121.5 -50t-50.5 -122z" />
    <glyph glyph-name="oacute" unicode="&#xf3;" horiz-adv-x="1191" 
d="M596 -25q-113 0 -215.5 42.5t-177 114.5t-118.5 173t-44 213q0 151 75 276t202 196t278 71q152 0 279 -71t201.5 -196t74.5 -276q0 -150 -74.5 -275t-202 -196.5t-278.5 -71.5zM424 518q0 -70 51 -121t121 -51q72 0 122 50.5t50 121.5q0 72 -50 122t-122 50
q-71 0 -121.5 -50t-50.5 -122zM430 1147l133 283h379l-213 -283h-299z" />
    <glyph glyph-name="ocircumflex" unicode="&#xf4;" horiz-adv-x="1191" 
d="M596 -25q-113 0 -215.5 42.5t-177 114.5t-118.5 173t-44 213q0 151 75 276t202 196t278 71q152 0 279 -71t201.5 -196t74.5 -276q0 -150 -74.5 -275t-202 -196.5t-278.5 -71.5zM174 1147l244 285h354l246 -285h-336l-86 94l-88 -94h-334zM424 518q0 -70 51 -121t121 -51
q72 0 122 50.5t50 121.5q0 72 -50 122t-122 50q-71 0 -121.5 -50t-50.5 -122z" />
    <glyph glyph-name="otilde" unicode="&#xf5;" horiz-adv-x="1191" 
d="M596 -25q-113 0 -215.5 42.5t-177 114.5t-118.5 173t-44 213q0 151 75 276t202 196t278 71q152 0 279 -71t201.5 -196t74.5 -276q0 -150 -74.5 -275t-202 -196.5t-278.5 -71.5zM147 1221q7 49 26 95.5t49 88t75.5 67t99.5 25.5q57 0 119.5 -26t116 -52t88.5 -26
q61 0 76 77l229 -88q-13 -73 -43 -131.5t-86 -99.5t-129 -41q-50 0 -100.5 16t-84 36t-69.5 36t-59 16q-61 0 -78 -81zM424 518q0 -70 51 -121t121 -51q72 0 122 50.5t50 121.5q0 72 -50 122t-122 50q-71 0 -121.5 -50t-50.5 -122z" />
    <glyph glyph-name="odieresis" unicode="&#xf6;" horiz-adv-x="1191" 
d="M596 -25q-113 0 -215.5 42.5t-177 114.5t-118.5 173t-44 213q0 151 75 276t202 196t278 71q152 0 279 -71t201.5 -196t74.5 -276q0 -150 -74.5 -275t-202 -196.5t-278.5 -71.5zM190 1315q0 73 51.5 124.5t125.5 51.5q73 0 124.5 -51.5t51.5 -124.5t-51.5 -124.5
t-124.5 -51.5q-74 0 -125.5 51.5t-51.5 124.5zM424 518q0 -70 51 -121t121 -51q72 0 122 50.5t50 121.5q0 72 -50 122t-122 50q-71 0 -121.5 -50t-50.5 -122zM647 1315q0 73 52 124.5t126 51.5q72 0 124 -51.5t52 -124.5t-52 -124.5t-124 -51.5q-74 0 -126 51.5t-52 124.5z
" />
    <glyph glyph-name="divide" unicode="&#xf7;" horiz-adv-x="1042" 
d="M82 436v348h879v-348h-879zM332 207q0 78 55 133t133 55t134.5 -55t56.5 -133t-56.5 -133.5t-134.5 -55.5t-133 55.5t-55 133.5zM332 1014q0 78 55 133t133 55t134.5 -55t56.5 -133t-56.5 -133.5t-134.5 -55.5t-133 55.5t-55 133.5z" />
    <glyph glyph-name="oslash" unicode="&#xf8;" horiz-adv-x="1269" 
d="M145 -59l-125 133l152 141q-92 134 -92 305q0 150 74.5 275t202 196.5t278.5 71.5q187 0 334 -109l155 144l125 -133l-153 -142q94 -137 94 -303q0 -151 -75 -276t-202 -196t-278 -71q-189 0 -334 107zM463 520q0 -23 2 -33l215 199q-21 6 -45 6q-72 0 -122 -50.5
t-50 -121.5zM590 352q21 -6 45 -6q71 0 121.5 51t50.5 123q0 21 -2 33z" />
    <glyph glyph-name="ugrave" unicode="&#xf9;" horiz-adv-x="1265" 
d="M522 -25q-110 0 -196 41.5t-138 113t-79 161.5t-27 192v555h381v-520q0 -70 46 -124t122 -54q75 0 122.5 52t47.5 130v516h383v-1038h-383v72q-115 -97 -279 -97zM297 1430h377l135 -283h-299z" />
    <glyph glyph-name="uacute" unicode="&#xfa;" horiz-adv-x="1265" 
d="M522 -25q-110 0 -196 41.5t-138 113t-79 161.5t-27 192v555h381v-520q0 -70 46 -124t122 -54q75 0 122.5 52t47.5 130v516h383v-1038h-383v72q-115 -97 -279 -97zM453 1147l133 283h379l-213 -283h-299z" />
    <glyph glyph-name="ucircumflex" unicode="&#xfb;" horiz-adv-x="1265" 
d="M522 -25q-110 0 -196 41.5t-138 113t-79 161.5t-27 192v555h381v-520q0 -70 46 -124t122 -54q75 0 122.5 52t47.5 130v516h383v-1038h-383v72q-115 -97 -279 -97zM211 1147l244 285h354l246 -285h-336l-86 94l-88 -94h-334z" />
    <glyph glyph-name="udieresis" unicode="&#xfc;" horiz-adv-x="1265" 
d="M522 -25q-110 0 -196 41.5t-138 113t-79 161.5t-27 192v555h381v-520q0 -70 46 -124t122 -54q75 0 122.5 52t47.5 130v516h383v-1038h-383v72q-115 -97 -279 -97zM227 1315q0 73 51.5 124.5t124.5 51.5q74 0 125.5 -51.5t51.5 -124.5t-51.5 -124.5t-125.5 -51.5
q-73 0 -124.5 51.5t-51.5 124.5zM684 1315q0 73 52 124.5t126 51.5q72 0 124 -51.5t52 -124.5t-52 -124.5t-124 -51.5q-74 0 -126 51.5t-52 124.5z" />
    <glyph glyph-name="yacute" unicode="&#xfd;" horiz-adv-x="1234" 
d="M190 -487l222 542l-412 983h420l192 -497l203 497h420l-639 -1525h-406zM467 1147l133 283h379l-213 -283h-299z" />
    <glyph glyph-name="thorn" unicode="&#xfe;" horiz-adv-x="1273" 
d="M82 -487v2013h383v-535q111 72 240 72q228 0 378 -156t150 -387q0 -152 -67.5 -276t-188.5 -195.5t-272 -71.5q-133 0 -240 70v-534h-383zM506 520q0 -72 50.5 -123t121.5 -51q72 0 122 51t50 123q0 71 -50 121.5t-122 50.5q-70 0 -121 -51t-51 -121z" />
    <glyph glyph-name="ydieresis" unicode="&#xff;" horiz-adv-x="1234" 
d="M190 -487l222 542l-412 983h420l192 -497l203 497h420l-639 -1525h-406zM211 1315q0 73 51.5 124.5t124.5 51.5t124.5 -51.5t51.5 -124.5t-51.5 -124.5t-124.5 -51.5t-124.5 51.5t-51.5 124.5zM668 1315q0 73 52 124.5t126 51.5q72 0 124 -51.5t52 -124.5t-52 -124.5
t-124 -51.5q-74 0 -126 51.5t-52 124.5z" />
    <glyph glyph-name="Amacron" unicode="&#x100;" horiz-adv-x="1544" 
d="M0 0l528 1434h488l528 -1434h-467l-76 229h-458l-76 -229h-467zM496 1532v291h555v-291h-555zM657 575h230l-115 351z" />
    <glyph glyph-name="amacron" unicode="&#x101;" horiz-adv-x="1273" 
d="M569 -25q-228 0 -378 156t-150 387q0 152 67.5 276t188.5 195.5t272 71.5q133 0 242 -72v47h381v-1036h-381v47q-109 -72 -242 -72zM348 1143v291h555v-291h-555zM424 518q0 -70 51 -121t121 -51t121 51t51 121q0 72 -50.5 122t-121.5 50t-121.5 -50t-50.5 -122z" />
    <glyph glyph-name="Abreve" unicode="&#x102;" horiz-adv-x="1544" 
d="M0 0l528 1434h488l528 -1434h-467l-76 229h-458l-76 -229h-467zM371 1864h291q0 -49 28.5 -82t81.5 -33q52 0 81.5 33.5t29.5 81.5h291q0 -114 -57.5 -198.5t-147.5 -125.5t-197 -41q-108 0 -197.5 41t-146.5 125.5t-57 198.5zM657 575h230l-115 351z" />
    <glyph glyph-name="abreve" unicode="&#x103;" horiz-adv-x="1273" 
d="M569 -25q-228 0 -378 156t-150 387q0 152 67.5 276t188.5 195.5t272 71.5q133 0 242 -72v47h381v-1036h-381v47q-109 -72 -242 -72zM225 1495h291q0 -49 29 -82t82 -33q52 0 81 33.5t29 81.5h291q0 -114 -57.5 -198.5t-147 -125.5t-196.5 -41q-167 0 -284.5 98
t-117.5 267zM424 518q0 -70 51 -121t121 -51t121 51t51 121q0 72 -50.5 122t-121.5 50t-121.5 -50t-50.5 -122z" />
    <glyph glyph-name="Aogonek" unicode="&#x104;" horiz-adv-x="1544" 
d="M1579 -616q-66 -17 -137 -18.5t-139 15.5t-122 51t-87 93.5t-33 136.5q0 180 219 338h-203l-76 229h-458l-76 -229h-467l526 1434h490l528 -1434q-68 -50 -106.5 -96t-38.5 -103q0 -41 19.5 -67t47.5 -33.5t59 -10t54 4.5v-311zM655 575h232l-115 351z" />
    <glyph glyph-name="aogonek" unicode="&#x105;" horiz-adv-x="1273" 
d="M1229 -616q-66 -17 -137 -18.5t-139 15.5t-122 51t-87 93.5t-33 136.5q0 180 219 338h-119v47q-109 -72 -242 -72q-228 0 -378 156t-150 387q0 152 67.5 276t188.5 195.5t272 71.5q133 0 242 -72v49h383v-1038q-68 -50 -106.5 -96t-38.5 -103q0 -41 19.5 -67t47.5 -33.5
t59 -10t54 4.5v-311zM424 518q0 -70 51 -121t121 -51q72 0 123 50.5t51 121.5q0 72 -51 123t-123 51q-71 0 -121.5 -51t-50.5 -123z" />
    <glyph glyph-name="Cacute" unicode="&#x106;" horiz-adv-x="1429" 
d="M784 -23q-151 0 -288.5 58.5t-237 157.5t-158.5 236t-59 288q0 152 59 289.5t158.5 236t237 157t288.5 58.5q189 0 351.5 -87.5t265.5 -237.5l-363 -244q-42 62 -109.5 98.5t-144.5 36.5q-128 0 -217.5 -90t-89.5 -217q0 -126 90 -216.5t217 -90.5q82 0 151.5 40
t111.5 109l362 -246q-101 -155 -266.5 -245.5t-358.5 -90.5zM553 1536l133 283h379l-213 -283h-299z" />
    <glyph glyph-name="cacute" unicode="&#x107;" horiz-adv-x="1126" 
d="M596 -25q-113 0 -215.5 42.5t-177 114.5t-118.5 173t-44 213q0 151 75 276t202 196t278 71q169 0 307 -89t203 -235l-346 -166q-15 53 -60.5 86t-103.5 33q-71 0 -121.5 -50t-50.5 -122q0 -70 51 -121t121 -51q58 0 103.5 33.5t60.5 85.5l346 -166q-65 -146 -203 -235
t-307 -89zM379 1147l133 283h379l-213 -283h-299z" />
    <glyph glyph-name="ccircumflex" unicode="&#x109;" horiz-adv-x="1126" 
d="M596 -25q-113 0 -215.5 42.5t-177 114.5t-118.5 173t-44 213q0 151 75 276t202 196t278 71q169 0 307 -89t203 -235l-346 -166q-15 53 -60.5 86t-103.5 33q-71 0 -121.5 -50t-50.5 -122q0 -70 51 -121t121 -51q58 0 103.5 33.5t60.5 85.5l346 -166q-65 -146 -203 -235
t-307 -89zM139 1147l244 285h354l246 -285h-336l-86 94l-88 -94h-334z" />
    <glyph glyph-name="Cdotaccent" unicode="&#x10a;" horiz-adv-x="1429" 
d="M784 -23q-151 0 -288.5 58.5t-237 157.5t-158.5 236t-59 288q0 152 59 289.5t158.5 236t237 157t288.5 58.5q189 0 351.5 -87.5t265.5 -237.5l-363 -244q-42 62 -109.5 98.5t-144.5 36.5q-128 0 -217.5 -90t-89.5 -217q0 -126 90 -216.5t217 -90.5q82 0 151.5 40
t111.5 109l362 -246q-101 -155 -266.5 -245.5t-358.5 -90.5zM573 1724q0 73 52.5 125t126.5 52q72 0 124 -52t52 -125t-52 -124.5t-124 -51.5q-74 0 -126.5 51.5t-52.5 124.5z" />
    <glyph glyph-name="cdotaccent" unicode="&#x10b;" horiz-adv-x="1126" 
d="M596 -25q-113 0 -215.5 42.5t-177 114.5t-118.5 173t-44 213q0 151 75 276t202 196t278 71q169 0 307 -89t203 -235l-346 -166q-15 53 -60.5 86t-103.5 33q-71 0 -121.5 -50t-50.5 -122q0 -70 51 -121t121 -51q58 0 103.5 33.5t60.5 85.5l346 -166q-65 -146 -203 -235
t-307 -89zM395 1315q0 73 52 124.5t126 51.5q72 0 124.5 -51.5t52.5 -124.5t-52.5 -124.5t-124.5 -51.5q-74 0 -126 51.5t-52 124.5z" />
    <glyph glyph-name="Ccaron" unicode="&#x10c;" horiz-adv-x="1429" 
d="M784 -23q-151 0 -288.5 58.5t-237 157.5t-158.5 236t-59 288q0 152 59 289.5t158.5 236t237 157t288.5 58.5q189 0 351.5 -87.5t265.5 -237.5l-363 -244q-42 62 -109.5 98.5t-144.5 36.5q-128 0 -217.5 -90t-89.5 -217q0 -126 90 -216.5t217 -90.5q82 0 151.5 40
t111.5 109l362 -246q-101 -155 -266.5 -245.5t-358.5 -90.5zM328 1821h334l88 -95l88 95h333l-245 -285h-353z" />
    <glyph glyph-name="ccaron" unicode="&#x10d;" horiz-adv-x="1126" 
d="M596 -25q-113 0 -215.5 42.5t-177 114.5t-118.5 173t-44 213q0 151 75 276t202 196t278 71q169 0 307 -89t203 -235l-346 -166q-15 53 -60.5 86t-103.5 33q-71 0 -121.5 -50t-50.5 -122q0 -70 51 -121t121 -51q58 0 103.5 33.5t60.5 85.5l346 -166q-65 -146 -203 -235
t-307 -89zM150 1432h333l88 -95l88 95h334l-245 -285h-353z" />
    <glyph glyph-name="Dcaron" unicode="&#x10e;" horiz-adv-x="1429" 
d="M82 0v1434h502q368 0 586.5 -198t218.5 -519q0 -157 -56.5 -290t-159.5 -227t-254.5 -147t-334.5 -53h-502zM143 1821h334l88 -95l88 95h334l-246 -285h-352zM520 401h64q168 0 263 84.5t95 231.5q0 148 -94.5 231.5t-263.5 83.5h-64v-631z" />
    <glyph glyph-name="dcaron" unicode="&#x10f;" horiz-adv-x="1273" 
d="M567 -25q-227 0 -376.5 156.5t-149.5 386.5q0 232 149.5 387.5t376.5 155.5q136 0 242 -72v535h383v-1524h-383v47q-106 -72 -242 -72zM424 518q0 -71 50 -121.5t122 -50.5q70 0 121 51t51 121q0 72 -50.5 122t-121.5 50q-72 0 -122 -50t-50 -122zM1257 1149l142 375h362
l-192 -375h-312z" />
    <glyph glyph-name="Dcroat" unicode="&#x110;" horiz-adv-x="1554" 
d="M207 0v553h-166v328h166v553h502q368 0 586 -198t218 -519q0 -157 -56.5 -289.5t-159 -227t-254 -147.5t-334.5 -53h-502zM645 401h64q168 0 263 84.5t95 231.5q0 148 -94.5 231.5t-263.5 83.5h-64v-151h256v-328h-256v-152z" />
    <glyph glyph-name="dcroat" unicode="&#x111;" horiz-adv-x="1374" 
d="M569 -23q-150 0 -271 71.5t-189 195.5t-68 276q0 230 150.5 386.5t377.5 156.5q128 0 242 -72v154h-238v254h238v127h383v-127h160v-254h-160v-1145h-383v47q-111 -70 -242 -70zM424 520q0 -72 51 -123t123 -51q71 0 121.5 51t50.5 123q0 70 -51 121t-121 51
q-72 0 -123 -50.5t-51 -121.5z" />
    <glyph glyph-name="Emacron" unicode="&#x112;" horiz-adv-x="1130" 
d="M82 0v1434h969v-402h-531v-141h512v-328h-512v-162h549v-401h-987zM297 1532v291h555v-291h-555z" />
    <glyph glyph-name="emacron" unicode="&#x113;" horiz-adv-x="1198" 
d="M625 -25q-264 0 -424 154.5t-160 388.5q0 151 75 276t202 196t278 71q114 0 222 -47t189 -129t122 -207t22 -268h-737q62 -119 211 -119q70 0 122 25.5t80 62.5l285 -131q-64 -122 -192.5 -197.5t-294.5 -75.5zM322 1143v291h555v-291h-555zM416 627h372q-26 54 -75.5 86
t-116.5 32q-61 0 -107.5 -32.5t-72.5 -85.5z" />
    <glyph glyph-name="Edotaccent" unicode="&#x116;" horiz-adv-x="1130" 
d="M82 0v1434h969v-402h-531v-141h512v-328h-512v-162h549v-401h-987zM399 1724q0 73 52.5 125t126.5 52q72 0 124 -52t52 -125t-52 -124.5t-124 -51.5q-74 0 -126.5 51.5t-52.5 124.5z" />
    <glyph glyph-name="edotaccent" unicode="&#x117;" horiz-adv-x="1198" 
d="M625 -25q-264 0 -424 154.5t-160 388.5q0 151 75 276t202 196t278 71q114 0 222 -47t189 -129t122 -207t22 -268h-737q62 -119 211 -119q70 0 122 25.5t80 62.5l285 -131q-64 -122 -192.5 -197.5t-294.5 -75.5zM416 627h372q-26 54 -75.5 86t-116.5 32
q-61 0 -107.5 -32.5t-72.5 -85.5zM422 1315q0 73 52 124.5t126 51.5q72 0 124 -51.5t52 -124.5t-52 -124.5t-124 -51.5q-74 0 -126 51.5t-52 124.5z" />
    <glyph glyph-name="Eogonek" unicode="&#x118;" horiz-adv-x="1130" 
d="M1102 -616q-66 -17 -136.5 -18.5t-138 15.5t-121.5 51t-87 93.5t-33 136.5q0 180 219 338h-723v1434h969v-402h-533v-143h514v-328h-514v-160h551v-401q-69 -49 -108 -95.5t-39 -103.5q0 -41 19.5 -67t47.5 -33.5t59 -10t54 4.5v-311z" />
    <glyph glyph-name="eogonek" unicode="&#x119;" horiz-adv-x="1198" 
d="M915 -616q-66 -17 -136.5 -18.5t-138.5 15.5t-122.5 51t-87.5 93.5t-33 136.5q0 168 191 315q-250 12 -398.5 163.5t-148.5 377.5q0 151 75 276t202 196t278 71q115 0 222.5 -46.5t188.5 -128.5t122 -207t22 -269h-737q62 -119 211 -119q127 0 202 88l285 -131
q-67 -129 -201 -203q-63 -40 -119.5 -110.5t-56.5 -133.5q0 -41 19.5 -67t47.5 -33.5t59 -10t54 4.5v-311zM416 629h372q-26 53 -75.5 84.5t-116.5 31.5q-61 0 -107 -32.5t-73 -83.5z" />
    <glyph glyph-name="Ecaron" unicode="&#x11a;" horiz-adv-x="1130" 
d="M82 0v1434h969v-402h-531v-141h512v-328h-512v-162h549v-401h-987zM152 1821h333l88 -95l89 95h333l-245 -285h-353z" />
    <glyph glyph-name="ecaron" unicode="&#x11b;" horiz-adv-x="1198" 
d="M625 -25q-264 0 -424 154.5t-160 388.5q0 151 75 276t202 196t278 71q114 0 222 -47t189 -129t122 -207t22 -268h-737q62 -119 211 -119q70 0 122 25.5t80 62.5l285 -131q-64 -122 -192.5 -197.5t-294.5 -75.5zM176 1432h334l88 -95l88 95h334l-246 -285h-352zM416 627
h372q-26 54 -75.5 86t-116.5 32q-61 0 -107.5 -32.5t-72.5 -85.5z" />
    <glyph glyph-name="gcircumflex" unicode="&#x11d;" horiz-adv-x="1275" 
d="M612 -487q-183 0 -330 78t-204 196l289 166q22 -35 80.5 -71t146.5 -36q62 0 106.5 18.5t67.5 50.5t33 66.5t10 73.5v8q-106 -69 -242 -69q-229 0 -378.5 148t-149.5 376q0 152 68 276t189 195.5t271 71.5q133 0 242 -74v49h383v-981q0 -260 -158 -401t-424 -141z
M225 1147l244 285h354l246 -285h-336l-86 94l-88 -94h-334zM424 518q0 -71 51 -121.5t123 -50.5q70 0 121 51t51 121q0 72 -50.5 122t-121.5 50q-72 0 -123 -50t-51 -122z" />
    <glyph glyph-name="Gbreve" unicode="&#x11e;" horiz-adv-x="1558" 
d="M784 -23q-151 0 -288.5 58.5t-237 157.5t-158.5 236t-59 288q0 152 59 289.5t158.5 236t237 157t288.5 58.5q189 0 351.5 -87.5t265.5 -237.5l-363 -244q-42 62 -109.5 98.5t-144.5 36.5q-127 0 -217 -91t-90 -216q0 -137 83.5 -230.5t223.5 -93.5q189 0 260 152h-331
v309h800q15 -213 -32.5 -381t-146 -275.5t-238.5 -164t-312 -56.5zM377 1864h291q0 -49 28.5 -82t81.5 -33q52 0 81.5 33.5t29.5 81.5h291q0 -114 -57.5 -198.5t-147.5 -125.5t-197 -41q-108 0 -197.5 41t-146.5 125.5t-57 198.5z" />
    <glyph glyph-name="gbreve" unicode="&#x11f;" horiz-adv-x="1275" 
d="M612 -487q-183 0 -330 78t-204 196l289 166q22 -35 80.5 -71t146.5 -36q62 0 106.5 18.5t67.5 50.5t33 66.5t10 73.5v8q-106 -69 -242 -69q-229 0 -378.5 148t-149.5 376q0 152 68 276t189 195.5t271 71.5q133 0 242 -74v49h383v-981q0 -260 -158 -401t-424 -141z
M227 1495h291q0 -49 29 -82t82 -33q52 0 81 33.5t29 81.5h291q0 -114 -57.5 -198.5t-147 -125.5t-196.5 -41q-167 0 -284.5 98t-117.5 267zM424 518q0 -71 51 -121.5t123 -50.5q70 0 121 51t51 121q0 72 -50.5 122t-121.5 50q-72 0 -123 -50t-51 -122z" />
    <glyph glyph-name="Gdotaccent" unicode="&#x120;" horiz-adv-x="1558" 
d="M784 -23q-151 0 -288.5 58.5t-237 157.5t-158.5 236t-59 288q0 152 59 289.5t158.5 236t237 157t288.5 58.5q189 0 351.5 -87.5t265.5 -237.5l-363 -244q-42 62 -109.5 98.5t-144.5 36.5q-127 0 -217 -91t-90 -216q0 -137 83.5 -230.5t223.5 -93.5q189 0 260 152h-331
v309h800q15 -213 -32.5 -381t-146 -275.5t-238.5 -164t-312 -56.5zM602 1724q0 73 52 125t126 52q72 0 124 -52t52 -125t-52 -124.5t-124 -51.5q-74 0 -126 51.5t-52 124.5z" />
    <glyph glyph-name="gdotaccent" unicode="&#x121;" horiz-adv-x="1275" 
d="M612 -487q-183 0 -330 78t-204 196l289 166q22 -35 80.5 -71t146.5 -36q62 0 106.5 18.5t67.5 50.5t33 66.5t10 73.5v8q-106 -69 -242 -69q-229 0 -378.5 148t-149.5 376q0 152 68 276t189 195.5t271 71.5q133 0 242 -74v49h383v-981q0 -260 -158 -401t-424 -141z
M422 1315q0 73 52 124.5t126 51.5q72 0 124 -51.5t52 -124.5t-52 -124.5t-124 -51.5q-74 0 -126 51.5t-52 124.5zM424 518q0 -71 51 -121.5t123 -50.5q70 0 121 51t51 121q0 72 -50.5 122t-121.5 50q-72 0 -123 -50t-51 -122z" />
    <glyph glyph-name="uni0122" unicode="&#x122;" horiz-adv-x="1558" 
d="M784 -23q-151 0 -288.5 58.5t-237 157.5t-158.5 236t-59 288q0 152 59 289.5t158.5 236t237 157t288.5 58.5q189 0 351.5 -87.5t265.5 -237.5l-363 -244q-42 62 -109.5 98.5t-144.5 36.5q-127 0 -217 -91t-90 -216q0 -137 83.5 -230.5t223.5 -93.5q189 0 260 152h-331
v309h800q15 -213 -32.5 -381t-146 -275.5t-238.5 -164t-312 -56.5zM465 -489l141 374h363l-193 -374h-311z" />
    <glyph glyph-name="uni0123" unicode="&#x123;" horiz-adv-x="1275" 
d="M612 -487q-183 0 -330 78t-204 196l289 166q22 -35 80.5 -71t146.5 -36q62 0 106.5 18.5t67.5 50.5t33 66.5t10 73.5v8q-106 -69 -242 -69q-229 0 -378.5 148t-149.5 376q0 152 68 276t189 195.5t271 71.5q133 0 242 -74v49h383v-981q0 -260 -158 -401t-424 -141z
M408 1147l213 283h299l-134 -283h-378zM424 518q0 -71 51 -121.5t123 -50.5q70 0 121 51t51 121q0 72 -50.5 122t-121.5 50q-72 0 -123 -50t-51 -122z" />
    <glyph glyph-name="hcircumflex" unicode="&#x125;" horiz-adv-x="1267" 
d="M82 0v1524h383v-559q110 96 280 96q109 0 195 -41.5t139 -113t80 -161t27 -190.5v-555h-383v518q0 71 -45 124.5t-121 53.5q-77 0 -124.5 -51.5t-47.5 -130.5v-514h-383zM213 1618l244 285h354l246 -285h-336l-86 94l-88 -94h-334z" />
    <glyph glyph-name="Hbar" unicode="&#x126;" horiz-adv-x="1662" 
d="M160 0v1020h-119v293h119v121h436v-121h471v121h438v-121h117v-293h-117v-1020h-438v516h-471v-516h-436zM596 918h471v102h-471v-102z" />
    <glyph glyph-name="hbar" unicode="&#x127;" horiz-adv-x="1318" 
d="M154 0v1145h-134v254h134v127h383v-127h264v-254h-264v-178q114 96 280 96q109 0 195 -41.5t138.5 -113t79.5 -161.5t27 -192v-555h-383v520q0 71 -45.5 124.5t-121.5 53.5q-75 0 -122.5 -52t-47.5 -130v-516h-383z" />
    <glyph glyph-name="itilde" unicode="&#x129;" horiz-adv-x="555" 
d="M86 0v1036h383v-1036h-383zM-162 1221q7 49 26 95.5t49 88t75.5 67t99.5 25.5q57 0 119.5 -26t116 -52t88.5 -26q60 0 75 77l230 -88q-13 -73 -43 -131.5t-86 -99.5t-129 -41q-63 0 -126 26t-111.5 52t-76.5 26q-21 0 -36 -8t-23 -22.5t-11.5 -25t-6.5 -25.5z" />
    <glyph glyph-name="Imacron" unicode="&#x12a;" horiz-adv-x="602" 
d="M82 0v1434h438v-1434h-438zM25 1532v291h555v-291h-555z" />
    <glyph glyph-name="imacron" unicode="&#x12b;" horiz-adv-x="555" 
d="M86 0v1036h383v-1036h-383zM0 1143v291h555v-291h-555z" />
    <glyph glyph-name="Iogonek" unicode="&#x12e;" horiz-adv-x="602" 
d="M555 -616q-66 -17 -137 -18.5t-139 15.5t-122 51t-87 93.5t-33 136.5q0 176 219 338h-174v1434h438v-1434q-68 -50 -106.5 -96t-38.5 -103q0 -41 19.5 -67t47.5 -33.5t59 -10t54 4.5v-311z" />
    <glyph glyph-name="iogonek" unicode="&#x12f;" horiz-adv-x="557" 
d="M504 -616q-66 -17 -137 -18.5t-139 15.5t-122 51t-87 93.5t-33 136.5q0 179 221 338h-121v1038h383v-1038q-68 -50 -106.5 -96t-38.5 -103q0 -41 19.5 -67t47.5 -33.5t59 -10t54 4.5v-311zM70 1341q0 86 61.5 146.5t147.5 60.5t146 -60.5t60 -146.5t-60 -147t-146 -61
t-147.5 61t-61.5 147z" />
    <glyph glyph-name="Idotaccent" unicode="&#x130;" horiz-adv-x="602" 
d="M82 0v1434h438v-1434h-438zM125 1724q0 73 52 125t126 52q72 0 124 -52t52 -125t-52 -124.5t-124 -51.5q-74 0 -126 51.5t-52 124.5z" />
    <glyph glyph-name="dotlessi" unicode="&#x131;" horiz-adv-x="555" 
d="M86 0v1036h383v-1036h-383z" />
    <glyph glyph-name="IJ" unicode="&#x132;" horiz-adv-x="1724" 
d="M82 0v1434h438v-1434h-438zM602 371l397 114q5 -38 33 -64t72 -26q100 0 100 129v910h438v-910q0 -547 -507 -547q-219 0 -366.5 108.5t-166.5 285.5z" />
    <glyph glyph-name="ij" unicode="&#x133;" horiz-adv-x="1105" 
d="M86 0v1036h383v-1036h-383zM72 1341q0 85 60.5 146t146.5 61t146 -61t60 -146q0 -86 -60 -147t-146 -61t-146.5 61t-60.5 147zM516 -487v389q71 0 100 36t29 115v983h383v-999q0 -268 -120 -396t-392 -128zM629 1341q0 85 61.5 146t147.5 61t146 -61t60 -146
q0 -86 -60 -147t-146 -61t-147.5 61t-61.5 147z" />
    <glyph glyph-name="jcircumflex" unicode="&#x135;" horiz-adv-x="532" 
d="M-41 -98q71 0 100 36t29 115v983h383v-999q0 -268 -120 -396t-392 -128v389zM-145 1147l243 285h355l245 -285h-336l-86 94l-88 -94h-333z" />
    <glyph glyph-name="uni0136" unicode="&#x136;" horiz-adv-x="1353" 
d="M82 0v1434h438v-592l338 592h494l-414 -693l436 -741h-518l-336 584v-584h-438zM354 -489l142 374h362l-192 -374h-312z" />
    <glyph glyph-name="uni0137" unicode="&#x137;" horiz-adv-x="1122" 
d="M82 0v1524h383v-842l213 354h418l-299 -471l325 -565h-450l-207 393v-393h-383zM246 -489l141 374h363l-193 -374h-311z" />
    <glyph glyph-name="Lacute" unicode="&#x139;" horiz-adv-x="1093" 
d="M82 0v1434h438v-1033h512v-401h-950zM143 1536l133 283h379l-213 -283h-299z" />
    <glyph glyph-name="lacute" unicode="&#x13a;" horiz-adv-x="546" 
d="M82 0v1524h383v-1524h-383zM123 1634l133 283h379l-213 -283h-299z" />
    <glyph glyph-name="uni013B" unicode="&#x13b;" horiz-adv-x="1093" 
d="M82 0v1434h438v-1033h512v-401h-950zM244 -489l141 374h363l-193 -374h-311z" />
    <glyph glyph-name="uni013C" unicode="&#x13c;" horiz-adv-x="546" 
d="M82 0v1524h383v-1524h-383zM-51 -489l141 374h363l-193 -374h-311z" />
    <glyph glyph-name="Lcaron" unicode="&#x13d;" horiz-adv-x="1093" 
d="M82 0v1434h438v-1033h512v-401h-950zM-119 1821h334l88 -95l88 95h334l-246 -285h-352z" />
    <glyph glyph-name="lcaron" unicode="&#x13e;" horiz-adv-x="546" 
d="M82 0v1524h383v-1524h-383zM539 1149l141 375h362l-192 -375h-311z" />
    <glyph glyph-name="Ldot" unicode="&#x13f;" horiz-adv-x="1093" 
d="M82 0v1434h436v-1033h514v-401h-950zM584 682q0 72 51 124t123 52q73 0 124.5 -52t51.5 -124t-51.5 -124t-124.5 -52q-72 0 -123 52t-51 124z" />
    <glyph glyph-name="ldot" unicode="&#x140;" horiz-adv-x="919" 
d="M82 0v1526h383v-1526h-383zM528 645q0 73 51 124.5t123 51.5q74 0 125.5 -51.5t51.5 -124.5q0 -72 -52 -123t-125 -51q-72 0 -123 51t-51 123z" />
    <glyph glyph-name="Lslash" unicode="&#x141;" horiz-adv-x="1247" 
d="M236 0v354l-82 -43l-134 271l216 112v740h438v-510l188 98l135 -270l-323 -168v-183h512v-401h-950z" />
    <glyph glyph-name="lslash" unicode="&#x142;" horiz-adv-x="788" 
d="M203 0v535l-97 -52l-106 203l203 107v733h383v-535l96 51l106 -202l-202 -107v-733h-383z" />
    <glyph glyph-name="Nacute" unicode="&#x143;" horiz-adv-x="1527" 
d="M82 0v1434h481l447 -756v756h436v-1434h-479l-447 756v-756h-438zM610 1536l133 283h379l-213 -283h-299z" />
    <glyph glyph-name="nacute" unicode="&#x144;" horiz-adv-x="1267" 
d="M82 0v1036h383v-71q110 96 280 96q109 0 195 -41.5t139 -113t80 -161t27 -190.5v-555h-383v518q0 70 -46 124t-122 54t-123 -51.5t-47 -130.5v-514h-383zM410 1147l133 283h379l-213 -283h-299z" />
    <glyph glyph-name="uni0145" unicode="&#x145;" horiz-adv-x="1527" 
d="M82 0v1434h481l447 -756v756h436v-1434h-479l-447 756v-756h-438zM451 -489l141 374h362l-192 -374h-311z" />
    <glyph glyph-name="uni0146" unicode="&#x146;" horiz-adv-x="1267" 
d="M82 0v1036h383v-71q110 96 280 96q109 0 195 -41.5t139 -113t80 -161t27 -190.5v-555h-383v518q0 70 -46 124t-122 54t-123 -51.5t-47 -130.5v-514h-383zM311 -489l142 374h362l-192 -374h-312z" />
    <glyph glyph-name="Ncaron" unicode="&#x147;" horiz-adv-x="1527" 
d="M82 0v1434h481l447 -756v756h436v-1434h-479l-447 756v-756h-438zM342 1821h334l88 -95l88 95h334l-246 -285h-352z" />
    <glyph glyph-name="ncaron" unicode="&#x148;" horiz-adv-x="1267" 
d="M82 0v1036h383v-71q110 96 280 96q109 0 195 -41.5t139 -113t80 -161t27 -190.5v-555h-383v518q0 70 -46 124t-122 54t-123 -51.5t-47 -130.5v-514h-383zM164 1432h334l88 -95l88 95h334l-246 -285h-352z" />
    <glyph glyph-name="napostrophe" unicode="&#x149;" horiz-adv-x="1368" 
d="M182 0v1038h383v-73q110 96 281 96q109 0 195 -41.5t138.5 -113t79.5 -161t27 -190.5v-555h-383v518q0 72 -45 125t-123 53q-76 0 -123 -51t-47 -129v-516h-383zM-82 1104l141 375h363l-191 -375h-313z" />
    <glyph glyph-name="Eng" unicode="&#x14a;" horiz-adv-x="1527" 
d="M874 -121q70 0 102 28t32 93l-490 788v-788h-436v1434h479l447 -719v719h438v-1434q0 -150 -31 -250t-101 -162.5t-176 -89t-264 -26.5v407z" />
    <glyph glyph-name="eng" unicode="&#x14b;" horiz-adv-x="1265" 
d="M672 -106q73 0 101 35.5t28 107.5v483q0 71 -45 124.5t-121 53.5q-75 0 -122.5 -52t-47.5 -130v-516h-383v1038h383v-71q114 96 278 96q110 0 196 -41.5t138.5 -113t79.5 -161.5t27 -192v-518q0 -137 -23.5 -232t-81 -165.5t-158 -104t-249.5 -33.5v392z" />
    <glyph glyph-name="Omacron" unicode="&#x14c;" horiz-adv-x="1570" 
d="M784 -23q-151 0 -288.5 58.5t-237 157.5t-158.5 236t-59 288q0 152 59 289.5t158.5 236t237 157t288.5 58.5q152 0 290 -58.5t238 -157t159 -236t59 -289.5q0 -151 -59 -288t-159 -236t-238 -157.5t-290 -58.5zM479 717q0 -126 89.5 -216.5t215.5 -90.5q127 0 217.5 90.5
t90.5 216.5q0 127 -90 217t-218 90q-126 0 -215.5 -90t-89.5 -217zM508 1532v291h555v-291h-555z" />
    <glyph glyph-name="omacron" unicode="&#x14d;" horiz-adv-x="1191" 
d="M596 -25q-113 0 -215.5 42.5t-177 114.5t-118.5 173t-44 213q0 151 75 276t202 196t278 71q152 0 279 -71t201.5 -196t74.5 -276q0 -150 -74.5 -275t-202 -196.5t-278.5 -71.5zM319 1143v291h555v-291h-555zM424 518q0 -70 51 -121t121 -51q72 0 122 50.5t50 121.5
q0 72 -50 122t-122 50q-71 0 -121.5 -50t-50.5 -122z" />
    <glyph glyph-name="Ohungarumlaut" unicode="&#x150;" horiz-adv-x="1570" 
d="M784 -23q-151 0 -288.5 58.5t-237 157.5t-158.5 236t-59 288q0 152 59 289.5t158.5 236t237 157t288.5 58.5q152 0 290 -58.5t238 -157t159 -236t59 -289.5q0 -151 -59 -288t-159 -236t-238 -157.5t-290 -58.5zM395 1536l133 283h379l-213 -283h-299zM479 717
q0 -126 89.5 -216.5t215.5 -90.5q127 0 217.5 90.5t90.5 216.5q0 127 -90 217t-218 90q-126 0 -215.5 -90t-89.5 -217zM827 1536l136 283h378l-213 -283h-301z" />
    <glyph glyph-name="ohungarumlaut" unicode="&#x151;" horiz-adv-x="1191" 
d="M596 -25q-113 0 -215.5 42.5t-177 114.5t-118.5 173t-44 213q0 151 75 276t202 196t278 71q152 0 279 -71t201.5 -196t74.5 -276q0 -150 -74.5 -275t-202 -196.5t-278.5 -71.5zM199 1147l133 283h379l-213 -283h-299zM424 518q0 -70 51 -121t121 -51q72 0 122 50.5
t50 121.5q0 72 -50 122t-122 50q-71 0 -121.5 -50t-50.5 -122zM631 1147l135 283h379l-213 -283h-301z" />
    <glyph glyph-name="OE" unicode="&#x152;" horiz-adv-x="2193" 
d="M784 -23q-151 0 -288.5 58.5t-237 157.5t-158.5 236t-59 288q0 152 59 289.5t158.5 236t237 157t288.5 58.5q192 0 361 -94v70h971v-402h-533v-141h514v-328h-514v-162h549v-401h-987v70q-167 -93 -361 -93zM477 717q0 -126 90 -216.5t217 -90.5q126 0 217 90.5t91 216.5
q0 127 -91 217t-217 90q-128 0 -217.5 -90t-89.5 -217z" />
    <glyph glyph-name="oe" unicode="&#x153;" horiz-adv-x="2056" 
d="M596 -23q-152 0 -279 71t-201.5 196t-74.5 276q0 150 74.5 275t202 196.5t278.5 71.5q127 0 239.5 -52.5t188.5 -144.5q78 92 190.5 144.5t239.5 52.5q114 0 221.5 -47t188.5 -129t122 -207.5t23 -269.5h-737q61 -117 211 -117q130 0 203 86l284 -129q-64 -123 -192 -198
t-295 -75q-149 0 -266.5 50.5t-194.5 140.5q-78 -89 -189 -140t-237 -51zM424 520q0 -72 50.5 -123t121.5 -51t121.5 51t50.5 123q0 70 -51 121t-121 51t-121 -51t-51 -121zM1274 629h371q-24 53 -75 86t-116 33q-60 0 -106.5 -33.5t-73.5 -85.5z" />
    <glyph glyph-name="Racute" unicode="&#x154;" horiz-adv-x="1286" 
d="M82 0v1434h522q251 0 408 -132t157 -358q0 -131 -55.5 -232.5t-155.5 -164.5l328 -547h-489l-267 455h-10v-455h-438zM348 1536l133 283h379l-213 -283h-299zM520 838h84q56 0 89.5 29t33.5 77t-33.5 77.5t-89.5 29.5h-84v-213z" />
    <glyph glyph-name="racute" unicode="&#x155;" horiz-adv-x="786" 
d="M82 0v1038h383v-108q93 131 280 131v-365q-53 0 -89 -4t-75.5 -20t-62.5 -44.5t-38 -79.5t-15 -124v-424h-383zM205 1147l133 283h379l-213 -283h-299z" />
    <glyph glyph-name="uni0156" unicode="&#x156;" horiz-adv-x="1286" 
d="M82 0v1434h522q251 0 408 -132t157 -358q0 -131 -55.5 -232.5t-155.5 -164.5l328 -547h-489l-267 455h-10v-455h-438zM330 -489l141 374h363l-193 -374h-311zM520 838h84q56 0 89.5 29t33.5 77t-33.5 77.5t-89.5 29.5h-84v-213z" />
    <glyph glyph-name="uni0157" unicode="&#x157;" horiz-adv-x="786" 
d="M82 0v1038h383v-108q93 131 280 131v-365q-53 0 -89 -4t-75.5 -20t-62.5 -44.5t-38 -79.5t-15 -124v-424h-383zM-53 -489l141 374h363l-193 -374h-311z" />
    <glyph glyph-name="Rcaron" unicode="&#x158;" horiz-adv-x="1286" 
d="M82 0v1434h522q251 0 408 -132t157 -358q0 -131 -55.5 -232.5t-155.5 -164.5l328 -547h-489l-267 455h-10v-455h-438zM102 1821h334l88 -95l88 95h334l-246 -285h-352zM520 838h84q56 0 89.5 29t33.5 77t-33.5 77.5t-89.5 29.5h-84v-213z" />
    <glyph glyph-name="rcaron" unicode="&#x159;" horiz-adv-x="786" 
d="M82 0v1038h383v-108q93 131 280 131v-365q-53 0 -89 -4t-75.5 -20t-62.5 -44.5t-38 -79.5t-15 -124v-424h-383zM-6 1432h334l88 -95l88 95h334l-246 -285h-352z" />
    <glyph glyph-name="Sacute" unicode="&#x15a;" horiz-adv-x="1155" 
d="M571 -23q-124 0 -225.5 36t-167.5 98.5t-101.5 145.5t-35.5 179l399 31q2 -57 35.5 -90t99.5 -33q54 0 84.5 20.5t30.5 55.5q0 40 -39 60.5t-196 72.5q-190 63 -278.5 165.5t-88.5 287.5q0 139 67.5 244t174.5 156.5t235 51.5q206 0 337.5 -108.5t146.5 -278.5l-392 -45
q-2 37 -24.5 61.5t-59.5 24.5q-34 0 -56.5 -20t-22.5 -52q0 -41 30 -65.5t113 -50.5q83 -27 140 -48.5t116 -51.5t95.5 -62.5t67.5 -76.5t44.5 -99.5t13.5 -124.5q0 -237 -146.5 -360.5t-396.5 -123.5zM389 1536l133 283h379l-213 -283h-299z" />
    <glyph glyph-name="sacute" unicode="&#x15b;" horiz-adv-x="997" 
d="M516 -25q-128 0 -229.5 30.5t-172 101t-83.5 174.5l354 59q0 -39 29 -64.5t82 -25.5q43 0 66.5 14.5t23.5 40.5q0 25 -30 37.5t-131 35.5q-36 8 -56 13q-142 33 -219.5 110.5t-77.5 217.5q0 88 37 156.5t98.5 107.5t133.5 58.5t151 19.5q159 0 279 -74.5t149 -200.5
l-316 -65q-3 28 -27 47.5t-67 19.5q-34 0 -53 -16t-19 -39q0 -32 32.5 -46t139.5 -36q63 -13 105 -24.5t95.5 -36.5t84.5 -56.5t52.5 -84.5t19.5 -121q0 -75 -25 -135t-67 -100t-100.5 -67t-123 -39t-135.5 -12zM287 1147l133 283h379l-213 -283h-299z" />
    <glyph glyph-name="scircumflex" unicode="&#x15d;" horiz-adv-x="997" 
d="M516 -25q-128 0 -229.5 30.5t-172 101t-83.5 174.5l354 59q0 -39 29 -64.5t82 -25.5q43 0 66.5 14.5t23.5 40.5q0 25 -30 37.5t-131 35.5q-36 8 -56 13q-142 33 -219.5 110.5t-77.5 217.5q0 88 37 156.5t98.5 107.5t133.5 58.5t151 19.5q159 0 279 -74.5t149 -200.5
l-316 -65q-3 28 -27 47.5t-67 19.5q-34 0 -53 -16t-19 -39q0 -32 32.5 -46t139.5 -36q63 -13 105 -24.5t95.5 -36.5t84.5 -56.5t52.5 -84.5t19.5 -121q0 -75 -25 -135t-67 -100t-100.5 -67t-123 -39t-135.5 -12zM68 1147l243 285h355l245 -285h-336l-86 94l-88 -94h-333z
" />
    <glyph glyph-name="Scedilla" unicode="&#x15e;" horiz-adv-x="1155" 
d="M563 -653q-83 0 -165 28.5t-130 67.5l119 213q80 -51 141 -51q41 0 61.5 20t20.5 49q0 27 -16 43.5t-43 16.5q-28 0 -53 -25l-170 103l94 180q-181 37 -281 157.5t-100 284.5l399 33q2 -59 35.5 -92t99.5 -33q54 0 84.5 21t30.5 57t-32.5 55t-150.5 60q-33 11 -52 18
q-127 42 -204.5 96t-120 142t-42.5 215q0 104 39 190.5t105 142.5t152 86.5t181 30.5q206 0 337.5 -107.5t146.5 -277.5l-392 -45q-2 36 -24.5 61t-59.5 25q-34 0 -56.5 -20t-22.5 -52q0 -41 30 -65.5t113 -50.5q84 -28 140 -49.5t115.5 -51.5t96 -62.5t67.5 -76.5
t44.5 -99.5t13.5 -125.5q0 -219 -127.5 -341.5t-349.5 -140.5l-25 -47h17q120 0 200 -69.5t80 -186.5q0 -154 -94.5 -240.5t-251.5 -86.5z" />
    <glyph glyph-name="scedilla" unicode="&#x15f;" horiz-adv-x="995" 
d="M492 -655q-84 0 -166 29t-129 67l116 213q86 -51 142 -51q41 0 61.5 20t20.5 49q0 27 -16.5 43.5t-43.5 16.5q-16 0 -31 -9t-20 -16l-172 103l94 180q-135 26 -219.5 98t-97.5 191l352 59q0 -39 29 -64.5t84 -25.5q41 0 64.5 14.5t23.5 40.5t-31 38.5t-135 36.5
q-32 7 -49 11q-297 66 -297 326q0 88 37 156.5t98.5 108t133.5 59.5t151 20q158 0 277.5 -74.5t148.5 -200.5l-316 -65q-2 27 -26 47t-68 20q-34 0 -53 -16t-19 -39q0 -32 33 -46t139 -36q63 -13 105 -24.5t95.5 -36.5t84.5 -56.5t52.5 -84.5t19.5 -121q0 -87 -32.5 -154
t-89.5 -107.5t-127 -62.5t-153 -27l-24 -47h18q119 0 199 -69.5t80 -186.5q0 -154 -94 -240.5t-250 -86.5z" />
    <glyph glyph-name="Scaron" unicode="&#x160;" horiz-adv-x="1155" 
d="M571 -23q-124 0 -225.5 36t-167.5 98.5t-101.5 145.5t-35.5 179l399 31q2 -57 35.5 -90t99.5 -33q54 0 84.5 20.5t30.5 55.5q0 40 -39 60.5t-196 72.5q-190 63 -278.5 165.5t-88.5 287.5q0 139 67.5 244t174.5 156.5t235 51.5q206 0 337.5 -108.5t146.5 -278.5l-392 -45
q-2 37 -24.5 61.5t-59.5 24.5q-34 0 -56.5 -20t-22.5 -52q0 -41 30 -65.5t113 -50.5q83 -27 140 -48.5t116 -51.5t95.5 -62.5t67.5 -76.5t44.5 -99.5t13.5 -124.5q0 -237 -146.5 -360.5t-396.5 -123.5zM143 1821h334l88 -95l88 95h334l-246 -285h-352z" />
    <glyph glyph-name="scaron" unicode="&#x161;" horiz-adv-x="997" 
d="M516 -25q-128 0 -229.5 30.5t-172 101t-83.5 174.5l354 59q0 -39 29 -64.5t82 -25.5q43 0 66.5 14.5t23.5 40.5q0 25 -30 37.5t-131 35.5q-36 8 -56 13q-142 33 -219.5 110.5t-77.5 217.5q0 88 37 156.5t98.5 107.5t133.5 58.5t151 19.5q159 0 279 -74.5t149 -200.5
l-316 -65q-3 28 -27 47.5t-67 19.5q-34 0 -53 -16t-19 -39q0 -32 32.5 -46t139.5 -36q63 -13 105 -24.5t95.5 -36.5t84.5 -56.5t52.5 -84.5t19.5 -121q0 -75 -25 -135t-67 -100t-100.5 -67t-123 -39t-135.5 -12zM68 1432h333l88 -95l89 95h333l-245 -285h-353z" />
    <glyph glyph-name="uni0162" unicode="&#x162;" horiz-adv-x="1196" 
d="M629 -653q-84 0 -165 28.5t-130 67.5l119 213q80 -51 141 -51q41 0 60.5 20t19.5 49q0 26 -16 43t-42 17q-28 0 -53 -25l-170 103l99 188h-113v1032h-318v402h1074v-402h-318v-1032h-104l-35 -70q2 0 7.5 1t8.5 1q120 0 200.5 -70.5t80.5 -187.5q0 -154 -94.5 -240.5
t-251.5 -86.5z" />
    <glyph glyph-name="uni0163" unicode="&#x163;" horiz-adv-x="933" 
d="M506 -653q-85 0 -167 28.5t-128 67.5l117 211q83 -49 143 -49q40 0 60 20t20 49q0 26 -15.5 42t-41.5 16q-31 0 -54 -23l-170 103l109 208q-197 87 -197 386v284h-162v346h162v234h383v-234h252v-346h-252v-254q0 -96 84 -96q23 0 43 11t27 20l194 -244
q-54 -66 -140 -104.5t-191 -38.5l-27 -54h16q121 0 201 -69.5t80 -186.5q0 -154 -94.5 -240.5t-251.5 -86.5z" />
    <glyph glyph-name="Tcaron" unicode="&#x164;" horiz-adv-x="1196" 
d="M379 0v1032h-318v402h1074v-402h-318v-1032h-438zM176 1821h334l88 -95l88 95h334l-246 -285h-352z" />
    <glyph glyph-name="tcaron" unicode="&#x165;" horiz-adv-x="933" 
d="M578 -18q-396 0 -396 421v285h-162v348h162v232h383v-232h252v-348h-252v-254q0 -96 82 -96q24 0 43.5 11t28.5 22l194 -246q-54 -66 -142 -104.5t-193 -38.5zM668 1147l141 375h362l-192 -375h-311z" />
    <glyph glyph-name="Tbar" unicode="&#x166;" horiz-adv-x="1196" 
d="M379 0v586h-180v293h180v153h-318v402h1074v-402h-318v-153h180v-293h-180v-586h-438z" />
    <glyph glyph-name="tbar" unicode="&#x167;" horiz-adv-x="933" 
d="M578 -16q-394 0 -394 424v26h-118v201h118v57h-164v346h164v232h381v-232h254v-346h-254v-57h170v-201h-168q0 -92 82 -92q41 0 72 31l192 -246q-54 -66 -141.5 -104.5t-193.5 -38.5z" />
    <glyph glyph-name="utilde" unicode="&#x169;" horiz-adv-x="1265" 
d="M522 -25q-110 0 -196 41.5t-138 113t-79 161.5t-27 192v555h381v-520q0 -70 46 -124t122 -54q75 0 122.5 52t47.5 130v516h383v-1038h-383v72q-115 -97 -279 -97zM195 1221q10 67 38.5 127t84 104.5t126.5 44.5q57 0 119.5 -26t116 -52t88.5 -26q61 0 76 77l229 -88
q-13 -73 -43 -131.5t-86 -99.5t-129 -41q-50 0 -100.5 16t-84 36t-69.5 36t-59 16q-61 0 -78 -81z" />
    <glyph glyph-name="Umacron" unicode="&#x16a;" horiz-adv-x="1445" 
d="M723 -23q-147 0 -262.5 36.5t-201 112.5t-131.5 200t-46 290v818h438v-799q0 -112 54 -168.5t149 -56.5q94 0 148.5 56.5t54.5 168.5v799h438v-818q0 -166 -46 -290t-131.5 -200t-201 -112.5t-262.5 -36.5zM446 1532v291h555v-291h-555z" />
    <glyph glyph-name="umacron" unicode="&#x16b;" horiz-adv-x="1265" 
d="M522 -25q-110 0 -196 41.5t-138 113t-79 161.5t-27 192v555h381v-520q0 -70 46 -124t122 -54q75 0 122.5 52t47.5 130v516h383v-1038h-383v72q-115 -97 -279 -97zM356 1143v291h555v-291h-555z" />
    <glyph glyph-name="ubreve" unicode="&#x16d;" horiz-adv-x="1265" 
d="M522 -25q-110 0 -196 41.5t-138 113t-79 161.5t-27 192v555h381v-520q0 -70 46 -124t122 -54q75 0 122.5 52t47.5 130v516h383v-1038h-383v72q-115 -97 -279 -97zM231 1495h291q0 -49 29 -82t82 -33q52 0 81 33.5t29 81.5h291q0 -114 -57.5 -198.5t-147 -125.5
t-196.5 -41q-167 0 -284.5 98t-117.5 267z" />
    <glyph glyph-name="Uring" unicode="&#x16e;" horiz-adv-x="1445" 
d="M723 -23q-147 0 -262.5 36.5t-201 112.5t-131.5 200t-46 290v818h438v-799q0 -112 54 -168.5t149 -56.5q94 0 148.5 56.5t54.5 168.5v799h438v-818q0 -166 -46 -290t-131.5 -200t-201 -112.5t-262.5 -36.5zM455 1751q0 110 79 188t189 78t189 -78t79 -188
q0 -112 -78.5 -190t-189.5 -78t-189.5 78t-78.5 190zM655 1751q0 -29 20 -48.5t48 -19.5t48 19.5t20 48.5q0 28 -20 48t-48 20t-48 -20t-20 -48z" />
    <glyph glyph-name="uring" unicode="&#x16f;" horiz-adv-x="1265" 
d="M522 -25q-110 0 -196 41.5t-138 113t-79 161.5t-27 192v555h381v-520q0 -70 46 -124t122 -54q75 0 122.5 52t47.5 130v516h383v-1038h-383v72q-115 -97 -279 -97zM365 1384q0 110 79 188.5t189 78.5t189 -78.5t79 -188.5q0 -112 -78.5 -190t-189.5 -78t-189.5 78
t-78.5 190zM565 1384q0 -29 20 -48t48 -19t47.5 19t19.5 48q0 28 -19.5 48t-47.5 20t-48 -20t-20 -48z" />
    <glyph glyph-name="Uhungarumlaut" unicode="&#x170;" horiz-adv-x="1445" 
d="M723 -23q-147 0 -262.5 36.5t-201 112.5t-131.5 200t-46 290v818h438v-799q0 -112 54 -168.5t149 -56.5q94 0 148.5 56.5t54.5 168.5v799h438v-818q0 -166 -46 -290t-131.5 -200t-201 -112.5t-262.5 -36.5zM307 1536l133 283h379l-213 -283h-299zM739 1536l135 283h379
l-213 -283h-301z" />
    <glyph glyph-name="uhungarumlaut" unicode="&#x171;" horiz-adv-x="1265" 
d="M522 -25q-110 0 -196 41.5t-138 113t-79 161.5t-27 192v555h381v-520q0 -70 46 -124t122 -54q75 0 122.5 52t47.5 130v516h383v-1038h-383v72q-115 -97 -279 -97zM236 1147l133 283h379l-213 -283h-299zM668 1147l135 283h379l-213 -283h-301z" />
    <glyph glyph-name="Uogonek" unicode="&#x172;" horiz-adv-x="1443" 
d="M1051 -616q-66 -17 -136.5 -18.5t-138 15.5t-121.5 51t-87 93.5t-33 136.5q0 169 188 313q-147 0 -262.5 37t-201 113t-131.5 200.5t-46 290.5v818h438v-799q0 -112 54 -168.5t149 -56.5q94 0 148.5 56.5t54.5 168.5v799h436v-818q0 -434 -307 -577
q-66 -41 -125.5 -109.5t-59.5 -128.5q0 -41 19.5 -67t48 -33.5t59.5 -10t54 4.5v-311z" />
    <glyph glyph-name="uogonek" unicode="&#x173;" horiz-adv-x="1265" 
d="M1221 -616q-66 -17 -137 -18.5t-139.5 15.5t-122.5 51t-87 93.5t-33 136.5q0 180 220 338h-119v72q-115 -97 -281 -97q-109 0 -195 41.5t-138.5 113t-79.5 161t-27 190.5v557h383v-520q0 -70 46 -124t122 -54q75 0 122.5 52t47.5 130v516h383v-1038q-68 -50 -107 -96
t-39 -103q0 -41 19.5 -67t48 -33.5t59.5 -10t54 4.5v-311z" />
    <glyph glyph-name="Wcircumflex" unicode="&#x174;" horiz-adv-x="2279" 
d="M473 0l-473 1434h467l244 -842l256 842h346l256 -842l243 842h467l-473 -1434h-434l-231 770l-234 -770h-434zM717 1536l244 285h354l246 -285h-336l-86 94l-88 -94h-334z" />
    <glyph glyph-name="wcircumflex" unicode="&#x175;" horiz-adv-x="1865" 
d="M399 0l-399 1038h414l194 -524l172 524h303l174 -524l193 524h416l-400 -1038h-379l-155 467l-154 -467h-379zM510 1147l244 285h354l246 -285h-336l-86 94l-88 -94h-334z" />
    <glyph glyph-name="Ycircumflex" unicode="&#x176;" horiz-adv-x="1521" 
d="M543 0v608l-543 826h498l262 -447l264 447h498l-543 -826v-608h-436zM338 1536l244 285h354l246 -285h-336l-86 94l-88 -94h-334z" />
    <glyph glyph-name="ycircumflex" unicode="&#x177;" horiz-adv-x="1234" 
d="M190 -487l222 542l-412 983h420l192 -497l203 497h420l-639 -1525h-406zM195 1147l243 285h355l245 -285h-336l-86 94l-88 -94h-333z" />
    <glyph glyph-name="Ydieresis" unicode="&#x178;" horiz-adv-x="1521" 
d="M543 0v608l-543 826h498l262 -447l264 447h498l-543 -826v-608h-436zM354 1724q0 74 51.5 125.5t124.5 51.5q74 0 125.5 -51.5t51.5 -125.5q0 -73 -51.5 -124.5t-125.5 -51.5t-125 51t-51 125zM811 1724q0 73 52 125t126 52q72 0 124 -52t52 -125t-52 -124.5t-124 -51.5
q-74 0 -126 51.5t-52 124.5z" />
    <glyph glyph-name="Zacute" unicode="&#x179;" horiz-adv-x="1255" 
d="M82 0v346l504 686h-486v402h1018v-347l-502 -686h558v-401h-1092zM430 1536l133 283h379l-213 -283h-299z" />
    <glyph glyph-name="zacute" unicode="&#x17a;" horiz-adv-x="1073" 
d="M61 0v328l398 364h-361v346h877v-329l-397 -363h434v-346h-951zM350 1147l133 283h379l-213 -283h-299z" />
    <glyph glyph-name="Zdotaccent" unicode="&#x17b;" horiz-adv-x="1255" 
d="M82 0v346l504 686h-486v402h1018v-347l-502 -686h558v-401h-1092zM430 1724q0 73 52 125t126 52q72 0 124 -52t52 -125t-52 -124.5t-124 -51.5q-74 0 -126 51.5t-52 124.5z" />
    <glyph glyph-name="zdotaccent" unicode="&#x17c;" horiz-adv-x="1073" 
d="M61 0v328l398 364h-361v346h877v-329l-397 -363h434v-346h-951zM360 1315q0 73 52.5 124.5t126.5 51.5q72 0 124 -51.5t52 -124.5t-52 -124.5t-124 -51.5q-74 0 -126.5 51.5t-52.5 124.5z" />
    <glyph glyph-name="Zcaron" unicode="&#x17d;" horiz-adv-x="1255" 
d="M82 0v346l504 686h-486v402h1018v-347l-502 -686h558v-401h-1092zM186 1821h334l88 -95l88 95h334l-246 -285h-352z" />
    <glyph glyph-name="zcaron" unicode="&#x17e;" horiz-adv-x="1073" 
d="M61 0v328l398 364h-361v346h877v-329l-397 -363h434v-346h-951zM115 1432h334l88 -95l88 95h333l-245 -285h-353z" />
    <glyph glyph-name="gcaron" unicode="&#x1e7;" horiz-adv-x="1275" 
d="M612 -487q-183 0 -330 78t-204 196l289 166q22 -35 80.5 -71t146.5 -36q62 0 106.5 18.5t67.5 50.5t33 66.5t10 73.5v8q-106 -69 -242 -69q-229 0 -378.5 148t-149.5 376q0 152 68 276t189 195.5t271 71.5q133 0 242 -74v49h383v-981q0 -260 -158 -401t-424 -141z
M225 1432h334l88 -95l88 95h334l-246 -285h-352zM424 518q0 -71 51 -121.5t123 -50.5q70 0 121 51t51 121q0 72 -50.5 122t-121.5 50q-72 0 -123 -50t-51 -122z" />
    <glyph glyph-name="uni0218" unicode="&#x218;" horiz-adv-x="1155" 
d="M571 -23q-124 0 -225.5 36t-167.5 98.5t-101.5 145.5t-35.5 179l399 31q2 -57 35.5 -90t99.5 -33q54 0 84.5 20.5t30.5 55.5q0 40 -39 60.5t-196 72.5q-190 63 -278.5 165.5t-88.5 287.5q0 139 67.5 244t174.5 156.5t235 51.5q206 0 337.5 -108.5t146.5 -278.5l-392 -45
q-2 37 -24.5 61.5t-59.5 24.5q-34 0 -56.5 -20t-22.5 -52q0 -41 30 -65.5t113 -50.5q83 -27 140 -48.5t116 -51.5t95.5 -62.5t67.5 -76.5t44.5 -99.5t13.5 -124.5q0 -237 -146.5 -360.5t-396.5 -123.5zM246 -489l141 374h363l-193 -374h-311z" />
    <glyph glyph-name="uni0219" unicode="&#x219;" horiz-adv-x="997" 
d="M516 -25q-128 0 -229.5 30.5t-172 101t-83.5 174.5l354 59q0 -39 29 -64.5t82 -25.5q43 0 66.5 14.5t23.5 40.5q0 25 -30 37.5t-131 35.5q-36 8 -56 13q-142 33 -219.5 110.5t-77.5 217.5q0 88 37 156.5t98.5 107.5t133.5 58.5t151 19.5q159 0 279 -74.5t149 -200.5
l-316 -65q-3 28 -27 47.5t-67 19.5q-34 0 -53 -16t-19 -39q0 -32 32.5 -46t139.5 -36q63 -13 105 -24.5t95.5 -36.5t84.5 -56.5t52.5 -84.5t19.5 -121q0 -75 -25 -135t-67 -100t-100.5 -67t-123 -39t-135.5 -12zM164 -489l141 374h363l-193 -374h-311z" />
    <glyph glyph-name="uni021A" unicode="&#x21a;" horiz-adv-x="1196" 
d="M379 0v1032h-318v402h1074v-402h-318v-1032h-438zM270 -489l142 374h362l-192 -374h-312z" />
    <glyph glyph-name="uni021B" unicode="&#x21b;" horiz-adv-x="933" 
d="M578 -16q-396 0 -396 422v286h-162v346h162v232h383v-232h252v-346h-252v-254q0 -98 84 -98q23 0 43.5 11.5t26.5 21.5l194 -246q-54 -66 -141.5 -104.5t-193.5 -38.5zM205 -489l141 374h363l-193 -374h-311z" />
    <glyph glyph-name="uni0237" unicode="&#x237;" horiz-adv-x="532" 
d="M-41 -98q71 0 100 36t29 115v983h383v-999q0 -268 -120 -396t-392 -128v389z" />
    <glyph glyph-name="gravecomb" unicode="&#x300;" 
d="M315 1536l-213 283h377l135 -283h-299z" />
    <glyph glyph-name="acutecomb" unicode="&#x301;" 
d="M102 1536l134 283h378l-213 -283h-299z" />
    <glyph glyph-name="uni0302" unicode="&#x302;" 
d="M102 1536l244 285h354l246 -285h-336l-86 94l-88 -94h-334z" />
    <glyph glyph-name="tildecomb" unicode="&#x303;" 
d="M723 1485q-50 0 -100.5 16.5t-84 35.5t-69.5 35.5t-59 16.5q-61 0 -78 -82l-230 88q10 67 38.5 127t84.5 105t127 45q57 0 119.5 -26t116 -52.5t88.5 -26.5q60 0 76 78l229 -88q-13 -73 -43 -131.5t-86 -99.5t-129 -41z" />
    <glyph glyph-name="uni0304" unicode="&#x304;" 
d="M102 1532v291h555v-291h-555z" />
    <glyph glyph-name="uni0306" unicode="&#x306;" 
d="M504 1499q-167 0 -284.5 98t-117.5 267h291q0 -49 29 -82t82 -33q52 0 81 33.5t29 81.5h291q0 -114 -57.5 -198.5t-147 -125.5t-196.5 -41z" />
    <glyph glyph-name="uni0307" unicode="&#x307;" 
d="M281 1548q-74 0 -126.5 51.5t-52.5 124.5t52.5 125t126.5 52q72 0 124 -52t52 -125t-52 -124.5t-124 -51.5z" />
    <glyph glyph-name="uni0308" unicode="&#x308;" 
d="M737 1548q-74 0 -126 51.5t-52 124.5t52 125t126 52q72 0 124 -52t52 -125t-52 -124.5t-124 -51.5zM102 1724q0 74 52 125.5t125 51.5t124.5 -51.5t51.5 -125.5t-51.5 -125t-124.5 -51q-74 0 -125.5 51.5t-51.5 124.5z" />
    <glyph glyph-name="uni030A" unicode="&#x30a;" 
d="M371 1483q-111 0 -190 78t-79 190q0 110 79 188t190 78q110 0 189 -78t79 -188q0 -112 -78.5 -190t-189.5 -78zM303 1751q0 -29 20 -48.5t48 -19.5t47.5 19.5t19.5 48.5q0 28 -19.5 48t-47.5 20t-48 -20t-20 -48z" />
    <glyph glyph-name="uni030B" unicode="&#x30b;" 
d="M535 1536l135 283h379l-213 -283h-301zM102 1536l134 283h378l-213 -283h-299z" />
    <glyph glyph-name="uni030C" unicode="&#x30c;" 
d="M348 1536l-246 285h334l88 -95l88 95h334l-246 -285h-352z" />
    <glyph glyph-name="uni0326" unicode="&#x326;" 
d="M102 -489l142 374h362l-192 -374h-312z" />
    <glyph glyph-name="uni0327" unicode="&#x327;" 
d="M397 -653q-83 0 -165 28.5t-130 67.5l119 213q80 -51 141 -51q41 0 61.5 20t20.5 49q0 27 -16 43.5t-43 16.5q-28 0 -53 -25l-170 103l98 188h221l-35 -70h17q120 0 200 -69.5t80 -186.5q0 -154 -94.5 -240.5t-251.5 -86.5z" />
    <glyph glyph-name="uni0328" unicode="&#x328;" 
d="M621 -616q-66 -17 -137 -18.5t-139.5 15.5t-122.5 51t-87 93.5t-33 136.5q0 178 222 338h262q-68 -50 -107 -96t-39 -103q0 -41 19.5 -67t48 -33.5t59.5 -10t54 4.5v-311z" />
    <glyph glyph-name="Wgrave" unicode="&#x1e80;" horiz-adv-x="2279" 
d="M473 0l-473 1434h467l244 -842l256 842h346l256 -842l243 842h467l-473 -1434h-434l-231 770l-234 -770h-434zM778 1819h377l135 -283h-299z" />
    <glyph glyph-name="wgrave" unicode="&#x1e81;" horiz-adv-x="1865" 
d="M399 0l-399 1038h414l194 -524l172 524h303l174 -524l193 524h416l-400 -1038h-379l-155 467l-154 -467h-379zM565 1430h377l135 -283h-299z" />
    <glyph glyph-name="Wacute" unicode="&#x1e82;" horiz-adv-x="2279" 
d="M473 0l-473 1434h467l244 -842l256 842h346l256 -842l243 842h467l-473 -1434h-434l-231 770l-234 -770h-434zM987 1536l133 283h379l-213 -283h-299z" />
    <glyph glyph-name="wacute" unicode="&#x1e83;" horiz-adv-x="1865" 
d="M399 0l-399 1038h414l194 -524l172 524h303l174 -524l193 524h416l-400 -1038h-379l-155 467l-154 -467h-379zM782 1147l133 283h379l-213 -283h-299z" />
    <glyph glyph-name="Wdieresis" unicode="&#x1e84;" horiz-adv-x="2279" 
d="M473 0l-473 1434h467l244 -842l256 842h346l256 -842l243 842h467l-473 -1434h-434l-231 770l-234 -770h-434zM733 1724q0 74 51.5 125.5t124.5 51.5t124.5 -51.5t51.5 -125.5t-51.5 -125t-124.5 -51t-124.5 51t-51.5 125zM1190 1724q0 73 52 125t126 52q72 0 124 -52
t52 -125t-52 -124.5t-124 -51.5q-74 0 -126 51.5t-52 124.5z" />
    <glyph glyph-name="wdieresis" unicode="&#x1e85;" horiz-adv-x="1865" 
d="M399 0l-399 1038h414l194 -524l172 524h303l174 -524l193 524h416l-400 -1038h-379l-155 467l-154 -467h-379zM526 1315q0 73 51 124.5t125 51.5t125.5 -51.5t51.5 -124.5t-51.5 -124.5t-125.5 -51.5t-125 51.5t-51 124.5zM983 1315q0 73 52 124.5t126 51.5
q72 0 124 -51.5t52 -124.5t-52 -124.5t-124 -51.5q-74 0 -126 51.5t-52 124.5z" />
    <glyph glyph-name="uni1E9E" unicode="&#x1e9e;" horiz-adv-x="1327" 
d="M1028 836q120 -41 189 -131t69 -224q0 -129 -45.5 -225t-125.5 -150.5t-175.5 -80t-208.5 -25.5h-69v346h43q69 0 113 32t44 93t-44 93t-113 32h-43v242l141 231h-168q-50 0 -83.5 -38t-33.5 -107v-924h-436v924q0 118 31.5 209t82.5 147t124 91.5t147 49t160 13.5h544
v-365z" />
    <glyph glyph-name="uni1EBD" unicode="&#x1ebd;" horiz-adv-x="1198" 
d="M625 -25q-264 0 -424 154.5t-160 388.5q0 151 75 276t202 196t278 71q114 0 222 -47t189 -129t122 -207t22 -268h-737q62 -119 211 -119q70 0 122 25.5t80 62.5l285 -131q-64 -122 -192.5 -197.5t-294.5 -75.5zM160 1221q7 49 26 95.5t49 88t75.5 67t99.5 25.5
q57 0 119.5 -26t115.5 -52t88 -26q61 0 76 77l229 -88q-13 -73 -43 -131.5t-86 -99.5t-129 -41q-50 0 -100.5 16t-84 36t-69.5 36t-59 16q-61 0 -78 -81zM416 627h372q-26 54 -75.5 86t-116.5 32q-61 0 -107.5 -32.5t-72.5 -85.5z" />
    <glyph glyph-name="Ygrave" unicode="&#x1ef2;" horiz-adv-x="1521" 
d="M543 0v608l-543 826h498l262 -447l264 447h498l-543 -826v-608h-436zM410 1819h376l136 -283h-299z" />
    <glyph glyph-name="ygrave" unicode="&#x1ef3;" horiz-adv-x="1234" 
d="M190 -487l222 542l-412 983h420l192 -497l203 497h420l-639 -1525h-406zM256 1430h377l135 -283h-299z" />
    <glyph glyph-name="uni1EF9" unicode="&#x1ef9;" horiz-adv-x="1234" 
d="M190 -487l222 542l-412 983h420l192 -497l203 497h420l-639 -1525h-406zM178 1221q7 49 26 95.5t49 88t75.5 67t99.5 25.5q57 0 119.5 -26t116 -52t88.5 -26q60 0 75 77l230 -88q-13 -73 -43 -131.5t-86 -99.5t-129 -41q-63 0 -126 26t-111.5 52t-76.5 26q-21 0 -36 -8
t-23 -22.5t-11.5 -25t-6.5 -25.5z" />
    <glyph glyph-name="endash" unicode="&#x2013;" horiz-adv-x="1275" 
d="M143 410v401h990v-401h-990z" />
    <glyph glyph-name="emdash" unicode="&#x2014;" horiz-adv-x="1458" 
d="M143 410v401h1172v-401h-1172z" />
    <glyph glyph-name="quoteleft" unicode="&#x2018;" horiz-adv-x="643" 
d="M61 1040l228 394h313l-160 -394h-381z" />
    <glyph glyph-name="quoteright" unicode="&#x2019;" horiz-adv-x="643" 
d="M41 1040l160 394h381l-228 -394h-313z" />
    <glyph glyph-name="quotesinglbase" unicode="&#x201a;" horiz-adv-x="518" 
d="M-61 -276l157 393h381l-227 -393h-311z" />
    <glyph glyph-name="quotedblleft" unicode="&#x201c;" horiz-adv-x="1079" 
d="M498 1040l227 394h313l-159 -394h-381zM61 1040l228 394h313l-160 -394h-381z" />
    <glyph glyph-name="quotedblright" unicode="&#x201d;" horiz-adv-x="1079" 
d="M477 1040l160 394h381l-227 -394h-314zM41 1040l160 394h381l-228 -394h-313z" />
    <glyph glyph-name="quotedblbase" unicode="&#x201e;" horiz-adv-x="974" 
d="M375 -276l157 393h381l-227 -393h-311zM-61 -276l157 393h381l-227 -393h-311z" />
    <glyph glyph-name="dagger" unicode="&#x2020;" horiz-adv-x="970" 
d="M276 0v784h-194v402h194v248h418v-248h195v-402h-195v-784h-418z" />
    <glyph glyph-name="daggerdbl" unicode="&#x2021;" horiz-adv-x="970" 
d="M276 0v248h-194v401h194v135h-194v402h194v248h418v-248h195v-402h-195v-135h195v-401h-195v-248h-418z" />
    <glyph glyph-name="bullet" unicode="&#x2022;" horiz-adv-x="733" 
d="M367 236q-117 0 -201 83t-84 201t84 201.5t201 83.5q118 0 201 -83t83 -202q0 -118 -82.5 -201t-201.5 -83z" />
    <glyph glyph-name="perthousand" unicode="&#x2030;" horiz-adv-x="2580" 
d="M227 0l983 1434h312l-983 -1434h-312zM61 1098q0 155 110 265t265 110t266 -110t111 -265t-111 -265t-266 -110t-265 110t-110 265zM336 1098q0 -41 29.5 -71t70.5 -30q43 0 73 30t30 71q0 43 -30 72.5t-73 29.5q-41 0 -70.5 -29.5t-29.5 -72.5zM936 334q0 155 110 266
t265 111t266 -111t111 -266t-111 -265t-266 -110t-265 110t-110 265zM1210 334q0 -41 30 -71t71 -30q43 0 72.5 29.5t29.5 71.5q0 43 -29.5 72.5t-72.5 29.5q-41 0 -71 -30t-30 -72zM1767 334q0 155 110 266t265 111t266 -111t111 -266t-111 -265t-266 -110t-265 110
t-110 265zM2042 334q0 -41 29.5 -71t70.5 -30q43 0 73 30t30 71q0 43 -30 72.5t-73 29.5q-41 0 -70.5 -29.5t-29.5 -72.5z" />
    <glyph glyph-name="guilsinglleft" unicode="&#x2039;" horiz-adv-x="796" 
d="M346 217l-285 393l285 394h389l-284 -394l284 -393h-389z" />
    <glyph glyph-name="guilsinglright" unicode="&#x203a;" horiz-adv-x="796" 
d="M61 217l285 393l-285 394h390l284 -394l-284 -393h-390z" />
    <glyph glyph-name="Euro" unicode="&#x20ac;" horiz-adv-x="1595" 
d="M909 -23q-252 0 -449 149t-265 384h-195v182h166q-2 8 -2 25q0 16 2 24h-166v183h195q68 235 265 384.5t449 149.5q189 0 351.5 -87.5t265.5 -237.5l-363 -244q-42 62 -109.5 98.5t-144.5 36.5q-134 0 -227 -100h381v-183h-459q-2 -8 -2 -24q0 -17 2 -25h459v-182h-381
q93 -100 227 -100q82 0 151 40t111 109l363 -246q-101 -155 -267 -245.5t-358 -90.5z" />
    <glyph glyph-name="uni20BD" unicode="&#x20bd;" horiz-adv-x="1273" 
d="M109 0v180h-107v182h107v56h-109v383h109v633h540q166 0 297 -58t209 -174.5t78 -275.5t-78 -275.5t-209 -174.5t-297 -58h-102v-56h371v-182h-371v-180h-438zM547 801h102q64 0 101.5 34t37.5 91t-37.5 91t-101.5 34h-102v-250z" />
    <glyph glyph-name="uni20BF" unicode="&#x20bf;" horiz-adv-x="1255" 
d="M272 -252v252h-190v1434h190v252h238v-252h88h16v252h236v-285q142 -41 222.5 -131.5t80.5 -235.5q0 -171 -109 -272q170 -116 170 -318q0 -178 -98.5 -280.5t-265.5 -140.5v-275h-236v252h-104v-252h-238zM520 346h105q74 0 109.5 32t35.5 85t-36.5 85t-108.5 32h-105
v-234zM520 891h78q72 0 102.5 24.5t30.5 73.5q0 98 -133 98h-78v-196z" />
    <glyph glyph-name="uni2116" unicode="&#x2116;" horiz-adv-x="2344" 
d="M82 0v1434h479l447 -756v756h438v-1434h-481l-447 756v-756h-436zM1534 981q0 155 110 265t265 110t265 -110t110 -265t-110 -265t-265 -110t-265 110t-110 265zM1573 264v275h670v-275h-670zM1806 981q0 -41 30 -71.5t73 -30.5q41 0 70.5 30.5t29.5 71.5t-29.5 71.5
t-70.5 30.5q-43 0 -73 -30.5t-30 -71.5z" />
    <glyph glyph-name="minus" unicode="&#x2212;" horiz-adv-x="1093" 
d="M143 410v401h807v-401h-807z" />
    <glyph glyph-name="approxequal" unicode="&#x2248;" horiz-adv-x="1308" 
d="M874 59q-27 0 -50.5 2.5t-47 10.5t-37.5 12.5t-36.5 19t-29.5 18.5t-31.5 22t-27.5 20q-91 72 -157 72q-80 0 -113 -117l-283 102q16 66 43 129t69.5 126.5t106 102.5t138.5 39q50 0 93 -8.5t82.5 -28t60 -32.5t57.5 -39q35 -23 53.5 -34t49 -22.5t56.5 -11.5
q38 0 68.5 28.5t44.5 84.5l264 -84q-22 -109 -71.5 -200.5t-129 -151.5t-172.5 -60zM61 737q16 80 49 152.5t80 130.5t110 92.5t134 34.5q27 0 50.5 -2.5t47 -10.5t37.5 -12.5t36.5 -19t29.5 -18.5t31.5 -22t27.5 -20q93 -69 158 -69q46 0 73.5 35t39.5 79l282 -102
q-12 -51 -30.5 -101.5t-50 -105t-69.5 -95t-91.5 -67t-114.5 -26.5q-65 0 -125 18.5t-90 36.5t-78 51q-99 68 -160 68q-38 0 -68 -28.5t-44 -84.5z" />
    <glyph glyph-name="notequal" unicode="&#x2260;" horiz-adv-x="1083" 
d="M145 88l64 123h-107v346h291l58 107h-349v346h531l65 123h240l-66 -123h109v-346h-291l-57 -107h348v-346h-530l-66 -123h-240z" />
    <glyph glyph-name="lessequal" unicode="&#x2264;" horiz-adv-x="972" 
d="M102 0v328h715l-715 266v303l768 287v-328l-352 -108l352 -113v-635h-768z" />
    <glyph glyph-name="greaterequal" unicode="&#x2265;" horiz-adv-x="972" 
d="M102 0v635l353 113l-353 108v328l768 -287v-303l-714 -266h714v-328h-768z" />
    <glyph glyph-name="uniE000" unicode="&#xe000;" horiz-adv-x="1214" 
d="M567 346q80 -8 133.5 22t53.5 97q0 117 -172 117h-15v333q54 0 90.5 27t36.5 82q0 48 -31.5 76t-80.5 28q-52 0 -84.5 -37.5t-32.5 -107.5v-983h-383v983q0 117 42.5 210.5t113.5 149t156 84.5t177 29q209 0 340 -115.5t131 -281.5q0 -184 -120 -273q107 -52 169 -142
t62 -216q0 -87 -22.5 -159.5t-62.5 -123t-95 -88t-120 -55.5t-138 -24.5t-148 4.5v364z" />
    <glyph glyph-name="uni004A0301" horiz-adv-x="1122" 
d="M532 -23q-219 0 -366 108.5t-166 285.5l397 114q5 -38 33 -64t72 -26q100 0 100 129v910h438v-910q0 -547 -508 -547zM674 1536l133 283h379l-213 -283h-299z" />
    <glyph glyph-name="i.loclTRK" horiz-adv-x="555" 
d="M86 0v1036h383v-1036h-383zM100 1315q0 73 52.5 124.5t126.5 51.5q72 0 124 -51.5t52 -124.5t-52 -124.5t-124 -51.5q-74 0 -126.5 51.5t-52.5 124.5z" />
    <glyph glyph-name="uni006A0301" horiz-adv-x="532" 
d="M-41 -98q71 0 100 36t29 115v983h383v-999q0 -268 -120 -396t-392 -128v389zM129 1147l133 283h379l-213 -283h-299z" />
    </font>
</defs>
</svg>
