<?xml version="1.0" standalone="no"?>
<!DOCTYPE svg PUBLIC "-//W3C//DTD SVG 1.1//EN" "http://www.w3.org/Graphics/SVG/1.1/DTD/svg11.dtd" >
<svg xmlns="http://www.w3.org/2000/svg" xmlns:xlink="http://www.w3.org/1999/xlink" version="1.1">
<metadata>
Created by FontForge 20201107 at Mon Aug  5 13:02:25 2024
 By 
copyright missing
</metadata>
<defs>
<font id="MADEOkineSansPERSONALUSE-Bold" horiz-adv-x="1275" >
  <font-face 
    font-family="MADE Okine Sans PERSONAL USE"
    font-weight="700"
    font-stretch="normal"
    units-per-em="2048"
    panose-1="0 0 0 0 0 0 0 0 0 0"
    ascent="1638"
    descent="-410"
    x-height="1038"
    cap-height="1434"
    bbox="-143 -676 2497 2028"
    underline-thickness="102"
    underline-position="-255"
    unicode-range="U+0020-E000"
  />
<missing-glyph horiz-adv-x="1351" 
d="M1108 2028v-2704h-856v2704h856zM451 -489h450v90h-276l188 127h88v88h-450v-88h190l-190 -127v-90zM451 -121h450v305h-450v-305zM451 346h450v305h-270v-151h90v63h90v-127h-270v215h-90v-305zM451 711h450v270h-90v-178h-360v-92zM451 864h270v191h180v88h-450v-88
h180v-101h-180v-90zM451 1217h450v92h-180v188h-270v-280zM451 1569h450v88h-180v100h180v90h-446v-90h176v-100h-180v-88zM541 -33v127h270v-127h-270zM541 1309v96h90v-96h-90z" />
    <glyph glyph-name="f_f.liga" unicode="ff" horiz-adv-x="1617" 
d="M207 0v745h-166v293h166v101q0 96 21 171t65.5 131.5t118.5 87t174 30.5q137 0 270 -97l-133 -262q-49 49 -98 49q-44 0 -67 -30.5t-23 -79.5v-101h360v101q0 196 92 308t287 112q92 0 182 -43.5t141 -100.5l-186 -217q-41 51 -98 51q-44 0 -67 -30.5t-23 -79.5v-101h286
v-293h-286v-745h-328v745h-360v-745h-328z" />
    <glyph glyph-name="f_f_i.liga" unicode="ffi" horiz-adv-x="2007" 
d="M205 0v745h-164v293h164v101q0 95 21.5 170.5t66 132t119 87t174.5 30.5q135 0 268 -97l-133 -262q-49 49 -98 49q-43 0 -67 -30.5t-24 -79.5v-101h361v101q0 95 21.5 170.5t66 132t119 87t174.5 30.5q125 0 252 -84l-129 -263q-42 37 -86 37q-43 0 -66.5 -30.5
t-23.5 -79.5v-101h688v-1038h-328v745h-360v-745h-328v745h-361v-745h-327zM1567 1341q0 74 52.5 127.5t125.5 53.5q75 0 127.5 -53.5t52.5 -127.5q0 -75 -52.5 -127.5t-127.5 -52.5q-74 0 -126 52.5t-52 127.5z" />
    <glyph glyph-name="f_i.liga" unicode="fi" horiz-adv-x="1318" 
d="M205 0v745h-164v293h164v101q0 95 21.5 170.5t66 132t119 87t174.5 30.5q125 0 252 -84l-129 -263q-37 37 -84 37q-44 0 -67 -30.5t-23 -79.5v-101h688v-1038h-328v745h-360v-745h-330zM879 1341q0 74 52.5 127.5t127.5 53.5q73 0 125.5 -53.5t52.5 -127.5
q0 -75 -52 -127.5t-126 -52.5q-75 0 -127.5 52.5t-52.5 127.5z" />
    <glyph glyph-name="f_l.liga" unicode="fl" horiz-adv-x="1331" 
d="M205 0v745h-164v293h164v27q0 211 144.5 352.5t363.5 141.5q124 0 225 -39t166 -105t100 -152t35 -182v-1081h-328v1034q0 94 -47.5 154.5t-148.5 60.5q-82 0 -132.5 -56.5t-50.5 -127.5v-27h287v-293h-287v-745h-327z" />
    <glyph glyph-name="f_t.liga" unicode="ft" horiz-adv-x="1638" 
d="M1274 -16q-202 0 -290.5 103t-88.5 300v358h-360v-745h-328v745h-166v293h166v101q0 96 21 171t65.5 131.5t118.5 87t174 30.5q92 0 182 -43.5t141 -100.5l-186 -217q-41 51 -98 51q-44 0 -67 -30.5t-23 -79.5v-101h360v232h328v-232h278v-293h-278v-358q0 -46 25 -70
t65 -24q57 0 98 51l186 -217q-51 -63 -135.5 -103t-187.5 -40z" />
    <glyph glyph-name=".notdef" horiz-adv-x="1351" 
d="M1108 2028v-2704h-856v2704h856zM451 -489h450v90h-276l188 127h88v88h-450v-88h190l-190 -127v-90zM451 -121h450v305h-450v-305zM451 346h450v305h-270v-151h90v63h90v-127h-270v215h-90v-305zM451 711h450v270h-90v-178h-360v-92zM451 864h270v191h180v88h-450v-88
h180v-101h-180v-90zM451 1217h450v92h-180v188h-270v-280zM451 1569h450v88h-180v100h180v90h-446v-90h176v-100h-180v-88zM541 -33v127h270v-127h-270zM541 1309v96h90v-96h-90z" />
    <glyph glyph-name=".null" horiz-adv-x="0" 
 />
    <glyph glyph-name="nonmarkingreturn" horiz-adv-x="682" 
 />
    <glyph glyph-name="space" unicode=" " horiz-adv-x="481" 
 />
    <glyph glyph-name="space" unicode="&#xa0;" horiz-adv-x="481" 
 />
    <glyph glyph-name="exclam" unicode="!" horiz-adv-x="659" 
d="M193 465l-37 969h346l-37 -969h-272zM143 164q0 77 54.5 131.5t132.5 54.5q76 0 131 -55t55 -131q0 -78 -54.5 -132.5t-131.5 -54.5q-78 0 -132.5 54.5t-54.5 132.5z" />
    <glyph glyph-name="quotedbl" unicode="&#x22;" horiz-adv-x="907" 
d="M530 946v488h275v-488h-275zM102 946v488h273v-488h-273z" />
    <glyph glyph-name="numbersign" unicode="#" horiz-adv-x="1402" 
d="M184 96l68 271h-170v256h233l45 186h-206v256h270l68 270h258l-68 -270h211l68 270h258l-68 -270h170v-256h-234l-45 -186h207v-256h-270l-68 -271h-258l68 271h-213l-66 -271h-258zM571 623h213l47 186h-213z" />
    <glyph glyph-name="dollar" unicode="$" horiz-adv-x="1142" 
d="M485 -18q-187 26 -298 146.5t-105 287.5l326 33q2 -67 42.5 -114.5t129.5 -47.5q70 0 109.5 35.5t39.5 85.5q0 53 -44 82t-171 77q-36 14 -55 21q-164 64 -247 168.5t-83 265.5q0 160 100 279t256 147v238h201v-242q137 -31 227 -126t103 -228l-318 -46q-3 43 -36 74
t-84 31q-53 0 -84 -31.5t-31 -75.5q0 -55 39 -89t139 -68q52 -18 88.5 -31.5t86 -37t83.5 -46.5t71 -57.5t59.5 -72.5t37 -89.5t14.5 -110.5q0 -191 -102.5 -310.5t-292.5 -145.5v-236h-201v234z" />
    <glyph glyph-name="percent" unicode="%" horiz-adv-x="1761" 
d="M252 0l983 1434h274l-983 -1434h-274zM82 1098q0 151 105.5 256.5t256.5 105.5q150 0 255.5 -106t105.5 -256q0 -149 -106 -255t-255 -106q-150 0 -256 105.5t-106 255.5zM319 1098q0 -51 36.5 -87t88.5 -36q51 0 87 36t36 87q0 52 -36 88.5t-87 36.5q-52 0 -88.5 -36.5
t-36.5 -88.5zM956 334q0 150 106.5 256t256.5 106q149 0 254.5 -105.5t105.5 -256.5q0 -149 -105.5 -255t-254.5 -106t-256 106t-107 255zM1194 334q0 -51 36.5 -87t88.5 -36q51 0 87 36t36 87q0 52 -36 88.5t-87 36.5q-53 0 -89 -36.5t-36 -88.5z" />
    <glyph glyph-name="ampersand" unicode="&#x26;" horiz-adv-x="1368" 
d="M573 -25q-226 0 -358.5 118t-132.5 308q0 244 235 396q-112 145 -112 288q0 161 107 266t268 105q164 0 267 -94.5t103 -235.5q0 -106 -54 -195t-148 -149q115 -115 178 -176q33 74 61 154l277 -119q-67 -183 -107 -264q80 -78 170 -168l-225 -207l-127 123
q-167 -150 -402 -150zM410 422q0 -65 49 -106.5t125 -41.5q97 0 170 66q-95 89 -246 235q-50 -23 -74 -64t-24 -89zM496 1104q0 -37 19 -70t48 -51q44 18 69 54.5t25 78.5q0 35 -21 61.5t-58 26.5q-40 0 -61 -31t-21 -69z" />
    <glyph glyph-name="quotesingle" unicode="'" horiz-adv-x="479" 
d="M102 946v488h275v-488h-275z" />
    <glyph glyph-name="parenleft" unicode="(" horiz-adv-x="870" 
d="M555 -444q-61 75 -114.5 156t-110 194.5t-96.5 232.5t-65.5 270t-25.5 308t25.5 308t65.5 270t96.5 232t110 193.5t114.5 155.5l254 -207q-64 -78 -118.5 -168t-106 -209t-81.5 -267.5t-30 -307.5q0 -160 30 -309.5t81.5 -268.5t106 -208.5t118.5 -166.5z" />
    <glyph glyph-name="parenright" unicode=")" horiz-adv-x="870" 
d="M61 -236q64 77 118.5 166.5t106 208.5t81.5 268.5t30 309.5q0 159 -30 307.5t-81.5 267.5t-106 209t-118.5 168l254 207q61 -75 114.5 -155.5t110 -193.5t96.5 -232t65.5 -270t25.5 -308t-25.5 -308t-65.5 -270t-96.5 -232.5t-110 -194.5t-114.5 -156z" />
    <glyph glyph-name="asterisk" unicode="*" horiz-adv-x="862" 
d="M324 711l-222 161l150 152l-211 33l84 260l192 -96l-32 213h272l-33 -213l193 96l84 -260l-211 -33l149 -152l-221 -161l-96 190z" />
    <glyph glyph-name="plus" unicode="+" horiz-adv-x="970" 
d="M313 207v229h-231v348h231v230h346v-230h230v-348h-230v-229h-346z" />
    <glyph glyph-name="comma" unicode="," horiz-adv-x="505" 
d="M-41 -287l154 430h331l-227 -430h-258z" />
    <glyph glyph-name="hyphen" unicode="-" horiz-adv-x="1132" 
d="M164 436v348h805v-348h-805z" />
    <glyph glyph-name="period" unicode="." horiz-adv-x="577" 
d="M289 -23q-77 0 -132 54.5t-55 132.5q0 76 55 131t132 55t131.5 -55t54.5 -131q0 -78 -54.5 -132.5t-131.5 -54.5z" />
    <glyph glyph-name="slash" unicode="/" horiz-adv-x="1105" 
d="M61 -311l682 2054h322l-684 -2054h-320z" />
    <glyph glyph-name="zero" unicode="0" horiz-adv-x="1361" 
d="M680 -25q-119 0 -219 42.5t-169 114.5t-117 167.5t-70.5 201t-22.5 216.5t22.5 216t70.5 200.5t117 167t169 113.5t219 42q100 0 187 -29.5t152 -82t115.5 -122.5t82 -153t47.5 -171.5t16 -180.5q0 -111 -22.5 -216.5t-70.5 -201t-117 -167.5t-169.5 -114.5t-220.5 -42.5
zM446 717q0 -167 59.5 -272t174.5 -105q116 0 175.5 104.5t59.5 272.5q0 166 -59.5 270.5t-175.5 104.5q-115 0 -174.5 -104.5t-59.5 -270.5z" />
    <glyph glyph-name="one" unicode="1" horiz-adv-x="856" 
d="M389 0v1044l-194 -88l-113 297l381 181h291v-1434h-365z" />
    <glyph glyph-name="two" unicode="2" horiz-adv-x="1161" 
d="M121 309q96 86 146 131.5t121.5 112t107 105t78.5 88.5t62.5 85t33.5 73.5t14 72.5q0 60 -34 96.5t-97 36.5q-47 0 -83 -31.5t-52 -97.5l-336 90q49 184 175 284.5t296 100.5q215 0 346 -125.5t131 -341.5q0 -95 -21 -172t-77.5 -157.5t-100.5 -129.5t-144 -151
q-33 -34 -50 -51h442v-328h-958v309z" />
    <glyph glyph-name="three" unicode="3" horiz-adv-x="1140" 
d="M575 -25q-186 0 -321 101t-172 264l338 102q6 -53 47 -86.5t108 -33.5q63 0 100.5 40t37.5 99q0 62 -42.5 100.5t-113.5 38.5h-121v301h121q64 0 100.5 33t36.5 90q0 52 -36 87.5t-91 35.5q-50 0 -82 -25t-43 -67l-292 41q26 160 141 260t276 100q194 0 315.5 -115
t121.5 -299q0 -165 -127 -272q86 -53 134 -136t48 -192q0 -98 -38.5 -185t-103.5 -148.5t-154.5 -97.5t-187.5 -36z" />
    <glyph glyph-name="four" unicode="4" horiz-adv-x="1267" 
d="M639 0v274h-557v310l551 850h371v-850h182v-310h-182v-274h-365zM416 584h223v344z" />
    <glyph glyph-name="five" unicode="5" horiz-adv-x="1159" 
d="M573 -25q-171 0 -306 99.5t-185 255.5l332 100q16 -48 58 -78t101 -30q68 0 113 46t45 113q0 66 -45 112t-113 46q-77 0 -122 -59l-289 69l88 785h729v-347h-461l-18 -157q52 10 92 10q210 0 347.5 -127.5t137.5 -331.5q0 -137 -68 -253.5t-184 -184.5t-252 -68z" />
    <glyph glyph-name="six" unicode="6" horiz-adv-x="1173" 
d="M586 -25q-136 0 -252 68t-184 184.5t-68 253.5q0 65 22.5 136t59.5 126l471 691h385l-324 -480q172 -34 284 -165t112 -308q0 -209 -148.5 -357.5t-357.5 -148.5zM428 481q0 -66 46.5 -112.5t111.5 -46.5q66 0 112.5 46.5t46.5 112.5q0 65 -46.5 111.5t-112.5 46.5
q-64 0 -111 -46.5t-47 -111.5z" />
    <glyph glyph-name="seven" unicode="7" horiz-adv-x="1099" 
d="M137 0l514 1087h-569v347h936v-347l-514 -1087h-367z" />
    <glyph glyph-name="eight" unicode="8" horiz-adv-x="1134" 
d="M567 -25q-202 0 -343.5 134.5t-141.5 332.5q0 209 160 330q-107 110 -107 270q0 178 125 296t307 118q181 0 306.5 -118t125.5 -296q0 -159 -108 -270q76 -57 119 -141.5t43 -188.5q0 -98 -39 -185t-104.5 -148.5t-155 -97.5t-187.5 -36zM428 461q0 -57 40.5 -98
t98.5 -41q57 0 97.5 41t40.5 98q0 58 -40.5 98.5t-97.5 40.5q-59 0 -99 -40t-40 -99zM444 1024q0 -51 36 -87t87 -36t87 36t36 87t-36 87t-87 36t-87 -36t-36 -87z" />
    <glyph glyph-name="nine" unicode="9" horiz-adv-x="1173" 
d="M477 477q-172 36 -283.5 167t-111.5 308q0 137 68 253t184.5 183.5t253.5 67.5q136 0 252 -67.5t184 -183.5t68 -253q0 -66 -22.5 -137.5t-59.5 -124.5l-471 -690h-385zM428 952q0 -66 47 -111.5t113 -45.5q65 0 111 45.5t46 111.5t-46 112t-111 46q-66 0 -113 -46
t-47 -112z" />
    <glyph glyph-name="colon" unicode=":" horiz-adv-x="577" 
d="M289 688q-77 0 -132 55t-55 131q0 78 55 132.5t132 54.5t131.5 -54.5t54.5 -132.5q0 -76 -54.5 -131t-131.5 -55zM102 164q0 76 55 131t132 55t131.5 -55t54.5 -131q0 -78 -54.5 -132.5t-131.5 -54.5t-132 54.5t-55 132.5z" />
    <glyph glyph-name="semicolon" unicode=";" horiz-adv-x="552" 
d="M-41 -287l156 430h329l-227 -430h-258zM98 874q0 78 55 132.5t132 54.5t131.5 -54.5t54.5 -132.5q0 -76 -54.5 -131t-131.5 -55t-132 55t-55 131z" />
    <glyph glyph-name="less" unicode="&#x3c;" horiz-adv-x="1062" 
d="M940 74l-817 381v311l817 381v-350l-424 -187l424 -186v-350z" />
    <glyph glyph-name="equal" unicode="=" horiz-adv-x="1124" 
d="M123 674v309h878v-309h-878zM123 238v309h878v-309h-878z" />
    <glyph glyph-name="greater" unicode="&#x3e;" horiz-adv-x="1060" 
d="M123 74v350l424 186l-424 187v350l815 -381v-311z" />
    <glyph glyph-name="question" unicode="?" horiz-adv-x="1011" 
d="M317 465q0 27 3 53t7 46t13 42t14.5 36t19.5 33.5t20.5 28.5t24 28t23.5 24.5t26 25t24 23.5q64 65 88 105t24 96q0 39 -26.5 72.5t-79.5 33.5q-49 0 -76.5 -29t-34.5 -59l-346 23q5 68 37.5 138t87 132t142 101.5t190.5 39.5q192 0 322 -122t130 -316q0 -47 -6 -87.5
t-21.5 -76t-27.5 -60t-38 -54.5t-38 -43.5t-44 -43t-40 -37.5q-90 -90 -90 -153h-328zM295 164q0 77 54 131.5t132 54.5q77 0 132 -55t55 -131q0 -78 -55 -132.5t-132 -54.5q-78 0 -132 54.5t-54 132.5z" />
    <glyph glyph-name="at" unicode="@" horiz-adv-x="2193" 
d="M1047 -428q-210 0 -390 69.5t-306 191.5t-197.5 294.5t-71.5 372.5q0 207 75 386.5t206 306.5t316.5 200t399.5 73q225 0 417 -64t327.5 -178t211.5 -277.5t76 -356.5q0 -250 -111.5 -398.5t-307.5 -148.5q-96 0 -177 46t-133 126q-61 -81 -148 -126.5t-194 -45.5
q-203 0 -329.5 139.5t-126.5 337.5q0 130 55 238.5t160.5 174.5t240.5 66q141 0 252 -81v59h289v-508q0 -65 25.5 -109.5t85.5 -44.5q16 0 32 4.5t37.5 21.5t37.5 45.5t27 81t11 122.5q0 123 -43 225t-115.5 170.5t-170 116t-205.5 69t-224 21.5q-211 0 -375.5 -87.5
t-256 -245t-91.5 -359.5q0 -289 192 -472.5t499 -183.5q111 0 219 34t192 91l137 -235q-110 -83 -255.5 -122.5t-292.5 -39.5zM872 520q0 -82 59 -140t142 -58q82 0 140.5 58t58.5 140q0 83 -58.5 141t-140.5 58q-83 0 -142 -58t-59 -141z" />
    <glyph glyph-name="A" unicode="A" horiz-adv-x="1529" 
d="M20 0l545 1434h398l546 -1434h-395l-96 283h-508l-96 -283h-394zM616 594h295l-147 430z" />
    <glyph glyph-name="B" unicode="B" horiz-adv-x="1241" 
d="M102 0v1434h498q152 0 267 -41.5t183 -128.5t68 -211q0 -176 -127 -287q189 -118 189 -332q0 -136 -72 -236t-191.5 -149t-271.5 -49h-543zM467 309h178q84 0 124 36t40 99q0 61 -40 97.5t-124 36.5h-178v-269zM467 891h133q154 0 154 117q0 116 -154 116h-133v-233z" />
    <glyph glyph-name="C" unicode="C" horiz-adv-x="1431" 
d="M786 -25q-152 0 -290 58.5t-237.5 157.5t-158.5 236.5t-59 289.5t59 289.5t158.5 236t237.5 157t290 58.5q189 0 351.5 -87.5t265.5 -237.5l-303 -203q-52 75 -135.5 119.5t-178.5 44.5q-158 0 -269 -110t-111 -267t111 -267t269 -110q99 0 184.5 48t137.5 128l303 -203
q-102 -155 -267.5 -246.5t-357.5 -91.5z" />
    <glyph glyph-name="D" unicode="D" horiz-adv-x="1394" 
d="M102 0v1434h488q215 0 389.5 -90.5t274.5 -255t100 -371.5t-100 -371.5t-274.5 -255t-389.5 -90.5h-488zM467 365h123q178 0 284.5 96t106.5 256t-106.5 256t-284.5 96h-123v-704z" />
    <glyph glyph-name="E" unicode="E" horiz-adv-x="1099" 
d="M102 0v1434h897v-347h-532v-206h496v-310h-496v-225h551v-346h-916z" />
    <glyph glyph-name="F" unicode="F" horiz-adv-x="1079" 
d="M102 0v1434h895v-347h-530v-233h477v-311h-477v-543h-365z" />
    <glyph glyph-name="G" unicode="G" horiz-adv-x="1556" 
d="M786 -25q-152 0 -290 58.5t-237.5 157.5t-158.5 236.5t-59 289.5t59 289.5t158.5 236t237.5 157t290 58.5q189 0 351.5 -87.5t265.5 -237.5l-303 -203q-52 75 -135.5 119.5t-178.5 44.5q-158 0 -269 -110t-111 -267t111 -267t269 -110q125 0 212 51t124 154h-409v291h803
v-101q0 -178 -54.5 -322.5t-151.5 -240t-231 -146.5t-293 -51z" />
    <glyph glyph-name="H" unicode="H" horiz-adv-x="1495" 
d="M102 0v1434h365v-543h561v543h365v-1434h-365v543h-561v-543h-365z" />
    <glyph glyph-name="I" unicode="I" horiz-adv-x="569" 
d="M102 0v1434h365v-1434h-365z" />
    <glyph glyph-name="J" unicode="J" horiz-adv-x="1071" 
d="M489 -25q-192 0 -323 105.5t-146 273.5l345 97q5 -49 36 -80t88 -31t86 40.5t29 106.5v947h365v-947q0 -90 -15.5 -164t-42 -126.5t-64.5 -92.5t-79.5 -64t-90.5 -39t-94 -20.5t-94 -5.5z" />
    <glyph glyph-name="K" unicode="K" horiz-adv-x="1320" 
d="M102 0v1434h365v-670l412 670h403l-432 -699l471 -735h-444l-410 637v-637h-365z" />
    <glyph glyph-name="L" unicode="L" horiz-adv-x="1099" 
d="M102 0v1434h365v-1088h551v-346h-916z" />
    <glyph glyph-name="M" unicode="M" horiz-adv-x="1634" 
d="M102 0v1434h377l338 -506l338 506h377v-1434h-365v891l-266 -397h-166l-268 397v-891h-365z" />
    <glyph glyph-name="N" unicode="N" horiz-adv-x="1495" 
d="M102 0v1434h387l539 -854v854h365v-1434h-389l-537 854v-854h-365z" />
    <glyph glyph-name="O" unicode="O" horiz-adv-x="1572" 
d="M786 -25q-152 0 -290 58.5t-237.5 157.5t-158.5 236.5t-59 289.5t59 289.5t158.5 236t237.5 157t290 58.5q202 0 373.5 -98.5t272 -269.5t100.5 -373t-100.5 -373t-272 -270t-373.5 -99zM406 717q0 -157 111 -267t269 -110q157 0 269 110.5t112 266.5t-112 266.5
t-269 110.5q-158 0 -269 -110t-111 -267z" />
    <glyph glyph-name="P" unicode="P" horiz-adv-x="1216" 
d="M102 0v1434h494q165 0 290.5 -58.5t197 -174t71.5 -275.5q0 -159 -72 -271t-196.5 -165.5t-290.5 -53.5h-129v-436h-365zM467 764h129q88 0 138 43t50 119q0 75 -50 118t-138 43h-129v-323z" />
    <glyph glyph-name="Q" unicode="Q" horiz-adv-x="1603" 
d="M1143 68q-164 -93 -357 -93q-152 0 -290 58.5t-237.5 157.5t-158.5 236.5t-59 289.5t59 289.5t158.5 236t237.5 157t290 58.5q202 0 373.5 -98.5t272 -269.5t100.5 -373q0 -237 -141 -434l172 -179l-238 -227zM406 717q0 -157 111 -267t269 -110q39 0 84 10l-202 213
l237 228l225 -236q37 79 37 162q0 156 -112 266.5t-269 110.5q-158 0 -269 -110t-111 -267z" />
    <glyph glyph-name="R" unicode="R" horiz-adv-x="1280" 
d="M102 0v1434h476q165 0 290 -56t196 -168t71 -266q0 -263 -199 -387l334 -557h-416l-276 473h-111v-473h-365zM467 801h111q188 0 188 143t-188 143h-111v-286z" />
    <glyph glyph-name="S" unicode="S" horiz-adv-x="1124" 
d="M557 -25q-147 0 -262 59t-176 160t-58 224l328 31q2 -67 42.5 -113.5t129.5 -46.5q70 0 110 35t40 84q0 53 -43.5 81t-169.5 76q-39 15 -60 23q-163 63 -245 168t-82 268q0 182 126.5 308t311.5 126q181 0 305 -102.5t141 -265.5l-317 -46q-2 43 -35.5 74t-85.5 31
t-82.5 -31.5t-30.5 -75.5q0 -53 39.5 -87t139.5 -68q53 -18 88.5 -32t86 -37.5t84 -46.5t71 -57.5t59.5 -72.5t36.5 -89.5t14.5 -109.5q0 -220 -132.5 -343.5t-373.5 -123.5z" />
    <glyph glyph-name="T" unicode="T" horiz-adv-x="1200" 
d="M418 0v1087h-336v347h1036v-347h-336v-1087h-364z" />
    <glyph glyph-name="U" unicode="U" horiz-adv-x="1449" 
d="M725 -25q-293 0 -458 159t-165 464v836h367v-818q0 -133 66.5 -204.5t189.5 -71.5t190.5 71.5t67.5 204.5v818h365v-836q0 -305 -165 -464t-458 -159z" />
    <glyph glyph-name="V" unicode="V" horiz-adv-x="1529" 
d="M565 0l-545 1434h394l350 -1024l350 1024h395l-546 -1434h-398z" />
    <glyph glyph-name="W" unicode="W" horiz-adv-x="2285" 
d="M512 0l-492 1434h394l293 -924l280 924h309l281 -924l293 924h395l-491 -1434h-381l-250 829l-252 -829h-379z" />
    <glyph glyph-name="X" unicode="X" horiz-adv-x="1398" 
d="M20 0l439 745l-404 689h408l235 -422l238 422h405l-403 -684l440 -750h-407l-271 465l-274 -465h-406z" />
    <glyph glyph-name="Y" unicode="Y" horiz-adv-x="1490" 
d="M563 0v627l-543 807h406l319 -482l318 482h407l-542 -807v-627h-365z" />
    <glyph glyph-name="Z" unicode="Z" horiz-adv-x="1218" 
d="M82 0v309l545 778h-527v347h981v-310l-542 -778h598v-346h-1055z" />
    <glyph glyph-name="bracketleft" unicode="[" horiz-adv-x="804" 
d="M164 -311v2054h538v-293h-210v-1468h210v-293h-538z" />
    <glyph glyph-name="backslash" unicode="\" horiz-adv-x="1105" 
d="M725 -311l-684 2054h319l684 -2054h-319z" />
    <glyph glyph-name="bracketright" unicode="]" horiz-adv-x="804" 
d="M102 -311v293h211v1468h-211v293h539v-2054h-539z" />
    <glyph glyph-name="asciicircum" unicode="^" horiz-adv-x="989" 
d="M41 967l305 467h297l305 -467h-332l-122 200l-123 -200h-330z" />
    <glyph glyph-name="underscore" unicode="_" horiz-adv-x="1294" 
d="M143 -264v327h1008v-327h-1008z" />
    <glyph glyph-name="a" unicode="a" 
d="M569 -25q-153 0 -273 75.5t-182.5 198.5t-62.5 269q0 147 63 270t182.5 198t272.5 75q161 0 287 -92v69h328v-1038h-328v68q-127 -93 -287 -93zM381 518q0 -94 65.5 -159.5t159.5 -65.5t159.5 65.5t65.5 159.5t-65.5 160.5t-159.5 66.5t-159.5 -66.5t-65.5 -160.5z" />
    <glyph glyph-name="b" unicode="b" 
d="M707 -25q-160 0 -287 93v-68h-328v1524h328v-555q126 92 287 92q153 0 272.5 -75t182.5 -198t63 -270q0 -146 -62.5 -269t-182.5 -198.5t-273 -75.5zM444 518q0 -94 66 -159.5t160 -65.5t160.5 65.5t66.5 159.5t-66.5 160.5t-160.5 66.5t-160 -66.5t-66 -160.5z" />
    <glyph glyph-name="c" unicode="c" horiz-adv-x="1138" 
d="M604 -25q-113 0 -215 42.5t-176 114.5t-118 173t-44 213t44 213t118 173t176 114.5t215 42.5q160 0 293 -80t201 -213l-293 -143q-30 55 -83 87.5t-118 32.5q-94 0 -159.5 -66.5t-65.5 -160.5t65.5 -159.5t159.5 -65.5q65 0 118 33t83 88l293 -144
q-68 -134 -201.5 -214.5t-292.5 -80.5z" />
    <glyph glyph-name="d" unicode="d" 
d="M569 -25q-153 0 -273 75.5t-182.5 198.5t-62.5 269q0 147 63 270t182.5 198t272.5 75q161 0 287 -92v555h328v-1524h-328v68q-127 -93 -287 -93zM379 518q0 -94 66.5 -159.5t160.5 -65.5t159.5 65.5t65.5 159.5t-65.5 160.5t-159.5 66.5t-160.5 -66.5t-66.5 -160.5z" />
    <glyph glyph-name="e" unicode="e" horiz-adv-x="1218" 
d="M635 -25q-264 0 -424 154.5t-160 388.5q0 151 75 276t202 196t278 71q114 0 222 -47t189 -129t122 -207t22 -268h-737q62 -119 211 -119q71 0 123 25.5t80 62.5l284 -131q-64 -122 -192.5 -197.5t-294.5 -75.5zM426 627h373q-26 54 -76 86t-117 32q-61 0 -107.5 -32.5
t-72.5 -85.5z" />
    <glyph glyph-name="f" unicode="f" horiz-adv-x="929" 
d="M205 0v745h-164v293h164v99q0 198 92 310t289 112q90 0 180 -43.5t143 -100.5l-188 -217q-41 51 -98 51q-43 0 -67 -30.5t-24 -81.5v-99h287v-293h-287v-745h-327z" />
    <glyph glyph-name="g" unicode="g" 
d="M618 -487q-168 0 -309 72t-203 204l267 135q28 -49 92.5 -80.5t152.5 -31.5q114 0 175 62.5t61 178.5v29q-122 -88 -285 -88q-154 0 -273 70.5t-182 189t-63 264.5q0 147 63 270t182.5 198t272.5 75q162 0 285 -92v69h330v-985q0 -243 -157.5 -391.5t-408.5 -148.5z
M379 518q0 -94 66.5 -159.5t160.5 -65.5t159.5 65.5t65.5 159.5t-65.5 160.5t-159.5 66.5t-160.5 -66.5t-66.5 -160.5z" />
    <glyph glyph-name="h" unicode="h" horiz-adv-x="1251" 
d="M92 0v1524h328v-588q95 125 280 125q116 0 205.5 -43.5t144 -119.5t82 -172t27.5 -208v-518h-328v518q0 99 -52.5 166.5t-151.5 67.5q-93 0 -150 -62.5t-57 -175.5v-514h-328z" />
    <glyph glyph-name="i" unicode="i" horiz-adv-x="522" 
d="M96 0v1038h330v-1038h-330zM82 1341q0 74 52.5 126.5t127.5 52.5q73 0 125.5 -52.5t52.5 -126.5q0 -75 -52 -127.5t-126 -52.5q-75 0 -127.5 52.5t-52.5 127.5z" />
    <glyph glyph-name="j" unicode="j" horiz-adv-x="540" 
d="M-41 -170q156 0 156 162v1046h329v-1046q0 -263 -112.5 -371t-372.5 -108v317zM100 1341q0 73 53 126t126 53q75 0 127.5 -52.5t52.5 -126.5q0 -75 -52.5 -127.5t-127.5 -52.5q-74 0 -126.5 52.5t-52.5 127.5z" />
    <glyph glyph-name="k" unicode="k" horiz-adv-x="1071" 
d="M92 0v1524h330v-889l250 403h362l-323 -495l350 -543h-379l-260 426v-426h-330z" />
    <glyph glyph-name="l" unicode="l" horiz-adv-x="512" 
d="M92 0v1524h328v-1524h-328z" />
    <glyph glyph-name="m" unicode="m" horiz-adv-x="1935" 
d="M92 0v1038h330v-88q90 111 260 111q231 0 348 -166q128 166 346 166q93 0 170.5 -28.5t132 -78.5t92 -119t55 -148.5t17.5 -168.5v-518h-327v518q0 99 -50 166.5t-145 67.5q-87 0 -137.5 -62t-50.5 -176v-514h-328v518q0 99 -50 166.5t-145 67.5q-87 0 -137.5 -62
t-50.5 -176v-514h-330z" />
    <glyph glyph-name="n" unicode="n" horiz-adv-x="1251" 
d="M92 0v1038h328v-102q95 125 280 125q116 0 205.5 -43.5t144 -119.5t82 -172t27.5 -208v-518h-330v518q0 99 -51.5 166.5t-150.5 67.5q-93 0 -150 -62.5t-57 -175.5v-514h-328z" />
    <glyph glyph-name="o" unicode="o" horiz-adv-x="1212" 
d="M606 -25q-113 0 -215.5 42.5t-177 114.5t-118.5 173t-44 213t44 213t118.5 173t177 114.5t215.5 42.5t215.5 -42.5t177 -114.5t118.5 -173t44 -213t-44 -213t-118.5 -173t-177 -114.5t-215.5 -42.5zM381 518q0 -94 65.5 -159.5t159.5 -65.5t159.5 65.5t65.5 159.5
t-65.5 160.5t-159.5 66.5t-159.5 -66.5t-65.5 -160.5z" />
    <glyph glyph-name="p" unicode="p" 
d="M92 -487v1525h328v-69q126 92 287 92q153 0 272.5 -75t182.5 -198t63 -270q0 -146 -62.5 -269t-182.5 -198.5t-273 -75.5q-160 0 -287 93v-555h-328zM444 518q0 -94 66 -159.5t160 -65.5t160.5 65.5t66.5 159.5t-66.5 160.5t-160.5 66.5t-160 -66.5t-66 -160.5z" />
    <glyph glyph-name="q" unicode="q" 
d="M856 68q-127 -93 -287 -93q-153 0 -273 75.5t-182.5 198.5t-62.5 269q0 147 63 270t182.5 198t272.5 75q161 0 287 -92v69h328v-1525h-328v555zM379 518q0 -94 66.5 -159.5t160.5 -65.5t159.5 65.5t65.5 159.5t-65.5 160.5t-159.5 66.5t-160.5 -66.5t-66.5 -160.5z" />
    <glyph glyph-name="r" unicode="r" horiz-adv-x="770" 
d="M92 0v1038h328v-137q83 160 299 160v-309q-47 4 -86.5 -1t-80 -24t-69 -53t-46 -93t-17.5 -139v-442h-328z" />
    <glyph glyph-name="s" unicode="s" horiz-adv-x="972" 
d="M492 -25q-185 0 -307.5 73.5t-143.5 225.5l326 60q0 -40 36.5 -71.5t104.5 -31.5q43 0 69.5 19t26.5 51t-34 46.5t-167 43.5q-70 15 -121.5 37t-97.5 58.5t-70 94.5t-24 136q0 108 59 188.5t146 118t186 37.5q150 0 257 -68.5t139 -191.5l-279 -66q-8 27 -34 48.5
t-75 21.5q-39 0 -64.5 -17.5t-25.5 -46.5q0 -34 32.5 -49t141.5 -41q46 -11 72 -18t70 -22t69.5 -29.5t57 -39.5t49 -54t29.5 -70t12 -90q0 -91 -36 -161t-98 -110.5t-139 -61t-167 -20.5z" />
    <glyph glyph-name="t" unicode="t" horiz-adv-x="956" 
d="M592 -16q-204 0 -292.5 102.5t-88.5 298.5v360h-170v293h170v232h328v-232h280v-293h-280v-360q0 -44 25 -68t65 -24q59 0 100 51l186 -217q-54 -63 -137 -103t-186 -40z" />
    <glyph glyph-name="u" unicode="u" horiz-adv-x="1251" 
d="M551 -25q-117 0 -207 43.5t-144 119.5t-81 172t-27 208v520h328v-520q0 -97 53 -164t152 -67q93 0 149.5 61.5t56.5 173.5v516h328v-1038h-328v100q-98 -125 -280 -125z" />
    <glyph glyph-name="v" unicode="v" horiz-adv-x="1257" 
d="M457 0l-437 1038h365l244 -594l243 594h365l-434 -1038h-346z" />
    <glyph glyph-name="w" unicode="w" horiz-adv-x="1835" 
d="M401 0l-381 1038h361l207 -596l194 596h269l196 -596l207 596h361l-383 -1038h-324l-190 578l-191 -578h-326z" />
    <glyph glyph-name="x" unicode="x" horiz-adv-x="1212" 
d="M20 0l375 541l-340 497h375l176 -266l176 266h375l-340 -497l375 -541h-373l-213 309l-213 -309h-373z" />
    <glyph glyph-name="y" unicode="y" horiz-adv-x="1241" 
d="M229 -487l213 520l-422 1005h365l236 -573l235 573h365l-641 -1525h-351z" />
    <glyph glyph-name="z" unicode="z" horiz-adv-x="1071" 
d="M61 0v291l488 454h-451v293h875v-293l-488 -454h525v-291h-949z" />
    <glyph glyph-name="braceleft" unicode="{" horiz-adv-x="892" 
d="M811 -311q-49 0 -86 1t-84.5 5.5t-84 12.5t-77 22t-70 33.5t-58 48t-46.5 65t-28.5 85t-10.5 106.5v303q0 133 -40 184t-124 51v219q84 0 124 51.5t40 184.5v305q0 74 17.5 132.5t45.5 97.5t72.5 67t87.5 43t103.5 24t107.5 11t111 2v-293q-122 0 -179 -53t-57 -178v-230
q0 -187 -145 -272q145 -88 145 -275v-229q0 -125 57 -178t179 -53v-293z" />
    <glyph glyph-name="bar" unicode="|" horiz-adv-x="616" 
d="M143 -494v2237h330v-2237h-330z" />
    <glyph glyph-name="braceright" unicode="}" horiz-adv-x="892" 
d="M82 -18q121 0 178 53t57 178v229q0 186 146 275q-146 85 -146 272v230q0 125 -57 178t-178 53v293q49 0 86 -1t85 -5.5t84 -12.5t77 -22t71 -33t58.5 -48t46 -65t28.5 -84t11 -106v-305q0 -134 39 -185t123 -51v-219q-84 0 -123 -50.5t-39 -184.5v-303q0 -58 -11 -106.5
t-28.5 -85t-46 -65t-58.5 -48t-71 -33.5t-77 -22t-84 -12.5t-85 -5.5t-86 -1v293z" />
    <glyph glyph-name="asciitilde" unicode="~" horiz-adv-x="1259" 
d="M866 358q-35 0 -68.5 6.5t-56.5 14t-52.5 24t-42.5 25.5t-41.5 29.5t-35.5 25.5t-26.5 19.5t-28 20t-23.5 14t-29 11.5t-30 3q-68 0 -102 -131l-248 102q20 76 47 137.5t64.5 112.5t88 79t109.5 28q35 0 68.5 -7t55 -13.5t52 -24.5t40.5 -24.5t39.5 -29t31.5 -24.5
q4 -3 20 -14.5t21 -15t19 -12.5t21.5 -12l20 -8t24 -6.5t23.5 -1.5q24 0 42.5 10.5t30.5 30.5t18.5 35.5t13.5 38.5l246 -103q-13 -49 -27.5 -89t-41 -89t-58 -82.5t-80 -56.5t-105.5 -23z" />
    <glyph glyph-name="exclamdown" unicode="&#xa1;" horiz-adv-x="659" 
d="M156 -395l37 968h274l37 -968h-348zM143 874q0 78 55 132.5t132 54.5t131.5 -54.5t54.5 -132.5q0 -76 -55 -131t-131 -55q-77 0 -132 55t-55 131z" />
    <glyph glyph-name="cent" unicode="&#xa2;" horiz-adv-x="1191" 
d="M532 180q-197 33 -328.5 183.5t-131.5 353.5q0 202 131.5 351.5t328.5 182.5v183h201v-185q127 -25 228.5 -99.5t158.5 -184.5l-293 -144q-30 55 -83.5 88t-116.5 33q-94 0 -160 -65.5t-66 -159.5t66 -161t160 -67q63 0 116.5 33t83.5 88l293 -143q-58 -110 -159.5 -185
t-227.5 -98v-184h-201v180z" />
    <glyph glyph-name="sterling" unicode="&#xa3;" horiz-adv-x="1282" 
d="M102 295q25 4 50 15.5t53 34.5t45.5 66.5t17.5 100.5q0 24 -8 70h-158v182h93q-45 103 -45 213q0 213 143 349t360 136q90 0 170 -29t137.5 -77t98.5 -102.5t65 -112.5l-338 -140q-4 10 -11.5 22.5t-23 31.5t-41.5 31t-57 12q-63 0 -101 -38t-38 -102q0 -18 2.5 -36
t5.5 -31.5t10 -33t10.5 -29.5t13 -32.5t13.5 -31.5h430v-182h-387q2 -10 2 -33q0 -127 -65 -221h631v-328h-1078v295z" />
    <glyph glyph-name="currency" unicode="&#xa4;" horiz-adv-x="1052" 
d="M205 229l-144 136l138 145q-62 94 -62 207q0 110 62 207l-138 145l144 135l137 -145q89 47 184 47q98 0 187 -47l135 145l143 -135l-135 -145q59 -97 59 -207q0 -113 -59 -207l135 -145l-143 -136l-135 146q-83 -47 -187 -47q-101 0 -184 47zM375 717q0 -63 44 -108.5
t107 -45.5t108.5 45.5t45.5 108.5t-45.5 107t-108.5 44t-107 -44t-44 -107z" />
    <glyph glyph-name="yen" unicode="&#xa5;" horiz-adv-x="1531" 
d="M584 0v268h-275v183h275v86h-275v182h213l-481 715h408l317 -482l317 482h408l-479 -715h213v-182h-277v-86h277v-183h-277v-268h-364z" />
    <glyph glyph-name="brokenbar" unicode="&#xa6;" horiz-adv-x="614" 
d="M143 -494v820h328v-820h-328zM143 926v817h328v-817h-328z" />
    <glyph glyph-name="section" unicode="&#xa7;" horiz-adv-x="1218" 
d="M590 -399q-205 0 -348 111t-160 278l344 35q10 -34 49 -64.5t105 -30.5q69 0 103 31.5t34 75.5q0 49 -46 78.5t-155 56.5q-79 19 -134.5 37t-114.5 47t-95 63t-59 85t-23 114q0 176 133 277q-69 93 -69 221q0 194 127.5 317t347.5 123q205 0 348 -110t160 -277l-344 -37
q-12 36 -50 66t-104 30q-70 0 -103.5 -31.5t-33.5 -76.5q0 -48 45.5 -77t152.5 -56q78 -19 134 -37t115.5 -47t95.5 -63.5t59.5 -85t23.5 -113.5q0 -178 -135 -277q70 -90 70 -221q0 -194 -127 -318t-346 -124zM399 596q0 -47 47.5 -74t163.5 -59q4 -1 37 -9t50 -12.5
t47 -14.5t55 -21q20 23 20 57q0 47 -48 74t-163 57q-10 3 -49 13.5t-73 21t-66 24.5q-21 -21 -21 -57z" />
    <glyph glyph-name="copyright" unicode="&#xa9;" horiz-adv-x="1624" 
d="M813 -45q-155 0 -296 60.5t-243 162.5t-162.5 243t-60.5 296t60.5 296t162.5 243t243 162.5t296 60.5t295.5 -60.5t242.5 -162.5t162 -243t60 -296t-60 -296t-162 -243t-242.5 -162.5t-295.5 -60.5zM215 717q0 -122 47.5 -232.5t127.5 -190.5t190.5 -127.5t232.5 -47.5
q161 0 298.5 80t217.5 218t80 300t-80 299.5t-217.5 217t-298.5 79.5q-122 0 -232.5 -47t-190.5 -127t-127.5 -190t-47.5 -232zM375 717q0 186 131 316t317 130q115 0 212.5 -52.5t160.5 -143.5l-182 -123q-31 46 -81 72t-110 26q-94 0 -161.5 -65t-67.5 -160t67.5 -161.5
t161.5 -66.5q60 0 111.5 29t83.5 78l182 -123q-61 -94 -160.5 -148.5t-216.5 -54.5q-186 0 -317 130.5t-131 316.5z" />
    <glyph glyph-name="guillemotleft" unicode="&#xab;" horiz-adv-x="1277" 
d="M860 217l-285 393l285 394h336l-285 -394l285 -393h-336zM82 610l285 394h335l-284 -394l284 -393h-335z" />
    <glyph glyph-name="registered" unicode="&#xae;" horiz-adv-x="1624" 
d="M813 -45q-155 0 -296 60.5t-243 162.5t-162.5 243t-60.5 296t60.5 296t162.5 243t243 162.5t296 60.5t295.5 -60.5t242.5 -162.5t162 -243t60 -296t-60 -296t-162 -243t-242.5 -162.5t-295.5 -60.5zM215 717q0 -122 47.5 -232.5t127.5 -190.5t190.5 -127.5t232.5 -47.5
q161 0 298.5 80t217.5 218t80 300t-80 299.5t-217.5 217t-298.5 79.5q-122 0 -232.5 -47t-190.5 -127t-127.5 -190t-47.5 -232zM510 301v873h291q153 0 246.5 -78.5t93.5 -221.5q0 -169 -137 -241l200 -332h-254l-168 287h-49v-287h-223zM733 788h68q114 0 114 86
q0 89 -114 89h-68v-175z" />
    <glyph glyph-name="degree" unicode="&#xb0;" horiz-adv-x="839" 
d="M420 748q-149 0 -254 105t-105 253q0 149 105 253.5t254 104.5q148 0 253 -104.5t105 -253.5q0 -148 -105 -253t-253 -105zM297 1106q0 -51 36 -86t87 -35q50 0 85.5 35t35.5 86t-35.5 87t-85.5 36q-51 0 -87 -36t-36 -87z" />
    <glyph glyph-name="plusminus" unicode="&#xb1;" horiz-adv-x="1052" 
d="M371 371v213h-248v309h248v211h311v-211h248v-309h-248v-213h-311zM123 0v293h807v-293h-807z" />
    <glyph glyph-name="paragraph" unicode="&#xb6;" horiz-adv-x="1280" 
d="M422 664q-102 15 -181.5 60.5t-129.5 128.5t-50 191q0 124 65 214.5t166 133t222 42.5h705v-293h-129v-1434h-273v1434h-121v-1434h-274v957z" />
    <glyph glyph-name="guillemotright" unicode="&#xbb;" horiz-adv-x="1277" 
d="M575 217l285 393l-285 394h336l285 -394l-285 -393h-336zM82 217l285 393l-285 394h336l284 -394l-284 -393h-336z" />
    <glyph glyph-name="questiondown" unicode="&#xbf;" horiz-adv-x="1011" 
d="M514 -420q-192 0 -322.5 122t-130.5 316q0 47 6 87.5t21.5 76t27.5 60t38 54.5t38 43.5t44 43t40 37.5q91 94 91 153h327q0 -27 -3 -53t-6.5 -46t-13 -42t-14.5 -35.5t-19.5 -33.5t-20 -28.5t-24 -28.5t-23.5 -24.5t-26 -25t-24 -23.5q-64 -66 -88 -105t-24 -95
q0 -38 26.5 -72.5t79.5 -34.5q50 0 77.5 29.5t33.5 60.5l346 -24q-5 -68 -37.5 -138t-87 -132.5t-142 -102t-190.5 -39.5zM344 874q0 78 54.5 132.5t131.5 54.5q78 0 132.5 -54.5t54.5 -132.5q0 -77 -54.5 -131.5t-132.5 -54.5q-76 0 -131 55t-55 131z" />
    <glyph glyph-name="Agrave" unicode="&#xc0;" horiz-adv-x="1529" 
d="M20 0l545 1434h398l546 -1434h-395l-96 283h-508l-96 -283h-394zM436 1821h322l135 -285h-262zM616 594h295l-147 430z" />
    <glyph glyph-name="Aacute" unicode="&#xc1;" horiz-adv-x="1529" 
d="M20 0l545 1434h398l546 -1434h-395l-96 283h-508l-96 -283h-394zM616 594h295l-147 430zM643 1536l135 285h324l-197 -285h-262z" />
    <glyph glyph-name="Acircumflex" unicode="&#xc2;" horiz-adv-x="1529" 
d="M20 0l545 1434h398l546 -1434h-395l-96 283h-508l-96 -283h-394zM379 1536l225 285h318l227 -285h-299l-86 109l-88 -109h-297zM616 594h295l-147 430z" />
    <glyph glyph-name="Atilde" unicode="&#xc3;" horiz-adv-x="1529" 
d="M20 0l545 1434h398l546 -1434h-395l-96 283h-508l-96 -283h-394zM362 1595q8 38 19.5 71.5t31 69t43.5 60.5t60 41t78 16q46 0 92.5 -19t78.5 -42t69 -42t65 -19q58 0 76 79l194 -53q-58 -254 -241 -254q-49 0 -96.5 19t-77.5 42.5t-63 42.5t-56 19q-21 0 -36.5 -7.5
t-24 -24t-11.5 -24t-8 -26.5zM616 594h295l-147 430z" />
    <glyph glyph-name="Adieresis" unicode="&#xc4;" horiz-adv-x="1529" 
d="M20 0l545 1434h398l546 -1434h-395l-96 283h-508l-96 -283h-394zM373 1724q0 67 46.5 114.5t112.5 47.5t113 -47.5t47 -114.5q0 -66 -47 -112.5t-113 -46.5t-112.5 46.5t-46.5 112.5zM616 594h295l-147 430zM834 1724q0 68 47 115t114 47q66 0 113 -47.5t47 -114.5
q0 -66 -47 -112.5t-113 -46.5q-67 0 -114 46.5t-47 112.5z" />
    <glyph glyph-name="Aring" unicode="&#xc5;" horiz-adv-x="1529" 
d="M20 0l545 1434h398l546 -1434h-395l-96 283h-508l-96 -283h-394zM518 1751q0 103 72.5 175.5t175.5 72.5q101 0 173.5 -72.5t72.5 -175.5q0 -101 -72.5 -173.5t-173.5 -72.5q-103 0 -175.5 72.5t-72.5 173.5zM616 594h295l-147 430zM684 1751q0 -34 24 -58t58 -24t58 24
t24 58t-24 59t-58 25t-58 -25t-24 -59z" />
    <glyph glyph-name="AE" unicode="&#xc6;" horiz-adv-x="1923" 
d="M20 0l709 1434h1094v-347h-533v-206h496v-310h-496v-225h551v-346h-915v283h-383l-129 -283h-394zM684 592h242v495h-15z" />
    <glyph glyph-name="Ccedilla" unicode="&#xc7;" horiz-adv-x="1431" 
d="M786 -651q-64 0 -137.5 22t-120.5 54l95 206q78 -43 145 -43q100 0 100 78q0 68 -77 68q-35 0 -70 -23l-135 101l90 174q-177 25 -322 127.5t-229 261.5t-84 342q0 152 59 289.5t158.5 236t237.5 157t290 58.5q189 0 351.5 -87t265.5 -236l-303 -205q-52 76 -134.5 120
t-179.5 44q-159 0 -269.5 -109.5t-110.5 -267.5q0 -157 111 -266t269 -109q100 0 185 47.5t137 128.5l303 -205q-92 -138 -236.5 -226t-314.5 -105l-35 -68h9q111 0 195.5 -69t84.5 -187q0 -80 -27.5 -141t-74.5 -97t-104 -53.5t-122 -17.5z" />
    <glyph glyph-name="Egrave" unicode="&#xc8;" horiz-adv-x="1099" 
d="M102 0v1434h897v-347h-532v-206h496v-310h-496v-225h551v-346h-916zM256 1821h322l135 -285h-262z" />
    <glyph glyph-name="Eacute" unicode="&#xc9;" horiz-adv-x="1099" 
d="M102 0v1434h897v-347h-532v-206h496v-310h-496v-225h551v-346h-916zM391 1536l135 285h324l-197 -285h-262z" />
    <glyph glyph-name="Ecircumflex" unicode="&#xca;" horiz-adv-x="1099" 
d="M102 0v1434h897v-347h-532v-206h496v-310h-496v-225h551v-346h-916zM174 1536l225 285h318l227 -285h-299l-86 109l-88 -109h-297z" />
    <glyph glyph-name="Edieresis" unicode="&#xcb;" horiz-adv-x="1099" 
d="M102 0v1434h897v-347h-532v-206h496v-310h-496v-225h551v-346h-916zM170 1724q0 67 47 114.5t113 47.5t112.5 -47.5t46.5 -114.5q0 -66 -46.5 -112.5t-112.5 -46.5t-113 46.5t-47 112.5zM631 1724q0 68 47.5 115t114.5 47q66 0 112.5 -47.5t46.5 -114.5
q0 -66 -46.5 -112.5t-112.5 -46.5q-67 0 -114.5 46.5t-47.5 112.5z" />
    <glyph glyph-name="Igrave" unicode="&#xcc;" horiz-adv-x="569" 
d="M102 0v1434h365v-1434h-365zM-33 1821h322l135 -285h-262z" />
    <glyph glyph-name="Iacute" unicode="&#xcd;" horiz-adv-x="569" 
d="M102 0v1434h365v-1434h-365zM154 1536l135 285h323l-196 -285h-262z" />
    <glyph glyph-name="Icircumflex" unicode="&#xce;" horiz-adv-x="569" 
d="M102 0v1434h365v-1434h-365zM-100 1536l225 285h317l228 -285h-299l-86 109l-88 -109h-297z" />
    <glyph glyph-name="Idieresis" unicode="&#xcf;" horiz-adv-x="569" 
d="M102 0v1434h365v-1434h-365zM-106 1724q0 67 46.5 114.5t112.5 47.5t113 -47.5t47 -114.5q0 -66 -47 -112.5t-113 -46.5t-112.5 46.5t-46.5 112.5zM354 1724q0 68 47 115t115 47q66 0 113 -47.5t47 -114.5q0 -66 -47 -112.5t-113 -46.5q-67 0 -114.5 46.5t-47.5 112.5z
" />
    <glyph glyph-name="Eth" unicode="&#xd0;" horiz-adv-x="1536" 
d="M244 0v571h-203v291h203v572h487q215 0 389.5 -90.5t274.5 -255t100 -371.5q0 -208 -100 -372.5t-274.5 -254.5t-389.5 -90h-487zM608 365h123q178 0 283.5 96t105.5 256q0 159 -105.5 255.5t-283.5 96.5h-123v-207h291v-291h-291v-206z" />
    <glyph glyph-name="Ntilde" unicode="&#xd1;" horiz-adv-x="1495" 
d="M102 0v1434h387l539 -854v854h365v-1434h-389l-537 854v-854h-365zM354 1595q8 38 19.5 71.5t31 69t43.5 60.5t60 41t78 16q46 0 92.5 -19t78.5 -42t69 -42t65 -19q58 0 76 79l194 -53q-58 -254 -241 -254q-49 0 -96.5 19t-77.5 42.5t-63 42.5t-56 19q-21 0 -36.5 -7.5
t-24 -24t-11.5 -24t-8 -26.5z" />
    <glyph glyph-name="Ograve" unicode="&#xd2;" horiz-adv-x="1572" 
d="M786 -25q-152 0 -290 58.5t-237.5 157.5t-158.5 236.5t-59 289.5t59 289.5t158.5 236t237.5 157t290 58.5q202 0 373.5 -98.5t272 -269.5t100.5 -373t-100.5 -373t-272 -270t-373.5 -99zM406 717q0 -157 111 -267t269 -110q157 0 269 110.5t112 266.5t-112 266.5
t-269 110.5q-158 0 -269 -110t-111 -267zM475 1821h322l135 -285h-262z" />
    <glyph glyph-name="Oacute" unicode="&#xd3;" horiz-adv-x="1572" 
d="M786 -25q-152 0 -290 58.5t-237.5 157.5t-158.5 236.5t-59 289.5t59 289.5t158.5 236t237.5 157t290 58.5q202 0 373.5 -98.5t272 -269.5t100.5 -373t-100.5 -373t-272 -270t-373.5 -99zM406 717q0 -157 111 -267t269 -110q157 0 269 110.5t112 266.5t-112 266.5
t-269 110.5q-158 0 -269 -110t-111 -267zM653 1536l135 285h324l-197 -285h-262z" />
    <glyph glyph-name="Ocircumflex" unicode="&#xd4;" horiz-adv-x="1572" 
d="M786 -25q-152 0 -290 58.5t-237.5 157.5t-158.5 236.5t-59 289.5t59 289.5t158.5 236t237.5 157t290 58.5q202 0 373.5 -98.5t272 -269.5t100.5 -373t-100.5 -373t-272 -270t-373.5 -99zM401 1536l226 285h317l227 -285h-299l-86 109l-88 -109h-297zM406 717
q0 -157 111 -267t269 -110q157 0 269 110.5t112 266.5t-112 266.5t-269 110.5q-158 0 -269 -110t-111 -267z" />
    <glyph glyph-name="Otilde" unicode="&#xd5;" horiz-adv-x="1572" 
d="M786 -25q-152 0 -290 58.5t-237.5 157.5t-158.5 236.5t-59 289.5t59 289.5t158.5 236t237.5 157t290 58.5q202 0 373.5 -98.5t272 -269.5t100.5 -373t-100.5 -373t-272 -270t-373.5 -99zM399 1595q8 38 19.5 71.5t31 69t43.5 60.5t60 41t78 16q46 0 92.5 -19t78.5 -42
t69 -42t65 -19q58 0 76 79l194 -53q-58 -254 -241 -254q-49 0 -96.5 19t-77.5 42.5t-63 42.5t-56 19q-21 0 -36.5 -7.5t-24 -24t-11.5 -24t-8 -26.5zM406 717q0 -157 111 -267t269 -110q157 0 269 110.5t112 266.5t-112 266.5t-269 110.5q-158 0 -269 -110t-111 -267z" />
    <glyph glyph-name="Odieresis" unicode="&#xd6;" horiz-adv-x="1572" 
d="M786 -25q-152 0 -290 58.5t-237.5 157.5t-158.5 236.5t-59 289.5t59 289.5t158.5 236t237.5 157t290 58.5q202 0 373.5 -98.5t272 -269.5t100.5 -373t-100.5 -373t-272 -270t-373.5 -99zM395 1724q0 67 47 114.5t113 47.5t113 -47.5t47 -114.5q0 -66 -47 -112.5
t-113 -46.5t-113 46.5t-47 112.5zM406 717q0 -157 111 -267t269 -110q157 0 269 110.5t112 266.5t-112 266.5t-269 110.5q-158 0 -269 -110t-111 -267zM856 1724q0 68 47 115t115 47q66 0 113 -47.5t47 -114.5q0 -66 -47 -112.5t-113 -46.5q-67 0 -114.5 46.5t-47.5 112.5z
" />
    <glyph glyph-name="multiply" unicode="&#xd7;" horiz-adv-x="978" 
d="M326 203l-244 246l162 161l-162 162l244 246l163 -162l162 162l246 -246l-164 -162l164 -161l-246 -246l-162 162z" />
    <glyph glyph-name="Oslash" unicode="&#xd8;" horiz-adv-x="1632" 
d="M221 -27l-190 205l155 144q-114 182 -114 395q0 152 59 289.5t158.5 236t237.5 157t290 58.5q243 0 438 -143l158 145l189 -203l-156 -143q117 -182 117 -397q0 -152 -59.5 -289t-159.5 -236t-238 -157t-289 -58q-246 0 -440 142zM436 717q0 -68 27 -137l516 477
q-79 37 -162 37q-159 0 -270 -109.5t-111 -267.5zM653 377q78 -35 164 -35q157 0 269 109.5t112 265.5q0 70 -29 139z" />
    <glyph glyph-name="Ugrave" unicode="&#xd9;" horiz-adv-x="1449" 
d="M725 -25q-293 0 -458 159t-165 464v836h367v-818q0 -133 66.5 -204.5t189.5 -71.5t190.5 71.5t67.5 204.5v818h365v-836q0 -305 -165 -464t-458 -159zM424 1821h321l136 -285h-263z" />
    <glyph glyph-name="Uacute" unicode="&#xda;" horiz-adv-x="1449" 
d="M725 -25q-293 0 -458 159t-165 464v836h367v-818q0 -133 66.5 -204.5t189.5 -71.5t190.5 71.5t67.5 204.5v818h365v-836q0 -305 -165 -464t-458 -159zM584 1536l135 285h323l-196 -285h-262z" />
    <glyph glyph-name="Ucircumflex" unicode="&#xdb;" horiz-adv-x="1449" 
d="M725 -25q-293 0 -458 159t-165 464v836h367v-818q0 -133 66.5 -204.5t189.5 -71.5t190.5 71.5t67.5 204.5v818h365v-836q0 -305 -165 -464t-458 -159zM340 1536l225 285h318l227 -285h-299l-86 109l-88 -109h-297z" />
    <glyph glyph-name="Udieresis" unicode="&#xdc;" horiz-adv-x="1449" 
d="M725 -25q-293 0 -458 159t-165 464v836h367v-818q0 -133 66.5 -204.5t189.5 -71.5t190.5 71.5t67.5 204.5v818h365v-836q0 -305 -165 -464t-458 -159zM334 1724q0 67 47 114.5t113 47.5t112.5 -47.5t46.5 -114.5q0 -66 -46.5 -112.5t-112.5 -46.5t-113 46.5t-47 112.5z
M795 1724q0 68 47 115t114 47q66 0 113 -47.5t47 -114.5q0 -66 -47 -112.5t-113 -46.5q-67 0 -114 46.5t-47 112.5z" />
    <glyph glyph-name="Yacute" unicode="&#xdd;" horiz-adv-x="1490" 
d="M563 0v627l-543 807h406l319 -482l318 482h407l-542 -807v-627h-365zM610 1536l135 285h324l-197 -285h-262z" />
    <glyph glyph-name="Thorn" unicode="&#xde;" horiz-adv-x="1214" 
d="M102 0v1434h365v-217h129q251 0 404 -134t153 -374q0 -238 -151.5 -365t-405.5 -127h-129v-217h-365zM467 547h129q87 0 136.5 43t49.5 119q0 75 -50 118t-136 43h-129v-323z" />
    <glyph glyph-name="germandbls" unicode="&#xdf;" horiz-adv-x="1187" 
d="M641 -23q-15 0 -82 5v319q103 -8 171.5 28t68.5 120q0 62 -51 97.5t-144 35.5h-45v303h8q68 0 103 35.5t35 95.5q0 56 -37.5 93.5t-102.5 37.5t-105 -51t-40 -138v-958h-328v958q0 126 36.5 223.5t101.5 157t148.5 89.5t182.5 30q126 0 228.5 -47t164.5 -138.5t62 -211.5
q0 -172 -121 -275q107 -56 169 -148.5t62 -211.5q0 -113 -37.5 -200.5t-104.5 -141t-153.5 -80.5t-189.5 -27z" />
    <glyph glyph-name="agrave" unicode="&#xe0;" 
d="M569 -25q-153 0 -273 75.5t-182.5 198.5t-62.5 269q0 147 63 270t182.5 198t272.5 75q161 0 287 -92v69h328v-1038h-328v68q-127 -93 -287 -93zM342 1432h322l135 -285h-262zM381 518q0 -94 65.5 -159.5t159.5 -65.5t159.5 65.5t65.5 159.5t-65.5 160.5t-159.5 66.5
t-159.5 -66.5t-65.5 -160.5z" />
    <glyph glyph-name="aacute" unicode="&#xe1;" 
d="M569 -25q-153 0 -273 75.5t-182.5 198.5t-62.5 269q0 147 63 270t182.5 198t272.5 75q161 0 287 -92v69h328v-1038h-328v68q-127 -93 -287 -93zM381 518q0 -94 65.5 -159.5t159.5 -65.5t159.5 65.5t65.5 159.5t-65.5 160.5t-159.5 66.5t-159.5 -66.5t-65.5 -160.5z
M477 1147l135 285h324l-197 -285h-262z" />
    <glyph glyph-name="acircumflex" unicode="&#xe2;" 
d="M569 -25q-153 0 -273 75.5t-182.5 198.5t-62.5 269q0 147 63 270t182.5 198t272.5 75q161 0 287 -92v69h328v-1038h-328v68q-127 -93 -287 -93zM262 1147l225 285h318l227 -285h-299l-86 108l-88 -108h-297zM381 518q0 -94 65.5 -159.5t159.5 -65.5t159.5 65.5
t65.5 159.5t-65.5 160.5t-159.5 66.5t-159.5 -66.5t-65.5 -160.5z" />
    <glyph glyph-name="atilde" unicode="&#xe3;" 
d="M569 -25q-153 0 -273 75.5t-182.5 198.5t-62.5 269q0 147 63 270t182.5 198t272.5 75q161 0 287 -92v69h328v-1038h-328v68q-127 -93 -287 -93zM233 1221q8 38 19.5 71.5t31 69t43.5 60.5t60 41t78 16q46 0 92.5 -19t78.5 -42.5t69 -42.5t65 -19q58 0 76 80l194 -54
q-58 -254 -241 -254q-49 0 -96.5 19t-77.5 42.5t-63 42.5t-56 19q-21 0 -36.5 -7.5t-24 -24t-11.5 -24t-8 -26.5zM381 518q0 -94 65.5 -159.5t159.5 -65.5t159.5 65.5t65.5 159.5t-65.5 160.5t-159.5 66.5t-159.5 -66.5t-65.5 -160.5z" />
    <glyph glyph-name="adieresis" unicode="&#xe4;" 
d="M569 -25q-153 0 -273 75.5t-182.5 198.5t-62.5 269q0 147 63 270t182.5 198t272.5 75q161 0 287 -92v69h328v-1038h-328v68q-127 -93 -287 -93zM260 1315q0 67 47 114.5t113 47.5t113 -47.5t47 -114.5q0 -66 -47 -113t-113 -47t-113 47t-47 113zM381 518
q0 -94 65.5 -159.5t159.5 -65.5t159.5 65.5t65.5 159.5t-65.5 160.5t-159.5 66.5t-159.5 -66.5t-65.5 -160.5zM721 1315q0 67 47.5 114.5t114.5 47.5q66 0 112.5 -47.5t46.5 -114.5q0 -66 -46.5 -113t-112.5 -47q-67 0 -114.5 47t-47.5 113z" />
    <glyph glyph-name="aring" unicode="&#xe5;" 
d="M569 -25q-153 0 -273 75.5t-182.5 198.5t-62.5 269q0 147 63 270t182.5 198t272.5 75q161 0 287 -92v69h328v-1038h-328v68q-127 -93 -287 -93zM356 1384q0 103 72.5 175.5t175.5 72.5q101 0 173.5 -72.5t72.5 -175.5q0 -101 -72.5 -173t-173.5 -72q-103 0 -175.5 72
t-72.5 173zM381 518q0 -94 65.5 -159.5t159.5 -65.5t159.5 65.5t65.5 159.5t-65.5 160.5t-159.5 66.5t-159.5 -66.5t-65.5 -160.5zM522 1384q0 -34 24 -57.5t58 -23.5t58 23.5t24 57.5t-24 59t-58 25t-58 -25t-24 -59z" />
    <glyph glyph-name="ae" unicode="&#xe6;" horiz-adv-x="2125" 
d="M569 -23q-153 0 -273 75t-182.5 197.5t-62.5 268.5q0 147 63 270t182.5 198t272.5 75q179 0 303 -117v94h328v-108q131 131 318 131q92 0 179 -28t160 -83.5t125.5 -132t77 -180.5t11.5 -221h-762q26 -66 83.5 -104t143.5 -38q76 0 132 29t89 72l273 -144
q-75 -117 -198.5 -185.5t-295.5 -68.5q-201 0 -336 125v-102h-328v94q-124 -117 -303 -117zM379 518q0 -93 66 -159t159 -66q94 0 160.5 66.5t66.5 158.5q0 94 -66.5 160.5t-160.5 66.5t-159.5 -66.5t-65.5 -160.5zM1317 635h407q-25 60 -79.5 94.5t-126.5 34.5
q-69 0 -121 -35.5t-80 -93.5z" />
    <glyph glyph-name="ccedilla" unicode="&#xe7;" horiz-adv-x="1140" 
d="M578 -651q-65 0 -139.5 22.5t-121.5 53.5l97 206q73 -43 145 -43q51 0 75.5 21.5t24.5 56.5q0 68 -77 68q-26 0 -72 -23l-133 101l94 180q-184 45 -302 190.5t-118 337.5q0 112 44 213t118 173t176 114.5t215 42.5q159 0 292.5 -80.5t203.5 -214.5l-295 -143
q-30 55 -83 87.5t-118 32.5q-94 0 -159.5 -65.5t-65.5 -159.5t65.5 -160.5t159.5 -66.5q65 0 118 33t83 88l295 -144q-65 -124 -185 -202t-266 -88l-33 -66h9q111 0 194.5 -69t83.5 -187q0 -80 -27 -141t-73.5 -97t-103 -53.5t-121.5 -17.5z" />
    <glyph glyph-name="egrave" unicode="&#xe8;" horiz-adv-x="1218" 
d="M635 -25q-264 0 -424 154.5t-160 388.5q0 151 75 276t202 196t278 71q114 0 222 -47t189 -129t122 -207t22 -268h-737q62 -119 211 -119q71 0 123 25.5t80 62.5l284 -131q-64 -122 -192.5 -197.5t-294.5 -75.5zM285 1432h321l135 -285h-262zM426 627h373q-26 54 -76 86
t-117 32q-61 0 -107.5 -32.5t-72.5 -85.5z" />
    <glyph glyph-name="eacute" unicode="&#xe9;" horiz-adv-x="1218" 
d="M635 -25q-264 0 -424 154.5t-160 388.5q0 151 75 276t202 196t278 71q114 0 222 -47t189 -129t122 -207t22 -268h-737q62 -119 211 -119q71 0 123 25.5t80 62.5l284 -131q-64 -122 -192.5 -197.5t-294.5 -75.5zM426 627h373q-26 54 -76 86t-117 32q-61 0 -107.5 -32.5
t-72.5 -85.5zM442 1147l136 285h323l-196 -285h-263z" />
    <glyph glyph-name="ecircumflex" unicode="&#xea;" horiz-adv-x="1218" 
d="M635 -25q-264 0 -424 154.5t-160 388.5q0 151 75 276t202 196t278 71q114 0 222 -47t189 -129t122 -207t22 -268h-737q62 -119 211 -119q71 0 123 25.5t80 62.5l284 -131q-64 -122 -192.5 -197.5t-294.5 -75.5zM223 1147l226 285h317l227 -285h-299l-86 108l-88 -108
h-297zM426 627h373q-26 54 -76 86t-117 32q-61 0 -107.5 -32.5t-72.5 -85.5z" />
    <glyph glyph-name="edieresis" unicode="&#xeb;" horiz-adv-x="1218" 
d="M635 -25q-264 0 -424 154.5t-160 388.5q0 151 75 276t202 196t278 71q114 0 222 -47t189 -129t122 -207t22 -268h-737q62 -119 211 -119q71 0 123 25.5t80 62.5l284 -131q-64 -122 -192.5 -197.5t-294.5 -75.5zM217 1315q0 67 47 114.5t113 47.5t113 -47.5t47 -114.5
q0 -66 -47 -113t-113 -47t-113 47t-47 113zM426 627h373q-26 54 -76 86t-117 32q-61 0 -107.5 -32.5t-72.5 -85.5zM678 1315q0 67 47 114.5t115 47.5q66 0 112.5 -47.5t46.5 -114.5q0 -66 -46.5 -113t-112.5 -47q-67 0 -114.5 47t-47.5 113z" />
    <glyph glyph-name="igrave" unicode="&#xec;" horiz-adv-x="522" 
d="M96 0v1038h330v-1038h-330zM-70 1432h322l135 -285h-262z" />
    <glyph glyph-name="iacute" unicode="&#xed;" horiz-adv-x="522" 
d="M96 0v1038h330v-1038h-330zM123 1147l135 285h324l-197 -285h-262z" />
    <glyph glyph-name="icircumflex" unicode="&#xee;" horiz-adv-x="522" 
d="M96 0v1038h330v-1038h-330zM-125 1147l225 285h318l227 -285h-299l-86 108l-88 -108h-297z" />
    <glyph glyph-name="idieresis" unicode="&#xef;" horiz-adv-x="522" 
d="M96 0v1038h330v-1038h-330zM-131 1315q0 67 47 114.5t113 47.5t112.5 -47.5t46.5 -114.5q0 -66 -46.5 -113t-112.5 -47t-113 47t-47 113zM330 1315q0 67 47 114.5t115 47.5q66 0 112.5 -47.5t46.5 -114.5q0 -66 -46.5 -113t-112.5 -47q-67 0 -114.5 47t-47.5 113z" />
    <glyph glyph-name="eth" unicode="&#xf0;" horiz-adv-x="1153" 
d="M575 -23q-142 0 -263 70.5t-191 191.5t-70 263q0 143 70.5 260t190.5 182.5t263 65.5q45 0 89 -6q-57 84 -140 157l-198 -139l-125 176l133 94q-87 48 -230 90l97 246q200 -68 364 -176l242 170l125 -176l-189 -131q172 -162 265.5 -368.5t93.5 -444.5q0 -142 -70.5 -263
t-192 -191.5t-264.5 -70.5zM379 502q0 -82 57 -139.5t139 -57.5q83 0 141 57.5t58 139.5t-58 140t-141 58q-82 0 -139 -58t-57 -140z" />
    <glyph glyph-name="ntilde" unicode="&#xf1;" horiz-adv-x="1251" 
d="M92 0v1038h328v-102q95 125 280 125q116 0 205.5 -43.5t144 -119.5t82 -172t27.5 -208v-518h-330v518q0 99 -51.5 166.5t-150.5 67.5q-93 0 -150 -62.5t-57 -175.5v-514h-328zM201 1221q56 258 231 258q46 0 92.5 -19t78.5 -42.5t69 -42.5t65 -19q58 0 76 80l195 -54
q-58 -254 -242 -254q-49 0 -96.5 19t-77.5 42.5t-63 42.5t-56 19q-21 0 -36.5 -7.5t-24 -24t-11.5 -24t-8 -26.5z" />
    <glyph glyph-name="ograve" unicode="&#xf2;" horiz-adv-x="1212" 
d="M606 -25q-113 0 -215.5 42.5t-177 114.5t-118.5 173t-44 213t44 213t118.5 173t177 114.5t215.5 42.5t215.5 -42.5t177 -114.5t118.5 -173t44 -213t-44 -213t-118.5 -173t-177 -114.5t-215.5 -42.5zM260 1432h322l135 -285h-262zM381 518q0 -94 65.5 -159.5t159.5 -65.5
t159.5 65.5t65.5 159.5t-65.5 160.5t-159.5 66.5t-159.5 -66.5t-65.5 -160.5z" />
    <glyph glyph-name="oacute" unicode="&#xf3;" horiz-adv-x="1212" 
d="M606 -25q-113 0 -215.5 42.5t-177 114.5t-118.5 173t-44 213t44 213t118.5 173t177 114.5t215.5 42.5t215.5 -42.5t177 -114.5t118.5 -173t44 -213t-44 -213t-118.5 -173t-177 -114.5t-215.5 -42.5zM381 518q0 -94 65.5 -159.5t159.5 -65.5t159.5 65.5t65.5 159.5
t-65.5 160.5t-159.5 66.5t-159.5 -66.5t-65.5 -160.5zM451 1147l135 285h323l-196 -285h-262z" />
    <glyph glyph-name="ocircumflex" unicode="&#xf4;" horiz-adv-x="1212" 
d="M606 -25q-113 0 -215.5 42.5t-177 114.5t-118.5 173t-44 213t44 213t118.5 173t177 114.5t215.5 42.5t215.5 -42.5t177 -114.5t118.5 -173t44 -213t-44 -213t-118.5 -173t-177 -114.5t-215.5 -42.5zM221 1147l225 285h318l227 -285h-299l-86 108l-88 -108h-297zM381 518
q0 -94 65.5 -159.5t159.5 -65.5t159.5 65.5t65.5 159.5t-65.5 160.5t-159.5 66.5t-159.5 -66.5t-65.5 -160.5z" />
    <glyph glyph-name="otilde" unicode="&#xf5;" horiz-adv-x="1212" 
d="M606 -25q-113 0 -215.5 42.5t-177 114.5t-118.5 173t-44 213t44 213t118.5 173t177 114.5t215.5 42.5t215.5 -42.5t177 -114.5t118.5 -173t44 -213t-44 -213t-118.5 -173t-177 -114.5t-215.5 -42.5zM184 1221q8 38 19.5 71.5t31 69t43.5 60.5t60 41t78 16q46 0 92.5 -19
t78.5 -42.5t69 -42.5t65 -19q58 0 76 80l194 -54q-58 -254 -241 -254q-49 0 -96.5 19t-77.5 42.5t-63 42.5t-56 19q-21 0 -36.5 -7.5t-24 -24t-11.5 -24t-8 -26.5zM381 518q0 -94 65.5 -159.5t159.5 -65.5t159.5 65.5t65.5 159.5t-65.5 160.5t-159.5 66.5t-159.5 -66.5
t-65.5 -160.5z" />
    <glyph glyph-name="odieresis" unicode="&#xf6;" horiz-adv-x="1212" 
d="M606 -25q-113 0 -215.5 42.5t-177 114.5t-118.5 173t-44 213t44 213t118.5 173t177 114.5t215.5 42.5t215.5 -42.5t177 -114.5t118.5 -173t44 -213t-44 -213t-118.5 -173t-177 -114.5t-215.5 -42.5zM215 1315q0 67 47 114.5t113 47.5t113 -47.5t47 -114.5q0 -66 -47 -113
t-113 -47t-113 47t-47 113zM381 518q0 -94 65.5 -159.5t159.5 -65.5t159.5 65.5t65.5 159.5t-65.5 160.5t-159.5 66.5t-159.5 -66.5t-65.5 -160.5zM676 1315q0 67 47 114.5t115 47.5q66 0 112.5 -47.5t46.5 -114.5q0 -66 -46.5 -113t-112.5 -47q-67 0 -114.5 47t-47.5 113z
" />
    <glyph glyph-name="divide" unicode="&#xf7;" horiz-adv-x="1083" 
d="M102 455v311h879v-311h-879zM369 207q0 71 51 121.5t123 50.5q71 0 121.5 -50.5t50.5 -121.5q0 -72 -50.5 -122t-121.5 -50q-72 0 -123 50t-51 122zM369 1014q0 72 51 122t123 50q71 0 121.5 -50t50.5 -122t-50.5 -122t-121.5 -50q-72 0 -123 50t-51 122z" />
    <glyph glyph-name="oslash" unicode="&#xf8;" horiz-adv-x="1286" 
d="M164 -70l-144 154l156 143q-86 131 -86 291q0 113 44 214t118 173t176 114t215 42q176 0 324 -98l157 145l142 -154l-154 -143q86 -131 86 -293q0 -150 -74.5 -274.5t-201.5 -195.5t-279 -71q-175 0 -321 99zM418 518q0 -32 8 -59l293 272q-32 14 -76 14
q-94 0 -159.5 -66.5t-65.5 -160.5zM567 307q35 -14 76 -14q94 0 160.5 66.5t66.5 158.5q0 22 -8 62z" />
    <glyph glyph-name="ugrave" unicode="&#xf9;" horiz-adv-x="1251" 
d="M551 -25q-117 0 -207 43.5t-144 119.5t-81 172t-27 208v520h328v-520q0 -97 53 -164t152 -67q93 0 149.5 61.5t56.5 173.5v516h328v-1038h-328v100q-98 -125 -280 -125zM332 1432h321l135 -285h-262z" />
    <glyph glyph-name="uacute" unicode="&#xfa;" horiz-adv-x="1251" 
d="M551 -25q-117 0 -207 43.5t-144 119.5t-81 172t-27 208v520h328v-520q0 -97 53 -164t152 -67q93 0 149.5 61.5t56.5 173.5v516h328v-1038h-328v100q-98 -125 -280 -125zM489 1147l136 285h323l-196 -285h-263z" />
    <glyph glyph-name="ucircumflex" unicode="&#xfb;" horiz-adv-x="1251" 
d="M551 -25q-117 0 -207 43.5t-144 119.5t-81 172t-27 208v520h328v-520q0 -97 53 -164t152 -67q93 0 149.5 61.5t56.5 173.5v516h328v-1038h-328v100q-98 -125 -280 -125zM240 1147l225 285h317l228 -285h-299l-86 108l-88 -108h-297z" />
    <glyph glyph-name="udieresis" unicode="&#xfc;" horiz-adv-x="1251" 
d="M551 -25q-117 0 -207 43.5t-144 119.5t-81 172t-27 208v520h328v-520q0 -97 53 -164t152 -67q93 0 149.5 61.5t56.5 173.5v516h328v-1038h-328v100q-98 -125 -280 -125zM233 1315q0 67 47 114.5t113 47.5t113 -47.5t47 -114.5q0 -66 -47 -113t-113 -47t-113 47t-47 113z
M694 1315q0 67 47 114.5t115 47.5q66 0 113 -47.5t47 -114.5q0 -66 -47 -113t-113 -47q-67 0 -114.5 47t-47.5 113z" />
    <glyph glyph-name="yacute" unicode="&#xfd;" horiz-adv-x="1241" 
d="M229 -487l213 520l-422 1005h365l236 -573l235 573h365l-641 -1525h-351zM485 1147l136 285h323l-196 -285h-263z" />
    <glyph glyph-name="thorn" unicode="&#xfe;" 
d="M92 -487v2013h328v-557q122 92 287 92q153 0 272.5 -75t182.5 -198t63 -270q0 -146 -62.5 -268.5t-182.5 -197.5t-273 -75q-164 0 -287 93v-557h-328zM444 518q0 -92 66 -158.5t160 -66.5t160.5 66.5t66.5 158.5q0 94 -66.5 160.5t-160.5 66.5t-160 -66.5t-66 -160.5z
" />
    <glyph glyph-name="ydieresis" unicode="&#xff;" horiz-adv-x="1241" 
d="M229 -487l213 520l-422 1005h365l236 -573l235 573h365l-641 -1525h-351zM229 1315q0 67 47 114.5t113 47.5t113 -47.5t47 -114.5q0 -66 -47 -113t-113 -47t-113 47t-47 113zM690 1315q0 67 47 114.5t115 47.5q66 0 113 -47.5t47 -114.5q0 -66 -47 -113t-113 -47
q-67 0 -114.5 47t-47.5 113z" />
    <glyph glyph-name="Amacron" unicode="&#x100;" horiz-adv-x="1529" 
d="M20 0l545 1434h398l546 -1434h-395l-96 283h-508l-96 -283h-394zM504 1548v256h520v-256h-520zM616 594h295l-147 430z" />
    <glyph glyph-name="amacron" unicode="&#x101;" 
d="M569 -25q-153 0 -273 75.5t-182.5 198.5t-62.5 269q0 147 63 270t182.5 198t272.5 75q161 0 287 -92v69h328v-1038h-328v68q-127 -93 -287 -93zM346 1159v256h520v-256h-520zM381 518q0 -94 65.5 -159.5t159.5 -65.5t159.5 65.5t65.5 159.5t-65.5 160.5t-159.5 66.5
t-159.5 -66.5t-65.5 -160.5z" />
    <glyph glyph-name="Abreve" unicode="&#x102;" horiz-adv-x="1529" 
d="M20 0l545 1434h398l546 -1434h-395l-96 283h-508l-96 -283h-394zM401 1841h254q0 -49 28 -80.5t83 -31.5t83 31.5t28 80.5h253q0 -84 -31 -148.5t-84 -102t-116 -56t-133 -18.5q-56 0 -107.5 11t-99 36.5t-82 62.5t-55.5 92t-21 123zM616 594h295l-147 430z" />
    <glyph glyph-name="abreve" unicode="&#x103;" 
d="M569 -25q-153 0 -273 75.5t-182.5 198.5t-62.5 269q0 147 63 270t182.5 198t272.5 75q161 0 287 -92v69h328v-1038h-328v68q-127 -93 -287 -93zM262 1473h254q0 -49 28 -81t83 -32t82.5 32t27.5 81h254q0 -84 -31 -148.5t-84 -102.5t-116 -56.5t-133 -18.5t-133.5 18.5
t-116 56.5t-84 102.5t-31.5 148.5zM381 518q0 -94 65.5 -159.5t159.5 -65.5t159.5 65.5t65.5 159.5t-65.5 160.5t-159.5 66.5t-159.5 -66.5t-65.5 -160.5z" />
    <glyph glyph-name="Aogonek" unicode="&#x104;" horiz-adv-x="1540" 
d="M1526 -596q-65 -16 -131 -17t-128.5 15t-111.5 47t-78.5 86t-29.5 127q0 56 22 110.5t58 97.5t69.5 74t69.5 56h-150l-96 285h-508l-96 -285h-396l547 1434h398l546 -1434q-36 -26 -58.5 -44t-50.5 -46.5t-42 -60t-14 -64.5q0 -41 19.5 -67.5t47.5 -34.5t59 -10.5t54 3.5
v-272zM618 594h295l-147 432z" />
    <glyph glyph-name="aogonek" unicode="&#x105;" horiz-adv-x="1282" 
d="M1200 -596q-65 -16 -131.5 -17t-129 15t-111.5 47t-79 86t-30 127q0 56 22 110.5t58 97.5t69.5 74t69.5 56h-82v70q-127 -93 -287 -93q-153 0 -272.5 75t-182.5 198t-63 270q0 146 62.5 269t182.5 198.5t273 75.5q161 0 287 -92v67h328v-1038q-37 -27 -57.5 -44
t-49.5 -46.5t-43 -60.5t-14 -64q0 -41 19.5 -67.5t47.5 -34.5t59 -10.5t54 3.5v-272zM379 520q0 -94 66.5 -160.5t160.5 -66.5t159.5 66.5t65.5 160.5t-65.5 159.5t-159.5 65.5t-160.5 -65.5t-66.5 -159.5z" />
    <glyph glyph-name="Cacute" unicode="&#x106;" horiz-adv-x="1431" 
d="M786 -25q-152 0 -290 58.5t-237.5 157.5t-158.5 236.5t-59 289.5t59 289.5t158.5 236t237.5 157t290 58.5q189 0 351.5 -87.5t265.5 -237.5l-303 -203q-52 75 -135.5 119.5t-178.5 44.5q-158 0 -269 -110t-111 -267t111 -267t269 -110q99 0 184.5 48t137.5 128l303 -203
q-102 -155 -267.5 -246.5t-357.5 -91.5zM594 1536l135 285h324l-197 -285h-262z" />
    <glyph glyph-name="cacute" unicode="&#x107;" horiz-adv-x="1138" 
d="M604 -25q-113 0 -215 42.5t-176 114.5t-118 173t-44 213t44 213t118 173t176 114.5t215 42.5q160 0 293 -80t201 -213l-293 -143q-30 55 -83 87.5t-118 32.5q-94 0 -159.5 -66.5t-65.5 -160.5t65.5 -159.5t159.5 -65.5q65 0 118 33t83 88l293 -144
q-68 -134 -201.5 -214.5t-292.5 -80.5zM442 1147l136 285h323l-196 -285h-263z" />
    <glyph glyph-name="ccircumflex" unicode="&#x109;" horiz-adv-x="1138" 
d="M604 -25q-113 0 -215 42.5t-176 114.5t-118 173t-44 213t44 213t118 173t176 114.5t215 42.5q160 0 293 -80t201 -213l-293 -143q-30 55 -83 87.5t-118 32.5q-94 0 -159.5 -66.5t-65.5 -160.5t65.5 -159.5t159.5 -65.5q65 0 118 33t83 88l293 -144
q-68 -134 -201.5 -214.5t-292.5 -80.5zM197 1147l225 285h317l228 -285h-299l-86 108l-88 -108h-297z" />
    <glyph glyph-name="Cdotaccent" unicode="&#x10a;" horiz-adv-x="1431" 
d="M786 -25q-152 0 -290 58.5t-237.5 157.5t-158.5 236.5t-59 289.5t59 289.5t158.5 236t237.5 157t290 58.5q189 0 351.5 -87.5t265.5 -237.5l-303 -203q-52 75 -135.5 119.5t-178.5 44.5q-158 0 -269 -110t-111 -267t111 -267t269 -110q99 0 184.5 48t137.5 128l303 -203
q-102 -155 -267.5 -246.5t-357.5 -91.5zM580 1724q0 67 46.5 114.5t112.5 47.5t113 -47.5t47 -114.5q0 -66 -47 -112.5t-113 -46.5t-112.5 46.5t-46.5 112.5z" />
    <glyph glyph-name="cdotaccent" unicode="&#x10b;" horiz-adv-x="1138" 
d="M604 -25q-113 0 -215 42.5t-176 114.5t-118 173t-44 213t44 213t118 173t176 114.5t215 42.5q160 0 293 -80t201 -213l-293 -143q-30 55 -83 87.5t-118 32.5q-94 0 -159.5 -66.5t-65.5 -160.5t65.5 -159.5t159.5 -65.5q65 0 118 33t83 88l293 -144
q-68 -134 -201.5 -214.5t-292.5 -80.5zM414 1315q0 67 46.5 114.5t112.5 47.5t113 -47.5t47 -114.5q0 -66 -47 -113t-113 -47t-112.5 47t-46.5 113z" />
    <glyph glyph-name="Ccaron" unicode="&#x10c;" horiz-adv-x="1431" 
d="M786 -25q-152 0 -290 58.5t-237.5 157.5t-158.5 236.5t-59 289.5t59 289.5t158.5 236t237.5 157t290 58.5q189 0 351.5 -87.5t265.5 -237.5l-303 -203q-52 75 -135.5 119.5t-178.5 44.5q-158 0 -269 -110t-111 -267t111 -267t269 -110q99 0 184.5 48t137.5 128l303 -203
q-102 -155 -267.5 -246.5t-357.5 -91.5zM360 1821h299l86 -111l89 111h296l-227 -285h-315z" />
    <glyph glyph-name="ccaron" unicode="&#x10d;" horiz-adv-x="1138" 
d="M604 -25q-113 0 -215 42.5t-176 114.5t-118 173t-44 213t44 213t118 173t176 114.5t215 42.5q160 0 293 -80t201 -213l-293 -143q-30 55 -83 87.5t-118 32.5q-94 0 -159.5 -66.5t-65.5 -160.5t65.5 -159.5t159.5 -65.5q65 0 118 33t83 88l293 -144
q-68 -134 -201.5 -214.5t-292.5 -80.5zM186 1432h299l86 -111l88 111h297l-227 -285h-315z" />
    <glyph glyph-name="Dcaron" unicode="&#x10e;" horiz-adv-x="1394" 
d="M102 0v1434h488q215 0 389.5 -90.5t274.5 -255t100 -371.5t-100 -371.5t-274.5 -255t-389.5 -90.5h-488zM180 1821h299l86 -111l88 111h297l-227 -285h-315zM467 365h123q178 0 284.5 96t106.5 256t-106.5 256t-284.5 96h-123v-704z" />
    <glyph glyph-name="dcaron" unicode="&#x10f;" 
d="M569 -25q-153 0 -273 75.5t-182.5 198.5t-62.5 269q0 147 63 270t182.5 198t272.5 75q161 0 287 -92v555h328v-1524h-328v68q-127 -93 -287 -93zM379 518q0 -94 66.5 -159.5t160.5 -65.5t159.5 65.5t65.5 159.5t-65.5 160.5t-159.5 66.5t-160.5 -66.5t-66.5 -160.5z
M1284 1149l141 375h308l-191 -375h-258z" />
    <glyph glyph-name="Dcroat" unicode="&#x110;" horiz-adv-x="1536" 
d="M244 0v571h-203v291h203v572h487q215 0 389.5 -90.5t274.5 -255t100 -371.5q0 -208 -100 -372.5t-274.5 -254.5t-389.5 -90h-487zM608 365h123q178 0 283.5 96t105.5 256q0 159 -105.5 255.5t-283.5 96.5h-123v-207h291v-291h-291v-206z" />
    <glyph glyph-name="dcroat" unicode="&#x111;" horiz-adv-x="1374" 
d="M569 -23q-153 0 -273 75t-182.5 197.5t-62.5 268.5q0 147 63 270t182.5 198t272.5 75q163 0 285 -92v192h-262v238h262v127h330v-127h170v-238h-170v-1161h-330v70q-123 -93 -285 -93zM379 518q0 -92 66.5 -158.5t158.5 -66.5q94 0 160.5 66.5t66.5 158.5
q0 94 -66.5 160.5t-160.5 66.5q-92 0 -158.5 -66.5t-66.5 -160.5z" />
    <glyph glyph-name="Emacron" unicode="&#x112;" horiz-adv-x="1099" 
d="M102 0v1434h897v-347h-532v-206h496v-310h-496v-225h551v-346h-916zM301 1548v256h520v-256h-520z" />
    <glyph glyph-name="emacron" unicode="&#x113;" horiz-adv-x="1218" 
d="M635 -25q-264 0 -424 154.5t-160 388.5q0 151 75 276t202 196t278 71q114 0 222 -47t189 -129t122 -207t22 -268h-737q62 -119 211 -119q71 0 123 25.5t80 62.5l284 -131q-64 -122 -192.5 -197.5t-294.5 -75.5zM348 1159v256h520v-256h-520zM426 627h373q-26 54 -76 86
t-117 32q-61 0 -107.5 -32.5t-72.5 -85.5z" />
    <glyph glyph-name="Edotaccent" unicode="&#x116;" horiz-adv-x="1099" 
d="M102 0v1434h897v-347h-532v-206h496v-310h-496v-225h551v-346h-916zM401 1724q0 67 47 114.5t113 47.5t113 -47.5t47 -114.5q0 -66 -47 -112.5t-113 -46.5t-113 46.5t-47 112.5z" />
    <glyph glyph-name="edotaccent" unicode="&#x117;" horiz-adv-x="1218" 
d="M635 -25q-264 0 -424 154.5t-160 388.5q0 151 75 276t202 196t278 71q114 0 222 -47t189 -129t122 -207t22 -268h-737q62 -119 211 -119q71 0 123 25.5t80 62.5l284 -131q-64 -122 -192.5 -197.5t-294.5 -75.5zM426 627h373q-26 54 -76 86t-117 32q-61 0 -107.5 -32.5
t-72.5 -85.5zM449 1315q0 67 46.5 114.5t112.5 47.5t113 -47.5t47 -114.5q0 -66 -47 -113t-113 -47t-112.5 47t-46.5 113z" />
    <glyph glyph-name="Eogonek" unicode="&#x118;" horiz-adv-x="1110" 
d="M1032 -596q-65 -16 -131.5 -17t-129 15t-111.5 47t-79 86t-30 127q0 56 22 110.5t58.5 98t70.5 74t70 55.5h-670v1434h895v-347h-530v-204h494v-312h-494v-223h549v-348q-37 -27 -57.5 -44t-49.5 -46.5t-43 -60.5t-14 -64q0 -41 19.5 -67.5t47.5 -34.5t59 -10.5t54 3.5
v-272z" />
    <glyph glyph-name="eogonek" unicode="&#x119;" horiz-adv-x="1214" 
d="M924 -596q-65 -16 -131.5 -17t-129.5 15t-112 47t-79 86t-30 127q0 159 189 315h-8q-167 0 -298.5 72t-202.5 195.5t-71 275.5q0 150 74.5 275t202 196.5t278.5 71.5q92 0 179 -28t160 -84t125.5 -132.5t77 -181t11.5 -221.5h-762q26 -66 84 -104t144 -38q145 0 221 103
l272 -146q-78 -120 -203 -186q-67 -43 -119.5 -116t-52.5 -144q0 -41 19.5 -67.5t48 -34.5t59.5 -10.5t54 3.5v-272zM406 635h407q-25 60 -80 94.5t-127 34.5q-69 0 -120.5 -35.5t-79.5 -93.5z" />
    <glyph glyph-name="Ecaron" unicode="&#x11a;" horiz-adv-x="1099" 
d="M102 0v1434h897v-347h-532v-206h496v-310h-496v-225h551v-346h-916zM174 1821h299l86 -111l88 111h297l-227 -285h-316z" />
    <glyph glyph-name="ecaron" unicode="&#x11b;" horiz-adv-x="1218" 
d="M635 -25q-264 0 -424 154.5t-160 388.5q0 151 75 276t202 196t278 71q114 0 222 -47t189 -129t122 -207t22 -268h-737q62 -119 211 -119q71 0 123 25.5t80 62.5l284 -131q-64 -122 -192.5 -197.5t-294.5 -75.5zM223 1432h299l86 -111l88 111h297l-227 -285h-315zM426 627
h373q-26 54 -76 86t-117 32q-61 0 -107.5 -32.5t-72.5 -85.5z" />
    <glyph glyph-name="gcircumflex" unicode="&#x11d;" 
d="M618 -487q-168 0 -309 72t-203 204l267 135q28 -49 92.5 -80.5t152.5 -31.5q114 0 175 62.5t61 178.5v29q-122 -88 -285 -88q-154 0 -273 70.5t-182 189t-63 264.5q0 147 63 270t182.5 198t272.5 75q162 0 285 -92v69h330v-985q0 -243 -157.5 -391.5t-408.5 -148.5z
M223 1147l226 285h317l227 -285h-299l-86 108l-88 -108h-297zM379 518q0 -94 66.5 -159.5t160.5 -65.5t159.5 65.5t65.5 159.5t-65.5 160.5t-159.5 66.5t-160.5 -66.5t-66.5 -160.5z" />
    <glyph glyph-name="Gbreve" unicode="&#x11e;" horiz-adv-x="1556" 
d="M786 -25q-152 0 -290 58.5t-237.5 157.5t-158.5 236.5t-59 289.5t59 289.5t158.5 236t237.5 157t290 58.5q189 0 351.5 -87.5t265.5 -237.5l-303 -203q-52 75 -135.5 119.5t-178.5 44.5q-158 0 -269 -110t-111 -267t111 -267t269 -110q125 0 212 51t124 154h-409v291h803
v-101q0 -178 -54.5 -322.5t-151.5 -240t-231 -146.5t-293 -51zM414 1841h254q0 -49 27.5 -80.5t82.5 -31.5t83 31.5t28 80.5h254q0 -68 -21 -123t-55.5 -92t-82 -62.5t-99 -36.5t-107.5 -11q-70 0 -133 18.5t-116 56t-84 102t-31 148.5z" />
    <glyph glyph-name="gbreve" unicode="&#x11f;" 
d="M618 -487q-168 0 -309 72t-203 204l267 135q28 -49 92.5 -80.5t152.5 -31.5q114 0 175 62.5t61 178.5v29q-122 -88 -285 -88q-154 0 -273 70.5t-182 189t-63 264.5q0 147 63 270t182.5 198t272.5 75q162 0 285 -92v69h330v-985q0 -243 -157.5 -391.5t-408.5 -148.5z
M264 1473h254q0 -49 28 -81t83 -32t82.5 32t27.5 81h254q0 -84 -31 -148.5t-84 -102.5t-116 -56.5t-133 -18.5t-133.5 18.5t-116 56.5t-84 102.5t-31.5 148.5zM379 518q0 -94 66.5 -159.5t160.5 -65.5t159.5 65.5t65.5 159.5t-65.5 160.5t-159.5 66.5t-160.5 -66.5
t-66.5 -160.5z" />
    <glyph glyph-name="Gdotaccent" unicode="&#x120;" horiz-adv-x="1556" 
d="M786 -25q-152 0 -290 58.5t-237.5 157.5t-158.5 236.5t-59 289.5t59 289.5t158.5 236t237.5 157t290 58.5q189 0 351.5 -87.5t265.5 -237.5l-303 -203q-52 75 -135.5 119.5t-178.5 44.5q-158 0 -269 -110t-111 -267t111 -267t269 -110q125 0 212 51t124 154h-409v291h803
v-101q0 -178 -54.5 -322.5t-151.5 -240t-231 -146.5t-293 -51zM618 1724q0 67 47 114.5t113 47.5t113 -47.5t47 -114.5q0 -66 -47 -112.5t-113 -46.5t-113 46.5t-47 112.5z" />
    <glyph glyph-name="gdotaccent" unicode="&#x121;" 
d="M618 -487q-168 0 -309 72t-203 204l267 135q28 -49 92.5 -80.5t152.5 -31.5q114 0 175 62.5t61 178.5v29q-122 -88 -285 -88q-154 0 -273 70.5t-182 189t-63 264.5q0 147 63 270t182.5 198t272.5 75q162 0 285 -92v69h330v-985q0 -243 -157.5 -391.5t-408.5 -148.5z
M379 518q0 -94 66.5 -159.5t160.5 -65.5t159.5 65.5t65.5 159.5t-65.5 160.5t-159.5 66.5t-160.5 -66.5t-66.5 -160.5zM440 1315q0 67 47 114.5t113 47.5t113 -47.5t47 -114.5q0 -66 -47 -113t-113 -47t-113 47t-47 113z" />
    <glyph glyph-name="uni0122" unicode="&#x122;" horiz-adv-x="1556" 
d="M786 -25q-152 0 -290 58.5t-237.5 157.5t-158.5 236.5t-59 289.5t59 289.5t158.5 236t237.5 157t290 58.5q189 0 351.5 -87.5t265.5 -237.5l-303 -203q-52 75 -135.5 119.5t-178.5 44.5q-158 0 -269 -110t-111 -267t111 -267t269 -110q125 0 212 51t124 154h-409v291h803
v-101q0 -178 -54.5 -322.5t-151.5 -240t-231 -146.5t-293 -51zM492 -489l141 374h307l-190 -374h-258z" />
    <glyph glyph-name="uni0123" unicode="&#x123;" 
d="M618 -487q-168 0 -309 72t-203 204l267 135q28 -49 92.5 -80.5t152.5 -31.5q114 0 175 62.5t61 178.5v29q-122 -88 -285 -88q-154 0 -273 70.5t-182 189t-63 264.5q0 147 63 270t182.5 198t272.5 75q162 0 285 -92v69h330v-985q0 -243 -157.5 -391.5t-408.5 -148.5z
M379 518q0 -94 66.5 -159.5t160.5 -65.5t159.5 65.5t65.5 159.5t-65.5 160.5t-159.5 66.5t-160.5 -66.5t-66.5 -160.5zM408 1147l213 283h299l-134 -283h-378z" />
    <glyph glyph-name="hcircumflex" unicode="&#x125;" horiz-adv-x="1251" 
d="M92 0v1524h328v-588q95 125 280 125q116 0 205.5 -43.5t144 -119.5t82 -172t27.5 -208v-518h-328v518q0 99 -52.5 166.5t-151.5 67.5q-93 0 -150 -62.5t-57 -175.5v-514h-328zM250 1618l225 285h318l227 -285h-299l-86 108l-88 -108h-297z" />
    <glyph glyph-name="Hbar" unicode="&#x126;" horiz-adv-x="1662" 
d="M186 0v1020h-145v274h145v140h365v-140h563v140h365v-140h143v-274h-143v-1020h-365v545h-563v-545h-365zM551 891h563v129h-563v-129z" />
    <glyph glyph-name="hbar" unicode="&#x127;" horiz-adv-x="1331" 
d="M174 0v1161h-154v238h154v127h328v-127h280v-238h-280v-223q96 123 278 123q117 0 207 -43.5t144 -119.5t81 -172t27 -208v-518h-328v518q0 99 -51.5 166.5t-150.5 67.5q-93 0 -150 -62t-57 -174v-516h-328z" />
    <glyph glyph-name="itilde" unicode="&#x129;" horiz-adv-x="522" 
d="M96 0v1038h330v-1038h-330zM-143 1221q56 258 231 258q46 0 92.5 -19t78.5 -42.5t69 -42.5t65 -19q58 0 76 80l195 -54q-58 -254 -242 -254q-49 0 -96.5 19t-77.5 42.5t-63 42.5t-56 19q-21 0 -36.5 -7.5t-24 -24t-11.5 -24t-8 -26.5z" />
    <glyph glyph-name="Imacron" unicode="&#x12a;" horiz-adv-x="569" 
d="M102 0v1434h365v-1434h-365zM25 1548v256h520v-256h-520z" />
    <glyph glyph-name="imacron" unicode="&#x12b;" horiz-adv-x="522" 
d="M96 0v1038h330v-1038h-330zM0 1159v256h520v-256h-520z" />
    <glyph glyph-name="Iogonek" unicode="&#x12e;" horiz-adv-x="569" 
d="M481 -596q-65 -16 -131.5 -17t-129 15t-111.5 47t-79 86t-30 127q0 56 22 110.5t58.5 98t70.5 74t70 55.5h-121v1434h365v-1434q-37 -27 -57.5 -44t-49.5 -46.5t-43 -60.5t-14 -64q0 -41 19.5 -67.5t47.5 -34.5t59 -10.5t54 3.5v-272z" />
    <glyph glyph-name="iogonek" unicode="&#x12f;" horiz-adv-x="522" 
d="M440 -596q-65 -16 -131.5 -17t-129.5 15t-112 47t-78.5 86t-29.5 127q0 56 22 110.5t58 97.5t69.5 74t69.5 56h-82v1038h328v-1038q-37 -27 -57.5 -44t-49.5 -46.5t-43 -60.5t-14 -64q0 -41 19.5 -67.5t47.5 -34.5t59 -10.5t54 3.5v-272zM80 1341q0 75 52.5 128t127.5 53
q74 0 126 -53t52 -128q0 -73 -52 -125.5t-126 -52.5q-75 0 -127.5 52t-52.5 126z" />
    <glyph glyph-name="Idotaccent" unicode="&#x130;" horiz-adv-x="569" 
d="M102 0v1434h365v-1434h-365zM125 1724q0 67 47 114.5t113 47.5t112.5 -47.5t46.5 -114.5q0 -66 -46.5 -112.5t-112.5 -46.5t-113 46.5t-47 112.5z" />
    <glyph glyph-name="dotlessi" unicode="&#x131;" horiz-adv-x="522" 
d="M96 0v1038h330v-1038h-330z" />
    <glyph glyph-name="IJ" unicode="&#x132;" horiz-adv-x="1640" 
d="M102 0v1434h365v-1434h-365zM590 354l344 97q5 -49 36.5 -80t88.5 -31t86 40.5t29 106.5v947h364v-947q0 -90 -15.5 -164t-42 -126.5t-64.5 -92.5t-79 -64t-90 -39t-94 -20.5t-94 -5.5q-192 0 -323 105.5t-146 273.5z" />
    <glyph glyph-name="ij" unicode="&#x133;" horiz-adv-x="1062" 
d="M96 0v1038h330v-1038h-330zM82 1341q0 74 52.5 126.5t127.5 52.5q73 0 125.5 -52.5t52.5 -126.5q0 -75 -52 -127.5t-126 -52.5q-75 0 -127.5 52.5t-52.5 127.5zM481 -487v317q156 0 156 162v1046h330v-1046q0 -263 -113 -371t-373 -108zM623 1341q0 74 52.5 126.5
t125.5 52.5q75 0 127.5 -52.5t52.5 -126.5q0 -75 -52.5 -127.5t-127.5 -52.5q-74 0 -126 52.5t-52 127.5z" />
    <glyph glyph-name="jcircumflex" unicode="&#x135;" horiz-adv-x="526" 
d="M-41 -170q156 0 156 162v1046h329v-1046q0 -263 -112.5 -371t-372.5 -108v317zM-109 1147l226 285h317l228 -285h-300l-86 108l-88 -108h-297z" />
    <glyph glyph-name="uni0136" unicode="&#x136;" horiz-adv-x="1320" 
d="M102 0v1434h365v-670l412 670h403l-432 -699l471 -735h-444l-410 637v-637h-365zM381 -489l141 374h307l-190 -374h-258z" />
    <glyph glyph-name="uni0137" unicode="&#x137;" horiz-adv-x="1071" 
d="M92 0v1524h330v-889l250 403h362l-323 -495l350 -543h-379l-260 426v-426h-330zM252 -489l141 374h307l-190 -374h-258z" />
    <glyph glyph-name="Lacute" unicode="&#x139;" horiz-adv-x="1099" 
d="M102 0v1434h365v-1088h551v-346h-916zM154 1536l135 285h323l-196 -285h-262z" />
    <glyph glyph-name="lacute" unicode="&#x13a;" horiz-adv-x="512" 
d="M92 0v1524h328v-1524h-328zM131 1634l135 285h324l-197 -285h-262z" />
    <glyph glyph-name="uni013B" unicode="&#x13b;" horiz-adv-x="1099" 
d="M102 0v1434h365v-1088h551v-346h-916zM270 -489l142 374h307l-191 -374h-258z" />
    <glyph glyph-name="uni013C" unicode="&#x13c;" horiz-adv-x="512" 
d="M92 0v1524h328v-1524h-328zM-41 -489l141 374h308l-191 -374h-258z" />
    <glyph glyph-name="Lcaron" unicode="&#x13d;" horiz-adv-x="1099" 
d="M102 0v1434h365v-1088h551v-346h-916zM-98 1821h299l86 -111l88 111h297l-228 -285h-315z" />
    <glyph glyph-name="lcaron" unicode="&#x13e;" horiz-adv-x="512" 
d="M92 0v1524h328v-1524h-328zM545 1149l141 375h307l-190 -375h-258z" />
    <glyph glyph-name="Ldot" unicode="&#x13f;" horiz-adv-x="1097" 
d="M102 0v1434h365v-1086h549v-348h-914zM565 664q0 66 47 112.5t113 46.5t113 -46.5t47 -112.5t-47 -113t-113 -47t-113 47t-47 113z" />
    <glyph glyph-name="ldot" unicode="&#x140;" horiz-adv-x="882" 
d="M92 0v1526h330v-1526h-330zM512 645q0 66 47 113t113 47t112.5 -47t46.5 -113t-46.5 -113t-112.5 -47t-113 47t-47 113z" />
    <glyph glyph-name="Lslash" unicode="&#x141;" horiz-adv-x="1249" 
d="M252 0v381l-92 -47l-119 241l211 111v748h364v-557l238 122l119 -239l-357 -189v-225h551v-346h-915z" />
    <glyph glyph-name="lslash" unicode="&#x142;" horiz-adv-x="737" 
d="M205 0v565l-103 -53l-92 174l195 102v738h327v-568l105 56l90 -174l-195 -103v-737h-327z" />
    <glyph glyph-name="Nacute" unicode="&#x143;" horiz-adv-x="1495" 
d="M102 0v1434h387l539 -854v854h365v-1434h-389l-537 854v-854h-365zM614 1536l136 285h323l-196 -285h-263z" />
    <glyph glyph-name="nacute" unicode="&#x144;" horiz-adv-x="1251" 
d="M92 0v1038h328v-102q95 125 280 125q116 0 205.5 -43.5t144 -119.5t82 -172t27.5 -208v-518h-330v518q0 99 -51.5 166.5t-150.5 67.5q-93 0 -150 -62.5t-57 -175.5v-514h-328zM451 1147l135 285h323l-196 -285h-262z" />
    <glyph glyph-name="uni0145" unicode="&#x145;" horiz-adv-x="1495" 
d="M102 0v1434h387l539 -854v854h365v-1434h-389l-537 854v-854h-365zM455 -489l141 374h307l-190 -374h-258z" />
    <glyph glyph-name="uni0146" unicode="&#x146;" horiz-adv-x="1251" 
d="M92 0v1038h328v-102q95 125 280 125q116 0 205.5 -43.5t144 -119.5t82 -172t27.5 -208v-518h-330v518q0 99 -51.5 166.5t-150.5 67.5q-93 0 -150 -62.5t-57 -175.5v-514h-328zM352 -489l142 374h307l-191 -374h-258z" />
    <glyph glyph-name="Ncaron" unicode="&#x147;" horiz-adv-x="1495" 
d="M102 0v1434h387l539 -854v854h365v-1434h-389l-537 854v-854h-365zM362 1821h300l86 -111l88 111h297l-228 -285h-315z" />
    <glyph glyph-name="ncaron" unicode="&#x148;" horiz-adv-x="1251" 
d="M92 0v1038h328v-102q95 125 280 125q116 0 205.5 -43.5t144 -119.5t82 -172t27.5 -208v-518h-330v518q0 99 -51.5 166.5t-150.5 67.5q-93 0 -150 -62.5t-57 -175.5v-514h-328zM201 1432h299l86 -111l88 111h297l-228 -285h-315z" />
    <glyph glyph-name="napostrophe" unicode="&#x149;" horiz-adv-x="1359" 
d="M201 0v1038h329v-100q96 123 279 123q117 0 207 -43.5t144 -119.5t81 -172t27 -208v-518h-328v518q0 99 -52.5 166.5t-150.5 67.5q-94 0 -150.5 -62t-56.5 -174v-516h-329zM-35 1100l141 375h310l-193 -375h-258z" />
    <glyph glyph-name="Eng" unicode="&#x14a;" horiz-adv-x="1495" 
d="M858 -164q94 0 132 42t38 122l-561 870v-870h-365v1434h387l539 -836v836h365v-1434q0 -125 -30 -218.5t-78.5 -148t-121 -88t-144 -44.5t-161.5 -11v346z" />
    <glyph glyph-name="eng" unicode="&#x14b;" horiz-adv-x="1251" 
d="M674 -162q81 0 119 40t38 122v518q0 99 -52 166.5t-150 67.5q-94 0 -150.5 -62t-56.5 -174v-516h-330v1038h330v-100q96 123 278 123q117 0 207 -43.5t144 -119.5t81 -172t27 -208v-518q0 -263 -112.5 -371t-372.5 -108v317z" />
    <glyph glyph-name="Omacron" unicode="&#x14c;" horiz-adv-x="1572" 
d="M786 -25q-152 0 -290 58.5t-237.5 157.5t-158.5 236.5t-59 289.5t59 289.5t158.5 236t237.5 157t290 58.5q202 0 373.5 -98.5t272 -269.5t100.5 -373t-100.5 -373t-272 -270t-373.5 -99zM406 717q0 -157 111 -267t269 -110q157 0 269 110.5t112 266.5t-112 266.5
t-269 110.5q-158 0 -269 -110t-111 -267zM526 1548v256h521v-256h-521z" />
    <glyph glyph-name="omacron" unicode="&#x14d;" horiz-adv-x="1212" 
d="M606 -25q-113 0 -215.5 42.5t-177 114.5t-118.5 173t-44 213t44 213t118.5 173t177 114.5t215.5 42.5t215.5 -42.5t177 -114.5t118.5 -173t44 -213t-44 -213t-118.5 -173t-177 -114.5t-215.5 -42.5zM346 1159v256h520v-256h-520zM381 518q0 -94 65.5 -159.5t159.5 -65.5
t159.5 65.5t65.5 159.5t-65.5 160.5t-159.5 66.5t-159.5 -66.5t-65.5 -160.5z" />
    <glyph glyph-name="Ohungarumlaut" unicode="&#x150;" horiz-adv-x="1572" 
d="M786 -25q-152 0 -290 58.5t-237.5 157.5t-158.5 236.5t-59 289.5t59 289.5t158.5 236t237.5 157t290 58.5q202 0 373.5 -98.5t272 -269.5t100.5 -373t-100.5 -373t-272 -270t-373.5 -99zM406 717q0 -157 111 -267t269 -110q157 0 269 110.5t112 266.5t-112 266.5
t-269 110.5q-158 0 -269 -110t-111 -267zM422 1536l135 285h324l-195 -285h-264zM838 1536l135 285h323l-194 -285h-264z" />
    <glyph glyph-name="ohungarumlaut" unicode="&#x151;" horiz-adv-x="1212" 
d="M606 -25q-113 0 -215.5 42.5t-177 114.5t-118.5 173t-44 213t44 213t118.5 173t177 114.5t215.5 42.5t215.5 -42.5t177 -114.5t118.5 -173t44 -213t-44 -213t-118.5 -173t-177 -114.5t-215.5 -42.5zM225 1147l135 285h324l-195 -285h-264zM381 518q0 -94 65.5 -159.5
t159.5 -65.5t159.5 65.5t65.5 159.5t-65.5 160.5t-159.5 66.5t-159.5 -66.5t-65.5 -160.5zM641 1147l135 285h324l-195 -285h-264z" />
    <glyph glyph-name="OE" unicode="&#x152;" horiz-adv-x="2164" 
d="M786 -25q-202 0 -373.5 99t-271.5 270t-100 373q0 151 59 288t159 235.5t238 157t289 58.5q210 0 383 -104v82h895v-347h-530v-206h496v-310h-496v-225h549v-346h-914v80q-180 -105 -383 -105zM406 717q0 -158 111.5 -267.5t268.5 -109.5q159 0 270 109.5t111 267.5
q0 157 -111.5 266t-269.5 109q-157 0 -268.5 -109.5t-111.5 -265.5z" />
    <glyph glyph-name="oe" unicode="&#x153;" horiz-adv-x="2068" 
d="M606 -23q-113 0 -215.5 42t-177 113.5t-118.5 172.5t-44 213q0 151 75 276t202 196t278 71q127 0 238.5 -51t187.5 -142q78 91 189 142t237 51q92 0 179.5 -28t161 -83.5t126 -132t77 -180.5t11.5 -221h-762q26 -66 84 -104t144 -38q74 0 130 29t89 72l272 -144
q-74 -118 -197 -186t-296 -68q-140 0 -255.5 50t-191.5 141q-77 -90 -187.5 -140.5t-236.5 -50.5zM381 518q0 -93 66 -159t159 -66q94 0 161 66.5t67 158.5q0 94 -67 160.5t-161 66.5t-159.5 -66.5t-65.5 -160.5zM1257 635h410q-26 61 -81 95t-128 34q-68 0 -120 -35.5
t-81 -93.5z" />
    <glyph glyph-name="Racute" unicode="&#x154;" horiz-adv-x="1280" 
d="M102 0v1434h476q165 0 290 -56t196 -168t71 -266q0 -263 -199 -387l334 -557h-416l-276 473h-111v-473h-365zM369 1536l135 285h323l-196 -285h-262zM467 801h111q188 0 188 143t-188 143h-111v-286z" />
    <glyph glyph-name="racute" unicode="&#x155;" horiz-adv-x="770" 
d="M92 0v1038h328v-137q83 160 299 160v-309q-47 4 -86.5 -1t-80 -24t-69 -53t-46 -93t-17.5 -139v-442h-328zM225 1147l135 285h324l-197 -285h-262z" />
    <glyph glyph-name="uni0156" unicode="&#x156;" horiz-adv-x="1280" 
d="M102 0v1434h476q165 0 290 -56t196 -168t71 -266q0 -263 -199 -387l334 -557h-416l-276 473h-111v-473h-365zM356 -489l142 374h307l-191 -374h-258zM467 801h111q188 0 188 143t-188 143h-111v-286z" />
    <glyph glyph-name="uni0157" unicode="&#x157;" horiz-adv-x="770" 
d="M92 0v1038h328v-137q83 160 299 160v-309q-47 4 -86.5 -1t-80 -24t-69 -53t-46 -93t-17.5 -139v-442h-328zM-37 -489l141 374h308l-191 -374h-258z" />
    <glyph glyph-name="Rcaron" unicode="&#x158;" horiz-adv-x="1280" 
d="M102 0v1434h476q165 0 290 -56t196 -168t71 -266q0 -263 -199 -387l334 -557h-416l-276 473h-111v-473h-365zM139 1821h299l86 -111l88 111h297l-227 -285h-315zM467 801h111q188 0 188 143t-188 143h-111v-286z" />
    <glyph glyph-name="rcaron" unicode="&#x159;" horiz-adv-x="770" 
d="M92 0v1038h328v-137q83 160 299 160v-309q-47 4 -86.5 -1t-80 -24t-69 -53t-46 -93t-17.5 -139v-442h-328zM31 1432h299l86 -111l88 111h297l-228 -285h-315z" />
    <glyph glyph-name="Sacute" unicode="&#x15a;" horiz-adv-x="1124" 
d="M557 -25q-147 0 -262 59t-176 160t-58 224l328 31q2 -67 42.5 -113.5t129.5 -46.5q70 0 110 35t40 84q0 53 -43.5 81t-169.5 76q-39 15 -60 23q-163 63 -245 168t-82 268q0 182 126.5 308t311.5 126q181 0 305 -102.5t141 -265.5l-317 -46q-2 43 -35.5 74t-85.5 31
t-82.5 -31.5t-30.5 -75.5q0 -53 39.5 -87t139.5 -68q53 -18 88.5 -32t86 -37.5t84 -46.5t71 -57.5t59.5 -72.5t36.5 -89.5t14.5 -109.5q0 -220 -132.5 -343.5t-373.5 -123.5zM410 1536l135 285h323l-196 -285h-262z" />
    <glyph glyph-name="sacute" unicode="&#x15b;" horiz-adv-x="972" 
d="M492 -25q-185 0 -307.5 73.5t-143.5 225.5l326 60q0 -40 36.5 -71.5t104.5 -31.5q43 0 69.5 19t26.5 51t-34 46.5t-167 43.5q-70 15 -121.5 37t-97.5 58.5t-70 94.5t-24 136q0 108 59 188.5t146 118t186 37.5q150 0 257 -68.5t139 -191.5l-279 -66q-8 27 -34 48.5
t-75 21.5q-39 0 -64.5 -17.5t-25.5 -46.5q0 -34 32.5 -49t141.5 -41q46 -11 72 -18t70 -22t69.5 -29.5t57 -39.5t49 -54t29.5 -70t12 -90q0 -91 -36 -161t-98 -110.5t-139 -61t-167 -20.5zM311 1147l135 285h324l-197 -285h-262z" />
    <glyph glyph-name="scircumflex" unicode="&#x15d;" horiz-adv-x="972" 
d="M492 -25q-185 0 -307.5 73.5t-143.5 225.5l326 60q0 -40 36.5 -71.5t104.5 -31.5q43 0 69.5 19t26.5 51t-34 46.5t-167 43.5q-70 15 -121.5 37t-97.5 58.5t-70 94.5t-24 136q0 108 59 188.5t146 118t186 37.5q150 0 257 -68.5t139 -191.5l-279 -66q-8 27 -34 48.5
t-75 21.5q-39 0 -64.5 -17.5t-25.5 -46.5q0 -34 32.5 -49t141.5 -41q46 -11 72 -18t70 -22t69.5 -29.5t57 -39.5t49 -54t29.5 -70t12 -90q0 -91 -36 -161t-98 -110.5t-139 -61t-167 -20.5zM104 1147l226 285h317l227 -285h-299l-86 108l-88 -108h-297z" />
    <glyph glyph-name="Scedilla" unicode="&#x15e;" horiz-adv-x="1122" 
d="M539 -651q-64 0 -137.5 22t-120.5 54l96 206q73 -43 143 -43q52 0 76.5 21.5t24.5 56.5q0 68 -78 68q-35 0 -70 -23l-135 101l94 178q-173 34 -274.5 151.5t-96.5 276.5l326 33q2 -67 43 -114.5t131 -47.5q69 0 108.5 35.5t39.5 85.5q0 37 -28.5 64.5t-64 44t-129.5 52.5
q-32 12 -49 19q-163 64 -246 168.5t-83 265.5q0 182 127 308t313 126q181 0 305 -102t141 -264l-317 -45q-3 43 -36 72.5t-85 29.5q-53 0 -84 -31t-31 -76q0 -53 40 -87t139 -68q53 -18 89 -32t86.5 -37.5t84 -46t70.5 -57t59 -72.5t36.5 -89.5t14.5 -110.5
q0 -205 -117.5 -327t-333.5 -135l-32 -66h8q111 0 195.5 -69t84.5 -187q0 -80 -27.5 -141t-74.5 -97t-103.5 -53.5t-121.5 -17.5z" />
    <glyph glyph-name="scedilla" unicode="&#x15f;" horiz-adv-x="970" 
d="M469 -651q-63 0 -137 22.5t-121 53.5l96 206q73 -43 146 -43q51 0 74.5 21.5t23.5 56.5q0 68 -76 68q-38 0 -72 -23l-133 101l90 176q-134 21 -218 92.5t-101 195.5l326 58q0 -39 36 -71t105 -32q43 0 69.5 19.5t26.5 52.5q0 32 -32.5 45t-168.5 43q-56 13 -99 28.5
t-85 41.5t-69.5 60t-44.5 84.5t-17 113.5q0 82 34 149t90.5 108.5t125.5 64t143 22.5q149 0 256 -68.5t140 -191.5l-281 -66q-6 27 -32 48.5t-75 21.5q-39 0 -64.5 -18t-25.5 -48q0 -33 32 -47.5t140 -40.5q146 -37 208 -69q151 -79 151 -256q0 -84 -30.5 -149.5t-85 -106.5
t-122.5 -64t-149 -28l-35 -66h8q71 0 133.5 -28.5t105 -88.5t42.5 -139q0 -80 -27 -141t-74 -97t-104.5 -53.5t-122.5 -17.5z" />
    <glyph glyph-name="Scaron" unicode="&#x160;" horiz-adv-x="1124" 
d="M557 -25q-147 0 -262 59t-176 160t-58 224l328 31q2 -67 42.5 -113.5t129.5 -46.5q70 0 110 35t40 84q0 53 -43.5 81t-169.5 76q-39 15 -60 23q-163 63 -245 168t-82 268q0 182 126.5 308t311.5 126q181 0 305 -102.5t141 -265.5l-317 -46q-2 43 -35.5 74t-85.5 31
t-82.5 -31.5t-30.5 -75.5q0 -53 39.5 -87t139.5 -68q53 -18 88.5 -32t86 -37.5t84 -46.5t71 -57.5t59.5 -72.5t36.5 -89.5t14.5 -109.5q0 -220 -132.5 -343.5t-373.5 -123.5zM176 1821h299l86 -111l88 111h297l-227 -285h-316z" />
    <glyph glyph-name="scaron" unicode="&#x161;" horiz-adv-x="972" 
d="M492 -25q-185 0 -307.5 73.5t-143.5 225.5l326 60q0 -40 36.5 -71.5t104.5 -31.5q43 0 69.5 19t26.5 51t-34 46.5t-167 43.5q-70 15 -121.5 37t-97.5 58.5t-70 94.5t-24 136q0 108 59 188.5t146 118t186 37.5q150 0 257 -68.5t139 -191.5l-279 -66q-8 27 -34 48.5
t-75 21.5q-39 0 -64.5 -17.5t-25.5 -46.5q0 -34 32.5 -49t141.5 -41q46 -11 72 -18t70 -22t69.5 -29.5t57 -39.5t49 -54t29.5 -70t12 -90q0 -91 -36 -161t-98 -110.5t-139 -61t-167 -20.5zM104 1432h299l86 -111l89 111h296l-227 -285h-315z" />
    <glyph glyph-name="uni0162" unicode="&#x162;" horiz-adv-x="1198" 
d="M612 -651q-64 0 -138 22t-120 54l97 206q76 -45 145 -45q98 0 98 80q0 68 -76 68q-34 0 -71 -25l-133 103l98 188h-96v1087h-334v347h1034v-347h-336v-1087h-84l-45 -86h8q111 0 196 -69.5t85 -188.5q0 -79 -27.5 -140t-74.5 -96.5t-104 -53t-122 -17.5z" />
    <glyph glyph-name="uni0163" unicode="&#x163;" horiz-adv-x="956" 
d="M508 -651q-65 0 -139 22.5t-119 53.5l94 206q78 -43 145 -43q52 0 76.5 21.5t24.5 56.5q0 68 -78 68q-36 0 -70 -23l-135 101l105 200q-201 76 -201 375v361h-170v290h170v232h330v-232h278v-290h-278v-361q0 -45 25 -68.5t65 -23.5q49 0 98 49l186 -215
q-50 -64 -134.5 -104.5t-188.5 -40.5h-8l-37 -70h8q71 0 133.5 -28.5t105 -88.5t42.5 -139q0 -80 -27.5 -141t-74.5 -97t-104 -53.5t-122 -17.5z" />
    <glyph glyph-name="Tcaron" unicode="&#x164;" horiz-adv-x="1200" 
d="M418 0v1087h-336v347h1036v-347h-336v-1087h-364zM215 1821h299l86 -111l88 111h297l-227 -285h-316z" />
    <glyph glyph-name="tcaron" unicode="&#x165;" horiz-adv-x="944" 
d="M610 -16q-397 0 -397 403v361h-172v290h172v232h328v-232h280v-290h-280v-361q0 -45 25 -68.5t65 -23.5q10 0 20 2t18 4.5t16 7t13.5 8t11 8.5t8.5 8l7 7l4 4l186 -215q-114 -145 -305 -145zM680 1151l141 375h307l-190 -375h-258z" />
    <glyph glyph-name="Tbar" unicode="&#x166;" horiz-adv-x="1200" 
d="M418 0v623h-199v272h199v192h-336v347h1036v-347h-336v-192h199v-272h-199v-623h-364z" />
    <glyph glyph-name="tbar" unicode="&#x167;" horiz-adv-x="956" 
d="M610 -16q-399 0 -399 403v84h-135v199h135v75h-170v293h170v232h328v-232h280v-293h-280v-75h206v-199h-206v-84q0 -46 25 -70t65 -24q57 0 98 51l188 -217q-121 -143 -305 -143z" />
    <glyph glyph-name="utilde" unicode="&#x169;" horiz-adv-x="1251" 
d="M551 -25q-117 0 -207 43.5t-144 119.5t-81 172t-27 208v520h328v-520q0 -97 53 -164t152 -67q93 0 149.5 61.5t56.5 173.5v516h328v-1038h-328v100q-98 -125 -280 -125zM231 1221q8 38 19.5 71.5t31 69t43.5 60.5t60 41t78 16q46 0 92.5 -19t78.5 -42.5t69 -42.5t65 -19
q58 0 76 80l194 -54q-58 -254 -241 -254q-49 0 -96.5 19t-77.5 42.5t-63 42.5t-56 19q-21 0 -36.5 -7.5t-24 -24t-11.5 -24t-8 -26.5z" />
    <glyph glyph-name="Umacron" unicode="&#x16a;" horiz-adv-x="1449" 
d="M725 -25q-293 0 -458 159t-165 464v836h367v-818q0 -133 66.5 -204.5t189.5 -71.5t190.5 71.5t67.5 204.5v818h365v-836q0 -305 -165 -464t-458 -159zM465 1548v256h520v-256h-520z" />
    <glyph glyph-name="umacron" unicode="&#x16b;" horiz-adv-x="1251" 
d="M551 -25q-117 0 -207 43.5t-144 119.5t-81 172t-27 208v520h328v-520q0 -97 53 -164t152 -67q93 0 149.5 61.5t56.5 173.5v516h328v-1038h-328v100q-98 -125 -280 -125zM365 1159v256h520v-256h-520z" />
    <glyph glyph-name="ubreve" unicode="&#x16d;" horiz-adv-x="1251" 
d="M551 -25q-117 0 -207 43.5t-144 119.5t-81 172t-27 208v520h328v-520q0 -97 53 -164t152 -67q93 0 149.5 61.5t56.5 173.5v516h328v-1038h-328v100q-98 -125 -280 -125zM260 1473h254q0 -49 28 -81t83 -32t82.5 32t27.5 81h254q0 -84 -31 -148.5t-84 -102.5t-116 -56.5
t-133 -18.5t-133.5 18.5t-116 56.5t-84 102.5t-31.5 148.5z" />
    <glyph glyph-name="Uring" unicode="&#x16e;" horiz-adv-x="1449" 
d="M725 -25q-293 0 -458 159t-165 464v836h367v-818q0 -133 66.5 -204.5t189.5 -71.5t190.5 71.5t67.5 204.5v818h365v-836q0 -305 -165 -464t-458 -159zM479 1751q0 103 72.5 175.5t175.5 72.5q101 0 173.5 -72.5t72.5 -175.5q0 -101 -72.5 -173.5t-173.5 -72.5
q-103 0 -175.5 72.5t-72.5 173.5zM645 1751q0 -34 24 -58t58 -24t58 24t24 58t-24 59t-58 25t-58 -25t-24 -59z" />
    <glyph glyph-name="uring" unicode="&#x16f;" horiz-adv-x="1251" 
d="M551 -25q-117 0 -207 43.5t-144 119.5t-81 172t-27 208v520h328v-520q0 -97 53 -164t152 -67q93 0 149.5 61.5t56.5 173.5v516h328v-1038h-328v100q-98 -125 -280 -125zM379 1384q0 103 72.5 175.5t175.5 72.5q101 0 173 -72.5t72 -175.5q0 -101 -72 -173t-173 -72
q-103 0 -175.5 72t-72.5 173zM545 1384q0 -34 24 -57.5t58 -23.5t58 23.5t24 57.5t-24 59t-58 25t-58 -25t-24 -59z" />
    <glyph glyph-name="Uhungarumlaut" unicode="&#x170;" horiz-adv-x="1449" 
d="M725 -25q-293 0 -458 159t-165 464v836h367v-818q0 -133 66.5 -204.5t189.5 -71.5t190.5 71.5t67.5 204.5v818h365v-836q0 -305 -165 -464t-458 -159zM371 1536l135 285h323l-194 -285h-264zM786 1536l136 285h323l-194 -285h-265z" />
    <glyph glyph-name="uhungarumlaut" unicode="&#x171;" horiz-adv-x="1251" 
d="M551 -25q-117 0 -207 43.5t-144 119.5t-81 172t-27 208v520h328v-520q0 -97 53 -164t152 -67q93 0 149.5 61.5t56.5 173.5v516h328v-1038h-328v100q-98 -125 -280 -125zM262 1147l135 285h324l-195 -285h-264zM678 1147l135 285h324l-195 -285h-264z" />
    <glyph glyph-name="Uogonek" unicode="&#x172;" horiz-adv-x="1449" 
d="M1036 -596q-65 -16 -131.5 -17t-129.5 15t-112 47t-78.5 86t-29.5 127q0 164 188 315h-18q-293 0 -458 159t-165 464v834h365v-818q0 -133 67 -203.5t191 -70.5t191 70.5t67 203.5v818h365v-834q0 -215 -82.5 -357.5t-237.5 -209.5q-67 -40 -119.5 -110t-52.5 -138
q0 -41 19.5 -67.5t47.5 -34.5t59 -10.5t54 3.5v-272z" />
    <glyph glyph-name="uogonek" unicode="&#x173;" horiz-adv-x="1261" 
d="M1176 -596q-65 -16 -131.5 -17t-129.5 15t-112 47t-79 86t-30 127q0 56 22 110.5t58.5 98t70.5 74t70 55.5h-84v102q-95 -125 -280 -125q-116 0 -205.5 43.5t-144 119.5t-82 172t-27.5 208v518h330v-518q0 -99 52 -166t151 -67q93 0 149.5 62t56.5 175v514h328v-1038
q-37 -27 -57.5 -44t-49.5 -46.5t-43 -60.5t-14 -64q0 -41 19.5 -67.5t48 -34.5t59.5 -10.5t54 3.5v-272z" />
    <glyph glyph-name="Wcircumflex" unicode="&#x174;" horiz-adv-x="2285" 
d="M512 0l-492 1434h394l293 -924l280 924h309l281 -924l293 924h395l-491 -1434h-381l-250 829l-252 -829h-379zM758 1536l225 285h317l228 -285h-299l-86 109l-88 -109h-297z" />
    <glyph glyph-name="wcircumflex" unicode="&#x175;" horiz-adv-x="1835" 
d="M401 0l-381 1038h361l207 -596l194 596h269l196 -596l207 596h361l-383 -1038h-324l-190 578l-191 -578h-326zM532 1147l226 285h317l228 -285h-299l-86 108l-89 -108h-297z" />
    <glyph glyph-name="Ycircumflex" unicode="&#x176;" horiz-adv-x="1490" 
d="M563 0v627l-543 807h406l319 -482l318 482h407l-542 -807v-627h-365zM360 1536l226 285h317l227 -285h-299l-86 109l-88 -109h-297z" />
    <glyph glyph-name="ycircumflex" unicode="&#x177;" horiz-adv-x="1241" 
d="M229 -487l213 520l-422 1005h365l236 -573l235 573h365l-641 -1525h-351zM236 1147l225 285h317l228 -285h-299l-86 108l-89 -108h-296z" />
    <glyph glyph-name="Ydieresis" unicode="&#x178;" horiz-adv-x="1490" 
d="M563 0v627l-543 807h406l319 -482l318 482h407l-542 -807v-627h-365zM354 1724q0 67 47 114.5t113 47.5t113 -47.5t47 -114.5q0 -66 -47 -112.5t-113 -46.5t-113 46.5t-47 112.5zM815 1724q0 68 47.5 115t114.5 47q66 0 113 -47.5t47 -114.5q0 -66 -47 -112.5t-113 -46.5
q-67 0 -114.5 46.5t-47.5 112.5z" />
    <glyph glyph-name="Zacute" unicode="&#x179;" horiz-adv-x="1218" 
d="M82 0v309l545 778h-527v347h981v-310l-542 -778h598v-346h-1055zM434 1536l135 285h324l-197 -285h-262z" />
    <glyph glyph-name="zacute" unicode="&#x17a;" horiz-adv-x="1071" 
d="M61 0v291l488 454h-451v293h875v-293l-488 -454h525v-291h-949zM385 1147l135 285h324l-197 -285h-262z" />
    <glyph glyph-name="Zdotaccent" unicode="&#x17b;" horiz-adv-x="1218" 
d="M82 0v309l545 778h-527v347h981v-310l-542 -778h598v-346h-1055zM449 1724q0 67 46.5 114.5t112.5 47.5t113 -47.5t47 -114.5q0 -66 -47 -112.5t-113 -46.5t-112.5 46.5t-46.5 112.5z" />
    <glyph glyph-name="zdotaccent" unicode="&#x17c;" horiz-adv-x="1071" 
d="M61 0v291l488 454h-451v293h875v-293l-488 -454h525v-291h-949zM375 1315q0 67 47 114.5t113 47.5t112.5 -47.5t46.5 -114.5q0 -66 -46.5 -113t-112.5 -47t-113 47t-47 113z" />
    <glyph glyph-name="Zcaron" unicode="&#x17d;" horiz-adv-x="1218" 
d="M82 0v309l545 778h-527v347h981v-310l-542 -778h598v-346h-1055zM223 1821h299l86 -111l88 111h297l-227 -285h-315z" />
    <glyph glyph-name="zcaron" unicode="&#x17e;" horiz-adv-x="1071" 
d="M61 0v291l488 454h-451v293h875v-293l-488 -454h525v-291h-949zM150 1432h299l86 -111l88 111h297l-228 -285h-315z" />
    <glyph glyph-name="gcaron" unicode="&#x1e7;" 
d="M618 -487q-168 0 -309 72t-203 204l267 135q28 -49 92.5 -80.5t152.5 -31.5q114 0 175 62.5t61 178.5v29q-122 -88 -285 -88q-154 0 -273 70.5t-182 189t-63 264.5q0 147 63 270t182.5 198t272.5 75q162 0 285 -92v69h330v-985q0 -243 -157.5 -391.5t-408.5 -148.5z
M240 1432h299l86 -111l88 111h297l-228 -285h-315zM379 518q0 -94 66.5 -159.5t160.5 -65.5t159.5 65.5t65.5 159.5t-65.5 160.5t-159.5 66.5t-160.5 -66.5t-66.5 -160.5z" />
    <glyph glyph-name="uni0218" unicode="&#x218;" horiz-adv-x="1124" 
d="M557 -25q-147 0 -262 59t-176 160t-58 224l328 31q2 -67 42.5 -113.5t129.5 -46.5q70 0 110 35t40 84q0 53 -43.5 81t-169.5 76q-39 15 -60 23q-163 63 -245 168t-82 268q0 182 126.5 308t311.5 126q181 0 305 -102.5t141 -265.5l-317 -46q-2 43 -35.5 74t-85.5 31
t-82.5 -31.5t-30.5 -75.5q0 -53 39.5 -87t139.5 -68q53 -18 88.5 -32t86 -37.5t84 -46.5t71 -57.5t59.5 -72.5t36.5 -89.5t14.5 -109.5q0 -220 -132.5 -343.5t-373.5 -123.5zM272 -489l142 374h307l-191 -374h-258z" />
    <glyph glyph-name="uni0219" unicode="&#x219;" horiz-adv-x="972" 
d="M492 -25q-185 0 -307.5 73.5t-143.5 225.5l326 60q0 -40 36.5 -71.5t104.5 -31.5q43 0 69.5 19t26.5 51t-34 46.5t-167 43.5q-70 15 -121.5 37t-97.5 58.5t-70 94.5t-24 136q0 108 59 188.5t146 118t186 37.5q150 0 257 -68.5t139 -191.5l-279 -66q-8 27 -34 48.5
t-75 21.5q-39 0 -64.5 -17.5t-25.5 -46.5q0 -34 32.5 -49t141.5 -41q46 -11 72 -18t70 -22t69.5 -29.5t57 -39.5t49 -54t29.5 -70t12 -90q0 -91 -36 -161t-98 -110.5t-139 -61t-167 -20.5zM190 -489l142 374h307l-190 -374h-259z" />
    <glyph glyph-name="uni021A" unicode="&#x21a;" horiz-adv-x="1200" 
d="M418 0v1087h-336v347h1036v-347h-336v-1087h-364zM297 -489l141 374h307l-190 -374h-258z" />
    <glyph glyph-name="uni021B" unicode="&#x21b;" horiz-adv-x="956" 
d="M592 -16q-204 0 -292.5 102.5t-88.5 298.5v360h-170v293h170v232h328v-232h280v-293h-280v-360q0 -44 25 -68t65 -24q59 0 100 51l186 -217q-54 -63 -137 -103t-186 -40zM231 -489l142 374h307l-191 -374h-258z" />
    <glyph glyph-name="uni0237" unicode="&#x237;" horiz-adv-x="526" 
d="M-41 -170q156 0 156 162v1046h329v-1046q0 -263 -112.5 -371t-372.5 -108v317z" />
    <glyph glyph-name="gravecomb" unicode="&#x300;" horiz-adv-x="0" 
d="M332 1536l-195 285h322l135 -285h-262z" />
    <glyph glyph-name="acutecomb" unicode="&#x301;" horiz-adv-x="0" 
d="M123 1536l135 285h324l-197 -285h-262z" />
    <glyph glyph-name="uni0302" unicode="&#x302;" horiz-adv-x="0" 
d="M139 1536l226 285h317l227 -285h-299l-86 109l-88 -109h-297z" />
    <glyph glyph-name="tildecomb" unicode="&#x303;" horiz-adv-x="0" 
d="M705 1503q-49 0 -96.5 19t-77.5 42.5t-63 42.5t-56 19q-21 0 -36.5 -7.5t-24 -24t-11.5 -24t-8 -26.5l-193 51q8 38 19.5 71.5t31 69t43.5 60.5t60 41t78 16q46 0 92.5 -19t78.5 -42t69 -42t65 -19q58 0 76 79l194 -53q-58 -254 -241 -254z" />
    <glyph glyph-name="uni0304" unicode="&#x304;" horiz-adv-x="0" 
d="M121 1548v256h520v-256h-520z" />
    <glyph glyph-name="uni0306" unicode="&#x306;" horiz-adv-x="0" 
d="M504 1516q-56 0 -107.5 11t-99 36.5t-82 62.5t-55.5 92t-21 123h254q0 -49 28 -80.5t83 -31.5t82.5 31.5t27.5 80.5h254q0 -84 -31 -148.5t-84 -102t-116 -56t-133 -18.5z" />
    <glyph glyph-name="uni0307" unicode="&#x307;" horiz-adv-x="0" 
d="M281 1565q-66 0 -113 46.5t-47 112.5q0 67 47 114.5t113 47.5t112.5 -47.5t46.5 -114.5q0 -66 -46.5 -112.5t-112.5 -46.5z" />
    <glyph glyph-name="uni0308" unicode="&#x308;" horiz-adv-x="0" 
d="M739 1565q-67 0 -114 46.5t-47 112.5q0 68 47 115t114 47q66 0 113 -47.5t47 -114.5q0 -66 -47 -112.5t-113 -46.5zM117 1724q0 67 46.5 114.5t112.5 47.5t113 -47.5t47 -114.5q0 -66 -47 -112.5t-113 -46.5t-112.5 46.5t-46.5 112.5z" />
    <glyph glyph-name="uni030A" unicode="&#x30a;" horiz-adv-x="0" 
d="M371 1505q-103 0 -175.5 72.5t-72.5 173.5q0 103 72.5 175.5t175.5 72.5q101 0 173 -72.5t72 -175.5q0 -101 -72 -173.5t-173 -72.5zM289 1751q0 -34 24 -58t58 -24t58 24t24 58t-24 59t-58 25t-58 -25t-24 -59z" />
    <glyph glyph-name="uni030B" unicode="&#x30b;" horiz-adv-x="0" 
d="M545 1536l135 285h324l-195 -285h-264zM129 1536l135 285h324l-195 -285h-264z" />
    <glyph glyph-name="uni030C" unicode="&#x30c;" horiz-adv-x="0" 
d="M367 1536l-228 285h299l86 -111l88 111h297l-227 -285h-315z" />
    <glyph glyph-name="uni0326" unicode="&#x326;" horiz-adv-x="0" 
d="M129 -489l141 374h308l-191 -374h-258z" />
    <glyph glyph-name="uni0327" unicode="&#x327;" horiz-adv-x="0" 
d="M389 -651q-64 0 -138 22t-120 54l96 206q76 -45 146 -45q98 0 98 80q0 68 -76 68q-38 0 -71 -25l-134 103l99 188h184l-45 -86h8q111 0 196 -69.5t85 -188.5q0 -64 -18 -116t-49 -87t-73 -59t-89 -34.5t-99 -10.5z" />
    <glyph glyph-name="uni0328" unicode="&#x328;" horiz-adv-x="0" 
d="M600 -598q-65 -15 -131 -16t-128.5 15t-111.5 47.5t-78.5 86.5t-29.5 127q0 180 219 338h246q-37 -26 -59 -44t-50.5 -47t-42.5 -60.5t-14 -65.5q0 -41 19.5 -67t47.5 -34t59 -10.5t54 4.5v-274z" />
    <glyph glyph-name="Wgrave" unicode="&#x1e80;" horiz-adv-x="2285" 
d="M512 0l-492 1434h394l293 -924l280 924h309l281 -924l293 924h395l-491 -1434h-381l-250 829l-252 -829h-379zM809 1821h321l136 -285h-262z" />
    <glyph glyph-name="wgrave" unicode="&#x1e81;" horiz-adv-x="1835" 
d="M401 0l-381 1038h361l207 -596l194 596h269l196 -596l207 596h361l-383 -1038h-324l-190 578l-191 -578h-326zM592 1432h321l136 -285h-263z" />
    <glyph glyph-name="Wacute" unicode="&#x1e82;" horiz-adv-x="2285" 
d="M512 0l-492 1434h394l293 -924l280 924h309l281 -924l293 924h395l-491 -1434h-381l-250 829l-252 -829h-379zM1016 1536l135 285h324l-197 -285h-262z" />
    <glyph glyph-name="wacute" unicode="&#x1e83;" horiz-adv-x="1835" 
d="M401 0l-381 1038h361l207 -596l194 596h269l196 -596l207 596h361l-383 -1038h-324l-190 578l-191 -578h-326zM799 1147l135 285h323l-196 -285h-262z" />
    <glyph glyph-name="Wdieresis" unicode="&#x1e84;" horiz-adv-x="2285" 
d="M512 0l-492 1434h394l293 -924l280 924h309l281 -924l293 924h395l-491 -1434h-381l-250 829l-252 -829h-379zM752 1724q0 67 46.5 114.5t112.5 47.5t113 -47.5t47 -114.5q0 -66 -47 -112.5t-113 -46.5t-112.5 46.5t-46.5 112.5zM1212 1724q0 68 47 115t115 47
q66 0 113 -47.5t47 -114.5q0 -66 -47 -112.5t-113 -46.5q-67 0 -114.5 46.5t-47.5 112.5z" />
    <glyph glyph-name="wdieresis" unicode="&#x1e85;" horiz-adv-x="1835" 
d="M401 0l-381 1038h361l207 -596l194 596h269l196 -596l207 596h361l-383 -1038h-324l-190 578l-191 -578h-326zM526 1315q0 67 47 114.5t113 47.5t113 -47.5t47 -114.5q0 -66 -47 -113t-113 -47t-113 47t-47 113zM987 1315q0 67 47.5 114.5t114.5 47.5q66 0 113 -47.5
t47 -114.5q0 -66 -47 -113t-113 -47q-67 0 -114.5 47t-47.5 113z" />
    <glyph glyph-name="uni1E9E" unicode="&#x1e9e;" horiz-adv-x="1290" 
d="M102 885q0 275 143 412t402 137h461v-347l-158 -264q127 -43 203 -136t76 -238q0 -117 -43.5 -206t-118.5 -140.5t-165.5 -77t-194.5 -25.5h-82v324h82q72 0 114.5 39t42.5 102t-42.5 102t-114.5 39h-82v238l143 243h-121q-96 0 -138 -47t-42 -155v-885h-365v885z" />
    <glyph glyph-name="uni1EBD" unicode="&#x1ebd;" horiz-adv-x="1218" 
d="M635 -25q-264 0 -424 154.5t-160 388.5q0 151 75 276t202 196t278 71q114 0 222 -47t189 -129t122 -207t22 -268h-737q62 -119 211 -119q71 0 123 25.5t80 62.5l284 -131q-64 -122 -192.5 -197.5t-294.5 -75.5zM197 1221q56 258 231 258q46 0 92.5 -19t78.5 -42.5
t69 -42.5t65 -19q58 0 76 80l195 -54q-58 -254 -242 -254q-49 0 -96.5 19t-77.5 42.5t-63 42.5t-56 19q-21 0 -36.5 -7.5t-24 -24t-11.5 -24t-8 -26.5zM426 627h373q-26 54 -76 86t-117 32q-61 0 -107.5 -32.5t-72.5 -85.5z" />
    <glyph glyph-name="Ygrave" unicode="&#x1ef2;" horiz-adv-x="1490" 
d="M563 0v627l-543 807h406l319 -482l318 482h407l-542 -807v-627h-365zM444 1821h322l135 -285h-262z" />
    <glyph glyph-name="ygrave" unicode="&#x1ef3;" horiz-adv-x="1241" 
d="M229 -487l213 520l-422 1005h365l236 -573l235 573h365l-641 -1525h-351zM295 1432h321l136 -285h-263z" />
    <glyph glyph-name="uni1EF9" unicode="&#x1ef9;" horiz-adv-x="1241" 
d="M229 -487l213 520l-422 1005h365l236 -573l235 573h365l-641 -1525h-351zM215 1221q56 258 231 258q46 0 92.5 -19t79 -42.5t69.5 -42.5t65 -19q57 0 75 80l195 -54q-58 -254 -242 -254q-49 0 -96.5 19t-77.5 42.5t-63 42.5t-56 19q-20 0 -34.5 -6.5t-23.5 -22t-11.5 -22
t-7.5 -25.5q-1 -4 -2 -6z" />
    <glyph glyph-name="endash" unicode="&#x2013;" horiz-adv-x="1314" 
d="M164 436v348h987v-348h-987z" />
    <glyph glyph-name="emdash" unicode="&#x2014;" horiz-adv-x="1497" 
d="M164 436v348h1169v-348h-1169z" />
    <glyph glyph-name="quoteleft" unicode="&#x2018;" horiz-adv-x="610" 
d="M82 1040l209 394h258l-160 -394h-307z" />
    <glyph glyph-name="quoteright" unicode="&#x2019;" horiz-adv-x="610" 
d="M61 1040l158 394h309l-211 -394h-256z" />
    <glyph glyph-name="quotesinglbase" unicode="&#x201a;" horiz-adv-x="489" 
d="M-41 -276l160 393h309l-211 -393h-258z" />
    <glyph glyph-name="quotedblleft" unicode="&#x201c;" horiz-adv-x="1009" 
d="M481 1040l209 394h258l-160 -394h-307zM82 1040l209 394h258l-160 -394h-307z" />
    <glyph glyph-name="quotedblright" unicode="&#x201d;" horiz-adv-x="1009" 
d="M461 1040l160 394h307l-209 -394h-258zM61 1040l158 394h309l-211 -394h-256z" />
    <glyph glyph-name="quotedblbase" unicode="&#x201e;" horiz-adv-x="888" 
d="M-41 -276l160 393h309l-211 -393h-258zM360 -276l158 393h309l-209 -393h-258z" />
    <glyph glyph-name="dagger" unicode="&#x2020;" horiz-adv-x="1009" 
d="M332 0v821h-230v328h230v285h346v-285h229v-328h-229v-821h-346z" />
    <glyph glyph-name="daggerdbl" unicode="&#x2021;" horiz-adv-x="1009" 
d="M332 0v285h-230v327h230v209h-230v328h230v285h346v-285h229v-328h-229v-209h229v-327h-229v-285h-346z" />
    <glyph glyph-name="bullet" unicode="&#x2022;" horiz-adv-x="716" 
d="M358 262q-106 0 -181 75t-75 181t75 181t181 75t181 -75t75 -181t-75 -181t-181 -75z" />
    <glyph glyph-name="perthousand" unicode="&#x2030;" horiz-adv-x="2578" 
d="M252 0l983 1434h274l-983 -1434h-274zM82 1098q0 151 105.5 256.5t254.5 105.5q150 0 256.5 -106t106.5 -256q0 -149 -107 -255t-256 -106t-254.5 106t-105.5 255zM319 1098q0 -51 36 -87t87 -36q52 0 88.5 36t36.5 87q0 52 -36.5 88.5t-88.5 36.5q-51 0 -87 -36.5
t-36 -88.5zM956 334q0 150 106 256t255 106q151 0 256.5 -105.5t105.5 -256.5q0 -150 -105.5 -255.5t-256.5 -105.5q-149 0 -255 106t-106 255zM1194 334q0 -51 36 -87t87 -36q52 0 88.5 36t36.5 87q0 52 -36 88.5t-89 36.5q-51 0 -87 -36.5t-36 -88.5zM1774 334
q0 151 105.5 256.5t254.5 105.5q151 0 257 -105.5t106 -256.5q0 -149 -106 -255t-257 -106q-149 0 -254.5 106t-105.5 255zM2011 334q0 -51 36 -87t87 -36q52 0 88.5 36t36.5 87q0 52 -36.5 88.5t-88.5 36.5q-51 0 -87 -36.5t-36 -88.5z" />
    <glyph glyph-name="guilsinglleft" unicode="&#x2039;" horiz-adv-x="784" 
d="M367 217l-285 393l285 394h335l-284 -394l284 -393h-335z" />
    <glyph glyph-name="guilsinglright" unicode="&#x203a;" horiz-adv-x="784" 
d="M82 217l285 393l-285 394h336l284 -394l-284 -393h-336z" />
    <glyph glyph-name="Euro" unicode="&#x20ac;" horiz-adv-x="1636" 
d="M930 -25q-252 0 -450.5 150.5t-266.5 384.5h-193v164h164v43v41h-164v166h193q68 234 266 383t451 149q189 0 351 -86.5t265 -236.5l-303 -203q-54 75 -136 118.5t-177 43.5q-98 0 -183 -45.5t-137 -122.5h545v-166h-604q-2 -12 -2 -41t2 -43h604v-164h-545
q52 -78 137 -124t183 -46q100 0 184.5 47.5t136.5 128.5l303 -205q-101 -155 -266.5 -245.5t-357.5 -90.5z" />
    <glyph glyph-name="uni20BD" unicode="&#x20bd;" horiz-adv-x="1277" 
d="M166 0v197h-141v163h141v74h-146v330h146v670h493q165 0 290 -58.5t196.5 -174t71.5 -275.5q0 -239 -152 -365.5t-406 -126.5h-129v-74h408v-163h-408v-197h-364zM530 764h129q87 0 137 43t50 119q0 75 -50 117t-137 42h-129v-321z" />
    <glyph glyph-name="uni20BF" unicode="&#x20bf;" horiz-adv-x="1239" 
d="M283 -252v252h-181v1434h181v252h200v-252h105v252h200v-273q153 -35 241.5 -126.5t88.5 -233.5q0 -173 -129 -289q189 -113 189 -330q0 -169 -106.5 -279t-283.5 -143v-264h-200v252h-105v-252h-200zM467 309h178q83 0 123.5 36t40.5 99q0 60 -41 97t-123 37h-178v-269z
M467 891h131q154 0 154 117q0 114 -154 114h-131v-231z" />
    <glyph glyph-name="uni2116" unicode="&#x2116;" horiz-adv-x="2330" 
d="M102 0v1434h387l539 -854v854h365v-1434h-389l-537 854v-854h-365zM1528 981q0 151 106.5 258t257.5 107q152 0 259.5 -107t107.5 -258q0 -152 -107.5 -259.5t-259.5 -107.5q-151 0 -257.5 107.5t-106.5 259.5zM1559 283v235h667v-235h-667zM1763 981q0 -54 37.5 -91.5
t91.5 -37.5t91.5 37.5t37.5 91.5q0 53 -37.5 91t-91.5 38t-91.5 -38t-37.5 -91z" />
    <glyph glyph-name="minus" unicode="&#x2212;" horiz-adv-x="1132" 
d="M164 436v348h805v-348h-805z" />
    <glyph glyph-name="approxequal" unicode="&#x2248;" horiz-adv-x="1257" 
d="M866 571q-42 0 -78.5 7t-71.5 24.5t-52.5 27t-54 36t-42.5 30.5q-8 6 -33.5 25t-36.5 26t-31.5 15t-39.5 8q-83 0 -117 -108l-227 75q19 75 46 136t64 112t87.5 79t109.5 28q35 0 68.5 -7t54.5 -13t52.5 -24.5t40 -24t40.5 -29.5t33 -25q94 -70 160 -70q81 0 110 117
l228 -105q-13 -49 -27 -89t-40.5 -89t-58 -82.5t-79.5 -56.5t-105 -23zM82 281q19 75 46 136t64 111.5t87.5 78.5t109.5 28q35 0 68.5 -7t54.5 -13t52.5 -24.5t40 -24t40.5 -29.5t33 -25q6 -5 28 -22t33.5 -25t31 -19.5t38 -16.5t37.5 -5q25 0 43.5 10t30 29t17 32.5
t11.5 34.5l228 -75q-13 -49 -27 -89t-40.5 -89t-58 -82.5t-79.5 -56.5t-105 -23q-42 0 -78.5 7t-71.5 24.5t-52.5 27t-54 36t-42.5 30.5q-6 5 -26.5 20t-28 19.5t-23 13t-29 11.5t-28.5 3q-37 0 -70.5 -31.5t-52.5 -97.5z" />
    <glyph glyph-name="notequal" unicode="&#x2260;" horiz-adv-x="1124" 
d="M166 88l80 150h-123v309h287l65 127h-352v309h516l80 150h239l-77 -150h120v-309h-284l-68 -127h352v-309h-516l-77 -150h-242z" />
    <glyph glyph-name="lessequal" unicode="&#x2264;" horiz-adv-x="1015" 
d="M893 326l-770 286v269l770 284v-291l-381 -126l381 -132v-290zM123 0v293h770v-293h-770z" />
    <glyph glyph-name="greaterequal" unicode="&#x2265;" horiz-adv-x="1015" 
d="M123 326v290l381 132l-381 126v291l770 -284v-269zM123 0v293h770v-293h-770z" />
    <glyph glyph-name="uniE000" unicode="&#xe000;" horiz-adv-x="1187" 
d="M641 -23q-15 0 -82 5v319q103 -8 171.5 28t68.5 120q0 62 -51 97.5t-144 35.5h-45v303h8q68 0 103 35.5t35 95.5q0 56 -37.5 93.5t-102.5 37.5t-105 -51t-40 -138v-958h-328v958q0 126 36.5 223.5t101.5 157t148.5 89.5t182.5 30q126 0 228.5 -47t164.5 -138.5t62 -211.5
q0 -172 -121 -275q107 -56 169 -148.5t62 -211.5q0 -113 -37.5 -200.5t-104.5 -141t-153.5 -80.5t-189.5 -27z" />
    <glyph glyph-name="uni004A0301" horiz-adv-x="1071" 
d="M489 -25q-192 0 -323 105.5t-146 273.5l345 97q5 -49 36 -80t88 -31t86 40.5t29 106.5v947h365v-947q0 -90 -15.5 -164t-42 -126.5t-64.5 -92.5t-79.5 -64t-90.5 -39t-94 -20.5t-94 -5.5zM664 1536l135 285h323l-196 -285h-262z" />
    <glyph glyph-name="i.loclTRK" horiz-adv-x="522" 
d="M96 0v1038h330v-1038h-330zM100 1315q0 67 47 114.5t113 47.5t113 -47.5t47 -114.5q0 -66 -47 -113t-113 -47t-113 47t-47 113z" />
    <glyph glyph-name="uni006A0301" horiz-adv-x="526" 
d="M-41 -170q156 0 156 162v1046h329v-1046q0 -263 -112.5 -371t-372.5 -108v317zM150 1147l135 285h323l-196 -285h-262z" />
    </font>
</defs>
</svg>
